<svg width="450" height="300" viewBox="0 0 450 300" fill="none" xmlns="http://www.w3.org/2000/svg">
<rect width="450" height="300" fill="#C4C4C4"/>
<path d="M141.256 156.798L147.926 146.586C148.892 144.838 149.812 143.09 150.64 141.342H150.824C150.732 143.228 150.594 146.08 150.594 147.92V156.798H141.256ZM150.594 170H155.562V160.892H159.84V156.798H155.562V136.098H149.398L135.92 157.35V160.892H150.594V170ZM173.562 170.598C179.496 170.598 184.97 166.366 184.97 158.868C184.97 151.462 180.324 148.104 174.666 148.104C172.826 148.104 171.492 148.564 170.02 149.3L170.802 140.606H183.36V136.098H166.202L165.19 152.198L167.766 153.9C169.744 152.612 171.032 151.968 173.194 151.968C177.058 151.968 179.634 154.544 179.634 159.052C179.634 163.56 176.736 166.274 172.918 166.274C169.376 166.274 166.938 164.572 165.006 162.64L162.476 166.09C164.868 168.436 168.226 170.598 173.562 170.598ZM200.579 170.598C207.203 170.598 211.527 164.71 211.527 152.934C211.527 141.25 207.203 135.5 200.579 135.5C193.955 135.5 189.631 141.204 189.631 152.934C189.631 164.71 193.955 170.598 200.579 170.598ZM200.579 166.412C197.129 166.412 194.691 162.732 194.691 152.934C194.691 143.228 197.129 139.686 200.579 139.686C204.029 139.686 206.467 143.228 206.467 152.934C206.467 162.732 204.029 166.412 200.579 166.412ZM221.017 149.392L224.835 144.93L228.653 149.392L231.045 147.644L228.055 142.63L233.253 140.422L232.333 137.616L226.813 138.904L226.307 133.154H223.317L222.811 138.904L217.291 137.616L216.371 140.422L221.569 142.63L218.625 147.644L221.017 149.392ZM248.312 170.598C254.522 170.598 259.628 167.01 259.628 160.892C259.628 156.338 256.546 153.394 252.636 152.428V152.198C256.224 150.864 258.478 148.15 258.478 144.24C258.478 138.674 254.2 135.5 248.128 135.5C244.218 135.5 241.09 137.202 238.422 139.594L241.182 142.906C243.114 141.02 245.322 139.778 247.944 139.732C251.164 139.778 253.142 141.618 253.142 144.608C253.142 148.012 250.934 150.542 244.264 150.542V154.452C251.9 154.452 254.292 156.89 254.292 160.616C254.292 164.158 251.67 166.274 247.852 166.274C244.356 166.274 241.826 164.572 239.848 162.548L237.272 165.952C239.526 168.482 242.976 170.598 248.312 170.598ZM275.329 170.598C281.953 170.598 286.277 164.71 286.277 152.934C286.277 141.25 281.953 135.5 275.329 135.5C268.705 135.5 264.381 141.204 264.381 152.934C264.381 164.71 268.705 170.598 275.329 170.598ZM275.329 166.412C271.879 166.412 269.441 162.732 269.441 152.934C269.441 143.228 271.879 139.686 275.329 139.686C278.779 139.686 281.217 143.228 281.217 152.934C281.217 162.732 278.779 166.412 275.329 166.412ZM301.563 170.598C308.187 170.598 312.511 164.71 312.511 152.934C312.511 141.25 308.187 135.5 301.563 135.5C294.939 135.5 290.615 141.204 290.615 152.934C290.615 164.71 294.939 170.598 301.563 170.598ZM301.563 166.412C298.113 166.412 295.675 162.732 295.675 152.934C295.675 143.228 298.113 139.686 301.563 139.686C305.013 139.686 307.451 143.228 307.451 152.934C307.451 162.732 305.013 166.412 301.563 166.412Z" fill="black"/>
</svg>
