<svg width="74" height="83" viewBox="0 0 74 83" fill="none" xmlns="http://www.w3.org/2000/svg">
<path d="M43.6094 82.7998H7.13905C3.22277 82.7998 0 79.4547 0 75.3344V7.53377C0 3.41352 3.18198 0.0683594 7.13905 0.0683594H45.9755C49.8918 0.0683594 53.1146 3.41352 53.1146 7.53377V20.4657C53.1146 21.6487 52.1763 22.587 50.9932 22.587C49.8102 22.587 48.8719 21.6487 48.8719 20.4657V7.53377C48.8719 5.73881 47.5665 4.2702 45.9755 4.2702H7.13905C5.54807 4.2702 4.24265 5.73881 4.24265 7.53377V75.3344C4.24265 77.1294 5.54807 78.598 7.13905 78.598H43.6094C44.7925 78.598 45.7307 79.5362 45.7307 80.7193C45.7307 81.9023 44.7517 82.7998 43.6094 82.7998Z" fill="black"/>
<path d="M25.6195 64.401C21.2544 64.401 17.7461 60.8519 17.7461 56.5277C17.7461 52.1626 21.2952 48.6543 25.6195 48.6543C29.9845 48.6543 33.4928 52.2034 33.4928 56.5277C33.4928 60.8927 29.9845 64.401 25.6195 64.401ZM25.6195 52.1626C23.2126 52.1626 21.2544 54.1208 21.2544 56.5277C21.2544 58.9345 23.2126 60.8927 25.6195 60.8927C28.0263 60.8927 29.9845 58.9345 29.9845 56.5277C29.9845 54.1208 28.0263 52.1626 25.6195 52.1626Z" fill="black"/>
<path d="M31.61 33.7648H13.4156C12.3958 33.7648 11.5391 32.9081 11.5391 31.8883C11.5391 30.8684 12.3958 30.0117 13.4156 30.0117H31.61C32.6299 30.0117 33.4866 30.8684 33.4866 31.8883C33.4866 32.9081 32.6707 33.7648 31.61 33.7648Z" fill="black"/>
<path d="M31.61 39.1086H13.4156C12.3958 39.1086 11.5391 38.2519 11.5391 37.232C11.5391 36.2122 12.3958 35.3555 13.4156 35.3555H31.61C32.6299 35.3555 33.4866 36.2122 33.4866 37.232C33.4866 38.2519 32.6707 39.1086 31.61 39.1086Z" fill="black"/>
<path d="M31.61 44.6974H13.4156C12.3958 44.6974 11.5391 43.8408 11.5391 42.8209C11.5391 41.801 12.3958 40.9443 13.4156 40.9443H31.61C32.6299 40.9443 33.4866 41.801 33.4866 42.8209C33.4866 43.8408 32.6707 44.6974 31.61 44.6974Z" fill="black"/>
<path d="M43.2423 65.422C52.5923 65.422 60.172 57.8423 60.172 48.4923C60.172 39.1422 52.5923 31.5625 43.2423 31.5625C33.8922 31.5625 26.3125 39.1422 26.3125 48.4923C26.3125 57.8423 33.8922 65.422 43.2423 65.422Z" fill="white"/>
<path d="M43.2442 67.5851C32.7192 67.5851 24.1523 59.0182 24.1523 48.4932C24.1523 37.9682 32.7192 29.4014 43.2442 29.4014C53.7692 29.4014 62.3361 37.9682 62.3361 48.4932C62.3361 59.0182 53.81 67.5851 43.2442 67.5851ZM43.2442 33.7664C35.1261 33.7664 28.5174 40.3751 28.5174 48.4932C28.5174 56.6114 35.1261 63.2201 43.2442 63.2201C51.3623 63.2201 58.0119 56.6114 58.0119 48.4932C58.0119 40.3751 51.4031 33.7664 43.2442 33.7664Z" fill="black"/>
<path d="M70.0011 78.0676C69.4708 78.0676 68.9405 77.8636 68.5733 77.4557L55.6822 64.5646C55.3151 64.1974 55.0703 63.6671 55.0703 63.1368C55.0703 62.6064 55.2743 62.0761 55.6822 61.709L57.5996 59.7916C58.4155 58.9757 59.6801 58.9757 60.496 59.7916L73.3871 72.6827C73.7542 73.0498 73.999 73.5802 73.999 74.1105C73.999 74.6408 73.795 75.1712 73.3871 75.5383L71.4697 77.4557C71.021 77.8636 70.4907 78.0676 70.0011 78.0676Z" fill="black"/>
</svg>
