<svg width="77" height="84" viewBox="0 0 77 84" fill="none" xmlns="http://www.w3.org/2000/svg">
<path d="M38.2759 57.5239C38.0879 57.5239 37.9375 57.3735 37.9375 57.1855V52.0347C37.9375 51.8467 38.0879 51.6963 38.2759 51.6963C38.4639 51.6963 38.6143 51.8467 38.6143 52.0347V57.1855C38.6519 57.3735 38.5015 57.5239 38.2759 57.5239Z" fill="black"/>
<path d="M38.2769 59.4038C37.0361 59.4038 36.0586 58.3887 36.0586 57.1855V52.0347C36.0586 50.794 37.0737 49.8164 38.2769 49.8164C39.48 49.8164 40.4951 50.8316 40.4951 52.0347V57.1855C40.5327 58.4263 39.5176 59.4038 38.2769 59.4038Z" fill="black"/>
<path d="M38.3848 52.1875C40.2951 52.1875 41.8437 50.6389 41.8437 48.7285C41.8437 46.8182 40.2951 45.2695 38.3848 45.2695C36.4744 45.2695 34.9258 46.8182 34.9258 48.7285C34.9258 50.6389 36.4744 52.1875 38.3848 52.1875Z" fill="black"/>
<path d="M38.3857 54.0664C35.4531 54.0664 33.0469 51.6601 33.0469 48.7275C33.0469 45.7949 35.4531 43.3887 38.3857 43.3887C41.3184 43.3887 43.7246 45.7949 43.7246 48.7275C43.7246 51.6601 41.3184 54.0664 38.3857 54.0664ZM38.3857 47.186C37.521 47.186 36.8066 47.9004 36.8066 48.7651C36.8066 49.6299 37.521 50.3442 38.3857 50.3442C39.2505 50.3442 39.9648 49.6299 39.9648 48.7651C39.9648 47.9004 39.2505 47.186 38.3857 47.186Z" fill="black"/>
<path d="M38.5 83.0908C17.2573 83.0908 0 65.8335 0 44.5908V26.2432C0 25.1904 0.827149 24.3633 1.87988 24.3633H75.1201C76.1729 24.3633 77 25.1904 77 26.2432V44.5908C77 65.8335 59.7427 83.0908 38.5 83.0908ZM3.79736 28.123V44.5908C3.79736 63.728 19.3628 79.3311 38.5376 79.3311C57.7124 79.3311 73.2778 63.7656 73.2778 44.5908V28.123H3.79736V28.123ZM38.5 75.5713C21.4307 75.5713 7.51953 61.6602 7.51953 44.5908V33.7627C7.51953 32.71 8.34668 31.8828 9.39941 31.8828H67.6006C68.6533 31.8828 69.4805 32.71 69.4805 33.7627V44.5908C69.4805 61.6602 55.6069 75.5713 38.5 75.5713ZM11.3169 35.6426V44.5908C11.3169 59.5923 23.5361 71.8115 38.5376 71.8115C53.5391 71.8115 65.7583 59.5923 65.7583 44.5908V35.6426H11.3169V35.6426Z" fill="black"/>
<path d="M67.2254 28.123C66.3231 28.123 65.5335 27.4839 65.3831 26.5439C64.3304 20.2651 61.097 14.5127 56.2093 10.3018C51.284 6.09082 45.0052 3.75976 38.5384 3.75976C32.0716 3.75976 25.8304 6.05322 20.9051 10.2642C16.055 14.3999 12.784 20.1523 11.6937 26.3936C11.5057 27.4087 10.5657 28.123 9.513 27.9351C8.49787 27.7471 7.78351 26.8071 7.9715 25.7544C9.17462 18.6484 12.8968 12.1064 18.4236 7.40674C24.0257 2.63183 31.1317 0 38.5008 0C45.8699 0 53.0135 2.63184 58.6531 7.44434C64.2176 12.1816 67.9022 18.7612 69.0677 25.9048C69.2181 26.9199 68.5413 27.8975 67.5262 28.0478C67.4134 28.123 67.3006 28.123 67.2254 28.123Z" fill="black"/>
</svg>
