<svg width="62" height="81" viewBox="0 0 62 81" fill="none" xmlns="http://www.w3.org/2000/svg">
<path d="M31.3664 80.9858C26.6028 80.9858 20.74 78.8971 13.961 74.7931C8.64776 71.5685 4.14066 67.9042 1.90543 66.0354C0.696211 65.0094 0 63.507 0 61.9314V9.56849C0 8.68906 0.366426 7.84627 1.026 7.25998C1.72222 6.63705 2.63829 6.3439 3.55437 6.45383C6.85224 6.82026 15.9764 7.00349 29.0213 0.554315C30.487 -0.178546 32.2092 -0.178548 33.6749 0.51767C46.6832 6.74698 55.5142 6.6737 58.7021 6.38055C59.5449 6.30727 60.4244 6.56377 61.0473 7.15006C61.6702 7.69971 62 8.50585 62 9.312V62.1146C62 63.5437 61.3771 64.8995 60.2778 65.8522C58.1158 67.721 53.7187 71.3853 48.552 74.6465C41.8463 78.8238 36.0567 80.9858 31.3664 80.9858ZM3.70095 10.1181V61.8947C3.70095 62.3711 3.9208 62.8841 4.32387 63.2139C19.6773 76.2588 28.9114 77.2848 31.3664 77.2848C38.9515 77.2848 50.0177 69.9562 57.8593 63.104C58.1525 62.8475 58.3357 62.481 58.3357 62.1146V10.0815C54.3416 10.338 45.0709 10.0449 32.0993 3.81554C31.6596 3.59568 31.1099 3.59568 30.6702 3.81554C17.3688 10.4113 7.69504 10.4846 3.70095 10.1181Z" fill="black"/>
<path d="M31.0005 57.6436C21.5466 57.6436 13.8516 49.9486 13.8516 40.4946C13.8516 31.0407 21.5466 23.3457 31.0005 23.3457C40.4544 23.3457 48.1494 31.0407 48.1494 40.4946C48.1861 49.9486 40.4911 57.6436 31.0005 57.6436ZM31.0005 27.2665C23.7085 27.2665 17.7724 33.2027 17.7724 40.4946C17.7724 47.7866 23.7085 53.7228 31.0005 53.7228C38.2925 53.7228 44.2286 47.7866 44.2286 40.4946C44.2286 33.2027 38.3291 27.2665 31.0005 27.2665Z" fill="black"/>
<path d="M29.5731 45.2967C28.8402 44.6004 28.8402 43.4279 29.5731 42.695L46.3556 25.8026C47.0518 25.0697 48.2244 25.0697 48.9573 25.8026C49.6901 26.4988 49.6901 27.6714 48.9573 28.4042L32.1747 45.2967C31.4419 46.0295 30.2693 46.0295 29.5731 45.2967Z" fill="#040000"/>
<path d="M32.1369 45.2965C31.4406 46.0294 30.2681 46.0294 29.5352 45.2965L21.034 36.832C20.3012 36.1357 20.3012 34.9632 21.034 34.2303C21.7302 33.4974 22.9028 33.4974 23.6357 34.2303L32.1735 42.6949C32.8697 43.4277 32.8697 44.6003 32.1369 45.2965Z" fill="#040000"/>
</svg>
