<svg width="95" height="81" viewBox="0 0 95 81" fill="none" xmlns="http://www.w3.org/2000/svg">
<path d="M70.4815 42.8835V37.9652C70.4815 37.1323 69.8072 36.458 68.9743 36.458L65.7219 36.4183C65.0476 36.4183 64.4526 35.982 64.294 35.3077C63.937 34.1178 63.461 32.9676 62.8661 31.8967C62.5488 31.3017 62.6281 30.5878 63.1041 30.1118L65.4046 27.7717C65.9995 27.1767 65.9995 26.2248 65.4046 25.6298L61.9142 22.1394C61.3192 21.5445 60.3673 21.5445 59.7723 22.1394L57.4322 24.4399C56.9562 24.9159 56.2423 24.9952 55.6473 24.6779C54.5764 24.083 53.4262 23.607 52.2363 23.25C51.6016 23.0517 51.1653 22.4964 51.1257 21.8221L51.086 18.5697C51.086 17.7368 50.4117 17.0625 49.5788 17.0625H44.6605C43.8276 17.0625 43.1533 17.7368 43.1533 18.5697L43.1136 21.8221C43.1136 22.4964 42.6773 23.0914 42.0031 23.25C40.8131 23.607 39.6629 24.083 38.592 24.6779C37.997 24.9952 37.2831 24.9159 36.8071 24.4399L34.467 22.1394C33.872 21.5445 32.9201 21.5445 32.3251 22.1394L28.8347 25.6298C28.2398 26.2248 28.2398 27.1767 28.8347 27.7717L31.1352 30.1118C31.6112 30.5878 31.6905 31.3017 31.3732 31.8967C30.7783 32.9676 30.3023 34.1178 29.9453 35.3077C29.747 35.9424 29.1917 36.3787 28.5174 36.4183L25.265 36.458C24.4321 36.458 23.7578 37.1323 23.7578 37.9652V42.8835C23.7578 43.7164 24.4321 44.3907 25.265 44.3907L28.5174 44.4304C29.1917 44.4304 29.7867 44.8667 29.9453 45.5409C30.3023 46.7308 30.7783 47.8811 31.3732 48.952C31.6905 49.547 31.6112 50.2609 31.1352 50.7369L28.8347 53.077C28.2398 53.672 28.2398 54.6239 28.8347 55.2189L32.3251 58.7092C32.9201 59.3042 33.872 59.3042 34.467 58.7092L36.8071 56.4088C37.2831 55.9328 37.997 55.8535 38.592 56.1708C39.6629 56.7657 40.8131 57.2417 42.0031 57.5987C42.6377 57.797 43.074 58.3523 43.1136 59.0266L43.1533 62.279C43.1533 63.1119 43.8276 63.7862 44.6605 63.7862H49.5788C50.4117 63.7862 51.086 63.1119 51.086 62.279L51.1257 59.0266C51.1257 58.3523 51.562 57.7573 52.2363 57.5987C53.4262 57.2417 54.5764 56.7657 55.6473 56.1708C56.2423 55.8535 56.9562 55.9328 57.4322 56.4088L59.7723 58.7092C60.3673 59.3042 61.3192 59.3042 61.9142 58.7092L65.4046 55.2189C65.9995 54.6239 65.9995 53.672 65.4046 53.077L63.1041 50.7369C62.6281 50.2609 62.5488 49.547 62.8661 48.952C63.461 47.8811 63.937 46.7308 64.294 45.5409C64.4923 44.9063 65.0476 44.47 65.7219 44.4304L68.9743 44.3907C69.8072 44.3907 70.4815 43.7164 70.4815 42.8835ZM47.1197 52.958C40.2182 52.958 34.6256 47.3258 34.6256 40.464C34.6256 33.6022 40.2579 27.97 47.1197 27.97C53.9815 27.97 59.6137 33.6022 59.6137 40.464C59.6137 47.3258 54.0211 52.958 47.1197 52.958Z" fill="black"/>
<path d="M93.683 45.7389L87.2178 38.7581C86.4642 37.9648 85.2346 37.9252 84.4017 38.6391L77.4209 45.1043C76.6276 45.8579 76.588 47.0875 77.3019 47.9204C78.0555 48.7137 79.2851 48.7533 80.118 48.0394L83.4498 44.906C81.2286 62.9925 65.7598 77.0334 47.0783 77.0334C37.916 77.0334 29.2693 73.7017 22.5265 67.5935C21.7332 66.8796 20.5433 66.9192 19.8294 67.6332L19.7897 67.6728C18.9965 68.4661 19.0361 69.775 19.8691 70.5286C27.3258 77.2714 36.9244 80.9998 47.0783 80.9998C67.9413 80.9998 85.195 65.174 87.4558 44.8663L90.7479 48.3964C91.5015 49.1896 92.731 49.2293 93.564 48.5153C94.3969 47.8014 94.4366 46.5322 93.683 45.7389Z" fill="black"/>
<path d="M0.632173 38.9566L7.61296 45.3821C8.40623 46.1357 9.67547 46.0564 10.4291 45.2631L16.8546 38.2823C17.6082 37.489 17.5289 36.2198 16.7356 35.4662C15.9423 34.7126 14.6731 34.7919 13.9195 35.5852L10.8257 38.9566C11.6586 20.751 25.9772 5.55986 44.5794 4.09231C53.702 3.37837 62.5867 6.03583 69.8054 11.5887C70.6384 12.2233 71.8283 12.1044 72.5026 11.3111L72.5422 11.2714C73.2562 10.3988 73.1372 9.12959 72.2249 8.45531C64.2525 2.30745 54.416 -0.667315 44.3018 0.125956C23.518 1.79183 7.53363 18.9265 6.85935 39.3136L3.28963 36.0215C2.49636 35.2679 1.22713 35.3472 0.473519 36.1405C-0.200762 36.9734 -0.161098 38.2426 0.632173 38.9566Z" fill="black"/>
</svg>
