<svg width="64" height="21" viewBox="0 0 64 21" fill="none" xmlns="http://www.w3.org/2000/svg">
<path d="M0 3C0 1.34315 1.34315 0 3 0H61C62.6569 0 64 1.34315 64 3V21H0V3Z" fill="#002C59"/>
<path d="M23.9481 13.8019C23.9481 13.3619 24.4541 12.9989 25.3891 12.9989C25.7301 12.9989 26.0711 13.0319 26.3901 13.0979C26.4011 13.3399 26.4011 13.5599 26.4011 13.7139C26.4011 14.4179 25.9281 14.6049 25.3121 14.6049C24.3661 14.6049 23.9481 14.2749 23.9481 13.8019ZM27.4131 6.20093H26.2361C26.2801 6.37693 26.2911 6.70693 26.2911 6.89393C26.2911 7.08093 26.2911 7.31193 26.2911 7.56493C26.1371 7.56493 25.9721 7.56493 25.8181 7.56493C25.1141 7.56493 23.7941 7.45493 23.0571 7.32293L23.0681 8.32393C23.7831 8.41193 25.1031 8.52193 25.8291 8.52193C25.9831 8.52193 26.1371 8.52193 26.2801 8.52193C26.2801 8.96193 26.2801 9.42393 26.2801 9.87493C26.0931 9.87493 25.9061 9.87493 25.7191 9.87493C25.0481 9.87493 23.7501 9.79793 23.0021 9.67693L23.0131 10.7109C23.7721 10.7989 24.9931 10.8539 25.6971 10.8539C25.9061 10.8539 26.1041 10.8539 26.3021 10.8539C26.3131 11.2609 26.3351 11.7119 26.3461 12.1409C26.0821 12.1189 25.8181 12.0969 25.5321 12.0969C23.8931 12.0969 22.9141 12.8119 22.9141 13.8679C22.9141 14.9679 23.8051 15.5839 25.4551 15.5839C26.8961 15.5839 27.5011 14.8249 27.5011 13.9889C27.5011 13.8349 27.4901 13.6479 27.4791 13.4169C28.4801 13.8239 29.3161 14.4509 29.9431 15.0229L30.5811 14.0439C29.9431 13.5269 28.8541 12.7569 27.4241 12.3609C27.4021 11.8659 27.3691 11.3379 27.3471 10.8319C28.4031 10.7879 29.3161 10.7109 30.3281 10.5899L30.3391 9.56693C29.3821 9.69893 28.4141 9.79793 27.3251 9.84193C27.3251 9.48993 27.3251 8.97293 27.3251 8.47793C28.3921 8.43393 29.4151 8.33493 30.2291 8.23593V7.22393C29.2501 7.38893 28.2821 7.48793 27.3361 7.53193C27.3471 7.28993 27.3471 7.08093 27.3581 6.94893C27.3691 6.64093 27.3911 6.39893 27.4131 6.20093Z" fill="white"/>
<path d="M35.4871 6.35493L34.3981 6.80593C34.9151 7.98293 35.4651 9.22593 35.9711 10.1499C34.8491 10.9419 34.1011 11.8439 34.1011 13.0099C34.1011 14.7699 35.6631 15.3749 37.7861 15.3749C39.1831 15.3749 40.4151 15.2649 41.2841 15.1109L41.2951 13.8569C40.3931 14.0879 38.9191 14.2529 37.7421 14.2529C36.1031 14.2529 35.2781 13.7469 35.2781 12.8889C35.2781 12.0859 35.8941 11.3929 36.8621 10.7549C37.9071 10.0729 39.3701 9.39093 40.0961 9.01693C40.4481 8.84093 40.7561 8.67593 41.0421 8.49993L40.4371 7.49893C40.1841 7.70793 39.9201 7.87293 39.5571 8.08193C38.9851 8.40093 37.8961 8.93993 36.9281 9.52293C36.4661 8.66493 35.9271 7.54293 35.4871 6.35493Z" fill="white"/>
<path d="M50.5021 6.43193L49.3031 6.32193C49.3141 6.57493 49.2811 6.99293 49.2261 7.25693C49.1931 7.47693 49.1491 7.69693 49.0941 7.92793C48.1701 7.96093 47.2901 8.16993 46.3991 8.66493C46.3111 8.38993 46.2341 8.12593 46.1681 7.88393C46.0911 7.56493 46.0031 7.20193 45.9371 6.88293L44.7931 7.23493C44.9581 7.57593 45.0901 7.92793 45.2001 8.30193C45.2991 8.60993 45.3981 8.93993 45.5081 9.25893C44.5071 10.1059 43.8471 11.4369 43.8471 12.6909C43.8471 14.0439 44.6061 14.7699 45.4751 14.7699C46.2891 14.7699 46.9381 14.3079 47.6421 13.4829C47.7851 13.6699 47.9391 13.8459 48.1041 14.0329L48.9731 13.3289C48.7531 13.1199 48.5331 12.8669 48.3351 12.6029C48.9621 11.6679 49.4901 10.3149 49.8861 8.96193C51.1621 9.23693 51.9651 10.2379 51.9651 11.5799C51.9651 13.1309 50.8321 14.3519 48.4781 14.5609L49.1381 15.5509C51.4591 15.2099 53.0761 13.8789 53.0761 11.6239C53.0761 9.72093 51.8881 8.34593 50.1391 8.00493C50.1941 7.80693 50.2381 7.60893 50.2821 7.41093C50.3371 7.16893 50.4251 6.71793 50.5021 6.43193ZM44.8591 12.6139C44.8591 11.8329 45.2441 10.9199 45.8711 10.2599C46.2011 11.1069 46.5641 11.8989 46.9051 12.4159C46.9491 12.4819 46.9931 12.5479 47.0261 12.6139C46.5751 13.2079 46.0691 13.6589 45.5851 13.6589C45.1341 13.6589 44.8591 13.2519 44.8591 12.6139ZM47.5651 11.5029C47.3011 11.0629 46.9931 10.3479 46.7181 9.59993C47.3561 9.22593 48.0381 8.96193 48.8301 8.90693C48.5221 9.89693 48.1151 10.9089 47.6641 11.6679C47.6311 11.6129 47.5981 11.5579 47.5651 11.5029Z" fill="white"/>
<path fill-rule="evenodd" clip-rule="evenodd" d="M10.8952 12.8634C10.725 12.7307 10.6947 12.4852 10.8274 12.3151L15.8506 5.87449L15.8569 5.86722L16.1527 6.12231C15.8569 5.86722 15.8569 5.86722 15.8569 5.86722L15.8582 5.86575L15.8599 5.86372L15.865 5.85804C15.869 5.85355 15.8743 5.84768 15.8808 5.84054C15.894 5.82629 15.9123 5.80698 15.9356 5.78371C15.982 5.73725 16.0485 5.6745 16.1332 5.60448C16.3014 5.46547 16.5484 5.29207 16.8586 5.1632C17.5004 4.89663 18.3855 4.83677 19.3237 5.56851C19.8153 5.9519 20.1166 6.36233 20.2741 6.7772C20.4316 7.19219 20.4356 7.58596 20.3728 7.92058C20.3105 8.25206 20.1827 8.52661 20.0732 8.71609C20.018 8.81162 19.9661 8.88785 19.9269 8.9415C19.9073 8.96839 19.8907 8.98978 19.8783 9.00529C19.8721 9.01304 19.867 9.01934 19.863 9.02413L14.8373 15.4679L14.8234 15.4824L14.5415 15.2119C14.8234 15.4824 14.8234 15.4824 14.8234 15.4824L14.8226 15.4831L14.8218 15.484L14.82 15.4858L14.8156 15.4903L14.8035 15.5021C14.7941 15.5111 14.7817 15.5225 14.7664 15.5357C14.7361 15.5619 14.6939 15.5956 14.6405 15.6316C14.5343 15.7033 14.3791 15.7873 14.1807 15.8383C13.7637 15.9455 13.2226 15.8893 12.6304 15.4274C12.0382 14.9656 11.852 14.4544 11.8543 14.0239C11.8554 13.819 11.8992 13.6481 11.9428 13.5276C11.9647 13.467 11.9871 13.4179 12.0052 13.3821C12.0142 13.3641 12.0223 13.3493 12.0288 13.3379L12.0372 13.3233L12.0405 13.3179L12.0418 13.3157L12.0424 13.3148C12.0424 13.3148 12.043 13.3139 12.374 13.5213L12.043 13.3139L12.0536 13.2969L16.763 7.2587L17.0711 7.49895C16.763 7.2587 16.763 7.2587 16.763 7.2587L16.7637 7.25786L16.7644 7.25699L16.7658 7.25515L16.7692 7.25104L16.7773 7.24126C16.7835 7.23409 16.791 7.22559 16.8 7.2161C16.818 7.1972 16.8421 7.17378 16.8726 7.14884C16.9328 7.09957 17.023 7.03996 17.1426 7.00136C17.4073 6.91594 17.723 6.96169 18.0427 7.21098C18.3623 7.46028 18.4836 7.75533 18.4652 8.03289C18.4569 8.15829 18.421 8.26031 18.3879 8.33069C18.3712 8.36631 18.3543 8.39547 18.3404 8.41745C18.3333 8.4285 18.3269 8.43791 18.3215 8.44561L18.314 8.45592L18.3108 8.46013L18.3094 8.462L18.3087 8.46287C18.3087 8.46287 18.3081 8.46371 18 8.22346L18.3081 8.46371L14.6251 13.1858C14.4924 13.3559 14.247 13.3863 14.0768 13.2536C13.9067 13.1209 13.8764 12.8754 14.0091 12.7053L17.6817 7.99634C17.6838 7.9916 17.6853 7.98614 17.6856 7.98128C17.6858 7.97895 17.6865 7.97048 17.6778 7.95249C17.6682 7.93275 17.6404 7.88805 17.5622 7.82706C17.484 7.76607 17.4338 7.74995 17.4124 7.74546C17.3932 7.74146 17.3851 7.74408 17.3827 7.74487C17.378 7.74636 17.373 7.7492 17.3689 7.75233L12.7013 13.7369C12.6953 13.749 12.6866 13.7683 12.6774 13.7937C12.6569 13.8503 12.6361 13.9317 12.6356 14.0282C12.6347 14.2005 12.6967 14.4883 13.1109 14.8114C13.5251 15.1344 13.8194 15.1245 13.9863 15.0816C14.0797 15.0576 14.1536 15.0176 14.2035 14.984C14.2259 14.9689 14.2425 14.9557 14.2527 14.947L19.2567 8.53104L19.2617 8.52532L19.2678 8.51775C19.2737 8.5104 19.2834 8.49792 19.296 8.48071C19.3212 8.44616 19.3574 8.39328 19.3967 8.32521C19.4763 8.18748 19.5635 7.99682 19.6049 7.77631C19.6457 7.55893 19.6421 7.31392 19.5437 7.05454C19.4451 6.79504 19.2419 6.49552 18.8432 6.18459C18.1558 5.64843 17.5755 5.71145 17.1583 5.88474C16.9391 5.9758 16.7582 6.10157 16.6309 6.20675C16.5679 6.25882 16.5197 6.30443 16.4884 6.33579C16.4728 6.35144 16.4615 6.3634 16.4548 6.3707L16.4526 6.37311L11.4435 12.7956C11.3108 12.9657 11.0653 12.9961 10.8952 12.8634Z" fill="white"/>
</svg>
