<svg width="62" height="21" viewBox="0 0 62 21" fill="none" xmlns="http://www.w3.org/2000/svg">
<path d="M0 3C0 1.34315 1.34315 0 3 0H59C60.6569 0 62 1.34315 62 3V21H0V3Z" fill="#002C59"/>
<path d="M23.222 15.143C24.267 15.143 25.092 14.725 25.741 13.977L25.059 13.174C24.575 13.702 24.014 14.032 23.266 14.032C21.836 14.032 20.934 12.855 20.934 10.93C20.934 9.027 21.902 7.861 23.299 7.861C23.959 7.861 24.465 8.158 24.883 8.587L25.576 7.773C25.081 7.234 24.289 6.75 23.277 6.75C21.231 6.75 19.625 8.334 19.625 10.974C19.625 13.625 21.187 15.143 23.222 15.143Z" fill="white"/>
<path d="M27.0663 15H28.3313V10.71C28.8593 10.171 29.2443 9.885 29.8053 9.885C30.5203 9.885 30.8283 10.303 30.8283 11.348V15H32.0933V11.194C32.0933 9.654 31.5213 8.796 30.2343 8.796C29.4093 8.796 28.8043 9.247 28.2763 9.753L28.3313 8.554V6.233H27.0663V15Z" fill="white"/>
<path d="M36.4174 15.143C37.2094 15.143 37.9024 14.879 38.4634 14.505L38.0234 13.702C37.5834 13.988 37.1214 14.153 36.5824 14.153C35.5374 14.153 34.8114 13.46 34.7124 12.305H38.6394C38.6724 12.151 38.7054 11.909 38.7054 11.656C38.7054 9.951 37.8364 8.796 36.2304 8.796C34.8224 8.796 33.4694 10.017 33.4694 11.975C33.4694 13.977 34.7784 15.143 36.4174 15.143ZM34.7014 11.425C34.8224 10.369 35.4934 9.786 36.2524 9.786C37.1324 9.786 37.6054 10.391 37.6054 11.425H34.7014Z" fill="white"/>
<path d="M42.5821 15.143C43.2751 15.143 43.9901 14.89 44.5511 14.395L44.0231 13.559C43.6601 13.867 43.2091 14.109 42.7031 14.109C41.7021 14.109 40.9981 13.262 40.9981 11.975C40.9981 10.699 41.7241 9.841 42.7471 9.841C43.1541 9.841 43.4951 10.017 43.8251 10.314L44.4521 9.489C44.0121 9.104 43.4511 8.796 42.6811 8.796C41.0861 8.796 39.6891 9.962 39.6891 11.975C39.6891 13.988 40.9431 15.143 42.5821 15.143Z" fill="white"/>
<path d="M45.8007 15H47.0437V13.427L48.0557 12.261L49.6947 15H51.0697L48.7927 11.414L50.8387 8.95H49.4307L47.0877 11.876H47.0437V6.233H45.8007V15Z" fill="white"/>
<path fill-rule="evenodd" clip-rule="evenodd" d="M18.3795 8.32486L12.8733 14.7671L9.62109 11.0039L10.3777 10.35L12.8691 13.2329L17.6193 7.67514L18.3795 8.32486Z" fill="white"/>
</svg>
