<svg width="281" height="370" viewBox="0 0 281 370" fill="none" xmlns="http://www.w3.org/2000/svg">
<path fill-rule="evenodd" clip-rule="evenodd" d="M137.988 207.032L133.492 198.689L128.996 207.032H0V369.728H279.504V207.032H137.988Z" fill="#F8F8F8"/>
<path fill-rule="evenodd" clip-rule="evenodd" d="M137.988 207.032L133.492 198.689L128.996 207.032H0V369.728H279.504V207.032H137.988ZM278.275 208.261H137.254L133.492 201.279L129.73 208.261H1.22833V368.5H278.275V208.261Z" fill="#0A3D7A"/>
<path d="M85.9202 262.428C86.0185 261.74 86.0971 260.993 86.1954 260.207H89.1434C89.0844 261.072 89.0058 261.819 88.9272 262.428H85.9202ZM84.0532 260.207C83.9549 260.993 83.8566 261.74 83.7584 262.428H80.9479C81.0462 261.721 81.1641 260.974 81.282 260.207H84.0532ZM84.4659 256.001C84.4069 256.689 84.348 257.397 84.2693 258.104H81.5768C81.6751 257.397 81.7537 256.689 81.852 256.001H84.4659ZM86.4312 258.104C86.5098 257.397 86.5688 256.689 86.6277 256.001H89.3989C89.3596 256.748 89.3202 257.456 89.2809 258.104H86.4312ZM94.2139 260.207V258.104H91.6C91.659 257.161 91.6983 256.139 91.7573 254.979C91.7573 254.685 91.7769 253.957 91.7769 253.957H80.0242C80.3583 253.525 80.6924 253.073 80.9872 252.621H93.3492V250.538H82.2254C82.4612 250.086 82.6774 249.614 82.8936 249.142L80.378 248.73C79.6312 250.616 78.2751 252.818 76.1918 254.527C76.7814 254.803 77.6855 255.471 78.1375 256.001C78.7075 255.471 79.2381 254.901 79.7098 254.331C79.5919 255.53 79.4346 256.807 79.2577 258.104H76.0149V260.207H78.9433C78.6485 262.153 78.334 263.981 78.0392 265.415L80.3976 265.573C80.4566 265.238 80.5352 264.865 80.5942 264.472H88.5538C88.4752 264.786 88.3572 265.003 88.259 265.121C88.0428 265.396 87.8659 265.474 87.5121 265.474C87.0601 265.474 86.274 265.455 85.3306 265.356C85.6254 265.848 85.8613 266.595 85.8809 267.086C86.9225 267.145 87.9642 267.164 88.5931 267.066C89.3006 266.968 89.8312 266.791 90.3029 266.143C90.5388 265.828 90.7353 265.317 90.9318 264.472H93.7029V262.428H91.2463C91.3052 261.799 91.3838 261.052 91.4428 260.207H94.2139Z" fill="#0A3D7A"/>
<path d="M100.916 258.949C100.994 258.124 101.034 257.299 101.053 256.552H108.934V258.949H100.916ZM108.934 251.933V254.331H101.053V251.933H108.934ZM111.411 249.653H98.6359V256.119C98.6359 259.107 98.3608 262.86 95.3931 265.396C95.9041 265.73 96.8475 266.595 97.2012 267.086C99.029 265.553 100.012 263.411 100.523 261.21H108.934V264.059C108.934 264.472 108.777 264.629 108.305 264.629C107.873 264.629 106.222 264.649 104.846 264.57C105.22 265.219 105.691 266.339 105.829 267.027C107.853 267.027 109.229 266.988 110.172 266.575C111.076 266.182 111.411 265.514 111.411 264.099V249.653Z" fill="#0A3D7A"/>
<path d="M126.691 265.995C132.926 265.995 138.188 262.502 138.188 256.488C138.188 252.198 135.358 249.457 131.688 248.44V248.219C135.137 246.848 137.127 244.283 137.127 240.746C137.127 235.174 132.838 232.034 126.514 232.034C122.667 232.034 119.527 233.582 116.697 236.058L120.014 240.038C121.959 238.225 123.861 237.164 126.205 237.164C128.99 237.164 130.582 238.667 130.582 241.232C130.582 244.15 128.637 246.229 122.623 246.229V250.872C129.742 250.872 131.644 252.906 131.644 256.09C131.644 259.053 129.388 260.689 126.072 260.689C123.109 260.689 120.721 259.229 118.776 257.328L115.724 261.44C118.024 264.049 121.517 265.995 126.691 265.995Z" fill="#0A3D7A"/>
<path d="M153.659 265.995C160.337 265.995 164.714 260.158 164.714 248.882C164.714 237.606 160.337 232.034 153.659 232.034C146.982 232.034 142.56 237.562 142.56 248.882C142.56 260.158 146.982 265.995 153.659 265.995ZM153.659 260.91C150.829 260.91 148.707 258.08 148.707 248.882C148.707 239.728 150.829 237.075 153.659 237.075C156.489 237.075 158.568 239.728 158.568 248.882C158.568 258.08 156.489 260.91 153.659 260.91Z" fill="#0A3D7A"/>
<path d="M171.607 257.79C172.039 256.277 172.472 254.626 172.845 253.034H172.943C173.356 254.606 173.749 256.277 174.201 257.79L174.633 259.382H171.174L171.607 257.79ZM166.576 265.376H169.524L170.546 261.642H175.262L176.284 265.376H179.331L174.653 250.813H171.233L166.576 265.376Z" fill="#0A3D7A"/>
<path d="M181.033 265.376H185.18C189.464 265.376 192.216 262.939 192.216 258.045C192.216 253.132 189.464 250.813 185.023 250.813H181.033V265.376ZM183.942 263.037V253.152H184.846C187.558 253.152 189.248 254.488 189.248 258.045C189.248 261.583 187.558 263.037 184.846 263.037H183.942Z" fill="#0A3D7A"/>
<path d="M197.997 257.79C198.429 256.277 198.861 254.626 199.235 253.034H199.333C199.746 254.606 200.139 256.277 200.591 257.79L201.023 259.382H197.564L197.997 257.79ZM192.965 265.376H195.913L196.935 261.642H201.652L202.674 265.376H205.72L201.043 250.813H197.623L192.965 265.376Z" fill="#0A3D7A"/>
<path d="M94.6198 283.568C94.6198 282.703 95.3224 282.001 96.1871 282.001C97.0248 282.001 97.7275 282.703 97.7275 283.568C97.7275 284.406 97.0248 285.108 96.1871 285.108C95.3224 285.108 94.6198 284.406 94.6198 283.568ZM92.9443 283.568C92.9443 283.757 92.9713 283.919 92.9984 284.081C92.4309 284.162 91.8364 284.189 91.458 284.189H78.9462C78.0545 284.189 76.5141 284.081 75.7305 283.973V287.784C76.4061 287.73 77.7032 287.675 78.9462 287.675H91.5121C91.1608 290 90.1339 293.053 88.3504 295.296C86.1615 298.052 83.1078 300.403 77.7572 301.647L80.7028 304.889C85.5129 303.322 89.134 300.647 91.5661 297.404C93.8361 294.404 94.9981 290.216 95.6196 287.567C95.7007 287.324 95.7547 287.054 95.8358 286.757C95.9439 286.784 96.079 286.784 96.1871 286.784C97.9436 286.784 99.4029 285.324 99.4029 283.568C99.4029 281.784 97.9436 280.325 96.1871 280.325C94.4036 280.325 92.9443 281.784 92.9443 283.568Z" fill="#0A3D7A"/>
<path d="M105.186 302.295L107.753 304.511C108.375 304.106 108.969 303.917 109.347 303.781C115.725 301.701 121.319 298.485 125.021 294.053L123.102 290.999C119.643 295.215 113.617 298.674 109.212 299.944V285.892C109.212 284.838 109.32 283.865 109.483 282.811H105.24C105.402 283.595 105.537 284.865 105.537 285.892V300.539C105.537 301.16 105.51 301.62 105.186 302.295Z" fill="#0A3D7A"/>
<path d="M147.856 281.271L145.694 282.163C146.423 283.19 147.261 284.811 147.829 285.919L149.991 284.973C149.477 283.973 148.531 282.271 147.856 281.271ZM151.044 280.055L148.91 280.947C149.639 281.947 150.504 283.541 151.071 284.649L153.233 283.73C152.747 282.784 151.747 281.082 151.044 280.055ZM134.182 300.295C134.182 303.484 135.074 304.97 141.208 304.97C144.126 304.97 147.369 304.7 149.612 304.376L149.72 300.728C147.045 301.241 144.018 301.62 141.181 301.62C138.235 301.62 137.749 301.025 137.749 299.35V292.188C141.559 291.432 145.207 290.702 146.045 290.54C145.288 291.945 143.532 294.404 141.748 295.999L144.721 297.755C146.667 295.864 149.126 292.134 150.315 289.891C150.558 289.405 150.936 288.81 151.18 288.432L148.585 286.405C148.099 286.676 147.45 286.865 146.667 287.054C145.451 287.324 141.667 288.108 137.749 288.838V285.676C137.749 284.73 137.857 283.379 137.992 282.568H133.966C134.101 283.379 134.182 284.757 134.182 285.676V289.513C131.507 290 129.129 290.405 127.831 290.567L128.507 294.107C129.642 293.837 131.777 293.404 134.182 292.918V300.295Z" fill="#0A3D7A"/>
<path d="M160.476 282.838L157.935 285.541C159.908 286.919 163.286 289.864 164.691 291.378L167.448 288.567C165.88 286.919 162.367 284.108 160.476 282.838ZM157.098 300.836L159.368 304.403C163.178 303.754 166.664 302.241 169.393 300.593C173.744 297.971 177.338 294.242 179.392 290.594L177.284 286.784C175.582 290.432 172.069 294.566 167.448 297.296C164.826 298.863 161.313 300.241 157.098 300.836Z" fill="#0A3D7A"/>
<path d="M189.472 300.782C189.472 301.863 189.364 303.484 189.201 304.565H193.417C193.309 303.457 193.174 301.565 193.174 300.782V293.134C196.092 294.134 200.146 295.701 202.929 297.161L204.47 293.431C201.983 292.215 196.795 290.297 193.174 289.243V285.243C193.174 284.135 193.309 282.946 193.417 282.001H189.201C189.391 282.946 189.472 284.298 189.472 285.243V300.782Z" fill="#0A3D7A"/>
<path d="M81.3649 323.908C81.3649 328.114 83.1141 331.258 85.2366 333.341L87.1037 332.516C85.1383 330.393 83.5857 327.681 83.5857 323.908C83.5857 320.134 85.1383 317.422 87.1037 315.3L85.2366 314.474C83.1141 316.557 81.3649 319.702 81.3649 323.908Z" fill="#0A3D7A"/>
<path d="M89.5996 331.376H98.3454V329.037H95.6136V317.206H93.4714C92.5476 317.776 91.5453 318.149 90.091 318.425V320.213H92.7245V329.037H89.5996V331.376Z" fill="#0A3D7A"/>
<path d="M105.359 331.651C108.346 331.651 110.272 329.037 110.272 324.222C110.272 319.446 108.346 316.931 105.359 316.931C102.372 316.931 100.426 319.427 100.426 324.222C100.426 329.037 102.372 331.651 105.359 331.651ZM105.359 329.391C104.101 329.391 103.158 328.173 103.158 324.222C103.158 320.292 104.101 319.191 105.359 319.191C106.617 319.191 107.541 320.292 107.541 324.222C107.541 328.173 106.617 329.391 105.359 329.391Z" fill="#0A3D7A"/>
<path d="M120.981 325.323L126.032 330.374L127.447 328.959L122.396 323.908L127.447 318.857L126.032 317.442L120.981 322.493L115.93 317.442L114.515 318.857L119.566 323.908L114.515 328.959L115.93 330.374L120.981 325.323Z" fill="#0A3D7A"/>
<path d="M136.173 331.651C138.944 331.651 141.283 330.138 141.283 327.544C141.283 325.677 140.025 324.478 138.394 324.045V323.947C139.907 323.338 140.811 322.277 140.811 320.744C140.811 318.307 138.905 316.931 136.094 316.931C134.384 316.931 132.989 317.638 131.731 318.739L133.205 320.508C134.07 319.702 134.915 319.211 135.957 319.211C137.195 319.211 137.902 319.859 137.902 320.96C137.902 322.178 137.038 323.063 134.365 323.063V325.146C137.529 325.146 138.374 325.991 138.374 327.367C138.374 328.585 137.372 329.293 135.898 329.293C134.581 329.293 133.52 328.644 132.655 327.799L131.299 329.627C132.321 330.786 133.873 331.651 136.173 331.651Z" fill="#0A3D7A"/>
<path d="M148.159 331.651C151.146 331.651 153.072 329.037 153.072 324.222C153.072 319.446 151.146 316.931 148.159 316.931C145.171 316.931 143.226 319.427 143.226 324.222C143.226 329.037 145.171 331.651 148.159 331.651ZM148.159 329.391C146.901 329.391 145.958 328.173 145.958 324.222C145.958 320.292 146.901 319.191 148.159 319.191C149.417 319.191 150.34 320.292 150.34 324.222C150.34 328.173 149.417 329.391 148.159 329.391Z" fill="#0A3D7A"/>
<path d="M158.887 323.79C159.319 322.277 159.752 320.626 160.125 319.034H160.223C160.636 320.606 161.029 322.277 161.481 323.79L161.913 325.382H158.454L158.887 323.79ZM153.856 331.376H156.804L157.826 327.642H162.542L163.564 331.376H166.611L161.933 316.813H158.513L153.856 331.376Z" fill="#0A3D7A"/>
<path d="M168.313 331.376H172.46C176.744 331.376 179.496 328.939 179.496 324.045C179.496 319.132 176.744 316.813 172.303 316.813H168.313V331.376ZM171.222 329.037V319.152H172.126C174.838 319.152 176.528 320.488 176.528 324.045C176.528 327.583 174.838 329.037 172.126 329.037H171.222Z" fill="#0A3D7A"/>
<path d="M185.277 323.79C185.709 322.277 186.142 320.626 186.515 319.034H186.613C187.026 320.606 187.419 322.277 187.871 323.79L188.303 325.382H184.844L185.277 323.79ZM180.246 331.376H183.194L184.215 327.642H188.932L189.954 331.376H193.001L188.323 316.813H184.903L180.246 331.376Z" fill="#0A3D7A"/>
<path d="M199.538 323.908C199.538 319.702 197.789 316.557 195.666 314.474L193.799 315.3C195.764 317.422 197.317 320.134 197.317 323.908C197.317 327.681 195.764 330.393 193.799 332.516L195.666 333.341C197.789 331.258 199.538 328.114 199.538 323.908Z" fill="#0A3D7A"/>
<path d="M173.765 120.159H105.469V136.056H173.765V120.159Z" fill="white"/>
<path d="M171.884 135.981H108.922V174.673H171.884V135.981Z" fill="white"/>
<path d="M140.119 58.7461C138.992 58.7461 138.016 59.6459 138.016 60.8457V62.9452C138.016 64.07 138.917 65.0448 140.119 65.0448C141.246 65.0448 142.223 64.145 142.223 62.9452V60.8457C142.223 59.7209 141.322 58.7461 140.119 58.7461Z" fill="#FDD492"/>
<path d="M140.111 36.8516C138.984 36.8516 138.082 37.8264 138.082 38.9511C138.157 43.6002 138.157 48.3242 138.157 53.0483C138.157 54.173 139.059 55.1478 140.186 55.1478C141.313 55.1478 142.29 54.248 142.29 53.1232C142.365 48.3992 142.365 43.6002 142.214 38.8761C142.214 37.7514 141.238 36.8516 140.111 36.8516Z" fill="#FDD492"/>
<path d="M165.349 44.0481C164.372 43.4482 163.094 43.7482 162.493 44.723L152.2 61.8944C151.599 62.8692 151.9 64.144 152.876 64.7439C153.177 64.9688 153.552 65.0438 153.928 65.0438C154.604 65.0438 155.356 64.6689 155.731 64.069L166.025 46.9725C166.701 45.9227 166.325 44.648 165.349 44.0481Z" fill="#FDD492"/>
<path d="M124.78 56.498C124.104 55.2982 123.428 54.0985 122.677 52.8987C122.076 51.9239 120.798 51.624 119.822 52.2239C118.845 52.8238 118.544 54.0985 119.145 55.0733C119.822 56.1981 120.498 57.3978 121.174 58.5226C122.226 60.3972 123.353 62.3468 124.63 64.1464C125.006 64.7463 125.682 65.0463 126.358 65.0463C126.734 65.0463 127.185 64.8963 127.56 64.6713C128.537 63.9965 128.763 62.7217 128.086 61.7469C126.884 60.0973 125.832 58.3726 124.78 56.498Z" fill="#FDD492"/>
<path d="M117.786 44.723C117.185 43.7482 115.908 43.4482 114.931 44.0481C113.954 44.648 113.654 45.9227 114.255 46.8975L115.532 48.9971C115.908 49.6719 116.584 49.9719 117.335 49.9719C117.711 49.9719 118.087 49.8969 118.387 49.6719C119.364 49.072 119.664 47.7973 119.063 46.8225L117.786 44.723Z" fill="#FDD492"/>
<path d="M173.765 64.0699L172.187 65.2696C170.233 66.7693 168.13 68.269 166.176 69.8437C165.275 70.5936 165.124 71.8683 165.876 72.7681C166.251 73.293 166.852 73.518 167.529 73.518C167.979 73.518 168.43 73.368 168.806 73.068C170.684 71.5684 172.713 70.0687 174.666 68.644L176.244 67.4442C177.146 66.7693 177.371 65.4196 176.695 64.5198C175.944 63.545 174.666 63.395 173.765 64.0699Z" fill="#FDD492"/>
<path d="M182.183 57.6977L180.605 58.8975C179.704 59.5723 179.478 60.922 180.23 61.8219C180.605 62.3467 181.282 62.6467 181.883 62.6467C182.333 62.6467 182.784 62.4967 183.16 62.1968L184.738 60.997C185.639 60.3222 185.865 58.9725 185.113 58.0726C184.362 57.1728 183.085 57.0229 182.183 57.6977Z" fill="#FDD492"/>
<path d="M114.113 69.7702L112.761 68.7954C111.859 68.1205 110.507 68.2705 109.83 69.1703C109.154 70.0701 109.304 71.4198 110.206 72.0947L111.558 73.0695C111.934 73.3694 112.385 73.5194 112.836 73.5194C113.437 73.5194 114.113 73.2195 114.489 72.6946C115.165 71.7948 115.015 70.445 114.113 69.7702Z" fill="#FDD492"/>
<path d="M107.28 64.6707C105.852 63.5459 104.274 62.4211 102.847 61.2964C101.269 60.1716 99.6913 58.9719 98.1886 57.7721C97.287 57.0223 96.0097 57.1722 95.2584 58.072C94.5071 58.9719 94.6573 60.2466 95.5589 60.9964C97.1368 62.2712 98.7897 63.4709 100.368 64.5957C101.795 65.6455 103.298 66.7703 104.725 67.895C105.101 68.195 105.552 68.3449 106.003 68.3449C106.604 68.3449 107.205 68.045 107.655 67.5201C108.332 66.6203 108.181 65.3455 107.28 64.6707Z" fill="#FDD492"/>
<path d="M139.941 120.163L167.591 108.241L156.17 95.4932L139.941 120.163Z" fill="#FF7A00"/>
<path d="M114.18 108.237L141.754 120.159L125.525 95.4893L114.18 108.237Z" fill="#FF7A00"/>
<path d="M147.239 118.437H132.738V176.55H147.239V118.437Z" fill="#FF7A00"/>
<path d="M174.887 117.685H105.464C104.111 117.685 102.984 118.81 102.984 120.16V137.181C102.984 138.531 104.111 139.656 105.464 139.656H174.812C176.165 139.656 177.292 138.531 177.292 137.181V120.16C177.367 118.735 176.24 117.685 174.887 117.685ZM172.333 134.632H108.018V122.634H172.408V134.632H172.333Z" fill="#5E6063"/>
<path d="M171.885 134.481H108.923C107.495 134.481 106.293 135.681 106.293 137.105V174.673C106.293 176.097 107.495 177.297 108.923 177.297H171.885C173.312 177.297 174.515 176.097 174.515 174.673V137.105C174.515 135.681 173.312 134.481 171.885 134.481ZM169.255 172.048H111.552V139.73H169.255V172.048Z" fill="#5E6063"/>
<g clip-path="url(#clip0)">
<path fill-rule="evenodd" clip-rule="evenodd" d="M121.638 271.177C123.317 269.498 126.039 269.498 127.718 271.177L128.648 272.107C129.848 273.306 131.792 273.306 132.991 272.107L133.921 271.177C135.6 269.498 138.322 269.498 140.001 271.177L140.932 272.107C142.131 273.306 144.075 273.306 145.274 272.107L146.205 271.177C147.884 269.498 150.606 269.498 152.285 271.177L153.215 272.107C154.414 273.306 156.359 273.306 157.558 272.107L158.488 271.177C160.167 269.498 162.889 269.498 164.568 271.177L165.498 272.107C166.697 273.306 168.642 273.306 169.841 272.107L170.306 271.642L171.175 272.51L170.71 272.976C169.031 274.654 166.309 274.654 164.63 272.976L163.699 272.045C162.5 270.846 160.556 270.846 159.357 272.045L158.426 272.976C156.747 274.654 154.025 274.654 152.346 272.976L151.416 272.045C150.217 270.846 148.273 270.846 147.073 272.045L146.143 272.976C144.464 274.654 141.742 274.654 140.063 272.976L139.133 272.045C137.934 270.846 135.989 270.846 134.79 272.045L133.86 272.976C132.181 274.654 129.459 274.654 127.78 272.976L126.849 272.045C125.65 270.846 123.706 270.846 122.507 272.045L121.576 272.976C119.897 274.654 117.175 274.654 115.496 272.976L115.031 272.51L115.9 271.642L116.365 272.107C117.564 273.306 119.509 273.306 120.708 272.107L121.638 271.177Z" fill="#FF7A00"/>
<path fill-rule="evenodd" clip-rule="evenodd" d="M170.775 271.177C172.454 269.498 175.176 269.498 176.855 271.177L177.785 272.107C178.984 273.306 180.929 273.306 182.128 272.107L183.058 271.177C184.737 269.498 187.459 269.498 189.138 271.177L190.068 272.107C191.268 273.306 193.212 273.306 194.411 272.107L195.341 271.177C197.02 269.498 199.742 269.498 201.421 271.177L202.352 272.107C203.551 273.306 205.495 273.306 206.694 272.107L207.625 271.177C209.304 269.498 212.026 269.498 213.705 271.177L214.635 272.107C215.834 273.306 217.779 273.306 218.978 272.107L219.443 271.642L220.312 272.51L219.846 272.976C218.167 274.654 215.445 274.654 213.766 272.976L212.836 272.045C211.637 270.846 209.693 270.846 208.493 272.045L207.563 272.976C205.884 274.654 203.162 274.654 201.483 272.976L200.553 272.045C199.354 270.846 197.409 270.846 196.21 272.045L195.28 272.976C193.601 274.654 190.879 274.654 189.2 272.976L188.269 272.045C187.07 270.846 185.126 270.846 183.927 272.045L182.996 272.976C181.317 274.654 178.595 274.654 176.916 272.976L175.986 272.045C174.787 270.846 172.843 270.846 171.643 272.045L170.713 272.976C169.034 274.654 166.312 274.654 164.633 272.976L164.168 272.51L165.037 271.642L165.502 272.107C166.701 273.306 168.645 273.306 169.844 272.107L170.775 271.177Z" fill="#FF7A00"/>
</g>
<defs>
<clipPath id="clip0">
<rect width="90.8966" height="6.14166" fill="white" transform="translate(115.461 269.006)"/>
</clipPath>
</defs>
</svg>
