<svg width="268" height="369" viewBox="0 0 268 369" fill="none" xmlns="http://www.w3.org/2000/svg">
<path fill-rule="evenodd" clip-rule="evenodd" d="M132.414 206.369L128.113 197.761L123.812 206.369H0.402344V368.499H267.798V206.369H132.414Z" fill="#F8F8F8"/>
<path fill-rule="evenodd" clip-rule="evenodd" d="M132.414 206.369L128.113 197.761L123.812 206.369H0.402344V368.499H267.798V206.369H132.414ZM266.569 207.598H131.655L128.113 200.509L124.571 207.598H1.63068V367.271H266.569V207.598Z" fill="#0A3D7A"/>
<path d="M101.268 294.265H93.5048V291.965H100.108V289.725H93.5048V287.15C95.6666 286.895 97.7302 286.561 99.4794 286.109L97.7892 284.163C94.566 285.008 89.181 285.539 84.4446 285.735C84.6804 286.246 84.9752 287.19 85.0342 287.799C86.9602 287.72 89.0238 287.602 91.0677 287.425V289.725H84.6411V291.965H91.0677V294.265H83.3047V296.545H91.0677V299.709C91.0677 300.102 90.8909 300.239 90.4388 300.259C90.0065 300.259 88.3556 300.259 86.9012 300.2C87.2747 300.829 87.7267 301.851 87.8643 302.519C89.8689 302.539 91.2839 302.48 92.2273 302.126C93.151 301.753 93.5048 301.144 93.5048 299.748V296.545H101.268V294.265Z" fill="#0A3D7A"/>
<path d="M112.627 296.289V294.402C112.745 294.52 112.824 294.619 112.903 294.697C113.217 294.265 113.531 293.793 113.807 293.282C114.16 294.697 114.593 295.994 115.143 297.154C114.278 298.372 113.138 299.355 111.684 300.122C111.232 299.787 110.662 299.434 110.053 299.08C110.544 298.313 110.878 297.39 111.094 296.289H112.627ZM106.987 296.289H108.893C108.716 296.997 108.461 297.586 108.146 298.078C107.577 297.802 107.007 297.567 106.417 297.331L106.987 296.289ZM117.56 289.902C117.344 291.631 116.99 293.184 116.499 294.52C115.969 293.105 115.575 291.553 115.3 289.902H117.56ZM121.078 289.902V287.74H115.851C116.106 286.698 116.322 285.617 116.479 284.517L114.121 284.202C113.649 287.701 112.706 291.042 111.036 293.046C111.468 293.341 112.175 293.95 112.627 294.402H107.95L108.422 293.459L107.577 293.282H108.834V290.904C109.601 291.513 110.426 292.201 110.859 292.614L112.097 291.002C111.664 290.708 110.269 289.882 109.326 289.352H112.549V287.504H110.682C111.153 286.895 111.763 286.069 112.372 285.224L110.407 284.438C110.092 285.185 109.542 286.227 109.09 286.934L110.387 287.504H108.834V284.202H106.692V287.504H105.041L106.299 286.954C106.142 286.266 105.631 285.264 105.12 284.517L103.43 285.224C103.842 285.932 104.275 286.836 104.452 287.504H102.958V289.352H106.024C105.081 290.373 103.764 291.317 102.565 291.808C102.997 292.221 103.489 292.987 103.744 293.498C104.727 292.948 105.788 292.123 106.692 291.219V293.105L106.26 293.007C106.063 293.439 105.827 293.911 105.592 294.402H102.742V296.289H104.609C104.118 297.232 103.626 298.117 103.194 298.805L105.238 299.434L105.454 299.06C105.827 299.217 106.201 299.394 106.555 299.591C105.631 300.122 104.412 300.436 102.82 300.652C103.194 301.124 103.607 301.91 103.744 302.578C105.847 302.146 107.419 301.576 108.579 300.711C109.385 301.222 110.092 301.733 110.623 302.185L111.507 301.281C111.822 301.753 112.116 302.283 112.254 302.618C113.964 301.753 115.32 300.691 116.401 299.394C117.285 300.672 118.366 301.713 119.703 302.519C120.056 301.871 120.784 300.967 121.314 300.495C119.88 299.748 118.74 298.628 117.836 297.232C118.897 295.248 119.565 292.81 119.978 289.902H121.078Z" fill="#0A3D7A"/>
<path d="M135.877 287.642C135.248 286.914 133.853 285.912 132.752 285.264L131.632 286.836C132.713 287.563 134.069 288.624 134.678 289.391L135.877 287.642ZM130.728 291.769C131.868 292.457 133.303 293.498 133.951 294.226L135.131 292.358C134.423 291.651 132.969 290.708 131.829 290.098L130.728 291.769ZM128.959 285.283C128.743 286.659 128.271 288.644 127.878 289.882L129.352 290.295C129.844 289.155 130.414 287.288 130.925 285.716L128.959 285.283ZM125.147 289.882C125.048 288.664 124.655 286.797 124.144 285.382L122.513 285.814C122.965 287.229 123.358 289.135 123.397 290.354L125.147 289.882ZM130.512 296.348C130.099 295.798 128.232 293.597 127.662 293.027V292.889H130.571V290.708H127.662V284.281H125.5V290.708H122.533V292.889H124.773C124.164 294.678 123.162 296.78 122.179 297.979C122.533 298.628 123.044 299.689 123.24 300.397C124.085 299.217 124.871 297.39 125.5 295.562V302.5H127.662V295.601C128.232 296.505 128.782 297.527 129.077 298.156L130.512 296.348ZM140.909 296.8L140.555 294.619L138.55 294.992V284.183H136.349V295.385L130.512 296.427L130.866 298.608L136.349 297.626V302.539H138.55V297.232L140.909 296.8Z" fill="#0A3D7A"/>
<path d="M154.445 301.468C161.122 301.468 165.5 295.631 165.5 284.355C165.5 273.079 161.122 267.507 154.445 267.507C147.768 267.507 143.346 273.034 143.346 284.355C143.346 295.631 147.768 301.468 154.445 301.468ZM154.445 296.382C151.615 296.382 149.492 293.552 149.492 284.355C149.492 275.201 151.615 272.548 154.445 272.548C157.275 272.548 159.353 275.201 159.353 284.355C159.353 293.552 157.275 296.382 154.445 296.382Z" fill="#0A3D7A"/>
<path d="M178.367 292.712V287.76H183.28V292.712H178.367ZM171.41 287.76H176.048V292.712H171.41V287.76ZM185.639 285.44H169.051V302.539H171.41V295.031H183.28V299.787C183.28 300.122 183.143 300.239 182.769 300.259C182.376 300.259 181.099 300.279 179.978 300.2C180.313 300.809 180.706 301.89 180.824 302.539C182.573 302.539 183.752 302.5 184.538 302.107C185.363 301.733 185.639 301.085 185.639 299.807V285.44Z" fill="#0A3D7A"/>
<g clip-path="url(#clip0)">
<path d="M123.006 187.102H52.4311C52.4311 187.102 52.6226 154.297 49.7874 148.408L51.4732 144.187L48.1016 140.619C48.1016 140.619 51.7222 134.115 52.0671 127.919C52.4119 121.722 53.2165 114.49 58.1399 109.867C58.1399 109.867 66.3582 83.7954 66.09 72.3233C65.8027 60.8512 67.9483 35.5665 76.7988 30.3676C85.6494 25.1879 95.477 21.4278 102.01 29.8113C102.01 29.8113 107.239 24.5164 111.454 35.8351C115.669 47.1729 115.592 60.6018 115.592 60.6018C115.592 60.6018 118.829 65.628 114.098 69.7334C114.098 69.7334 114.596 98.5288 123.006 108.831C123.006 108.831 129.691 116.543 130.209 125.789L140.496 148.849L153.58 129.108C153.58 129.108 154.691 119.401 154.73 118.998C154.768 118.595 156.128 105.339 156.128 105.339C156.128 105.339 160.515 104.265 160.247 116.389C160.247 116.389 161.454 120.418 168.523 113.972C175.592 107.526 181.032 107.181 181.032 107.181L175.17 115.065L188.542 110.538L180.956 117.886L188.561 117.521L183.561 121.895L186.799 123.353C186.799 123.353 172.565 133.29 166.262 135.343C159.96 137.377 159.826 142.633 159.826 142.633C159.826 142.633 147.048 186.143 135.017 186.641L124.232 180.675L123.006 187.102Z" fill="white"/>
<path d="M93.0668 100.505L75.2891 101.694L79.4461 89.9922L97.7794 96.4572L93.0668 100.505Z" fill="#FF7A00"/>
<path d="M107.641 155.467L75.2849 104.073C75.2849 104.073 58.6566 106.701 56.2236 120.245C53.7907 133.789 51.4727 139.794 51.4727 139.794L54.3845 143.88L52.9286 148.83C52.9286 148.83 57.5646 180.579 56.2428 186.622H120.668L127.315 154.259L125.534 132.83L131.166 154.259L125.151 181.097C125.151 181.097 135.419 188.925 139.404 184.436C143.388 179.966 158.982 142.288 158.982 142.288L151.99 137.607L138.292 153.472V150.691C138.292 150.691 124.787 113.627 119.825 112.054L112.814 106.183L109.997 109.905L107.641 155.467Z" fill="#B5B59A"/>
<path d="M166.277 136.474C165.76 136.474 165.281 136.11 165.147 135.573C165.013 134.959 165.396 134.326 166.009 134.191C168.021 133.731 172.35 131.525 177.599 128.283C180.569 126.441 182.944 124.849 184.496 123.698C182.312 124.062 179.17 124.772 176.373 125.482C175.779 125.635 175.166 125.29 174.994 124.714C174.802 124.139 175.109 123.506 175.684 123.276C179.687 121.722 184.132 119.688 186.258 118.345C183.787 118.729 179.132 120.072 175.147 121.492C174.572 121.703 173.94 121.415 173.71 120.858C173.461 120.302 173.71 119.65 174.247 119.362C174.285 119.343 177.561 117.655 180.933 115.698C183.959 113.952 185.703 112.782 186.699 112.015C185.32 112.398 182.963 113.242 178.959 115.007C174.783 116.83 170.894 118.767 170.856 118.787C170.339 119.036 169.706 118.882 169.381 118.403C169.055 117.923 169.132 117.271 169.572 116.887C170.166 116.369 170.76 115.851 171.335 115.314C173.787 113.146 177.178 110.173 178.883 108.274C175.875 109.981 169.994 114.202 164.936 118.134C163.615 119.381 162.369 119.823 161.258 119.458C159.592 118.921 159.151 116.83 159.113 116.6C159.093 116.523 159.093 116.427 159.093 116.35C159.208 112.916 158.73 107.602 157.274 106.509C157.235 106.49 157.197 106.451 157.159 106.432L155.76 120.187C155.741 120.34 155.703 120.475 155.626 120.609C155.607 120.647 153.806 124.273 155.358 129.51C155.549 130.124 155.185 130.777 154.572 130.949C153.959 131.122 153.327 130.777 153.136 130.163C151.507 124.695 153.021 120.724 153.461 119.746L154.936 105.204C154.975 104.744 155.281 104.36 155.722 104.226C156.775 103.861 157.791 104.015 158.634 104.648C161.488 106.796 161.431 114.393 161.373 116.273C161.488 116.695 161.737 117.175 161.948 117.252C162.082 117.29 162.561 117.175 163.366 116.408C163.385 116.389 163.423 116.35 163.442 116.331C163.48 116.293 167.274 113.338 171.201 110.537C173.519 108.868 175.454 107.583 176.929 106.701C179.362 105.243 180.53 104.897 181.373 105.377C181.852 105.645 182.139 106.106 182.197 106.624C182.35 108.005 180.837 109.789 177.005 113.3C177.561 113.051 178.136 112.801 178.71 112.552C181.373 111.401 183.557 110.557 185.205 110.019C187.944 109.137 189.228 109.118 189.936 109.943C190.243 110.307 190.358 110.768 190.262 111.247C190.147 111.842 189.936 112.878 184.323 116.331C187.235 115.717 188.251 115.89 188.844 116.197C189.247 116.408 189.553 116.753 189.668 117.175C189.956 118.23 189.4 119.285 186.028 121.127C187.465 120.993 187.791 121.204 188.059 121.376C188.365 121.568 188.595 121.875 188.653 122.221C188.825 123.045 188.423 123.659 185.703 125.654C184.074 126.863 181.871 128.321 179.534 129.798C177.369 131.16 170.032 135.63 166.546 136.436C166.45 136.455 166.373 136.474 166.277 136.474Z" fill="#5E6063"/>
<path d="M161.927 131.696C161.774 131.696 161.601 131.658 161.448 131.581C160.873 131.313 160.605 130.622 160.873 130.046C162.367 126.804 160.203 121.471 160.184 121.414C159.935 120.819 160.222 120.147 160.816 119.898C161.41 119.649 162.08 119.936 162.329 120.531C162.444 120.781 164.896 126.843 162.98 131.025C162.789 131.447 162.367 131.696 161.927 131.696Z" fill="#5E6063"/>
<path d="M110.763 71.4204L109.058 74.6433C109.058 74.6433 106.031 81.1851 102.257 83.6023C102.257 83.6023 97.5065 102.671 115.725 104.206C115.725 104.206 108.809 83.9285 110.763 71.4204Z" fill="#FF7A00"/>
<path d="M73.5242 76.7554C73.5242 76.7554 73.2943 100.083 80.7273 101.081C80.7273 101.081 85.8039 86.9613 82.9686 83.1437L73.5242 76.7554Z" fill="#FF7A00"/>
<path d="M58.1602 109.848L71.7425 101.772L67.6429 90.127C66.5126 100.908 58.1602 109.848 58.1602 109.848Z" fill="#FF7A00"/>
<path d="M96.1289 34.0506C96.1289 34.0506 111.052 39.5373 112.719 60.2753L114.079 59.9683C114.079 59.9683 114.558 45.2925 109.711 36.5062C104.884 27.739 96.1289 34.0506 96.1289 34.0506Z" fill="#FF7A00"/>
<path d="M76.9213 32.8613C61.3849 51.7001 68.8754 87.9773 68.8754 87.9773C68.8754 87.9773 70.7911 35.6814 102.017 32.8613C102.017 32.8613 87.4577 20.0655 76.9213 32.8613Z" fill="#FF7A00"/>
<path d="M106.988 103.826C106.758 103.826 106.509 103.749 106.317 103.615C99.7272 98.8761 101.834 83.6247 101.93 82.9725C102.026 82.3394 102.601 81.8981 103.233 81.9941C103.865 82.09 104.306 82.6655 104.21 83.2986C103.635 87.3272 103.137 98.4732 107.658 101.735C108.175 102.099 108.29 102.828 107.926 103.346C107.697 103.672 107.352 103.826 106.988 103.826Z" fill="#5E6063"/>
<path d="M78.7365 103.824C78.3725 103.824 78.0277 103.652 77.7978 103.345C77.4338 102.827 77.5488 102.098 78.066 101.733C83.5258 97.8005 81.9166 84.9279 81.8974 84.7937C81.8208 84.1606 82.2614 83.5851 82.8936 83.4891C83.5258 83.4124 84.1005 83.8536 84.1963 84.4867C84.2729 85.0622 85.997 98.8748 79.4262 103.613C79.2154 103.767 78.9856 103.824 78.7365 103.824Z" fill="#5E6063"/>
<path d="M90.5355 88.6879C90.4014 88.6879 90.2673 88.6687 90.1332 88.6111C89.8267 88.496 89.4052 88.3809 88.9263 88.2275C85.6121 87.2299 78.7156 85.158 73.8114 77.3692C73.4665 76.8321 73.639 76.1223 74.1754 75.777C74.7118 75.4316 75.4206 75.6043 75.7654 76.1415C80.229 83.2012 86.3209 85.0429 89.5968 86.0213C90.114 86.1748 90.5546 86.3091 90.9378 86.4433C91.5317 86.6544 91.8382 87.3258 91.6274 87.9205C91.4359 88.4001 90.9953 88.6879 90.5355 88.6879Z" fill="#5E6063"/>
<path d="M91.1797 88.6881C90.6624 88.6881 90.1835 88.3237 90.0494 87.8057C89.8962 87.1918 90.2793 86.5587 90.8923 86.4052C105.011 82.9713 107.827 76.5254 108.67 71.2881C108.747 70.7894 109.149 70.4057 109.647 70.3289C112.712 69.9069 116.275 67.1252 116.256 64.1708C116.256 63.0198 115.758 62.003 115.011 61.6002C114.647 61.4083 114.149 61.3891 113.728 61.5618C113.555 61.6385 113.249 61.792 113.153 62.0989C112.961 62.7128 112.31 63.039 111.697 62.8471C111.084 62.6553 110.758 62.003 110.95 61.3891C111.237 60.5067 111.927 59.7777 112.865 59.394C113.938 58.9719 115.145 59.0295 116.122 59.5475C117.636 60.3724 118.574 62.1373 118.574 64.1516C118.593 68.1611 114.647 71.5759 110.797 72.4584C109.724 77.8683 106.295 85.0432 91.4287 88.6498C91.3521 88.6881 91.2563 88.6881 91.1797 88.6881Z" fill="#5E6063"/>
<path d="M74.8981 33.0352C74.5533 33.0352 74.2085 32.8817 73.9786 32.5748C73.5955 32.076 73.6912 31.3854 74.1702 30.9825C78.2889 27.5869 82.8292 24.3064 88.2315 23.2705C91.0284 22.7333 93.9977 22.9635 96.6222 23.9227C99.515 24.9779 101.737 26.8387 103.021 29.2559C103.327 29.8123 103.116 30.5221 102.542 30.829C101.986 31.136 101.277 30.9249 100.971 30.3494C98.6912 26.0714 93.0399 24.6901 88.6529 25.5342C84.3617 26.3591 80.5495 28.8531 77.0629 31.6156C76.9863 31.769 76.8522 31.9225 76.6989 32.0184L75.5495 32.8242C75.3579 32.9585 75.128 33.0352 74.8981 33.0352Z" fill="#5E6063"/>
<path d="M57.5672 109.965C57.3756 109.965 57.1841 109.907 56.9925 109.811C56.4369 109.504 56.2454 108.794 56.5519 108.238C62.2607 98.1279 64.8852 84.6415 64.617 80.5361C64.5787 79.903 65.0576 79.3467 65.6898 79.3083C66.322 79.2699 66.8775 79.7495 66.9159 80.3826C67.2032 84.8333 64.5595 98.7035 58.5442 109.37C58.3718 109.754 57.9695 109.965 57.5672 109.965Z" fill="#5E6063"/>
<path d="M115.845 58.9719C115.806 58.9719 115.749 58.9719 115.71 58.9719C115.078 58.8952 114.619 58.3196 114.695 57.6866C116.247 44.814 111.266 36.4305 106.822 31.6729C106.381 31.2125 106.419 30.4835 106.879 30.0422C107.339 29.601 108.067 29.6394 108.507 30.0998C113.297 35.2219 118.642 44.2001 116.994 57.9743C116.917 58.5307 116.419 58.9719 115.845 58.9719Z" fill="#5E6063"/>
<path d="M121.737 108.332C121.412 108.332 121.086 108.198 120.856 107.93C116.316 102.673 112.504 82.549 112.963 74.2806C113.002 73.6476 113.538 73.1488 114.19 73.1871C114.822 73.2255 115.32 73.7627 115.281 74.4149C114.822 82.8176 118.845 102.059 122.619 106.414C123.04 106.894 122.983 107.623 122.504 108.045C122.274 108.237 122.006 108.332 121.737 108.332Z" fill="#5E6063"/>
<path d="M74.8858 92.9288C74.3303 92.9288 73.8514 92.5259 73.7556 91.9696C71.7632 80.6509 71.6483 70.5217 73.3724 61.8697C74.7709 54.8867 77.3763 48.8437 81.131 43.8942C87.5487 35.4148 95.0199 33.1511 95.3456 33.0551C95.9586 32.8825 96.5908 33.2278 96.7824 33.8417C96.9548 34.4556 96.6099 35.0887 95.9969 35.2805C95.9011 35.2997 88.8322 37.4867 82.8935 45.4097C74.9625 55.9802 72.6061 71.9413 76.0544 91.5667C76.1694 92.1998 75.7479 92.7945 75.1157 92.9096C75.0199 92.9288 74.9433 92.9288 74.8858 92.9288Z" fill="#5E6063"/>
<path d="M66.3353 76.8913C65.7415 76.8913 65.2434 76.4309 65.1859 75.8362C61.9484 36.4512 73.9598 31.0221 74.4579 30.811L75.3391 32.9405H75.3583C75.3391 32.9597 72.638 34.2258 70.32 40.0386C68.1361 45.4869 65.8756 56.0957 67.4847 75.6251C67.5422 76.2582 67.0633 76.8146 66.4311 76.8721C66.3928 76.8913 66.3736 76.8913 66.3353 76.8913Z" fill="#5E6063"/>
<path d="M81.0705 57.1108C80.1893 57.1108 79.4805 57.8206 79.4805 58.7031C79.4805 59.5856 80.1893 60.2954 81.0705 60.2954C81.9517 60.2954 82.6605 59.5856 82.6605 58.7031C82.6605 57.8206 81.9517 57.1108 81.0705 57.1108Z" fill="#5E6063"/>
<path d="M102.008 57.1108C101.127 57.1108 100.418 57.8206 100.418 58.7031C100.418 59.5856 101.127 60.2954 102.008 60.2954C102.889 60.2954 103.598 59.5856 103.598 58.7031C103.579 57.8206 102.87 57.1108 102.008 57.1108Z" fill="#5E6063"/>
<path d="M105.751 51.376C105.464 51.376 105.176 51.2609 104.946 51.0499C102.399 48.5752 99.7166 50.5128 99.6016 50.5895C99.0844 50.9732 98.3564 50.8581 97.9924 50.3401C97.6093 49.8221 97.7242 49.0931 98.2415 48.7286C99.7357 47.616 103.395 46.3306 106.556 49.3809C107.015 49.8221 107.035 50.5511 106.594 51.0115C106.364 51.2609 106.058 51.376 105.751 51.376Z" fill="#5E6063"/>
<path d="M76.8004 51.7589C76.5322 51.7589 76.2832 51.6629 76.0533 51.4903C75.5744 51.0874 75.4978 50.3584 75.9001 49.8596C77.0878 48.4208 80.3253 46.2722 84.1184 48.4784C84.674 48.8045 84.8656 49.4951 84.5399 50.0515C84.2142 50.6078 83.5246 50.7997 82.969 50.4735C79.9805 48.747 77.8924 51.0682 77.6817 51.3368C77.4518 51.6054 77.1261 51.7589 76.8004 51.7589Z" fill="#5E6063"/>
<path d="M78.183 109.945C77.8765 109.945 77.5891 109.829 77.3592 109.599C68.9493 100.947 67.7615 89.8204 67.7041 89.3408C67.6466 88.7078 68.1064 88.1322 68.7385 88.0747C69.3707 88.0171 69.9454 88.4775 70.0029 89.1106C70.0221 89.2641 71.1907 99.9497 79.0067 107.969C79.4473 108.429 79.4473 109.158 78.9876 109.599C78.7577 109.849 78.4703 109.945 78.183 109.945Z" fill="#5E6063"/>
<path d="M119.805 111.057C119.479 111.057 119.153 110.923 118.923 110.635C112.985 103.499 109.805 95.3071 108.195 89.6861C106.452 83.6048 106.107 79.25 106.088 79.0773C106.05 78.4443 106.51 77.8879 107.161 77.8304C107.793 77.7728 108.349 78.2524 108.406 78.9047C108.425 79.0773 109.824 96.0745 120.705 109.139C121.107 109.638 121.05 110.367 120.552 110.769C120.322 110.981 120.054 111.057 119.805 111.057Z" fill="#5E6063"/>
<path d="M91.1885 70.4432C90.5563 70.4432 90.0391 69.9252 90.0391 69.2921V59.6042C90.0391 58.9711 90.5563 58.4531 91.1885 58.4531C91.8207 58.4531 92.3379 58.9711 92.3379 59.6042V69.2921C92.3379 69.9252 91.8207 70.4432 91.1885 70.4432Z" fill="#5E6063"/>
<path d="M51.4745 134.501C51.3595 134.501 51.2254 134.481 51.1105 134.443C50.4975 134.251 50.1718 133.599 50.3634 132.985C50.8423 131.508 50.8806 129.628 50.8998 127.441C50.9764 121.686 51.0913 113.801 60.2484 106.281C60.7465 105.878 61.4745 105.955 61.8768 106.434C62.2791 106.933 62.2024 107.662 61.7235 108.065C53.3902 114.894 53.2944 121.877 53.2178 127.46C53.1795 129.743 53.1603 131.892 52.5664 133.695C52.4132 134.194 51.9726 134.501 51.4745 134.501Z" fill="#5E6063"/>
<path d="M134.572 187.775C130.588 187.775 126.871 183.765 126.718 183.593C126.277 183.113 126.316 182.384 126.795 181.962C127.274 181.521 128.002 181.559 128.423 182.039C129.381 183.075 132.408 185.722 134.917 185.454C139.323 185.012 145.166 176.917 151.354 162.682C156.201 151.536 159.649 140.39 159.687 140.275C159.879 139.661 160.53 139.316 161.124 139.508C161.737 139.699 162.082 140.352 161.89 140.946C161.852 141.062 158.385 152.323 153.48 163.603C150.588 170.26 147.772 175.612 145.09 179.545C141.546 184.744 138.308 187.43 135.166 187.756C134.975 187.775 134.764 187.775 134.572 187.775Z" fill="#5E6063"/>
<path d="M138.275 154.145C138.064 154.145 137.853 154.087 137.662 153.953C137.125 153.608 136.972 152.898 137.317 152.361L151.934 129.493C152.279 128.956 152.987 128.802 153.524 129.148C154.06 129.493 154.213 130.203 153.869 130.74L139.252 153.608C139.022 153.972 138.658 154.145 138.275 154.145Z" fill="#5E6063"/>
<path d="M129.35 122.471C128.89 122.471 128.468 122.203 128.277 121.742L126.514 117.388C126.476 117.311 126.457 117.234 126.438 117.157C126.438 117.119 125.537 112.381 121.17 109.81C120.614 109.484 120.442 108.774 120.748 108.218C121.074 107.661 121.783 107.489 122.338 107.796C127.281 110.692 128.507 115.699 128.698 116.601L130.422 120.841C130.671 121.436 130.384 122.107 129.79 122.356C129.637 122.433 129.484 122.471 129.35 122.471Z" fill="#5E6063"/>
<path d="M140.52 149.981C140.08 149.981 139.658 149.732 139.467 149.291L129.007 125.848C128.739 125.272 129.007 124.582 129.582 124.313C130.156 124.045 130.846 124.313 131.114 124.889L141.574 148.332C141.842 148.907 141.574 149.598 140.999 149.866C140.846 149.943 140.673 149.981 140.52 149.981Z" fill="#5E6063"/>
<path d="M108.715 154.643C108.312 154.643 107.929 154.432 107.719 154.067L77.7378 103.268C77.4121 102.711 77.6037 102.002 78.1401 101.675C78.6956 101.349 79.4044 101.541 79.7301 102.078L109.711 152.897C110.037 153.453 109.845 154.163 109.309 154.489C109.117 154.604 108.906 154.643 108.715 154.643Z" fill="#5E6063"/>
<path d="M108.716 154.644H108.697C108.065 154.624 107.548 154.106 107.567 153.454L108.601 102.29C108.601 101.945 108.774 101.619 109.042 101.408C109.31 101.197 109.674 101.12 110.019 101.197L115.019 102.386C115.632 102.539 116.015 103.153 115.881 103.786C115.728 104.4 115.115 104.784 114.483 104.65L110.881 103.786L109.885 153.512C109.847 154.145 109.329 154.644 108.716 154.644Z" fill="#5E6063"/>
<path d="M104.305 155.431C104.075 155.431 103.826 155.355 103.616 155.201L74.2286 133.542C73.8263 133.254 73.6731 132.737 73.8072 132.276L76.7765 122.626L66.4317 118.022C65.9145 117.792 65.6463 117.217 65.7804 116.66L69.2286 103.653C69.401 103.04 70.0332 102.675 70.6463 102.828C71.2593 103.001 71.6233 103.634 71.47 104.248L68.2708 116.296L78.6539 120.919C79.1903 121.149 79.4585 121.763 79.2861 122.32L76.2593 132.161L104.995 153.34C105.512 153.724 105.627 154.434 105.244 154.952C105.014 155.259 104.669 155.431 104.305 155.431Z" fill="#5E6063"/>
<path d="M112.703 155.429C112.588 155.429 112.454 155.41 112.339 155.371C111.726 155.18 111.4 154.527 111.611 153.913L120.442 126.979L116.668 123.296C116.439 123.084 116.324 122.778 116.324 122.471C116.324 122.164 116.439 121.857 116.668 121.646L121.554 116.811L118.412 112.054C118.067 111.516 118.201 110.807 118.737 110.442C119.274 110.097 119.983 110.231 120.347 110.768L123.986 116.313C124.293 116.773 124.216 117.387 123.833 117.771L119.101 122.451L122.55 125.809C122.875 126.116 122.971 126.576 122.837 126.998L113.795 154.623C113.642 155.103 113.182 155.429 112.703 155.429Z" fill="#5E6063"/>
<path d="M160.787 141.982C160.557 141.982 160.327 141.924 160.135 141.771L149.829 134.672C149.312 134.308 149.177 133.598 149.541 133.061C149.905 132.543 150.614 132.409 151.151 132.773L161.476 139.89C161.993 140.255 162.128 140.965 161.764 141.502C161.515 141.809 161.151 141.982 160.787 141.982Z" fill="#5E6063"/>
<path d="M109.426 124.485H93.9854C93.3532 124.485 92.8359 123.967 92.8359 123.334C92.8359 122.701 93.3532 122.183 93.9854 122.183H109.426C110.058 122.183 110.575 122.701 110.575 123.334C110.575 123.967 110.058 124.485 109.426 124.485Z" fill="#5E6063"/>
<path d="M157.836 146.664C158.121 145.447 157.367 144.228 156.152 143.943C154.937 143.657 153.72 144.412 153.435 145.629C153.149 146.846 153.903 148.064 155.119 148.35C156.334 148.636 157.551 147.881 157.836 146.664Z" fill="white"/>
<path d="M155.633 149.56C153.755 149.56 152.223 148.025 152.223 146.145C152.223 144.265 153.755 142.73 155.633 142.73C157.51 142.73 159.043 144.265 159.043 146.145C159.043 148.025 157.51 149.56 155.633 149.56ZM155.633 145.033C155.02 145.033 154.522 145.531 154.522 146.145C154.522 146.759 155.02 147.258 155.633 147.258C156.246 147.258 156.744 146.759 156.744 146.145C156.744 145.531 156.246 145.033 155.633 145.033Z" fill="#5E6063"/>
<path d="M123.028 188.254C122.951 188.254 122.875 188.254 122.779 188.235C122.147 188.101 121.764 187.487 121.898 186.854L128.89 154.26L124.427 133.081C124.292 132.448 124.695 131.834 125.327 131.719C125.959 131.584 126.572 131.987 126.687 132.62L131.189 154.049C131.227 154.202 131.227 154.375 131.189 154.529L124.158 187.353C124.024 187.871 123.545 188.254 123.028 188.254Z" fill="#5E6063"/>
<path d="M97.5108 75.2988C91.189 91.9891 84.8672 75.2988 84.8672 75.2988H97.5108Z" fill="white"/>
<path d="M91.4154 83.8742C87.0093 83.8742 84.0974 76.5458 83.7909 75.7209C83.6568 75.3756 83.7143 74.9727 83.925 74.6658C84.1357 74.3588 84.4997 74.167 84.8637 74.167H97.5074C97.8905 74.167 98.2353 74.3588 98.446 74.6658C98.6568 74.9727 98.7142 75.3756 98.5801 75.7209C96.492 81.2076 94.1549 83.8742 91.4154 83.8742ZM86.607 76.4499C87.7756 78.8479 89.6721 81.5721 91.4154 81.5721C92.8139 81.5721 94.3464 79.7688 95.8024 76.4499H86.607Z" fill="#5E6063"/>
<path d="M70.3423 188.253C70.1315 188.253 69.94 188.196 69.7484 188.081C69.212 187.754 69.0204 187.045 69.3652 186.488L73.7714 179.198L67.6986 143.612C67.5836 142.979 68.0051 142.384 68.6373 142.269C69.2695 142.154 69.8633 142.576 69.9783 143.209L76.1085 179.218C76.1468 179.486 76.1085 179.774 75.9553 180.004L71.3193 187.659C71.1277 188.061 70.7446 188.253 70.3423 188.253Z" fill="#5E6063"/>
<path d="M110.99 170.515C112.38 169.944 113.046 168.353 112.476 166.961C111.906 165.569 110.317 164.903 108.927 165.473C107.537 166.044 106.872 167.635 107.442 169.027C108.011 170.419 109.6 171.085 110.99 170.515Z" fill="white"/>
<path d="M109.963 171.89C107.818 171.89 106.074 170.144 106.074 167.995C106.074 165.847 107.818 164.101 109.963 164.101C112.109 164.101 113.852 165.847 113.852 167.995C113.852 170.144 112.109 171.89 109.963 171.89ZM109.963 166.422C109.101 166.422 108.392 167.132 108.392 167.995C108.392 168.859 109.101 169.569 109.963 169.569C110.825 169.569 111.534 168.859 111.534 167.995C111.553 167.132 110.844 166.422 109.963 166.422Z" fill="#5E6063"/>
<path d="M52.432 188.906C52.3745 188.906 52.3362 188.906 52.2787 188.887C51.6465 188.81 51.2059 188.215 51.2825 187.582C53.1791 173.578 48.6963 148.869 48.658 148.619C48.6197 148.408 48.6389 148.178 48.7155 147.986L50.1331 144.456L47.2596 141.425C46.9339 141.08 46.8573 140.581 47.0488 140.159L48.8879 136.111C49.1561 135.536 49.8266 135.267 50.4205 135.536C50.9952 135.804 51.2634 136.495 50.9952 137.071L49.4818 140.409L52.317 143.382C52.6235 143.708 52.7193 144.188 52.5469 144.61L50.976 148.523C51.5316 151.65 55.4205 174.249 53.5622 187.908C53.5048 188.484 53.0067 188.906 52.432 188.906Z" fill="#5E6063"/>
<path d="M100.882 96.8411L111.476 91.5271C112.338 91.1051 113.334 91.7765 113.258 92.7357L112.396 102.942C112.319 103.805 111.4 104.323 110.614 103.939L100.882 99.0473C99.9819 98.6061 99.9819 97.3016 100.882 96.8411Z" fill="#FF7A00"/>
<path d="M99.3497 96.7651L89.0432 91.5854C88.1236 91.125 87.0508 91.854 87.1466 92.8707L87.9704 102.808C88.047 103.729 89.0432 104.304 89.8669 103.882L99.3305 99.1248C100.308 98.6452 100.308 97.2639 99.3497 96.7651Z" fill="#FF7A00"/>
<path d="M98.9637 99.0078L83.9062 103.9L93.3698 115.353L100.343 99.0078H98.9637Z" fill="#FF7A00"/>
<path d="M101.989 99.0078L117.046 103.9L107.583 115.353L100.609 99.0078H101.989Z" fill="#FF7A00"/>
<path d="M100.764 101.119H99.9212C99.3465 101.119 98.8867 100.658 98.8867 100.083V95.8621C98.8867 95.2866 99.3465 94.8262 99.9212 94.8262H100.764C101.339 94.8262 101.799 95.2866 101.799 95.8621V100.083C101.799 100.658 101.339 101.119 100.764 101.119Z" fill="#FF7A00"/>
<path d="M90.8232 106.223C90.6316 106.223 90.44 106.184 90.2676 106.088C90.0952 105.992 88.486 105.072 87.2025 102.635C86.9151 102.06 87.1259 101.369 87.6814 101.081C88.2561 100.794 88.9458 101.005 89.2332 101.561C89.7887 102.616 90.4209 103.287 90.8423 103.671L96.283 100.16C96.8194 99.8151 97.5282 99.9686 97.873 100.506C98.2178 101.043 98.0646 101.753 97.5282 102.098L91.4171 106.05C91.2638 106.165 91.0339 106.223 90.8232 106.223Z" fill="#5E6063"/>
<path d="M109.784 106.222C109.554 106.222 109.343 106.164 109.152 106.03L103.041 102.078C102.504 101.733 102.351 101.023 102.696 100.486C103.041 99.9484 103.749 99.7949 104.286 100.14L109.382 103.44C110.225 101.944 111.431 99.5839 111.604 98.1643C111.681 97.5312 112.255 97.0708 112.887 97.1475C113.52 97.2243 113.979 97.7998 113.903 98.4329C113.577 101.08 111.029 105.205 110.742 105.665C110.569 105.934 110.32 106.107 110.014 106.183C109.956 106.222 109.88 106.222 109.784 106.222Z" fill="#5E6063"/>
<path d="M87.6065 99.6047C87.0126 99.6047 86.5145 99.1443 86.4571 98.5496C86.3421 97.1683 86.0356 92.5066 86.9743 90.9718C87.185 90.6265 87.549 90.3771 87.9705 90.262C88.7176 90.0894 90.0394 90.2045 94.2157 92.4682C96.3996 93.6384 98.3344 94.8471 98.4111 94.9046C98.9475 95.2499 99.1199 95.9597 98.775 96.4969C98.4302 97.034 97.7214 97.2067 97.185 96.8614C94.0816 94.9238 90.231 92.8903 88.8325 92.5641C88.6218 93.5809 88.5835 96.0173 88.7751 98.3386C88.8325 98.9716 88.3536 99.528 87.7214 99.5855C87.6639 99.5855 87.6448 99.6047 87.6065 99.6047Z" fill="#5E6063"/>
<path d="M102.835 97.0329C102.452 97.0329 102.069 96.8411 101.858 96.4957C101.513 95.9586 101.686 95.2488 102.222 94.9035C102.471 94.75 108.352 91.0858 111.169 90.3568C111.782 90.2033 112.414 90.5678 112.567 91.1817C112.72 91.7956 112.356 92.4287 111.743 92.5822C109.693 93.1001 105.057 95.8435 103.448 96.8411C103.257 96.9753 103.046 97.0329 102.835 97.0329Z" fill="#5E6063"/>
<path d="M158.569 58.5708L143.301 71.9613L165.523 61.199L158.569 58.5708Z" fill="#8D8E90"/>
<path d="M245.542 61.0077H147.936C141.385 61.0077 136.078 55.6937 136.078 49.1327V27.8383C136.078 21.2774 141.385 15.9634 147.936 15.9634H245.542C252.093 15.9634 257.4 21.2774 257.4 27.8383V49.1135C257.4 55.6937 252.093 61.0077 245.542 61.0077Z" fill="#8D8E90"/>
<path d="M165.926 45.6147H168.834V39.7188H174.003V37.2817H168.834V33.4886H174.888V31.0516H165.926V45.6147Z" fill="white"/>
<path d="M177.422 45.6147H180.331V40.1118H182.355L185.342 45.6147H188.585L185.185 39.6598C186.856 39.0112 187.956 37.6552 187.956 35.4736C187.956 32.1326 185.539 31.0516 182.493 31.0516H177.422V45.6147ZM180.331 37.8124V33.3707H182.218C184.085 33.3707 185.126 33.9014 185.126 35.4736C185.126 37.0262 184.085 37.8124 182.218 37.8124H180.331Z" fill="white"/>
<path d="M190.819 45.6147H199.958V43.1777H193.727V39.2864H198.837V36.8494H193.727V33.4886H199.741V31.0516H190.819V45.6147Z" fill="white"/>
<path d="M202.91 45.6147H212.049V43.1777H205.819V39.2864H210.929V36.8494H205.819V33.4886H211.833V31.0516H202.91V45.6147Z" fill="white"/>
<path d="M215.906 40.6621H217.792L218.205 33.41L218.303 30.6782H215.395L215.493 33.41L215.906 40.6621ZM216.849 45.8899C217.871 45.8899 218.657 45.0645 218.657 44.0032C218.657 42.9222 217.871 42.1165 216.849 42.1165C215.827 42.1165 215.06 42.9222 215.06 44.0032C215.06 45.0645 215.827 45.8899 216.849 45.8899Z" fill="white"/>
<path d="M223.18 40.6621H225.066L225.479 33.41L225.577 30.6782H222.669L222.767 33.41L223.18 40.6621ZM224.123 45.8899C225.145 45.8899 225.931 45.0645 225.931 44.0032C225.931 42.9222 225.145 42.1165 224.123 42.1165C223.101 42.1165 222.334 42.9222 222.334 44.0032C222.334 45.0645 223.101 45.8899 224.123 45.8899Z" fill="white"/>
</g>
<g clip-path="url(#clip1)">
<path fill-rule="evenodd" clip-rule="evenodd" d="M150.279 308.026C151.958 306.347 154.68 306.347 156.359 308.026L157.289 308.957C158.488 310.156 160.432 310.156 161.632 308.957L162.562 308.026C164.241 306.347 166.963 306.347 168.642 308.026L169.572 308.957C170.771 310.156 172.716 310.156 173.915 308.957L174.845 308.026C176.524 306.347 179.246 306.347 180.925 308.026L181.856 308.957C183.055 310.156 184.999 310.156 186.198 308.957L187.129 308.026C188.808 306.347 191.53 306.347 193.209 308.026L194.139 308.957C195.338 310.156 197.282 310.156 198.482 308.957L198.947 308.491L199.815 309.36L199.35 309.825C197.671 311.504 194.949 311.504 193.27 309.825L192.34 308.895C191.141 307.696 189.196 307.696 187.997 308.895L187.067 309.825C185.388 311.504 182.666 311.504 180.987 309.825L180.057 308.895C178.857 307.696 176.913 307.696 175.714 308.895L174.784 309.825C173.105 311.504 170.383 311.504 168.704 309.825L167.773 308.895C166.574 307.696 164.63 307.696 163.431 308.895L162.5 309.825C160.821 311.504 158.099 311.504 156.42 309.825L155.49 308.895C154.291 307.696 152.346 307.696 151.147 308.895L150.217 309.825C148.538 311.504 145.816 311.504 144.137 309.825L143.672 309.36L144.54 308.491L145.006 308.957C146.205 310.156 148.149 310.156 149.348 308.957L150.279 308.026Z" fill="#FF7A00"/>
</g>
<defs>
<clipPath id="clip0">
<rect width="210.191" height="188.906" fill="white" transform="translate(46.957)"/>
</clipPath>
<clipPath id="clip1">
<rect width="42.9916" height="6.14166" fill="white" transform="translate(144.105 305.854)"/>
</clipPath>
</defs>
</svg>
