<svg width="37" height="53" viewBox="0 0 37 53" fill="none" xmlns="http://www.w3.org/2000/svg">
<path d="M14.685 52.0619C23.085 52.0619 30.6301 46.6581 32.4894 38.108C34.0364 30.9942 29.7979 26.3429 23.9056 25.1117L23.9651 24.8381C29.727 23.1281 34.8194 19.024 36.292 12.2523C37.8687 5.00171 33.0107 0.624023 25.7307 0.624023C19.9907 0.624023 15.2806 3.29167 11.3912 6.36974L12.6145 8.14818C15.9841 5.20691 20.6898 2.88127 25.2398 2.88127C31.5398 2.88127 34.752 6.78014 33.5323 12.3891C32.1489 18.7504 26.9733 23.8805 15.2833 23.8805L14.7627 26.2745C27.2227 26.2745 31.3466 31.131 29.7997 38.2448C28.2825 45.2217 22.2459 49.8046 15.3159 49.8046C8.31586 49.8046 5.01009 46.6581 2.75432 43.5117L0.757582 45.2901C3.15335 48.4366 6.845 52.0619 14.685 52.0619Z" fill="url(#paint0_linear)" fill-opacity="0.5"/>
<defs>
<linearGradient id="paint0_linear" x1="31.3224" y1="-27" x2="31.3224" y2="51.9475" gradientUnits="userSpaceOnUse">
<stop stop-color="#002347" stop-opacity="0.95"/>
<stop offset="0.505208" stop-color="#1D64AE"/>
<stop offset="1" stop-color="#007EFF"/>
</linearGradient>
</defs>
</svg>
