<svg width="1439" height="987" viewBox="0 0 1439 987" fill="none" xmlns="http://www.w3.org/2000/svg">
<g clip-path="url(#clip0)">
<rect x="-1" width="1440" height="987" fill="#002C59"/>
<path d="M1209.1 343.446L1185.86 282.178" stroke="#0A3D7A" stroke-width="1.4191" stroke-miterlimit="10"/>
<path d="M1186.12 282.057L1139.93 308.823" stroke="#0A3D7A" stroke-width="1.4191" stroke-miterlimit="10"/>
<path d="M1140.2 309.443L1209.1 342.946" stroke="#0A3D7A" stroke-width="1.4191" stroke-miterlimit="10"/>
<path d="M1171.81 290.384L1209.1 343.256" stroke="#0A3D7A" stroke-width="1.4191" stroke-miterlimit="10"/>
<path d="M1185.11 282.057L1193.14 201.224" stroke="#0A3D7A" stroke-width="1.4191" stroke-miterlimit="10"/>
<path d="M1192.4 200.57L1113.76 176.31" stroke="#0A3D7A" stroke-width="1.4191" stroke-miterlimit="10"/>
<path d="M1114.48 175.657L1079.66 243.777" stroke="#0A3D7A" stroke-width="1.4191" stroke-miterlimit="10"/>
<path d="M1079.74 243.779L1074.93 148.603" stroke="#0A3D7A" stroke-width="1.4191" stroke-miterlimit="10"/>
<path d="M1074.28 148.917L1108.91 166.36" stroke="#0A3D7A" stroke-width="1.4191" stroke-miterlimit="10"/>
<path d="M1079.41 243.945L1122.48 133.08" stroke="#0A3D7A" stroke-width="1.4191" stroke-miterlimit="10"/>
<path d="M1121.32 133.163L1142.15 132.498" stroke="#0A3D7A" stroke-width="1.4191" stroke-miterlimit="10"/>
<path d="M1142.62 132.581L1113.29 175.659" stroke="#0A3D7A" stroke-width="1.4191" stroke-miterlimit="10"/>
<path d="M1113.76 175.76L1127.09 198.399" stroke="#0A3D7A" stroke-width="1.4191" stroke-miterlimit="10"/>
<path d="M1126.69 198.503L1121.71 133.08" stroke="#0A3D7A" stroke-width="1.4191" stroke-miterlimit="10"/>
<path d="M1127.57 198.502L1080.08 243.945" stroke="#0A3D7A" stroke-width="1.4191" stroke-miterlimit="10"/>
<path d="M1080.57 243.621L1045.33 223.485" stroke="#0A3D7A" stroke-width="1.4191" stroke-miterlimit="10"/>
<path d="M1045.34 223.08L1029.48 181.652" stroke="#0A3D7A" stroke-width="1.4191" stroke-miterlimit="10"/>
<path d="M1029.48 182.019L1080.57 243.497" stroke="#0A3D7A" stroke-width="1.4191" stroke-miterlimit="10"/>
<path d="M1074.17 148.601L1121.43 133.081" stroke="#0A3D7A" stroke-width="1.4191" stroke-miterlimit="10"/>
<path d="M1192.4 200.795L1142.15 133.01" stroke="#0A3D7A" stroke-width="1.4191" stroke-miterlimit="10"/>
<path d="M991.076 111.924L965.172 109.897" stroke="#0A3D7A" stroke-width="1.4191" stroke-miterlimit="10"/>
<path d="M965.489 109.642L937.055 140.645" stroke="#0A3D7A" stroke-width="1.4191" stroke-miterlimit="10"/>
<path d="M937.387 140.934L968.351 167.185" stroke="#0A3D7A" stroke-width="1.4191" stroke-miterlimit="10"/>
<path d="M968.003 167.512L965.579 109.741" stroke="#0A3D7A" stroke-width="1.4191" stroke-miterlimit="10"/>
<path d="M968.642 167.598L941.108 184.317" stroke="#0A3D7A" stroke-width="1.4191" stroke-miterlimit="10"/>
<path d="M941.277 183.923L897.047 133.214" stroke="#0A3D7A" stroke-width="1.4191" stroke-miterlimit="10"/>
<path d="M897.271 132.819L884.352 153.909" stroke="#0A3D7A" stroke-width="1.4191" stroke-miterlimit="10"/>
<path d="M883.152 153.543L941.267 183.741" stroke="#0A3D7A" stroke-width="1.4191" stroke-miterlimit="10"/>
<path d="M941.725 184.319L896.23 226.528" stroke="#0A3D7A" stroke-width="1.4191" stroke-miterlimit="10"/>
<path d="M896.68 226.808L945.529 229.663" stroke="#0A3D7A" stroke-width="1.4191" stroke-miterlimit="10"/>
<path d="M945.26 229.942L941.528 184.221" stroke="#0A3D7A" stroke-width="1.4191" stroke-miterlimit="10"/>
<path d="M937.386 140.353L897.641 133.051" stroke="#0A3D7A" stroke-width="1.4191" stroke-miterlimit="10"/>
<path d="M941.01 184.32L937.648 140.646" stroke="#0A3D7A" stroke-width="1.4191" stroke-miterlimit="10"/>
<path d="M968.477 168.063L1028.59 181.769" stroke="#0A3D7A" stroke-width="1.4191" stroke-miterlimit="10"/>
<path d="M967.318 138.138L940.77 184.269" stroke="#0A3D7A" stroke-width="1.4191" stroke-miterlimit="10"/>
<path d="M966.667 137.965L991.354 112.08" stroke="#0A3D7A" stroke-width="1.4191" stroke-miterlimit="10"/>
<path d="M770.145 111.767L827.63 122.266" stroke="#0A3D7A" stroke-width="1.4191" stroke-miterlimit="10"/>
<path d="M828.062 122.687L801.73 162.798" stroke="#0A3D7A" stroke-width="1.4191" stroke-miterlimit="10"/>
<path d="M802.163 162.543L770.195 111.591" stroke="#0A3D7A" stroke-width="1.4191" stroke-miterlimit="10"/>
<path d="M1208.99 343.753L1266.96 369.664" stroke="#0A3D7A" stroke-width="1.4191" stroke-miterlimit="10"/>
<path d="M1271.37 335.05L1303.23 386.785" stroke="#0A3D7A" stroke-width="1.4191" stroke-miterlimit="10"/>
<path d="M1288.04 498.854L1311.65 502.353" stroke="#0A3D7A" stroke-width="1.4191" stroke-miterlimit="10"/>
<path d="M1299.48 541.989L1288.04 498.718" stroke="#0A3D7A" stroke-width="1.4191" stroke-miterlimit="10"/>
<path d="M1237.59 459.213L1288.05 498.221" stroke="#0A3D7A" stroke-width="1.4191" stroke-miterlimit="10"/>
<path d="M1288.62 498.69L1257.13 551.917" stroke="#0A3D7A" stroke-width="1.4191" stroke-miterlimit="10"/>
<path d="M1257.71 551.9L1237.59 458.761" stroke="#0A3D7A" stroke-width="1.4191" stroke-miterlimit="10"/>
<path d="M1299.53 542.018L1257.67 551.918" stroke="#0A3D7A" stroke-width="1.4191" stroke-miterlimit="10"/>
<path d="M1287.26 498.693L1305.34 419.938" stroke="#0A3D7A" stroke-width="1.4191" stroke-miterlimit="10"/>
<path d="M1304.56 420.006L1328 504.1" stroke="#0A3D7A" stroke-width="1.4191" stroke-miterlimit="10"/>
<path d="M1328 504.065L1311.65 502.619" stroke="#0A3D7A" stroke-width="1.4191" stroke-miterlimit="10"/>
<path d="M896.68 226.152L855.434 204.716" stroke="#0A3D7A" stroke-width="1.4191" stroke-miterlimit="10"/>
<path d="M1394.52 323.78L1315.45 290.507" stroke="#0A3D7A" stroke-width="1.4191" stroke-miterlimit="10"/>
<path d="M1266.96 370.505L1303.23 386.716" stroke="#0A3D7A" stroke-width="1.4191" stroke-miterlimit="10"/>
<path d="M1303.43 387.093L1304.32 419.935" stroke="#0A3D7A" stroke-width="1.4191" stroke-miterlimit="10"/>
<path d="M1302.84 387.094L1344.86 354.171" stroke="#0A3D7A" stroke-width="1.4191" stroke-miterlimit="10"/>
<path d="M1345.23 354.171L1303.77 420.051" stroke="#0A3D7A" stroke-width="1.4191" stroke-miterlimit="10"/>
<path d="M1344.52 353.593L1271.37 335.376" stroke="#0A3D7A" stroke-width="1.4191" stroke-miterlimit="10"/>
<path d="M1315.93 289.81L1270.89 334.798" stroke="#0A3D7A" stroke-width="1.4191" stroke-miterlimit="10"/>
<path d="M1315.45 289.996L1344.52 353.985" stroke="#0A3D7A" stroke-width="1.4191" stroke-miterlimit="10"/>
<path d="M1344.22 354.171L1394.81 324.477" stroke="#0A3D7A" stroke-width="1.4191" stroke-miterlimit="10"/>
<path d="M1315.45 290.249L1364.04 342.377" stroke="#0A3D7A" stroke-width="1.4191" stroke-miterlimit="10"/>
<path d="M896.68 226.384L880.012 204.853" stroke="#0A3D7A" stroke-width="1.4191" stroke-miterlimit="10"/>
<path d="M880.012 205.272L945.471 229.34" stroke="#0A3D7A" stroke-width="1.4191" stroke-miterlimit="10"/>
<path d="M879.544 204.71L885.024 153.765" stroke="#0A3D7A" stroke-width="1.4191" stroke-miterlimit="10"/>
<path d="M879.951 204.641L941.415 184.27" stroke="#0A3D7A" stroke-width="1.4191" stroke-miterlimit="10"/>
<path d="M945.002 229.903L1029.31 182.239" stroke="#0A3D7A" stroke-width="1.4191" stroke-miterlimit="10"/>
<path d="M896.975 132.803L965.347 109.741" stroke="#0A3D7A" stroke-width="1.4191" stroke-miterlimit="10"/>
<path d="M884.123 153.763L894.775 111.274" stroke="#0A3D7A" stroke-width="1.4191" stroke-miterlimit="10"/>
<path d="M894.348 112.494L1028.84 181.018" stroke="#0A3D7A" stroke-width="1.4191" stroke-miterlimit="10"/>
<path d="M969.062 167.512L944.819 229.904" stroke="#0A3D7A" stroke-width="1.4191" stroke-miterlimit="10"/>
<path d="M880.011 204.52L856.012 164.816" stroke="#0A3D7A" stroke-width="1.4191" stroke-miterlimit="10"/>
<path d="M855.925 164.629L884.643 153.765" stroke="#0A3D7A" stroke-width="1.4191" stroke-miterlimit="10"/>
<path d="M856.357 164.628L854.578 204.84" stroke="#0A3D7A" stroke-width="1.4191" stroke-miterlimit="10"/>
<path d="M854.249 204.841L938.055 140.646" stroke="#0A3D7A" stroke-width="1.4191" stroke-miterlimit="10"/>
<path d="M885.099 153.765L854.372 204.842" stroke="#0A3D7A" stroke-width="1.4191" stroke-miterlimit="10"/>
<path d="M855.436 164.628L894.921 111.274" stroke="#0A3D7A" stroke-width="1.4191" stroke-miterlimit="10"/>
<path d="M826.642 122.688L886.599 30.7127" stroke="#0A3D7A" stroke-width="1.4191" stroke-miterlimit="10"/>
<path d="M1029.47 181.564L1108.91 166.67" stroke="#0A3D7A" stroke-width="1.4191" stroke-miterlimit="10"/>
<path d="M1170.92 290.07L1193.29 201.224" stroke="#0A3D7A" stroke-width="1.4191" stroke-miterlimit="10"/>
<path d="M1121.32 133.735L1192.4 200.568" stroke="#0A3D7A" stroke-width="1.4191" stroke-miterlimit="10"/>
<path d="M1113.76 175.619L1108.37 166.515" stroke="#0A3D7A" stroke-width="1.4191" stroke-miterlimit="10"/>
<path d="M1108.85 166.674L1123.8 160.228" stroke="#0A3D7A" stroke-width="1.4191" stroke-miterlimit="10"/>
<path d="M1127.09 198.846L1192.4 200.879" stroke="#0A3D7A" stroke-width="1.4191" stroke-miterlimit="10"/>
<path d="M1328 503.351L1237.59 459.558" stroke="#0A3D7A" stroke-width="1.4191" stroke-miterlimit="10"/>
<path d="M1028.59 181.669L965.172 110.309" stroke="#0A3D7A" stroke-width="1.4191" stroke-miterlimit="10"/>
<path d="M884.549 153.125L827.629 123.331" stroke="#0A3D7A" stroke-width="1.4191" stroke-miterlimit="10"/>
<path d="M894.345 111.272L827.629 122.695" stroke="#0A3D7A" stroke-width="1.4191" stroke-miterlimit="10"/>
<path d="M770.32 112.45L856.288 164.091" stroke="#0A3D7A" stroke-width="1.4191" stroke-miterlimit="10"/>
<path d="M1171.81 289.674L1127.09 198.894" stroke="#0A3D7A" stroke-width="1.4191" stroke-miterlimit="10"/>
<path d="M1171.21 288.471L1080.39 244.825" stroke="#0A3D7A" stroke-width="1.4191" stroke-miterlimit="10"/>
<path d="M856.299 164.741L802.164 163.135" stroke="#0A3D7A" stroke-width="1.4191" stroke-miterlimit="10"/>
<path d="M965.639 109.393L885.055 32.4819" stroke="#0A3D7A" stroke-width="1.4191" stroke-miterlimit="10"/>
<path d="M885.954 30.7115L893.989 111.276" stroke="#0A3D7A" stroke-width="1.4191" stroke-miterlimit="10"/>
<path d="M1267.42 370.181L1233.16 406.811" stroke="#0A3D7A" stroke-width="1.4191" stroke-miterlimit="10"/>
<path d="M1272.25 334.798L1260.99 412.547" stroke="#0A3D7A" stroke-width="1.4191" stroke-miterlimit="10"/>
<path d="M1261.88 412.286L1233.63 407.077" stroke="#0A3D7A" stroke-width="1.4191" stroke-miterlimit="10"/>
<path d="M1303.54 387.038L1261.58 412.597" stroke="#0A3D7A" stroke-width="1.4191" stroke-miterlimit="10"/>
<path d="M1304.56 419.558L1261.87 412.882" stroke="#0A3D7A" stroke-width="1.4191" stroke-miterlimit="10"/>
<path d="M1262.46 412.547L1237.01 458.743" stroke="#0A3D7A" stroke-width="1.4191" stroke-miterlimit="10"/>
<path d="M1237.18 458.747L1234.04 406.813" stroke="#0A3D7A" stroke-width="1.4191" stroke-miterlimit="10"/>
<path d="M1208.99 343.841L1261.87 411.94" stroke="#0A3D7A" stroke-width="1.4191" stroke-miterlimit="10"/>
<path d="M1395.69 331.284C1399.58 330.504 1402.21 326.826 1401.56 323.071C1400.91 319.316 1397.24 316.904 1393.35 317.685C1389.46 318.466 1386.83 322.143 1387.48 325.898C1388.12 329.654 1391.8 332.065 1395.69 331.284Z" fill="#0A3D7A"/>
<path d="M1391.05 329.339C1388.33 327.55 1387.71 323.953 1389.65 321.234C1391.59 318.516 1395.31 317.774 1398.02 319.562C1400.74 321.351 1401.36 324.948 1399.42 327.667C1397.48 330.386 1393.72 331.138 1391.05 329.339ZM1395.18 323.554C1394.66 323.211 1393.96 323.35 1393.59 323.871C1393.22 324.391 1393.33 325.063 1393.85 325.405C1394.38 325.748 1395.07 325.609 1395.44 325.088C1395.81 324.568 1395.7 323.896 1395.18 323.554Z" fill="#0A3D7A"/>
<path d="M1391.75 328.359C1389.61 326.951 1389.1 324.026 1390.63 321.885C1392.16 319.745 1395.18 319.141 1397.32 320.55C1399.46 321.958 1399.96 324.883 1398.44 327.023C1396.86 329.174 1393.89 329.767 1391.75 328.359ZM1395.88 322.574C1394.83 321.889 1393.35 322.186 1392.61 323.227C1391.86 324.269 1392.11 325.707 1393.15 326.392C1394.19 327.077 1395.68 326.781 1396.42 325.739C1397.16 324.65 1396.92 323.259 1395.88 322.574Z" fill="#0A3D7A"/>
<path d="M1263.04 419.343C1266.93 418.562 1269.56 414.885 1268.91 411.13C1268.27 407.374 1264.59 404.963 1260.7 405.744C1256.82 406.525 1254.19 410.202 1254.83 413.957C1255.48 417.712 1259.15 420.124 1263.04 419.343Z" fill="#0A3D7A"/>
<path d="M1258.41 417.406C1255.69 415.617 1255.07 412.021 1257.01 409.302C1258.95 406.583 1262.67 405.841 1265.38 407.63C1268.1 409.419 1268.72 413.015 1266.78 415.734C1264.84 418.453 1261.07 419.205 1258.41 417.406ZM1262.54 411.621C1262.01 411.279 1261.32 411.417 1260.95 411.938C1260.58 412.459 1260.69 413.13 1261.21 413.473C1261.73 413.815 1262.43 413.677 1262.8 413.156C1263.17 412.635 1263.06 411.964 1262.54 411.621Z" fill="#0A3D7A"/>
<path d="M1259.06 416.43C1256.92 415.021 1256.42 412.096 1257.94 409.956C1259.47 407.815 1262.49 407.212 1264.63 408.62C1266.77 410.028 1267.28 412.953 1265.75 415.094C1264.22 417.234 1261.25 417.828 1259.06 416.43ZM1263.24 410.635C1262.2 409.95 1260.71 410.246 1259.97 411.288C1259.22 412.329 1259.47 413.768 1260.51 414.453C1261.55 415.138 1263.04 414.841 1263.78 413.8C1264.52 412.711 1264.28 411.32 1263.24 410.635Z" fill="#0A3D7A"/>
<path d="M823.493 128.475C820.313 126.389 819.572 122.08 821.838 118.85C824.112 115.669 828.575 114.773 831.804 116.849C834.984 118.935 835.725 123.245 833.459 126.474C831.136 129.665 826.673 130.561 823.493 128.475Z" fill="#0A3D7A"/>
<path d="M824.161 127.548C821.444 125.759 820.824 122.162 822.764 119.443C824.705 116.725 828.42 115.983 831.137 117.771C833.855 119.56 834.474 123.157 832.534 125.876C830.594 128.595 826.829 129.347 824.161 127.548ZM828.289 121.763C827.769 121.42 827.075 121.559 826.704 122.08C826.332 122.6 826.448 123.272 826.968 123.614C827.488 123.957 828.182 123.818 828.554 123.298C828.925 122.777 828.809 122.106 828.289 121.763Z" fill="#0A3D7A"/>
<path d="M824.864 126.568C822.726 125.159 822.221 122.234 823.749 120.094C825.276 117.953 828.298 117.35 830.437 118.758C832.576 120.166 833.08 123.092 831.553 125.232C830.026 127.372 827.003 127.976 824.864 126.568ZM828.992 120.783C827.952 120.098 826.466 120.395 825.723 121.436C824.98 122.477 825.227 123.916 826.268 124.601C827.309 125.286 828.795 124.989 829.538 123.948C830.273 122.859 830.033 121.468 828.992 120.783Z" fill="#0A3D7A"/>
<path d="M942.446 191.115C946.334 190.335 948.963 186.657 948.317 182.902C947.672 179.147 943.996 176.735 940.107 177.516C936.219 178.297 933.59 181.974 934.236 185.729C934.881 189.485 938.557 191.896 942.446 191.115Z" fill="#0A3D7A"/>
<path d="M937.81 189.175C935.093 187.386 934.473 183.789 936.413 181.07C938.353 178.352 942.069 177.609 944.786 179.398C947.503 181.187 948.123 184.784 946.183 187.503C944.242 190.222 940.477 190.973 937.81 189.175ZM941.938 183.39C941.417 183.047 940.724 183.186 940.352 183.706C939.981 184.227 940.096 184.898 940.617 185.241C941.137 185.584 941.831 185.445 942.202 184.924C942.574 184.404 942.458 183.732 941.938 183.39Z" fill="#0A3D7A"/>
<path d="M938.509 188.193C936.37 186.784 935.866 183.859 937.393 181.719C938.921 179.578 941.943 178.975 944.082 180.383C946.221 181.791 946.725 184.717 945.198 186.857C943.621 189.007 940.648 189.601 938.509 188.193ZM942.637 182.408C941.596 181.723 940.11 182.02 939.367 183.061C938.624 184.102 938.872 185.541 939.913 186.226C940.953 186.911 942.44 186.614 943.183 185.573C943.926 184.532 943.678 183.093 942.637 182.408Z" fill="#0A3D7A"/>
<path d="M1141.37 315.622C1145.26 314.841 1147.88 311.164 1147.24 307.409C1146.59 303.654 1142.92 301.242 1139.03 302.023C1135.14 302.804 1132.51 306.481 1133.16 310.236C1133.8 313.992 1137.48 316.403 1141.37 315.622Z" fill="#0A3D7A"/>
<path d="M1136.73 313.681C1134.01 311.892 1133.39 308.296 1135.33 305.577C1137.27 302.858 1140.99 302.116 1143.7 303.905C1146.42 305.694 1147.04 309.29 1145.1 312.009C1143.16 314.728 1139.4 315.48 1136.73 313.681ZM1140.86 307.896C1140.34 307.554 1139.64 307.692 1139.27 308.213C1138.9 308.734 1139.01 309.405 1139.53 309.747C1140.05 310.09 1140.75 309.951 1141.12 309.431C1141.49 308.91 1141.37 308.191 1140.86 307.896Z" fill="#0A3D7A"/>
<path d="M1137.43 312.699C1135.29 311.29 1134.79 308.365 1136.32 306.225C1137.84 304.084 1140.86 303.481 1143 304.889C1145.14 306.297 1145.65 309.222 1144.12 311.363C1142.54 313.513 1139.57 314.107 1137.43 312.699ZM1141.56 306.914C1140.52 306.229 1139.03 306.525 1138.29 307.567C1137.55 308.608 1137.79 310.047 1138.83 310.732C1139.87 311.417 1141.36 311.12 1142.1 310.079C1142.84 308.989 1142.6 307.599 1141.56 306.914Z" fill="#0A3D7A"/>
<path d="M1075.69 155.651C1079.58 154.871 1082.21 151.193 1081.56 147.438C1080.92 143.683 1077.24 141.272 1073.35 142.052C1069.46 142.833 1066.84 146.51 1067.48 150.266C1068.13 154.021 1071.8 156.432 1075.69 155.651Z" fill="#0A3D7A"/>
<path d="M1071.07 153.763C1068.35 151.974 1067.73 148.378 1069.67 145.659C1071.61 142.94 1075.33 142.198 1078.04 143.987C1080.76 145.776 1081.38 149.372 1079.44 152.091C1077.49 154.762 1073.73 155.514 1071.07 153.763ZM1075.19 147.93C1074.67 147.588 1073.97 147.726 1073.6 148.247C1073.23 148.768 1073.35 149.439 1073.87 149.781C1074.39 150.124 1075.08 149.986 1075.45 149.465C1075.82 148.944 1075.71 148.273 1075.19 147.93Z" fill="#0A3D7A"/>
<path d="M1071.77 152.784C1069.63 151.375 1069.12 148.45 1070.65 146.31C1072.18 144.169 1075.2 143.566 1077.34 144.974C1079.48 146.382 1079.98 149.308 1078.46 151.448C1076.88 153.598 1073.91 154.192 1071.77 152.784ZM1075.89 146.951C1074.85 146.266 1073.36 146.563 1072.62 147.604C1071.87 148.645 1072.12 150.084 1073.16 150.769C1074.2 151.454 1075.69 151.157 1076.43 150.116C1077.18 149.075 1076.93 147.636 1075.89 146.951Z" fill="#0A3D7A"/>
<path d="M1076.42 249.329C1073.36 247.312 1072.65 243.188 1074.83 240.122C1077.02 237.056 1081.28 236.205 1084.35 238.222C1087.41 240.239 1088.12 244.363 1085.93 247.429C1083.79 250.485 1079.48 251.346 1076.42 249.329ZM1080.6 243.534C1080.48 243.458 1080.28 243.498 1080.2 243.613C1080.12 243.729 1080.15 243.921 1080.27 243.997C1080.38 244.073 1080.58 244.033 1080.66 243.918C1080.75 243.802 1080.71 243.61 1080.6 243.534Z" fill="#0A3D7A"/>
<path d="M1076.92 248.635C1074.26 246.884 1073.63 243.239 1075.52 240.53C1077.42 237.87 1081.19 237.118 1083.9 238.859C1086.56 240.61 1087.18 244.255 1085.29 246.964C1083.35 249.682 1079.64 250.424 1076.92 248.635ZM1081.05 242.851C1080.53 242.508 1079.83 242.646 1079.46 243.167C1079.09 243.688 1079.21 244.359 1079.73 244.701C1080.25 245.044 1080.94 244.906 1081.31 244.385C1081.68 243.864 1081.57 243.193 1081.05 242.851Z" fill="#0A3D7A"/>
<path d="M890.51 117.261C887.446 115.244 886.735 111.119 888.923 108.053C891.111 104.987 895.372 104.137 898.436 106.154C901.499 108.171 902.21 112.295 900.022 115.361C897.884 118.417 893.623 119.268 890.51 117.261ZM894.687 111.466C894.572 111.39 894.374 111.429 894.291 111.545C894.208 111.661 894.241 111.853 894.357 111.929C894.473 112.005 894.671 111.965 894.753 111.85C894.836 111.734 894.803 111.542 894.687 111.466Z" fill="#0A3D7A"/>
<path d="M891.01 116.567C888.35 114.816 887.721 111.171 889.612 108.462C891.511 105.801 895.276 105.05 897.986 106.791C900.645 108.542 901.274 112.187 899.384 114.896C897.444 117.614 893.727 118.356 891.01 116.567ZM895.187 110.773C894.667 110.43 893.973 110.568 893.602 111.089C893.23 111.609 893.346 112.281 893.866 112.623C894.387 112.966 895.08 112.828 895.452 112.307C895.823 111.786 895.707 111.115 895.187 110.773Z" fill="#0A3D7A"/>
<path d="M892.713 232.075C889.649 230.058 888.938 225.934 891.126 222.868C893.314 219.802 897.575 218.951 900.639 220.968C903.703 222.985 904.413 227.11 902.226 230.176C900.038 233.242 895.777 234.093 892.713 232.075Z" fill="#0A3D7A"/>
<path d="M893.209 231.384C890.549 229.633 889.921 225.989 891.811 223.28C893.71 220.619 897.476 219.868 900.185 221.609C902.845 223.36 903.473 227.005 901.583 229.713C899.643 232.432 895.877 233.183 893.209 231.384ZM897.337 225.6C896.816 225.257 896.123 225.396 895.751 225.916C895.38 226.437 895.496 227.108 896.016 227.451C896.536 227.794 897.23 227.655 897.601 227.135C897.973 226.614 897.857 225.943 897.337 225.6Z" fill="#0A3D7A"/>
<path d="M1324.03 509.721C1320.97 507.704 1320.25 503.58 1322.44 500.514C1324.63 497.448 1328.89 496.597 1331.96 498.614C1335.02 500.632 1335.73 504.756 1333.54 507.822C1331.35 510.888 1327.09 511.739 1324.03 509.721ZM1328.16 503.937C1328.04 503.86 1327.84 503.9 1327.76 504.016C1327.68 504.131 1327.71 504.323 1327.83 504.399C1327.94 504.475 1328.14 504.436 1328.22 504.32C1328.36 504.195 1328.32 504.003 1328.16 503.937Z" fill="#0A3D7A"/>
<path d="M1324.53 509.026C1321.87 507.275 1321.24 503.63 1323.13 500.922C1325.03 498.261 1328.79 497.51 1331.5 499.251C1334.16 501.002 1334.79 504.646 1332.9 507.355C1330.96 510.074 1327.24 510.815 1324.53 509.026ZM1328.65 503.242C1328.13 502.899 1327.44 503.038 1327.07 503.558C1326.7 504.079 1326.81 504.75 1327.33 505.093C1327.85 505.435 1328.55 505.297 1328.92 504.776C1329.29 504.256 1329.17 503.584 1328.65 503.242Z" fill="#0A3D7A"/>
<path d="M964.385 173.025C961.321 171.008 960.61 166.884 962.798 163.818C964.986 160.752 969.247 159.901 972.311 161.918C975.375 163.936 976.085 168.06 973.897 171.126C971.71 174.192 967.449 175.043 964.385 173.025ZM968.513 167.24C968.397 167.164 968.199 167.204 968.116 167.32C968.034 167.435 968.067 167.627 968.183 167.703C968.298 167.779 968.496 167.74 968.579 167.624C968.662 167.508 968.628 167.316 968.513 167.24Z" fill="#0A3D7A"/>
<path d="M964.881 172.328C962.221 170.577 961.593 166.933 963.483 164.224C965.382 161.563 969.147 160.812 971.857 162.553C974.516 164.304 975.145 167.949 973.255 170.658C971.315 173.376 967.549 174.128 964.881 172.328ZM969.009 166.544C968.488 166.202 967.795 166.34 967.423 166.861C967.052 167.381 967.167 168.053 967.688 168.395C968.208 168.738 968.902 168.599 969.273 168.079C969.645 167.558 969.529 166.887 969.009 166.544Z" fill="#0A3D7A"/>
<path d="M1253.74 557.52C1250.68 555.502 1249.97 551.378 1252.16 548.312C1254.35 545.246 1258.61 544.395 1261.67 546.413C1264.73 548.43 1265.44 552.554 1263.26 555.62C1261.07 558.686 1256.81 559.537 1253.74 557.52ZM1257.86 551.687C1257.75 551.611 1257.55 551.65 1257.47 551.766C1257.38 551.882 1257.42 552.073 1257.53 552.15C1257.65 552.226 1257.85 552.186 1257.93 552.07C1258.01 551.955 1257.99 551.811 1257.86 551.687Z" fill="#0A3D7A"/>
<path d="M1254.24 556.826C1251.58 555.075 1250.95 551.43 1252.84 548.722C1254.74 546.061 1258.51 545.309 1261.22 547.051C1263.88 548.802 1264.5 552.446 1262.61 555.155C1260.67 557.825 1256.9 558.577 1254.24 556.826Z" fill="#0A3D7A"/>
<path d="M1205.88 348.781C1202.81 346.764 1202.1 342.639 1204.29 339.573C1206.48 336.507 1210.74 335.657 1213.8 337.674C1216.87 339.691 1217.58 343.815 1215.39 346.881C1213.25 349.937 1208.94 350.798 1205.88 348.781ZM1210.05 342.986C1209.94 342.91 1209.74 342.949 1209.66 343.065C1209.58 343.181 1209.61 343.373 1209.72 343.449C1209.84 343.525 1210.04 343.485 1210.12 343.37C1210.2 343.254 1210.17 343.062 1210.05 342.986Z" fill="#0A3D7A"/>
<path d="M1206.38 348.089C1203.72 346.338 1203.09 342.693 1204.98 339.984C1206.88 337.323 1210.64 336.572 1213.35 338.313C1216.01 340.064 1216.64 343.709 1214.75 346.418C1212.81 349.136 1209.09 349.878 1206.38 348.089ZM1210.5 342.304C1209.98 341.962 1209.29 342.1 1208.92 342.621C1208.55 343.141 1208.66 343.813 1209.18 344.155C1209.7 344.498 1210.4 344.36 1210.77 343.839C1211.14 343.318 1211.02 342.647 1210.5 342.304Z" fill="#0A3D7A"/>
<path d="M1242.06 397.944C1238.99 395.927 1238.28 391.803 1240.47 388.737C1242.66 385.671 1246.92 384.82 1249.98 386.837C1253.05 388.854 1253.76 392.978 1251.57 396.044C1249.43 399.101 1245.12 399.961 1242.06 397.944ZM1246.23 392.149C1246.12 392.073 1245.92 392.113 1245.84 392.228C1245.76 392.344 1245.79 392.536 1245.9 392.612C1246.02 392.688 1246.22 392.649 1246.3 392.533C1246.38 392.417 1246.35 392.225 1246.23 392.149Z" fill="#0A3D7A"/>
<path d="M1267.4 340.396C1264.34 338.379 1263.63 334.255 1265.82 331.189C1268.01 328.123 1272.27 327.272 1275.33 329.289C1278.39 331.306 1279.1 335.43 1276.92 338.496C1274.73 341.562 1270.47 342.413 1267.4 340.396ZM1271.52 334.563C1271.41 334.487 1271.21 334.527 1271.13 334.642C1271.05 334.758 1271.08 334.95 1271.19 335.026C1271.31 335.102 1271.51 335.062 1271.59 334.947C1271.67 334.831 1271.65 334.687 1271.52 334.563Z" fill="#0A3D7A"/>
<path d="M1267.9 339.704C1265.24 337.953 1264.62 334.309 1266.51 331.6C1268.41 328.939 1272.17 328.188 1274.88 329.929C1277.54 331.68 1278.17 335.325 1276.28 338.033C1274.33 340.704 1270.56 341.455 1267.9 339.704ZM1272.02 333.872C1271.5 333.529 1270.81 333.668 1270.44 334.188C1270.07 334.709 1270.18 335.38 1270.7 335.723C1271.22 336.066 1271.92 335.927 1272.29 335.407C1272.67 334.934 1272.54 334.215 1272.02 333.872Z" fill="#0A3D7A"/>
<path d="M880.787 159.326C877.723 157.309 877.012 153.185 879.2 150.119C881.388 147.053 885.649 146.202 888.713 148.219C891.777 150.236 892.488 154.36 890.3 157.426C888.162 160.482 883.851 161.343 880.787 159.326ZM884.965 153.531C884.849 153.455 884.651 153.495 884.568 153.61C884.486 153.726 884.519 153.918 884.634 153.994C884.75 154.07 884.948 154.031 885.031 153.915C885.113 153.799 885.08 153.607 884.965 153.531Z" fill="#0A3D7A"/>
<path d="M881.287 158.634C878.627 156.883 877.999 153.239 879.889 150.53C881.788 147.869 885.554 147.118 888.263 148.859C890.923 150.61 891.551 154.255 889.661 156.963C887.721 159.682 884.005 160.424 881.287 158.634ZM885.415 152.85C884.895 152.507 884.201 152.646 883.829 153.166C883.458 153.687 883.574 154.358 884.094 154.701C884.614 155.044 885.308 154.905 885.68 154.385C886.051 153.864 885.935 153.193 885.415 152.85Z" fill="#0A3D7A"/>
<path d="M767.177 117.37C764.113 115.353 763.403 111.229 765.591 108.163C767.779 105.097 772.04 104.246 775.104 106.263C778.168 108.28 778.878 112.404 776.69 115.47C774.502 118.536 770.241 119.387 767.177 117.37ZM771.297 111.537C771.182 111.461 770.984 111.5 770.901 111.616C770.818 111.732 770.852 111.924 770.967 112C771.083 112.076 771.281 112.036 771.363 111.921C771.446 111.805 771.421 111.661 771.297 111.537Z" fill="#0A3D7A"/>
<path d="M767.672 116.675C765.013 114.924 764.385 111.28 766.276 108.571C768.175 105.91 771.94 105.158 774.649 106.898C777.308 108.649 777.936 112.293 776.045 115.002C774.097 117.673 770.331 118.426 767.672 116.675ZM771.792 110.842C771.272 110.5 770.578 110.638 770.207 111.159C769.835 111.679 769.951 112.351 770.471 112.693C770.991 113.036 771.685 112.897 772.057 112.377C772.436 111.904 772.312 111.185 771.792 110.842Z" fill="#0A3D7A"/>
<path d="M812.766 144.907C810.107 143.156 809.479 139.512 811.369 136.803C813.269 134.142 817.034 133.389 819.743 135.13C822.402 136.881 823.03 140.525 821.139 143.234C819.249 145.943 815.425 146.657 812.766 144.907Z" fill="#0A3D7A"/>
<path d="M852.551 169.538C849.892 167.787 849.264 164.143 851.155 161.434C853.054 158.772 856.819 158.02 859.528 159.761C862.187 161.512 862.815 165.156 860.924 167.865C858.976 170.536 855.26 171.278 852.551 169.538Z" fill="#0A3D7A"/>
<path d="M882.141 35.5735C879.482 33.8229 878.854 30.1784 880.745 27.4692C882.644 24.808 886.409 24.0558 889.118 25.7965C891.778 27.5471 892.406 31.1917 890.515 33.9008C888.624 36.61 884.809 37.3721 882.141 35.5735Z" fill="#0A3D7A"/>
<path d="M851.914 209.207C849.255 207.457 848.627 203.812 850.518 201.103C852.417 198.442 856.182 197.69 858.891 199.431C861.55 201.181 862.178 204.826 860.288 207.535C858.339 210.206 854.623 210.948 851.914 209.207Z" fill="#0A3D7A"/>
<path d="M893.578 137.68C890.919 135.929 890.291 132.285 892.182 129.576C894.081 126.914 897.847 126.162 900.556 127.903C903.215 129.654 903.843 133.298 901.952 136.007C900.012 138.726 896.296 139.469 893.578 137.68Z" fill="#0A3D7A"/>
<path d="M942.059 234.804C939.4 233.054 938.772 229.409 940.662 226.7C942.561 224.039 946.327 223.287 949.036 225.028C951.695 226.778 952.323 230.423 950.432 233.132C948.483 235.803 944.767 236.545 942.059 234.804Z" fill="#0A3D7A"/>
<path d="M961.703 114.598C959.044 112.847 958.416 109.203 960.307 106.494C962.206 103.833 965.971 103.081 968.68 104.821C971.339 106.572 971.967 110.216 970.077 112.925C968.128 115.596 964.412 116.339 961.703 114.598Z" fill="#0A3D7A"/>
<path d="M1284.52 504.318C1281.86 502.568 1281.23 498.923 1283.12 496.214C1285.02 493.553 1288.78 492.8 1291.49 494.541C1294.15 496.292 1294.78 499.936 1292.89 502.645C1291 505.355 1287.23 506.107 1284.52 504.318Z" fill="#0A3D7A"/>
<path d="M1301.09 424.801C1298.43 423.05 1297.8 419.406 1299.69 416.697C1301.59 414.036 1305.36 413.283 1308.07 415.024C1310.73 416.775 1311.35 420.419 1309.46 423.128C1307.52 425.847 1303.81 426.59 1301.09 424.801Z" fill="#0A3D7A"/>
<path d="M1340.47 358.889C1337.81 357.139 1337.18 353.494 1339.07 350.785C1340.97 348.124 1344.73 347.371 1347.44 349.112C1350.1 350.863 1350.73 354.507 1348.84 357.217C1346.9 359.936 1343.18 360.678 1340.47 358.889Z" fill="#0A3D7A"/>
<path d="M933.868 145.515C931.208 143.764 930.58 140.119 932.471 137.41C934.37 134.749 938.136 133.997 940.845 135.737C943.504 137.488 944.132 141.133 942.241 143.842C940.301 146.561 936.585 147.303 933.868 145.515Z" fill="#0A3D7A"/>
<path d="M987.605 116.941C984.946 115.191 984.318 111.546 986.209 108.837C988.099 106.128 991.874 105.423 994.582 107.164C997.242 108.915 997.87 112.559 995.979 115.269C994.038 117.988 990.322 118.73 987.605 116.941Z" fill="#0A3D7A"/>
<path d="M798.695 167.659C796.036 165.909 795.408 162.264 797.298 159.555C799.189 156.845 802.963 156.141 805.672 157.882C808.332 159.633 808.96 163.277 807.069 165.986C805.128 168.706 801.363 169.458 798.695 167.659Z" fill="#0A3D7A"/>
<path d="M1287.68 490.41C1285.02 488.659 1284.39 485.014 1286.28 482.305C1288.18 479.644 1291.94 478.892 1294.65 480.632C1297.31 482.383 1297.94 486.028 1296.05 488.737C1294.16 491.446 1290.34 492.208 1287.68 490.41Z" fill="#0A3D7A"/>
<path d="M876.895 210.106C874.236 208.356 873.608 204.711 875.498 202.002C877.398 199.341 881.163 198.588 883.872 200.329C886.531 202.08 887.159 205.724 885.268 208.434C883.328 211.153 879.612 211.895 876.895 210.106Z" fill="#0A3D7A"/>
<path d="M913.726 161.423C911.067 159.672 910.439 156.028 912.33 153.319C914.22 150.61 917.994 149.905 920.703 151.646C923.362 153.397 923.99 157.041 922.1 159.75C920.151 162.421 916.385 163.174 913.726 161.423Z" fill="#0A3D7A"/>
<path d="M1299.76 391.897C1297.1 390.147 1296.47 386.502 1298.36 383.793C1300.26 381.132 1304.03 380.38 1306.74 382.12C1309.39 383.871 1310.02 387.515 1308.13 390.225C1306.19 392.944 1302.48 393.686 1299.76 391.897Z" fill="#0A3D7A"/>
<path d="M1206.38 348.091C1203.72 346.341 1203.09 342.696 1204.98 339.987C1206.88 337.326 1210.64 336.574 1213.35 338.314C1216.01 340.065 1216.64 343.709 1214.75 346.419C1212.81 349.138 1209.09 349.88 1206.38 348.091ZM1210.5 342.306C1209.98 341.964 1209.29 342.102 1208.92 342.623C1208.55 343.143 1208.66 343.815 1209.18 344.157C1209.7 344.5 1210.4 344.361 1210.77 343.841C1211.14 343.32 1211.02 342.649 1210.5 342.306Z" fill="#0A3D7A"/>
<path d="M1311.98 294.716C1309.33 292.966 1308.7 289.321 1310.59 286.612C1312.49 283.951 1316.25 283.199 1318.96 284.939C1321.62 286.69 1322.25 290.334 1320.36 293.044C1318.41 295.714 1314.64 296.467 1311.98 294.716Z" fill="#0A3D7A"/>
<path d="M1235.11 464.281C1232.45 462.53 1231.82 458.886 1233.71 456.177C1235.61 453.516 1239.37 452.764 1242.08 454.504C1244.74 456.255 1245.37 459.899 1243.48 462.608C1241.59 465.318 1237.76 466.032 1235.11 464.281Z" fill="#0A3D7A"/>
<path d="M1230.17 411.719C1227.51 409.969 1226.88 406.324 1228.77 403.615C1230.67 400.954 1234.44 400.202 1237.15 401.943C1239.8 403.693 1240.43 407.338 1238.54 410.047C1236.59 412.718 1232.88 413.46 1230.17 411.719Z" fill="#0A3D7A"/>
<path d="M1263.43 375.25C1260.77 373.499 1260.14 369.855 1262.03 367.145C1263.93 364.484 1267.69 363.732 1270.4 365.473C1273.06 367.223 1273.69 370.868 1271.8 373.577C1269.86 376.296 1266.09 377.048 1263.43 375.25Z" fill="#0A3D7A"/>
<path d="M1025.12 187.096C1022.46 185.345 1021.83 181.701 1023.72 178.992C1025.62 176.331 1029.39 175.578 1032.1 177.319C1034.76 179.07 1035.39 182.714 1033.49 185.423C1031.55 188.094 1027.83 188.836 1025.12 187.096ZM1029.25 181.311C1028.73 180.968 1028.04 181.107 1027.66 181.627C1027.29 182.148 1027.41 182.819 1027.93 183.162C1028.45 183.504 1029.14 183.366 1029.51 182.845C1029.89 182.325 1029.77 181.653 1029.25 181.311Z" fill="#0A3D7A"/>
<path d="M1205.08 347.925C1202.42 346.174 1201.8 342.53 1203.69 339.821C1205.58 337.159 1209.35 336.407 1212.06 338.148C1214.72 339.898 1215.35 343.543 1213.46 346.252C1211.51 348.923 1207.74 349.675 1205.08 347.925ZM1209.21 342.14C1208.69 341.797 1208 341.936 1207.63 342.456C1207.25 342.977 1207.37 343.648 1207.89 343.991C1208.41 344.333 1209.1 344.195 1209.48 343.674C1209.85 343.153 1209.72 342.434 1209.21 342.14Z" fill="#0A3D7A"/>
<path d="M1123.62 203.363C1120.96 201.612 1120.33 197.968 1122.22 195.259C1124.12 192.597 1127.89 191.845 1130.59 193.586C1133.25 195.336 1133.88 198.981 1131.99 201.69C1130.05 204.409 1126.33 205.152 1123.62 203.363Z" fill="#0A3D7A"/>
<path d="M1105.39 171.54C1102.73 169.79 1102.1 166.145 1103.99 163.436C1105.89 160.775 1109.66 160.023 1112.37 161.764C1115.03 163.514 1115.65 167.159 1113.76 169.868C1111.82 172.539 1108.1 173.281 1105.39 171.54Z" fill="#0A3D7A"/>
<path d="M1025 187.141C1022.34 185.391 1021.72 181.746 1023.61 179.037C1025.51 176.376 1029.27 175.624 1031.98 177.364C1034.64 179.115 1035.27 182.76 1033.38 185.469C1031.49 188.178 1027.66 188.892 1025 187.141Z" fill="#0A3D7A"/>
<path d="M1182.18 287.207C1179.35 285.342 1178.7 281.554 1180.72 278.719C1182.74 275.884 1186.66 275.103 1189.49 276.967C1192.32 278.832 1192.97 282.62 1190.95 285.455C1188.93 288.29 1185.01 289.072 1182.18 287.207Z" fill="#0A3D7A"/>
<path d="M1188.13 207.133C1184.84 204.964 1184.08 200.552 1186.43 197.255C1188.79 193.957 1193.34 193.047 1196.64 195.216C1199.93 197.385 1200.69 201.797 1198.34 205.094C1195.99 208.392 1191.43 209.302 1188.13 207.133ZM1192.47 201.059C1192.41 201.021 1192.26 201.05 1192.22 201.108C1192.1 201.282 1192.39 201.472 1192.51 201.298C1192.6 201.231 1192.58 201.087 1192.47 201.059Z" fill="#0A3D7A"/>
<path d="M1117.06 139.04C1113.77 136.871 1113.01 132.459 1115.36 129.162C1117.72 125.864 1122.27 124.954 1125.57 127.123C1128.86 129.292 1129.62 133.704 1127.27 137.001C1124.97 140.289 1120.36 141.209 1117.06 139.04ZM1121.45 132.956C1121.39 132.918 1121.24 132.947 1121.2 133.005C1121.08 133.179 1121.37 133.369 1121.49 133.196C1121.52 133.09 1121.51 132.994 1121.45 132.956Z" fill="#0A3D7A"/>
<path d="M1041.08 229.121C1037.78 226.952 1037.02 222.541 1039.38 219.243C1041.73 215.946 1046.29 215.035 1049.58 217.204C1052.88 219.374 1053.64 223.785 1051.29 227.083C1048.93 230.38 1044.37 231.291 1041.08 229.121ZM1045.41 223.047C1045.36 223.009 1045.21 223.039 1045.17 223.097C1045.04 223.27 1045.33 223.46 1045.46 223.287C1045.55 223.219 1045.52 223.075 1045.41 223.047Z" fill="#0A3D7A"/>
<path d="M1167.56 296.029C1164.26 293.86 1163.5 289.448 1165.85 286.151C1168.21 282.853 1172.77 281.943 1176.06 284.112C1179.36 286.281 1180.12 290.693 1177.76 293.99C1175.41 297.288 1170.85 298.198 1167.56 296.029ZM1171.89 289.955C1171.83 289.917 1171.68 289.946 1171.64 290.004C1171.52 290.178 1171.81 290.368 1171.93 290.194C1172.01 290.079 1172 289.983 1171.89 289.955Z" fill="#0A3D7A"/>
<path d="M962.572 144.096C959.277 141.927 958.517 137.515 960.87 134.217C963.223 130.92 967.781 130.01 971.076 132.179C974.371 134.348 975.132 138.76 972.778 142.057C970.425 145.355 965.817 146.275 962.572 144.096ZM966.907 138.022C966.849 137.984 966.7 138.013 966.659 138.071C966.535 138.245 966.824 138.435 966.948 138.261C967.039 138.194 967.014 138.05 966.907 138.022Z" fill="#0A3D7A"/>
<path d="M229.843 651.946L253.09 713.214" stroke="#0A3D7A" stroke-width="1.4191" stroke-miterlimit="10"/>
<path d="M252.828 713.335L299.012 686.57" stroke="#0A3D7A" stroke-width="1.4191" stroke-miterlimit="10"/>
<path d="M298.746 685.949L229.845 652.446" stroke="#0A3D7A" stroke-width="1.4191" stroke-miterlimit="10"/>
<path d="M267.133 705.008L229.844 652.136" stroke="#0A3D7A" stroke-width="1.4191" stroke-miterlimit="10"/>
<path d="M253.832 713.335L245.808 794.168" stroke="#0A3D7A" stroke-width="1.4191" stroke-miterlimit="10"/>
<path d="M246.547 794.822L325.188 819.082" stroke="#0A3D7A" stroke-width="1.4191" stroke-miterlimit="10"/>
<path d="M324.463 819.735L359.284 751.615" stroke="#0A3D7A" stroke-width="1.4191" stroke-miterlimit="10"/>
<path d="M359.205 751.613L364.02 846.789" stroke="#0A3D7A" stroke-width="1.4191" stroke-miterlimit="10"/>
<path d="M364.668 846.475L330.037 829.032" stroke="#0A3D7A" stroke-width="1.4191" stroke-miterlimit="10"/>
<path d="M359.537 751.447L316.467 862.312" stroke="#0A3D7A" stroke-width="1.4191" stroke-miterlimit="10"/>
<path d="M317.629 862.229L296.792 862.894" stroke="#0A3D7A" stroke-width="1.4191" stroke-miterlimit="10"/>
<path d="M296.328 862.811L325.652 819.733" stroke="#0A3D7A" stroke-width="1.4191" stroke-miterlimit="10"/>
<path d="M325.188 819.632L311.859 796.993" stroke="#0A3D7A" stroke-width="1.4191" stroke-miterlimit="10"/>
<path d="M312.259 796.889L317.232 862.312" stroke="#0A3D7A" stroke-width="1.4191" stroke-miterlimit="10"/>
<path d="M311.377 796.89L358.862 751.448" stroke="#0A3D7A" stroke-width="1.4191" stroke-miterlimit="10"/>
<path d="M358.373 751.771L393.609 771.907" stroke="#0A3D7A" stroke-width="1.4191" stroke-miterlimit="10"/>
<path d="M393.609 772.312L409.469 813.74" stroke="#0A3D7A" stroke-width="1.4191" stroke-miterlimit="10"/>
<path d="M409.469 813.373L358.373 751.896" stroke="#0A3D7A" stroke-width="1.4191" stroke-miterlimit="10"/>
<path d="M364.779 846.791L317.515 862.312" stroke="#0A3D7A" stroke-width="1.4191" stroke-miterlimit="10"/>
<path d="M246.549 794.597L296.793 862.382" stroke="#0A3D7A" stroke-width="1.4191" stroke-miterlimit="10"/>
<path d="M447.87 883.468L473.773 885.495" stroke="#0A3D7A" stroke-width="1.4191" stroke-miterlimit="10"/>
<path d="M473.456 885.75L501.89 854.747" stroke="#0A3D7A" stroke-width="1.4191" stroke-miterlimit="10"/>
<path d="M501.559 854.459L470.594 828.208" stroke="#0A3D7A" stroke-width="1.4191" stroke-miterlimit="10"/>
<path d="M470.943 827.88L473.367 885.651" stroke="#0A3D7A" stroke-width="1.4191" stroke-miterlimit="10"/>
<path d="M470.303 827.794L497.837 811.075" stroke="#0A3D7A" stroke-width="1.4191" stroke-miterlimit="10"/>
<path d="M497.669 811.469L541.898 862.178" stroke="#0A3D7A" stroke-width="1.4191" stroke-miterlimit="10"/>
<path d="M541.674 862.573L554.593 841.483" stroke="#0A3D7A" stroke-width="1.4191" stroke-miterlimit="10"/>
<path d="M555.793 841.849L497.679 811.651" stroke="#0A3D7A" stroke-width="1.4191" stroke-miterlimit="10"/>
<path d="M497.221 811.073L542.715 768.864" stroke="#0A3D7A" stroke-width="1.4191" stroke-miterlimit="10"/>
<path d="M542.266 768.584L493.417 765.729" stroke="#0A3D7A" stroke-width="1.4191" stroke-miterlimit="10"/>
<path d="M493.685 765.45L497.417 811.171" stroke="#0A3D7A" stroke-width="1.4191" stroke-miterlimit="10"/>
<path d="M501.559 855.039L541.305 862.341" stroke="#0A3D7A" stroke-width="1.4191" stroke-miterlimit="10"/>
<path d="M497.936 811.072L501.298 854.746" stroke="#0A3D7A" stroke-width="1.4191" stroke-miterlimit="10"/>
<path d="M470.469 827.329L410.353 813.623" stroke="#0A3D7A" stroke-width="1.4191" stroke-miterlimit="10"/>
<path d="M471.628 857.254L498.175 811.123" stroke="#0A3D7A" stroke-width="1.4191" stroke-miterlimit="10"/>
<path d="M472.278 857.427L447.591 883.312" stroke="#0A3D7A" stroke-width="1.4191" stroke-miterlimit="10"/>
<path d="M668.801 883.625L611.315 873.126" stroke="#0A3D7A" stroke-width="1.4191" stroke-miterlimit="10"/>
<path d="M610.884 872.705L637.215 832.594" stroke="#0A3D7A" stroke-width="1.4191" stroke-miterlimit="10"/>
<path d="M636.782 832.849L668.75 883.801" stroke="#0A3D7A" stroke-width="1.4191" stroke-miterlimit="10"/>
<path d="M229.957 651.639L171.989 625.728" stroke="#0A3D7A" stroke-width="1.4191" stroke-miterlimit="10"/>
<path d="M167.578 660.342L135.718 608.607" stroke="#0A3D7A" stroke-width="1.4191" stroke-miterlimit="10"/>
<path d="M150.902 496.538L127.294 493.039" stroke="#0A3D7A" stroke-width="1.4191" stroke-miterlimit="10"/>
<path d="M139.461 453.403L150.902 496.674" stroke="#0A3D7A" stroke-width="1.4191" stroke-miterlimit="10"/>
<path d="M201.352 536.179L150.899 497.171" stroke="#0A3D7A" stroke-width="1.4191" stroke-miterlimit="10"/>
<path d="M150.329 496.702L181.811 443.475" stroke="#0A3D7A" stroke-width="1.4191" stroke-miterlimit="10"/>
<path d="M181.24 443.492L201.352 536.631" stroke="#0A3D7A" stroke-width="1.4191" stroke-miterlimit="10"/>
<path d="M139.42 453.374L181.279 443.474" stroke="#0A3D7A" stroke-width="1.4191" stroke-miterlimit="10"/>
<path d="M151.688 496.7L133.602 575.454" stroke="#0A3D7A" stroke-width="1.4191" stroke-miterlimit="10"/>
<path d="M134.387 575.386L110.947 491.292" stroke="#0A3D7A" stroke-width="1.4191" stroke-miterlimit="10"/>
<path d="M110.949 491.327L127.293 492.773" stroke="#0A3D7A" stroke-width="1.4191" stroke-miterlimit="10"/>
<path d="M542.265 769.24L583.512 790.676" stroke="#0A3D7A" stroke-width="1.4191" stroke-miterlimit="10"/>
<path d="M44.4265 671.613L123.5 704.885" stroke="#0A3D7A" stroke-width="1.4191" stroke-miterlimit="10"/>
<path d="M171.988 624.887L135.718 608.676" stroke="#0A3D7A" stroke-width="1.4191" stroke-miterlimit="10"/>
<path d="M135.516 608.299L134.629 575.457" stroke="#0A3D7A" stroke-width="1.4191" stroke-miterlimit="10"/>
<path d="M136.105 608.298L94.0844 641.221" stroke="#0A3D7A" stroke-width="1.4191" stroke-miterlimit="10"/>
<path d="M93.718 641.221L135.173 575.341" stroke="#0A3D7A" stroke-width="1.4191" stroke-miterlimit="10"/>
<path d="M94.4269 641.799L167.578 660.016" stroke="#0A3D7A" stroke-width="1.4191" stroke-miterlimit="10"/>
<path d="M123.017 705.583L168.058 660.594" stroke="#0A3D7A" stroke-width="1.4191" stroke-miterlimit="10"/>
<path d="M123.5 705.396L94.4271 641.407" stroke="#0A3D7A" stroke-width="1.4191" stroke-miterlimit="10"/>
<path d="M94.7234 641.221L44.132 670.915" stroke="#0A3D7A" stroke-width="1.4191" stroke-miterlimit="10"/>
<path d="M123.5 705.143L74.9045 653.015" stroke="#0A3D7A" stroke-width="1.4191" stroke-miterlimit="10"/>
<path d="M542.265 769.008L558.934 790.539" stroke="#0A3D7A" stroke-width="1.4191" stroke-miterlimit="10"/>
<path d="M558.934 790.12L493.474 766.052" stroke="#0A3D7A" stroke-width="1.4191" stroke-miterlimit="10"/>
<path d="M559.401 790.683L553.921 841.628" stroke="#0A3D7A" stroke-width="1.4191" stroke-miterlimit="10"/>
<path d="M558.995 790.751L497.531 811.122" stroke="#0A3D7A" stroke-width="1.4191" stroke-miterlimit="10"/>
<path d="M493.943 765.489L409.633 813.153" stroke="#0A3D7A" stroke-width="1.4191" stroke-miterlimit="10"/>
<path d="M541.974 862.59L473.602 885.652" stroke="#0A3D7A" stroke-width="1.4191" stroke-miterlimit="10"/>
<path d="M554.822 841.629L544.17 884.118" stroke="#0A3D7A" stroke-width="1.4191" stroke-miterlimit="10"/>
<path d="M544.598 882.898L410.103 814.374" stroke="#0A3D7A" stroke-width="1.4191" stroke-miterlimit="10"/>
<path d="M469.883 827.881L494.127 765.488" stroke="#0A3D7A" stroke-width="1.4191" stroke-miterlimit="10"/>
<path d="M558.934 790.872L582.934 830.576" stroke="#0A3D7A" stroke-width="1.4191" stroke-miterlimit="10"/>
<path d="M583.021 830.763L554.302 841.628" stroke="#0A3D7A" stroke-width="1.4191" stroke-miterlimit="10"/>
<path d="M582.588 830.764L584.367 790.552" stroke="#0A3D7A" stroke-width="1.4191" stroke-miterlimit="10"/>
<path d="M584.696 790.551L500.89 854.746" stroke="#0A3D7A" stroke-width="1.4191" stroke-miterlimit="10"/>
<path d="M553.846 841.628L584.573 790.551" stroke="#0A3D7A" stroke-width="1.4191" stroke-miterlimit="10"/>
<path d="M583.509 830.765L544.024 884.118" stroke="#0A3D7A" stroke-width="1.4191" stroke-miterlimit="10"/>
<path d="M612.304 872.704L552.346 964.679" stroke="#0A3D7A" stroke-width="1.4191" stroke-miterlimit="10"/>
<path d="M409.472 813.828L330.035 828.722" stroke="#0A3D7A" stroke-width="1.4191" stroke-miterlimit="10"/>
<path d="M268.029 705.322L245.651 794.168" stroke="#0A3D7A" stroke-width="1.4191" stroke-miterlimit="10"/>
<path d="M317.629 861.657L246.548 794.824" stroke="#0A3D7A" stroke-width="1.4191" stroke-miterlimit="10"/>
<path d="M325.187 819.774L330.578 828.877" stroke="#0A3D7A" stroke-width="1.4191" stroke-miterlimit="10"/>
<path d="M330.094 828.718L315.142 835.165" stroke="#0A3D7A" stroke-width="1.4191" stroke-miterlimit="10"/>
<path d="M311.859 796.546L246.547 794.513" stroke="#0A3D7A" stroke-width="1.4191" stroke-miterlimit="10"/>
<path d="M110.947 492.041L201.352 535.834" stroke="#0A3D7A" stroke-width="1.4191" stroke-miterlimit="10"/>
<path d="M410.355 813.723L473.773 885.083" stroke="#0A3D7A" stroke-width="1.4191" stroke-miterlimit="10"/>
<path d="M554.396 842.267L611.316 872.061" stroke="#0A3D7A" stroke-width="1.4191" stroke-miterlimit="10"/>
<path d="M544.6 884.12L611.316 872.697" stroke="#0A3D7A" stroke-width="1.4191" stroke-miterlimit="10"/>
<path d="M668.625 882.942L582.657 831.301" stroke="#0A3D7A" stroke-width="1.4191" stroke-miterlimit="10"/>
<path d="M267.133 705.719L311.859 796.498" stroke="#0A3D7A" stroke-width="1.4191" stroke-miterlimit="10"/>
<path d="M267.74 706.921L358.559 750.567" stroke="#0A3D7A" stroke-width="1.4191" stroke-miterlimit="10"/>
<path d="M582.647 830.651L636.781 832.257" stroke="#0A3D7A" stroke-width="1.4191" stroke-miterlimit="10"/>
<path d="M473.302 885.999L553.887 962.91" stroke="#0A3D7A" stroke-width="1.4191" stroke-miterlimit="10"/>
<path d="M552.991 964.681L544.956 884.116" stroke="#0A3D7A" stroke-width="1.4191" stroke-miterlimit="10"/>
<path d="M171.521 625.211L205.786 588.581" stroke="#0A3D7A" stroke-width="1.4191" stroke-miterlimit="10"/>
<path d="M166.695 660.594L177.948 582.845" stroke="#0A3D7A" stroke-width="1.4191" stroke-miterlimit="10"/>
<path d="M177.066 583.106L205.316 588.315" stroke="#0A3D7A" stroke-width="1.4191" stroke-miterlimit="10"/>
<path d="M135.408 608.354L177.368 582.795" stroke="#0A3D7A" stroke-width="1.4191" stroke-miterlimit="10"/>
<path d="M134.386 575.835L177.074 582.51" stroke="#0A3D7A" stroke-width="1.4191" stroke-miterlimit="10"/>
<path d="M176.482 582.845L201.938 536.649" stroke="#0A3D7A" stroke-width="1.4191" stroke-miterlimit="10"/>
<path d="M201.764 536.645L204.904 588.579" stroke="#0A3D7A" stroke-width="1.4191" stroke-miterlimit="10"/>
<path d="M229.957 651.552L177.078 583.452" stroke="#0A3D7A" stroke-width="1.4191" stroke-miterlimit="10"/>
<path d="M43.2537 664.108C39.3652 664.889 36.7363 668.566 37.3821 672.321C38.0278 676.076 41.7035 678.488 45.5921 677.707C49.4806 676.926 52.1094 673.249 51.4636 669.494C50.8179 665.738 47.1422 663.327 43.2537 664.108Z" fill="#0A3D7A"/>
<path d="M47.8936 666.053C50.6106 667.842 51.2305 671.439 49.2903 674.158C47.3502 676.877 43.6344 677.619 40.9173 675.83C38.2003 674.041 37.5804 670.444 39.5206 667.725C41.4607 665.006 45.2261 664.255 47.8936 666.053ZM43.7656 671.838C44.2859 672.181 44.9796 672.042 45.3511 671.522C45.7226 671.001 45.6069 670.33 45.0866 669.987C44.5663 669.644 43.8726 669.783 43.5011 670.304C43.1296 670.824 43.2453 671.496 43.7656 671.838Z" fill="#0A3D7A"/>
<path d="M47.1941 667.033C49.333 668.441 49.8372 671.366 48.3099 673.507C46.7825 675.647 43.7603 676.251 41.6214 674.843C39.4824 673.434 38.9783 670.509 40.5056 668.369C42.0825 666.218 45.0552 665.625 47.1941 667.033ZM43.0661 672.818C44.1067 673.503 45.593 673.206 46.3361 672.165C47.0791 671.123 46.8311 669.685 45.7906 669C44.75 668.315 43.2637 668.611 42.5207 669.653C41.7859 670.742 42.0256 672.133 43.0661 672.818Z" fill="#0A3D7A"/>
<path d="M175.902 576.049C172.013 576.83 169.385 580.507 170.03 584.262C170.676 588.018 174.352 590.429 178.24 589.648C182.129 588.868 184.758 585.19 184.112 581.435C183.466 577.68 179.791 575.268 175.902 576.049Z" fill="#0A3D7A"/>
<path d="M180.538 577.986C183.255 579.775 183.875 583.371 181.935 586.09C179.995 588.809 176.279 589.551 173.562 587.762C170.845 585.973 170.225 582.377 172.165 579.658C174.105 576.939 177.871 576.187 180.538 577.986ZM176.41 583.771C176.93 584.113 177.624 583.975 177.996 583.454C178.367 582.933 178.251 582.262 177.731 581.92C177.211 581.577 176.517 581.716 176.146 582.236C175.774 582.757 175.89 583.428 176.41 583.771Z" fill="#0A3D7A"/>
<path d="M179.885 578.963C182.024 580.371 182.529 583.296 181.001 585.437C179.474 587.577 176.452 588.181 174.313 586.772C172.174 585.364 171.67 582.439 173.197 580.299C174.724 578.158 177.697 577.565 179.885 578.963ZM175.708 584.758C176.749 585.443 178.235 585.146 178.978 584.105C179.721 583.063 179.473 581.625 178.432 580.94C177.392 580.255 175.905 580.551 175.162 581.593C174.428 582.682 174.667 584.073 175.708 584.758Z" fill="#0A3D7A"/>
<path d="M615.452 866.917C618.632 869.003 619.373 873.313 617.107 876.542C614.833 879.723 610.371 880.619 607.141 878.543C603.961 876.457 603.22 872.147 605.486 868.918C607.81 865.727 612.272 864.831 615.452 866.917Z" fill="#0A3D7A"/>
<path d="M614.784 867.844C617.501 869.633 618.121 873.23 616.181 875.949C614.241 878.668 610.525 879.41 607.808 877.621C605.091 875.832 604.471 872.235 606.411 869.516C608.351 866.797 612.117 866.046 614.784 867.844ZM610.656 873.629C611.176 873.972 611.87 873.833 612.242 873.313C612.613 872.792 612.497 872.121 611.977 871.778C611.457 871.435 610.763 871.574 610.392 872.095C610.02 872.615 610.136 873.287 610.656 873.629Z" fill="#0A3D7A"/>
<path d="M614.085 868.824C616.224 870.233 616.728 873.158 615.2 875.298C613.673 877.439 610.651 878.042 608.512 876.634C606.373 875.226 605.869 872.3 607.396 870.16C608.923 868.02 611.946 867.416 614.085 868.824ZM609.957 874.609C610.997 875.294 612.484 874.998 613.227 873.956C613.97 872.915 613.722 871.476 612.681 870.791C611.641 870.106 610.154 870.403 609.411 871.444C608.676 872.533 608.916 873.924 609.957 874.609Z" fill="#0A3D7A"/>
<path d="M496.5 804.277C492.611 805.057 489.982 808.735 490.628 812.49C491.274 816.245 494.95 818.657 498.838 817.876C502.727 817.095 505.355 813.418 504.71 809.663C504.064 805.907 500.388 803.496 496.5 804.277Z" fill="#0A3D7A"/>
<path d="M501.136 806.217C503.853 808.006 504.473 811.603 502.533 814.322C500.592 817.041 496.876 817.783 494.159 815.994C491.442 814.205 490.823 810.608 492.763 807.889C494.703 805.171 498.468 804.419 501.136 806.217ZM497.008 812.002C497.528 812.345 498.222 812.206 498.593 811.686C498.965 811.165 498.849 810.494 498.329 810.151C497.808 809.808 497.115 809.947 496.743 810.468C496.372 810.988 496.487 811.66 497.008 812.002Z" fill="#0A3D7A"/>
<path d="M500.436 807.199C502.575 808.608 503.079 811.533 501.552 813.673C500.025 815.814 497.002 816.417 494.863 815.009C492.724 813.601 492.22 810.676 493.748 808.535C495.325 806.385 498.297 805.791 500.436 807.199ZM496.308 812.984C497.349 813.669 498.835 813.373 499.578 812.331C500.321 811.29 500.073 809.851 499.033 809.166C497.992 808.481 496.506 808.778 495.763 809.819C495.02 810.861 495.268 812.299 496.308 812.984Z" fill="#0A3D7A"/>
<path d="M297.578 679.77C293.689 680.551 291.06 684.228 291.706 687.983C292.352 691.739 296.028 694.15 299.916 693.369C303.805 692.588 306.434 688.911 305.788 685.156C305.142 681.4 301.466 678.989 297.578 679.77Z" fill="#0A3D7A"/>
<path d="M302.218 681.711C304.935 683.5 305.555 687.096 303.615 689.815C301.674 692.534 297.959 693.276 295.241 691.487C292.524 689.698 291.905 686.102 293.845 683.383C295.785 680.664 299.55 679.912 302.218 681.711ZM298.09 687.496C298.61 687.838 299.304 687.7 299.675 687.179C300.047 686.658 299.931 685.987 299.411 685.644C298.89 685.302 298.197 685.44 297.825 685.961C297.454 686.482 297.578 687.201 298.09 687.496Z" fill="#0A3D7A"/>
<path d="M301.514 682.694C303.653 684.102 304.158 687.027 302.63 689.167C301.103 691.308 298.081 691.911 295.942 690.503C293.803 689.095 293.298 686.17 294.826 684.029C296.403 681.879 299.375 681.285 301.514 682.694ZM297.386 688.478C298.427 689.164 299.913 688.867 300.656 687.825C301.399 686.784 301.151 685.345 300.111 684.66C299.07 683.975 297.584 684.272 296.841 685.313C296.106 686.403 296.346 687.793 297.386 688.478Z" fill="#0A3D7A"/>
<path d="M363.254 839.741C359.365 840.521 356.736 844.199 357.382 847.954C358.028 851.709 361.703 854.12 365.592 853.34C369.481 852.559 372.109 848.882 371.464 845.126C370.818 841.371 367.142 838.96 363.254 839.741Z" fill="#0A3D7A"/>
<path d="M367.878 841.629C370.595 843.418 371.215 847.015 369.275 849.733C367.335 852.452 363.619 853.194 360.902 851.405C358.185 849.616 357.565 846.02 359.505 843.301C361.454 840.63 365.219 839.878 367.878 841.629ZM363.758 847.462C364.279 847.804 364.972 847.666 365.344 847.145C365.715 846.625 365.6 845.953 365.079 845.611C364.559 845.268 363.866 845.407 363.494 845.927C363.123 846.448 363.238 847.119 363.758 847.462Z" fill="#0A3D7A"/>
<path d="M367.178 842.608C369.317 844.017 369.822 846.942 368.294 849.082C366.767 851.223 363.745 851.826 361.606 850.418C359.467 849.01 358.963 846.084 360.49 843.944C362.067 841.794 365.039 841.2 367.178 842.608ZM363.059 848.441C364.099 849.126 365.586 848.829 366.329 847.788C367.072 846.747 366.824 845.308 365.783 844.623C364.743 843.938 363.256 844.235 362.513 845.276C361.77 846.317 362.018 847.756 363.059 848.441Z" fill="#0A3D7A"/>
<path d="M362.525 746.063C365.589 748.081 366.3 752.205 364.112 755.271C361.924 758.337 357.663 759.187 354.6 757.17C351.536 755.153 350.825 751.029 353.013 747.963C355.151 744.907 359.461 744.046 362.525 746.063ZM358.348 751.858C358.463 751.934 358.662 751.895 358.744 751.779C358.827 751.663 358.794 751.471 358.678 751.395C358.562 751.319 358.364 751.359 358.282 751.474C358.199 751.59 358.232 751.782 358.348 751.858Z" fill="#0A3D7A"/>
<path d="M362.025 746.757C364.685 748.508 365.314 752.153 363.423 754.862C361.524 757.522 357.759 758.274 355.05 756.533C352.39 754.782 351.761 751.137 353.652 748.428C355.592 745.71 359.308 744.968 362.025 746.757ZM357.898 752.542C358.418 752.884 359.112 752.746 359.483 752.225C359.855 751.705 359.739 751.033 359.219 750.691C358.698 750.348 358.004 750.486 357.633 751.007C357.261 751.528 357.377 752.199 357.898 752.542Z" fill="#0A3D7A"/>
<path d="M548.436 878.132C551.499 880.149 552.21 884.273 550.022 887.339C547.835 890.405 543.574 891.256 540.51 889.239C537.446 887.221 536.735 883.097 538.923 880.031C541.061 876.975 545.322 876.124 548.436 878.132ZM544.258 883.926C544.374 884.002 544.572 883.963 544.654 883.847C544.737 883.731 544.704 883.54 544.588 883.464C544.473 883.387 544.274 883.427 544.192 883.543C544.109 883.658 544.142 883.85 544.258 883.926Z" fill="#0A3D7A"/>
<path d="M547.935 878.826C550.595 880.577 551.224 884.221 549.333 886.93C547.435 889.591 543.669 890.342 540.96 888.601C538.3 886.85 537.671 883.205 539.562 880.497C541.502 877.778 545.218 877.036 547.935 878.826ZM543.758 884.62C544.279 884.962 544.972 884.824 545.344 884.303C545.715 883.783 545.6 883.111 545.079 882.769C544.559 882.426 543.865 882.565 543.494 883.085C543.122 883.606 543.238 884.277 543.758 884.62Z" fill="#0A3D7A"/>
<path d="M546.232 763.317C549.296 765.334 550.007 769.458 547.819 772.524C545.631 775.59 541.371 776.441 538.307 774.424C535.243 772.406 534.532 768.282 536.72 765.216C538.908 762.15 543.168 761.3 546.232 763.317Z" fill="#0A3D7A"/>
<path d="M545.736 764.008C548.396 765.759 549.025 769.403 547.134 772.112C545.235 774.773 541.47 775.524 538.761 773.783C536.101 772.032 535.472 768.387 537.363 765.679C539.303 762.96 543.068 762.208 545.736 764.008ZM541.609 769.792C542.129 770.134 542.823 769.996 543.194 769.475C543.566 768.955 543.45 768.283 542.929 767.941C542.409 767.598 541.715 767.737 541.344 768.257C540.972 768.778 541.088 769.449 541.609 769.792Z" fill="#0A3D7A"/>
<path d="M114.916 485.671C117.98 487.688 118.691 491.812 116.503 494.878C114.315 497.944 110.054 498.795 106.99 496.778C103.926 494.76 103.216 490.636 105.403 487.57C107.591 484.504 111.852 483.653 114.916 485.671ZM110.788 491.456C110.904 491.532 111.102 491.492 111.184 491.376C111.267 491.261 111.234 491.069 111.118 490.993C111.003 490.917 110.804 490.956 110.722 491.072C110.59 491.197 110.623 491.389 110.788 491.456Z" fill="#0A3D7A"/>
<path d="M114.42 486.366C117.08 488.117 117.708 491.762 115.818 494.47C113.919 497.131 110.153 497.883 107.444 496.141C104.784 494.39 104.156 490.746 106.046 488.037C107.986 485.318 111.702 484.577 114.42 486.366ZM110.292 492.15C110.813 492.493 111.506 492.354 111.878 491.834C112.249 491.313 112.133 490.642 111.613 490.299C111.093 489.957 110.399 490.095 110.027 490.616C109.656 491.136 109.772 491.808 110.292 492.15Z" fill="#0A3D7A"/>
<path d="M474.561 822.367C477.624 824.384 478.335 828.508 476.147 831.574C473.96 834.64 469.699 835.491 466.635 833.474C463.571 831.457 462.86 827.333 465.048 824.267C467.236 821.201 471.497 820.35 474.561 822.367ZM470.433 828.152C470.548 828.228 470.746 828.188 470.829 828.073C470.911 827.957 470.878 827.765 470.763 827.689C470.647 827.613 470.449 827.652 470.366 827.768C470.284 827.884 470.317 828.076 470.433 828.152Z" fill="#0A3D7A"/>
<path d="M474.064 823.064C476.724 824.815 477.353 828.459 475.462 831.168C473.564 833.829 469.798 834.58 467.089 832.839C464.429 831.088 463.8 827.443 465.691 824.735C467.631 822.016 471.396 821.265 474.064 823.064ZM469.937 828.848C470.457 829.191 471.151 829.052 471.522 828.532C471.894 828.011 471.778 827.34 471.258 826.997C470.737 826.654 470.044 826.793 469.672 827.313C469.301 827.834 469.416 828.505 469.937 828.848Z" fill="#0A3D7A"/>
<path d="M185.201 437.873C188.265 439.89 188.976 444.014 186.788 447.08C184.6 450.146 180.339 450.997 177.275 448.98C174.211 446.963 173.501 442.838 175.688 439.772C177.876 436.706 182.137 435.855 185.201 437.873ZM181.081 443.706C181.197 443.782 181.395 443.742 181.478 443.626C181.56 443.511 181.527 443.319 181.412 443.243C181.296 443.167 181.098 443.206 181.015 443.322C180.933 443.438 180.957 443.581 181.081 443.706Z" fill="#0A3D7A"/>
<path d="M184.705 438.567C187.365 440.318 187.993 443.962 186.103 446.671C184.204 449.331 180.439 450.083 177.73 448.342C175.07 446.591 174.441 442.946 176.332 440.238C178.28 437.567 182.046 436.816 184.705 438.567Z" fill="#0A3D7A"/>
<path d="M233.068 646.611C236.132 648.629 236.843 652.753 234.655 655.819C232.467 658.885 228.206 659.736 225.143 657.718C222.079 655.701 221.368 651.577 223.556 648.511C225.694 645.455 230.004 644.594 233.068 646.611ZM228.891 652.406C229.006 652.482 229.205 652.443 229.287 652.327C229.37 652.211 229.337 652.019 229.221 651.943C229.105 651.867 228.907 651.907 228.825 652.022C228.742 652.138 228.775 652.33 228.891 652.406Z" fill="#0A3D7A"/>
<path d="M232.568 647.303C235.228 649.055 235.857 652.699 233.966 655.408C232.067 658.069 228.302 658.82 225.593 657.079C222.933 655.328 222.304 651.683 224.195 648.974C226.135 646.256 229.851 645.514 232.568 647.303ZM228.441 653.088C228.961 653.43 229.655 653.292 230.026 652.771C230.398 652.251 230.282 651.579 229.761 651.237C229.241 650.894 228.547 651.033 228.176 651.553C227.804 652.074 227.92 652.745 228.441 653.088Z" fill="#0A3D7A"/>
<path d="M196.889 597.448C199.953 599.465 200.663 603.589 198.476 606.655C196.288 609.721 192.027 610.572 188.963 608.555C185.899 606.538 185.188 602.414 187.376 599.348C189.514 596.292 193.825 595.431 196.889 597.448ZM192.711 603.243C192.827 603.319 193.025 603.279 193.107 603.164C193.19 603.048 193.157 602.856 193.041 602.78C192.926 602.704 192.728 602.743 192.645 602.859C192.562 602.975 192.595 603.167 192.711 603.243Z" fill="#0A3D7A"/>
<path d="M171.541 654.996C174.605 657.013 175.316 661.137 173.128 664.203C170.94 667.269 166.679 668.12 163.615 666.103C160.551 664.086 159.841 659.962 162.028 656.896C164.216 653.83 168.477 652.979 171.541 654.996ZM167.421 660.829C167.537 660.905 167.735 660.865 167.818 660.75C167.9 660.634 167.867 660.442 167.752 660.366C167.636 660.29 167.438 660.33 167.355 660.445C167.273 660.561 167.297 660.705 167.421 660.829Z" fill="#0A3D7A"/>
<path d="M171.041 655.688C173.701 657.439 174.329 661.084 172.439 663.792C170.54 666.453 166.775 667.204 164.066 665.463C161.406 663.712 160.777 660.068 162.668 657.359C164.616 654.688 168.382 653.937 171.041 655.688ZM166.922 661.52C167.442 661.863 168.136 661.724 168.507 661.204C168.879 660.683 168.763 660.012 168.243 659.669C167.722 659.327 167.029 659.465 166.657 659.986C166.277 660.458 166.402 661.177 166.922 661.52Z" fill="#0A3D7A"/>
<path d="M558.158 836.066C561.222 838.083 561.933 842.207 559.745 845.273C557.557 848.339 553.296 849.19 550.232 847.173C547.168 845.156 546.458 841.032 548.645 837.966C550.784 834.91 555.094 834.049 558.158 836.066ZM553.981 841.861C554.096 841.937 554.294 841.897 554.377 841.782C554.46 841.666 554.426 841.474 554.311 841.398C554.195 841.322 553.997 841.362 553.914 841.477C553.832 841.593 553.865 841.785 553.981 841.861Z" fill="#0A3D7A"/>
<path d="M557.658 836.758C560.318 838.509 560.946 842.153 559.056 844.862C557.157 847.523 553.392 848.274 550.682 846.533C548.023 844.782 547.394 841.137 549.285 838.429C551.225 835.71 554.941 834.969 557.658 836.758ZM553.53 842.542C554.051 842.885 554.745 842.746 555.116 842.226C555.488 841.705 555.372 841.034 554.851 840.691C554.331 840.348 553.637 840.487 553.266 841.007C552.894 841.528 553.01 842.199 553.53 842.542Z" fill="#0A3D7A"/>
<path d="M671.768 878.022C674.832 880.039 675.542 884.163 673.354 887.229C671.166 890.295 666.905 891.146 663.842 889.129C660.778 887.112 660.067 882.988 662.255 879.922C664.443 876.856 668.704 876.005 671.768 878.022ZM667.648 883.855C667.764 883.931 667.962 883.891 668.044 883.776C668.127 883.66 668.094 883.468 667.978 883.392C667.863 883.316 667.664 883.356 667.582 883.471C667.499 883.587 667.524 883.731 667.648 883.855Z" fill="#0A3D7A"/>
<path d="M671.273 878.717C673.932 880.468 674.56 884.112 672.67 886.821C670.771 889.482 667.005 890.234 664.296 888.494C661.637 886.743 661.009 883.099 662.9 880.39C664.849 877.719 668.614 876.967 671.273 878.717ZM667.153 884.55C667.673 884.893 668.367 884.754 668.739 884.233C669.11 883.713 668.995 883.041 668.474 882.699C667.954 882.356 667.26 882.495 666.889 883.016C666.509 883.488 666.633 884.208 667.153 884.55Z" fill="#0A3D7A"/>
<path d="M626.179 850.485C628.839 852.236 629.467 855.88 627.576 858.589C625.677 861.251 621.911 862.003 619.202 860.262C616.543 858.511 615.915 854.867 617.806 852.158C619.697 849.449 623.52 848.735 626.179 850.485Z" fill="#0A3D7A"/>
<path d="M586.394 825.855C589.054 827.605 589.682 831.25 587.791 833.959C585.892 836.62 582.126 837.372 579.417 835.631C576.758 833.881 576.13 830.236 578.021 827.527C579.97 824.856 583.686 824.114 586.394 825.855Z" fill="#0A3D7A"/>
<path d="M556.804 959.818C559.464 961.569 560.092 965.213 558.201 967.923C556.302 970.584 552.536 971.336 549.827 969.595C547.168 967.845 546.54 964.2 548.431 961.491C550.322 958.782 554.137 958.02 556.804 959.818Z" fill="#0A3D7A"/>
<path d="M587.031 786.185C589.69 787.935 590.318 791.58 588.427 794.289C586.528 796.95 582.763 797.702 580.054 795.961C577.395 794.211 576.767 790.566 578.658 787.857C580.606 785.186 584.322 784.444 587.031 786.185Z" fill="#0A3D7A"/>
<path d="M545.367 857.712C548.026 859.463 548.654 863.107 546.763 865.816C544.864 868.478 541.099 869.23 538.39 867.489C535.73 865.739 535.102 862.094 536.993 859.385C538.934 856.666 542.65 855.923 545.367 857.712Z" fill="#0A3D7A"/>
<path d="M496.887 760.587C499.546 762.338 500.174 765.982 498.283 768.691C496.384 771.353 492.618 772.105 489.91 770.364C487.25 768.613 486.622 764.969 488.513 762.26C490.462 759.589 494.178 758.847 496.887 760.587Z" fill="#0A3D7A"/>
<path d="M477.242 880.794C479.901 882.545 480.529 886.189 478.638 888.898C476.739 891.559 472.974 892.311 470.265 890.571C467.606 888.82 466.978 885.176 468.869 882.467C470.817 879.796 474.533 879.053 477.242 880.794Z" fill="#0A3D7A"/>
<path d="M154.429 491.074C157.089 492.824 157.717 496.469 155.826 499.178C153.927 501.839 150.161 502.591 147.452 500.851C144.793 499.1 144.165 495.456 146.056 492.746C147.946 490.037 151.712 489.285 154.429 491.074Z" fill="#0A3D7A"/>
<path d="M137.855 570.591C140.514 572.342 141.142 575.986 139.252 578.695C137.352 581.357 133.587 582.109 130.878 580.368C128.219 578.617 127.591 574.973 129.482 572.264C131.422 569.545 135.138 568.802 137.855 570.591Z" fill="#0A3D7A"/>
<path d="M98.4802 636.503C101.139 638.253 101.767 641.898 99.8766 644.607C97.9775 647.268 94.2118 648.02 91.503 646.28C88.8436 644.529 88.2157 640.884 90.1065 638.175C92.0469 635.456 95.763 634.714 98.4802 636.503Z" fill="#0A3D7A"/>
<path d="M505.078 849.878C507.737 851.628 508.365 855.273 506.474 857.982C504.575 860.643 500.809 861.395 498.101 859.655C495.441 857.904 494.813 854.259 496.704 851.55C498.645 848.831 502.361 848.089 505.078 849.878Z" fill="#0A3D7A"/>
<path d="M451.34 878.451C454 880.201 454.628 883.846 452.737 886.555C450.846 889.264 447.072 889.969 444.363 888.228C441.704 886.477 441.076 882.833 442.966 880.123C444.907 877.404 448.623 876.662 451.34 878.451Z" fill="#0A3D7A"/>
<path d="M640.25 827.733C642.91 829.483 643.538 833.128 641.647 835.837C639.756 838.546 635.982 839.251 633.273 837.51C630.614 835.759 629.986 832.115 631.877 829.405C633.817 826.686 637.583 825.934 640.25 827.733Z" fill="#0A3D7A"/>
<path d="M151.269 504.982C153.929 506.733 154.557 510.378 152.666 513.087C150.767 515.748 147.001 516.5 144.292 514.759C141.633 513.009 141.005 509.364 142.896 506.655C144.786 503.946 148.602 503.184 151.269 504.982Z" fill="#0A3D7A"/>
<path d="M562.05 785.286C564.71 787.036 565.338 790.681 563.447 793.39C561.548 796.051 557.782 796.804 555.073 795.063C552.414 793.312 551.786 789.668 553.677 786.958C555.617 784.239 559.333 783.497 562.05 785.286Z" fill="#0A3D7A"/>
<path d="M525.215 833.969C527.875 835.719 528.503 839.364 526.612 842.073C524.721 844.782 520.947 845.486 518.238 843.746C515.579 841.995 514.951 838.351 516.842 835.641C518.791 832.97 522.556 832.218 525.215 833.969Z" fill="#0A3D7A"/>
<path d="M139.187 603.495C141.847 605.245 142.474 608.89 140.584 611.599C138.685 614.26 134.919 615.012 132.21 613.272C129.551 611.521 128.923 607.876 130.814 605.167C132.754 602.448 136.47 601.706 139.187 603.495Z" fill="#0A3D7A"/>
<path d="M232.57 647.301C235.229 649.051 235.857 652.696 233.966 655.405C232.067 658.066 228.302 658.818 225.593 657.078C222.933 655.327 222.305 651.683 224.196 648.973C226.137 646.254 229.853 645.512 232.57 647.301ZM228.441 653.086C228.962 653.428 229.655 653.29 230.027 652.769C230.399 652.249 230.283 651.577 229.763 651.235C229.242 650.892 228.549 651.031 228.177 651.551C227.805 652.072 227.921 652.743 228.441 653.086Z" fill="#0A3D7A"/>
<path d="M126.961 700.676C129.62 702.426 130.248 706.071 128.357 708.78C126.458 711.441 122.693 712.193 119.984 710.452C117.325 708.702 116.697 705.057 118.587 702.348C120.536 699.677 124.302 698.925 126.961 700.676Z" fill="#0A3D7A"/>
<path d="M203.84 531.111C206.499 532.861 207.127 536.506 205.236 539.215C203.337 541.876 199.571 542.628 196.862 540.888C194.203 539.137 193.575 535.492 195.466 532.783C197.357 530.074 201.18 529.36 203.84 531.111Z" fill="#0A3D7A"/>
<path d="M208.777 583.673C211.436 585.423 212.064 589.068 210.174 591.777C208.275 594.438 204.509 595.19 201.8 593.449C199.141 591.699 198.513 588.054 200.404 585.345C202.353 582.674 206.068 581.932 208.777 583.673Z" fill="#0A3D7A"/>
<path d="M175.519 620.142C178.179 621.893 178.807 625.537 176.916 628.246C175.017 630.908 171.251 631.66 168.542 629.919C165.883 628.168 165.255 624.524 167.145 621.815C169.086 619.096 172.852 618.343 175.519 620.142Z" fill="#0A3D7A"/>
<path d="M413.824 808.296C416.483 810.047 417.111 813.691 415.22 816.4C413.321 819.062 409.556 819.814 406.847 818.073C404.188 816.322 403.56 812.678 405.451 809.969C407.399 807.298 411.115 806.556 413.824 808.296ZM409.696 814.081C410.216 814.424 410.91 814.285 411.281 813.765C411.653 813.244 411.537 812.573 411.017 812.23C410.496 811.888 409.803 812.026 409.431 812.547C409.06 813.068 409.175 813.739 409.696 814.081Z" fill="#0A3D7A"/>
<path d="M233.863 647.468C236.522 649.218 237.15 652.863 235.26 655.572C233.36 658.233 229.595 658.985 226.886 657.244C224.227 655.494 223.599 651.849 225.49 649.14C227.438 646.469 231.204 645.717 233.863 647.468ZM229.735 653.253C230.255 653.595 230.949 653.456 231.32 652.936C231.692 652.415 231.576 651.744 231.056 651.401C230.536 651.059 229.842 651.197 229.47 651.718C229.099 652.239 229.223 652.958 229.735 653.253Z" fill="#0A3D7A"/>
<path d="M315.328 792.029C317.987 793.78 318.615 797.424 316.724 800.133C314.825 802.795 311.059 803.547 308.351 801.806C305.691 800.055 305.063 796.411 306.954 793.702C308.895 790.983 312.611 790.24 315.328 792.029Z" fill="#0A3D7A"/>
<path d="M333.555 823.852C336.214 825.602 336.842 829.247 334.951 831.956C333.052 834.617 329.286 835.369 326.578 833.628C323.918 831.878 323.29 828.233 325.181 825.524C327.13 822.853 330.846 822.111 333.555 823.852Z" fill="#0A3D7A"/>
<path d="M413.941 808.251C416.6 810.001 417.228 813.646 415.338 816.355C413.438 819.016 409.673 819.768 406.964 818.027C404.305 816.277 403.677 812.632 405.568 809.923C407.458 807.214 411.282 806.5 413.941 808.251Z" fill="#0A3D7A"/>
<path d="M256.765 708.185C259.597 710.05 260.25 713.838 258.227 716.673C256.204 719.507 252.29 720.289 249.457 718.425C246.625 716.56 245.972 712.771 247.995 709.937C250.018 707.102 253.932 706.32 256.765 708.185Z" fill="#0A3D7A"/>
<path d="M250.811 788.259C254.106 790.428 254.866 794.84 252.513 798.137C250.16 801.435 245.602 802.345 242.307 800.176C239.011 798.007 238.251 793.595 240.604 790.298C242.958 787 247.516 786.09 250.811 788.259ZM246.476 794.333C246.534 794.371 246.683 794.342 246.724 794.284C246.848 794.11 246.559 793.92 246.435 794.093C246.344 794.161 246.369 794.305 246.476 794.333Z" fill="#0A3D7A"/>
<path d="M321.881 856.352C325.176 858.521 325.937 862.933 323.583 866.23C321.23 869.528 316.672 870.438 313.377 868.269C310.082 866.1 309.322 861.688 311.675 858.391C313.978 855.103 318.586 854.183 321.881 856.352ZM317.497 862.436C317.555 862.474 317.703 862.444 317.745 862.387C317.869 862.213 317.579 862.023 317.456 862.196C317.423 862.302 317.439 862.398 317.497 862.436Z" fill="#0A3D7A"/>
<path d="M397.866 766.27C401.161 768.44 401.921 772.851 399.568 776.149C397.215 779.446 392.656 780.357 389.361 778.188C386.066 776.018 385.306 771.607 387.659 768.309C390.012 765.012 394.571 764.101 397.866 766.27ZM393.531 772.345C393.589 772.383 393.737 772.353 393.779 772.295C393.902 772.122 393.613 771.931 393.49 772.105C393.399 772.173 393.424 772.317 393.531 772.345Z" fill="#0A3D7A"/>
<path d="M271.389 699.363C274.684 701.532 275.444 705.944 273.091 709.241C270.738 712.539 266.18 713.449 262.885 711.28C259.59 709.111 258.829 704.699 261.183 701.402C263.536 698.104 268.094 697.194 271.389 699.363ZM267.054 705.437C267.112 705.475 267.261 705.446 267.302 705.388C267.426 705.214 267.137 705.024 267.013 705.197C266.93 705.313 266.947 705.409 267.054 705.437Z" fill="#0A3D7A"/>
<path d="M476.373 851.296C479.669 853.465 480.429 857.877 478.076 861.174C475.722 864.472 471.164 865.382 467.869 863.213C464.574 861.044 463.814 856.632 466.167 853.335C468.52 850.037 473.128 849.117 476.373 851.296ZM472.039 857.37C472.096 857.408 472.245 857.379 472.286 857.321C472.41 857.147 472.121 856.957 471.997 857.131C471.907 857.198 471.931 857.342 472.039 857.37Z" fill="#0A3D7A"/>
</g>
<defs>
<clipPath id="clip0">
<rect width="1439" height="987" fill="white"/>
</clipPath>
</defs>
</svg>
