<svg width="190" height="190" viewBox="0 0 190 190" fill="none" xmlns="http://www.w3.org/2000/svg">
<rect width="190" height="190" fill="#012E5C"/>
<mask id="mask0" mask-type="alpha" maskUnits="userSpaceOnUse" x="0" y="0" width="190" height="190">
<rect width="190" height="190" fill="url(#paint0_linear)"/>
</mask>
<g mask="url(#mask0)">
<path d="M122.344 182.254L72.7205 182.035L48.0986 138.949L73.1005 96.0835L122.724 96.3029L147.346 139.388L122.344 182.254Z" fill="#002755"/>
<path d="M120.967 84.9443L72.1183 84.7283L47.8811 42.3162L72.4924 0.120162L121.341 0.336131L145.578 42.7482L120.967 84.9443Z" fill="#002755"/>
<path d="M207.815 133.412L158.966 133.196L134.729 90.7835L159.34 48.5874L208.189 48.8034L232.426 91.2155L207.815 133.412Z" fill="#002755"/>
<path d="M207.815 230.708L158.966 230.492L134.729 188.08L159.34 145.884L208.189 146.1L232.426 188.512L207.815 230.708Z" fill="#002755"/>
<path d="M207.815 37.2651L158.966 37.0491L134.729 -5.36296L159.34 -47.559L208.189 -47.3431L232.426 -4.93102L207.815 37.2651Z" fill="#002755"/>
<path d="M38.1022 134.18L-11.5217 133.96L-36.1436 90.8752L-11.1416 48.0093L38.4823 48.2287L63.1042 91.3139L38.1022 134.18Z" fill="#002755"/>
<path d="M36.7247 36.8691L-12.1239 36.6531L-36.3611 -5.75895L-11.7498 -47.955L37.0987 -47.7391L61.336 -5.32702L36.7247 36.8691Z" fill="#002755"/>
<path d="M38.7755 232.665L-10.0731 232.449L-34.3103 190.037L-9.69901 147.841L39.1495 148.057L63.3867 190.469L38.7755 232.665Z" fill="#002755"/>
</g>
<rect x="10" y="10" width="170" height="170" stroke="white"/>
<defs>
<linearGradient id="paint0_linear" x1="95" y1="0" x2="95" y2="190" gradientUnits="userSpaceOnUse">
<stop stop-color="#002755"/>
<stop offset="1" stop-color="#02337C"/>
</linearGradient>
</defs>
</svg>
