<svg width="400" height="249" viewBox="0 0 400 249" fill="none" xmlns="http://www.w3.org/2000/svg">
<rect width="400" height="248.889" fill="#012E5C"/>
<mask id="mask0" mask-type="alpha" maskUnits="userSpaceOnUse" x="0" y="0" width="400" height="249">
<rect y="0.00170898" width="400" height="248.889" fill="#002755"/>
</mask>
<g mask="url(#mask0)">
<path d="M319.903 267.72L240.994 267.371L201.842 198.86L241.599 130.697L320.507 131.046L359.659 199.557L319.903 267.72Z" fill="#002755"/>
<path d="M317.716 112.983L240.04 112.64L201.5 45.1988L240.635 -21.8985L318.31 -21.555L356.851 45.8857L317.716 112.983Z" fill="#002755"/>
<path d="M455.805 190.058L378.13 189.714L339.589 122.274L378.725 55.1763L456.4 55.5197L494.941 122.96L455.805 190.058Z" fill="#002755"/>
<path d="M455.805 344.773L378.13 344.429L339.589 276.989L378.725 209.891L456.4 210.235L494.941 277.675L455.805 344.773Z" fill="#002755"/>
<path d="M455.805 37.1756L378.13 36.8322L339.589 -30.6085L378.725 -97.7058L456.4 -97.3624L494.941 -29.9217L455.805 37.1756Z" fill="#002755"/>
<path d="M185.958 191.272L107.049 190.924L67.8969 122.412L107.653 54.2501L186.562 54.5989L225.714 123.11L185.958 191.272Z" fill="#002755"/>
<path d="M183.77 36.5357L106.095 36.1923L67.5543 -31.2484L106.689 -98.3457L184.365 -98.0023L222.905 -30.5616L183.77 36.5357Z" fill="#002755"/>
<path d="M53.864 113.615L-23.8116 113.272L-62.352 45.8312L-23.2168 -21.2661L54.4588 -20.9227L92.9992 46.518L53.864 113.615Z" fill="#002755"/>
<path d="M53.864 268.33L-23.8116 267.987L-62.352 200.546L-23.2168 133.449L54.4588 133.792L92.9992 201.233L53.864 268.33Z" fill="#002755"/>
<path d="M187.028 347.875L109.352 347.532L70.8121 280.091L109.947 212.994L187.623 213.337L226.163 280.778L187.028 347.875Z" fill="#002755"/>
</g>
<rect x="9.5" y="9.5" width="381" height="229" stroke="white"/>
</svg>
