<svg width="240" height="60" viewBox="0 0 240 60" fill="none" xmlns="http://www.w3.org/2000/svg">
<path d="M225.618 37.9157C224.407 37.9157 223.286 37.6157 222.303 37.0388C221.32 36.4619 220.519 35.6311 219.948 34.5695C219.376 33.508 219.079 32.2849 219.079 30.9234C219.079 29.5619 219.376 28.3388 219.948 27.2772C220.519 26.2157 221.297 25.408 222.303 24.808C223.286 24.2311 224.407 23.9311 225.618 23.9311C226.83 23.9311 227.951 24.2311 228.934 24.808C229.917 25.3849 230.717 26.2157 231.289 27.2772C231.861 28.3388 232.158 29.5619 232.158 30.9234C232.158 32.308 231.861 33.508 231.289 34.5695C230.717 35.6311 229.917 36.4388 228.934 37.0388C227.951 37.6388 226.83 37.9157 225.618 37.9157ZM225.618 43.6388C228.179 43.6388 230.489 43.0849 232.524 42.0003C234.559 40.9157 236.16 39.3926 237.326 37.4542C238.492 35.5157 239.064 33.3465 239.064 30.9234C239.064 28.5003 238.492 26.3311 237.326 24.3926C236.16 22.4542 234.559 20.9542 232.524 19.8465C230.489 18.7619 228.179 18.208 225.618 18.208C223.057 18.208 220.748 18.7619 218.713 19.8465C216.678 20.9311 215.077 22.4542 213.911 24.3926C212.745 26.3311 212.173 28.5003 212.173 30.9234C212.173 33.3465 212.745 35.5157 213.911 37.4542C215.077 39.3926 216.678 40.8926 218.713 42.0003C220.748 43.108 223.057 43.6388 225.618 43.6388ZM201.06 37.108C199.917 37.6388 198.682 37.9157 197.356 37.9157C196.03 37.9157 194.841 37.6157 193.789 37.0157C192.76 36.4157 191.937 35.608 191.365 34.5465C190.794 33.4849 190.496 32.2849 190.496 30.9234C190.496 28.8003 191.137 27.1157 192.394 25.8465C193.652 24.5772 195.344 23.9542 197.402 23.9542C199.689 23.9542 201.655 24.8542 203.278 26.6772L207.646 22.708C206.457 21.2542 204.948 20.1695 203.141 19.3849C201.335 18.6234 199.323 18.2311 197.059 18.2311C194.475 18.2311 192.166 18.7619 190.108 19.8465C188.05 20.9311 186.449 22.4311 185.306 24.3695C184.163 26.308 183.568 28.5003 183.568 30.9234C183.568 33.3695 184.14 35.5619 185.306 37.4772C186.449 39.4157 188.05 40.9157 190.085 42.0003C192.12 43.0849 194.407 43.6157 196.945 43.6157C198.751 43.6157 200.535 43.3388 202.341 42.808C204.147 42.2772 205.725 41.5157 207.12 40.5003V30.3695H201.06V37.108ZM171.998 27.7619C171.998 28.8926 171.632 29.7926 170.923 30.3926C170.214 31.0157 169.14 31.3157 167.745 31.3157H163.949V24.1619H167.745C169.14 24.1619 170.214 24.4849 170.923 25.108C171.632 25.7311 171.998 26.6311 171.998 27.7619ZM172.067 43.1542H179.407L174.193 35.4695C175.725 34.7311 176.891 33.6926 177.714 32.3772C178.538 31.0619 178.949 29.5157 178.949 27.7619C178.949 25.9157 178.515 24.3234 177.646 22.9619C176.777 21.6003 175.519 20.5619 173.919 19.8234C172.295 19.0849 170.397 18.7157 168.202 18.7157H157.089V43.1542H163.949V36.6695H167.676L172.067 43.1542ZM139.003 43.6388C142.593 43.6388 145.405 42.6465 147.394 40.6619C149.384 38.6772 150.39 35.8849 150.39 32.2388V18.7157H143.644V32.0542C143.644 35.9542 142.112 37.9157 139.071 37.9157C136.007 37.9157 134.475 35.9542 134.475 32.0542V18.7157H127.615V32.2619C127.615 35.8849 128.621 38.7003 130.611 40.6849C132.6 42.6465 135.413 43.6388 139.003 43.6388ZM120.916 43.1542V18.7157H115.268L106.968 32.8157L98.4614 18.7157H92.8364V43.1542H99.1703V30.5542L105.367 40.7542H108.385L114.605 30.208V43.1542H120.916ZM74.155 37.8234V33.3465H84.902V28.1772H74.155V24.0695H86.3654V18.7157H67.3867V43.1542H86.8227V37.8234H74.155Z" fill="white"/>
<path d="M41.7755 16.5C44.7937 16.5 47.2404 14.0307 47.2404 10.9846C47.2404 7.93856 44.7937 5.46924 41.7755 5.46924C38.7573 5.46924 36.3105 7.93856 36.3105 10.9846C36.3105 14.0307 38.7573 16.5 41.7755 16.5Z" fill="url(#paint0_linear)"/>
<path d="M50.6482 28.3152C53.4139 28.3152 55.6559 26.0525 55.6559 23.2614C55.6559 20.4702 53.4139 18.2075 50.6482 18.2075C47.8826 18.2075 45.6406 20.4702 45.6406 23.2614C45.6406 26.0525 47.8826 28.3152 50.6482 28.3152Z" fill="url(#paint1_linear)"/>
<path d="M50.648 43.6387C53.161 43.6387 55.1983 41.5827 55.1983 39.0464C55.1983 36.5101 53.161 34.4541 50.648 34.4541C48.1349 34.4541 46.0977 36.5101 46.0977 39.0464C46.0977 41.5827 48.1349 43.6387 50.648 43.6387Z" fill="url(#paint2_linear)"/>
<path d="M41.7766 55.4539C44.0371 55.4539 45.8696 53.6045 45.8696 51.3232C45.8696 49.0418 44.0371 47.1924 41.7766 47.1924C39.5161 47.1924 37.6836 49.0418 37.6836 51.3232C37.6836 53.6045 39.5161 55.4539 41.7766 55.4539Z" fill="url(#paint3_linear)"/>
<path d="M27.1415 59.8155C29.1495 59.8155 30.7772 58.1727 30.7772 56.1463C30.7772 54.1198 29.1495 52.4771 27.1415 52.4771C25.1336 52.4771 23.5059 54.1198 23.5059 56.1463C23.5059 58.1727 25.1336 59.8155 27.1415 59.8155Z" fill="url(#paint4_linear)"/>
<path d="M12.5299 54.5306C14.2853 54.5306 15.7083 53.0945 15.7083 51.3229C15.7083 49.5514 14.2853 48.1152 12.5299 48.1152C10.7746 48.1152 9.35156 49.5514 9.35156 51.3229C9.35156 53.0945 10.7746 54.5306 12.5299 54.5306Z" fill="url(#paint5_linear)"/>
<path d="M3.65854 41.7921C5.16132 41.7921 6.37957 40.5626 6.37957 39.046C6.37957 37.5293 5.16132 36.2998 3.65854 36.2998C2.15575 36.2998 0.9375 37.5293 0.9375 39.046C0.9375 40.5626 2.15575 41.7921 3.65854 41.7921Z" fill="url(#paint6_linear)"/>
<path d="M3.65825 25.5463C4.90847 25.5463 5.92197 24.5234 5.92197 23.2617C5.92197 21.9999 4.90847 20.9771 3.65825 20.9771C2.40803 20.9771 1.39453 21.9999 1.39453 23.2617C1.39453 24.5234 2.40803 25.5463 3.65825 25.5463Z" fill="url(#paint7_linear)"/>
<path d="M12.531 12.8078C13.5287 12.8078 14.3374 11.9916 14.3374 10.9847C14.3374 9.97784 13.5287 9.16162 12.531 9.16162C11.5334 9.16162 10.7246 9.97784 10.7246 10.9847C10.7246 11.9916 11.5334 12.8078 12.531 12.8078Z" fill="url(#paint8_linear)"/>
<path d="M27.141 12.1384C30.4118 12.1384 33.0633 9.46246 33.0633 6.16149C33.0633 2.86053 30.4118 0.18457 27.141 0.18457C23.8702 0.18457 21.2188 2.86053 21.2188 6.16149C21.2188 9.46246 23.8702 12.1384 27.141 12.1384Z" fill="url(#paint9_linear)"/>
<path d="M34.78 24.4615C36.447 24.4615 37.7983 23.0976 37.7983 21.4153C37.7983 19.733 36.447 18.3691 34.78 18.3691C33.1131 18.3691 31.7617 19.733 31.7617 21.4153C31.7617 23.0976 33.1131 24.4615 34.78 24.4615Z" fill="url(#paint10_linear)"/>
<path d="M39.6965 30.9923C41.2245 30.9923 42.4632 29.7422 42.4632 28.2C42.4632 26.6579 41.2245 25.4077 39.6965 25.4077C38.1684 25.4077 36.9297 26.6579 36.9297 28.2C36.9297 29.7422 38.1684 30.9923 39.6965 30.9923Z" fill="url(#paint11_linear)"/>
<path d="M39.6969 39.5076C41.086 39.5076 42.2121 38.3711 42.2121 36.9691C42.2121 35.5672 41.086 34.4307 39.6969 34.4307C38.3078 34.4307 37.1816 35.5672 37.1816 36.9691C37.1816 38.3711 38.3078 39.5076 39.6969 39.5076Z" fill="url(#paint12_linear)"/>
<path d="M34.7793 46.0385C36.0296 46.0385 37.0431 45.0156 37.0431 43.7539C37.0431 42.4921 36.0296 41.4692 34.7793 41.4692C33.5291 41.4692 32.5156 42.4921 32.5156 43.7539C32.5156 45.0156 33.5291 46.0385 34.7793 46.0385Z" fill="url(#paint13_linear)"/>
<path d="M26.686 48.4614C27.7973 48.4614 28.6982 47.5522 28.6982 46.4307C28.6982 45.3091 27.7973 44.3999 26.686 44.3999C25.5747 44.3999 24.6738 45.3091 24.6738 46.4307C24.6738 47.5522 25.5747 48.4614 26.686 48.4614Z" fill="url(#paint14_linear)"/>
<path d="M18.5673 45.5309C19.5397 45.5309 20.328 44.7353 20.328 43.754C20.328 42.7726 19.5397 41.9771 18.5673 41.9771C17.5949 41.9771 16.8066 42.7726 16.8066 43.754C16.8066 44.7353 17.5949 45.5309 18.5673 45.5309Z" fill="url(#paint15_linear)"/>
<path d="M13.6517 38.4924C14.4852 38.4924 15.1609 37.8105 15.1609 36.9694C15.1609 36.1282 14.4852 35.4463 13.6517 35.4463C12.8182 35.4463 12.1426 36.1282 12.1426 36.9694C12.1426 37.8105 12.8182 38.4924 13.6517 38.4924Z" fill="url(#paint16_linear)"/>
<path d="M13.6522 29.4691C14.3467 29.4691 14.9098 28.9009 14.9098 28.1999C14.9098 27.4989 14.3467 26.9307 13.6522 26.9307C12.9576 26.9307 12.3945 27.4989 12.3945 28.1999C12.3945 28.9009 12.9576 29.4691 13.6522 29.4691Z" fill="url(#paint17_linear)"/>
<path d="M18.5686 22.4307C19.1242 22.4307 19.5747 21.9761 19.5747 21.4153C19.5747 20.8545 19.1242 20.3999 18.5686 20.3999C18.0129 20.3999 17.5625 20.8545 17.5625 21.4153C17.5625 21.9761 18.0129 22.4307 18.5686 22.4307Z" fill="url(#paint18_linear)"/>
<path d="M26.6853 22.0617C28.5038 22.0617 29.9779 20.5739 29.9779 18.7386C29.9779 16.9033 28.5038 15.4155 26.6853 15.4155C24.8668 15.4155 23.3926 16.9033 23.3926 18.7386C23.3926 20.5739 24.8668 22.0617 26.6853 22.0617Z" fill="url(#paint19_linear)"/>
<path d="M30.1825 29.0539C30.9402 29.0539 31.5544 28.434 31.5544 27.6693C31.5544 26.9046 30.9402 26.2847 30.1825 26.2847C29.4248 26.2847 28.8105 26.9046 28.8105 27.6693C28.8105 28.434 29.4248 29.0539 30.1825 29.0539Z" fill="url(#paint20_linear)"/>
<path d="M32.4002 32.0077C33.0948 32.0077 33.6578 31.4394 33.6578 30.7385C33.6578 30.0375 33.0948 29.4692 32.4002 29.4692C31.7056 29.4692 31.1426 30.0375 31.1426 30.7385C31.1426 31.4394 31.7056 32.0077 32.4002 32.0077Z" fill="url(#paint21_linear)"/>
<path d="M32.4011 35.8385C33.0325 35.8385 33.5444 35.3219 33.5444 34.6846C33.5444 34.0474 33.0325 33.5308 32.4011 33.5308C31.7697 33.5308 31.2578 34.0474 31.2578 34.6846C31.2578 35.3219 31.7697 35.8385 32.4011 35.8385Z" fill="url(#paint22_linear)"/>
<path d="M30.1833 38.7923C30.7515 38.7923 31.2122 38.3273 31.2122 37.7538C31.2122 37.1803 30.7515 36.7153 30.1833 36.7153C29.615 36.7153 29.1543 37.1803 29.1543 37.7538C29.1543 38.3273 29.615 38.7923 30.1833 38.7923Z" fill="url(#paint23_linear)"/>
<path d="M26.5474 39.8769C27.0526 39.8769 27.4621 39.4636 27.4621 38.9538C27.4621 38.444 27.0526 38.0308 26.5474 38.0308C26.0423 38.0308 25.6328 38.444 25.6328 38.9538C25.6328 39.4636 26.0423 39.8769 26.5474 39.8769Z" fill="url(#paint24_linear)"/>
<path d="M22.8882 38.5617C23.3302 38.5617 23.6885 38.2001 23.6885 37.754C23.6885 37.3079 23.3302 36.9463 22.8882 36.9463C22.4462 36.9463 22.0879 37.3079 22.0879 37.754C22.0879 38.2001 22.4462 38.5617 22.8882 38.5617Z" fill="url(#paint25_linear)"/>
<path d="M20.6704 35.3768C21.0492 35.3768 21.3563 35.0668 21.3563 34.6845C21.3563 34.3021 21.0492 33.9922 20.6704 33.9922C20.2915 33.9922 19.9844 34.3021 19.9844 34.6845C19.9844 35.0668 20.2915 35.3768 20.6704 35.3768Z" fill="url(#paint26_linear)"/>
<path d="M20.6713 31.3155C20.987 31.3155 21.2429 31.0572 21.2429 30.7385C21.2429 30.4199 20.987 30.1616 20.6713 30.1616C20.3555 30.1616 20.0996 30.4199 20.0996 30.7385C20.0996 31.0572 20.3555 31.3155 20.6713 31.3155Z" fill="url(#paint27_linear)"/>
<path d="M22.889 28.1311C23.1415 28.1311 23.3463 27.9244 23.3463 27.6695C23.3463 27.4146 23.1415 27.208 22.889 27.208C22.6364 27.208 22.4316 27.4146 22.4316 27.6695C22.4316 27.9244 22.6364 28.1311 22.889 28.1311Z" fill="url(#paint28_linear)"/>
<path d="M26.5468 27.9692C27.3677 27.9692 28.0331 27.2977 28.0331 26.4692C28.0331 25.6408 27.3677 24.9692 26.5468 24.9692C25.726 24.9692 25.0605 25.6408 25.0605 26.4692C25.0605 27.2977 25.726 27.9692 26.5468 27.9692Z" fill="url(#paint29_linear)"/>
<defs>
<linearGradient id="paint0_linear" x1="3.96856" y1="49.1391" x2="46.7184" y2="6.78002" gradientUnits="userSpaceOnUse">
<stop stop-color="#FFD363"/>
<stop offset="1" stop-color="#FF1055"/>
</linearGradient>
<linearGradient id="paint1_linear" x1="14.3932" y1="59.8428" x2="57.143" y2="17.4838" gradientUnits="userSpaceOnUse">
<stop stop-color="#FFD363"/>
<stop offset="1" stop-color="#FF1055"/>
</linearGradient>
<linearGradient id="paint2_linear" x1="22.1502" y1="67.8095" x2="64.9" y2="25.4504" gradientUnits="userSpaceOnUse">
<stop stop-color="#FFD363"/>
<stop offset="1" stop-color="#FF1055"/>
</linearGradient>
<linearGradient id="paint3_linear" x1="23.777" y1="69.4801" x2="66.5269" y2="27.121" gradientUnits="userSpaceOnUse">
<stop stop-color="#FFD363"/>
<stop offset="1" stop-color="#FF1055"/>
</linearGradient>
<linearGradient id="paint4_linear" x1="18.8962" y1="64.4698" x2="61.6461" y2="22.1107" gradientUnits="userSpaceOnUse">
<stop stop-color="#FFD363"/>
<stop offset="1" stop-color="#FF1055"/>
</linearGradient>
<linearGradient id="paint5_linear" x1="9.28067" y1="54.5965" x2="52.0305" y2="12.2375" gradientUnits="userSpaceOnUse">
<stop stop-color="#FFD363"/>
<stop offset="1" stop-color="#FF1055"/>
</linearGradient>
<linearGradient id="paint6_linear" x1="-1.14265" y1="43.8925" x2="41.6072" y2="1.53343" gradientUnits="userSpaceOnUse">
<stop stop-color="#FFD363"/>
<stop offset="1" stop-color="#FF1055"/>
</linearGradient>
<linearGradient id="paint7_linear" x1="-8.90102" y1="35.9258" x2="33.8488" y2="-6.43332" gradientUnits="userSpaceOnUse">
<stop stop-color="#FFD363"/>
<stop offset="1" stop-color="#FF1055"/>
</linearGradient>
<linearGradient id="paint8_linear" x1="-10.5276" y1="34.2538" x2="32.2222" y2="-8.10524" gradientUnits="userSpaceOnUse">
<stop stop-color="#FFD363"/>
<stop offset="1" stop-color="#FF1055"/>
</linearGradient>
<linearGradient id="paint9_linear" x1="-5.6474" y1="39.2656" x2="37.1024" y2="-3.09352" gradientUnits="userSpaceOnUse">
<stop stop-color="#FFD363"/>
<stop offset="1" stop-color="#FF1055"/>
</linearGradient>
<linearGradient id="paint10_linear" x1="5.62429" y1="50.8384" x2="48.3742" y2="8.47929" gradientUnits="userSpaceOnUse">
<stop stop-color="#FFD363"/>
<stop offset="1" stop-color="#FF1055"/>
</linearGradient>
<linearGradient id="paint11_linear" x1="11.4013" y1="56.7704" x2="54.1512" y2="14.4114" gradientUnits="userSpaceOnUse">
<stop stop-color="#FFD363"/>
<stop offset="1" stop-color="#FF1055"/>
</linearGradient>
<linearGradient id="paint12_linear" x1="15.7007" y1="61.185" x2="58.4505" y2="18.8259" gradientUnits="userSpaceOnUse">
<stop stop-color="#FFD363"/>
<stop offset="1" stop-color="#FF1055"/>
</linearGradient>
<linearGradient id="paint13_linear" x1="16.6005" y1="62.111" x2="59.3504" y2="19.7519" gradientUnits="userSpaceOnUse">
<stop stop-color="#FFD363"/>
<stop offset="1" stop-color="#FF1055"/>
</linearGradient>
<linearGradient id="paint14_linear" x1="13.8973" y1="59.3343" x2="56.6472" y2="16.9752" gradientUnits="userSpaceOnUse">
<stop stop-color="#FFD363"/>
<stop offset="1" stop-color="#FF1055"/>
</linearGradient>
<linearGradient id="paint15_linear" x1="8.56746" y1="53.8631" x2="51.3173" y2="11.504" gradientUnits="userSpaceOnUse">
<stop stop-color="#FFD363"/>
<stop offset="1" stop-color="#FF1055"/>
</linearGradient>
<linearGradient id="paint16_linear" x1="2.79133" y1="47.9312" x2="45.5412" y2="5.57213" gradientUnits="userSpaceOnUse">
<stop stop-color="#FFD363"/>
<stop offset="1" stop-color="#FF1055"/>
</linearGradient>
<linearGradient id="paint17_linear" x1="-1.5076" y1="43.5158" x2="41.2422" y2="1.15671" gradientUnits="userSpaceOnUse">
<stop stop-color="#FFD363"/>
<stop offset="1" stop-color="#FF1055"/>
</linearGradient>
<linearGradient id="paint18_linear" x1="-2.40915" y1="42.5892" x2="40.3406" y2="0.230216" gradientUnits="userSpaceOnUse">
<stop stop-color="#FFD363"/>
<stop offset="1" stop-color="#FF1055"/>
</linearGradient>
<linearGradient id="paint19_linear" x1="0.295356" y1="45.367" x2="43.0452" y2="3.00792" gradientUnits="userSpaceOnUse">
<stop stop-color="#FFD363"/>
<stop offset="1" stop-color="#FF1055"/>
</linearGradient>
<linearGradient id="paint20_linear" x1="6.4264" y1="51.664" x2="49.1762" y2="9.30498" gradientUnits="userSpaceOnUse">
<stop stop-color="#FFD363"/>
<stop offset="1" stop-color="#FF1055"/>
</linearGradient>
<linearGradient id="paint21_linear" x1="9.03045" y1="54.3383" x2="51.7803" y2="11.9792" gradientUnits="userSpaceOnUse">
<stop stop-color="#FFD363"/>
<stop offset="1" stop-color="#FF1055"/>
</linearGradient>
<linearGradient id="paint22_linear" x1="10.9695" y1="56.3287" x2="53.7194" y2="13.9697" gradientUnits="userSpaceOnUse">
<stop stop-color="#FFD363"/>
<stop offset="1" stop-color="#FF1055"/>
</linearGradient>
<linearGradient id="paint23_linear" x1="11.3759" y1="56.7461" x2="54.1258" y2="14.3869" gradientUnits="userSpaceOnUse">
<stop stop-color="#FFD363"/>
<stop offset="1" stop-color="#FF1055"/>
</linearGradient>
<linearGradient id="paint24_linear" x1="10.1566" y1="55.4943" x2="52.9065" y2="13.1353" gradientUnits="userSpaceOnUse">
<stop stop-color="#FFD363"/>
<stop offset="1" stop-color="#FF1055"/>
</linearGradient>
<linearGradient id="paint25_linear" x1="7.75353" y1="53.0277" x2="50.5035" y2="10.6687" gradientUnits="userSpaceOnUse">
<stop stop-color="#FFD363"/>
<stop offset="1" stop-color="#FF1055"/>
</linearGradient>
<linearGradient id="paint26_linear" x1="5.14926" y1="50.3531" x2="47.8992" y2="7.99393" gradientUnits="userSpaceOnUse">
<stop stop-color="#FFD363"/>
<stop offset="1" stop-color="#FF1055"/>
</linearGradient>
<linearGradient id="paint27_linear" x1="3.21186" y1="48.3627" x2="45.9616" y2="6.0036" gradientUnits="userSpaceOnUse">
<stop stop-color="#FFD363"/>
<stop offset="1" stop-color="#FF1055"/>
</linearGradient>
<linearGradient id="paint28_linear" x1="2.80497" y1="47.9451" x2="45.5546" y2="5.58606" gradientUnits="userSpaceOnUse">
<stop stop-color="#FFD363"/>
<stop offset="1" stop-color="#FF1055"/>
</linearGradient>
<linearGradient id="paint29_linear" x1="4.02394" y1="49.1972" x2="46.7738" y2="6.83809" gradientUnits="userSpaceOnUse">
<stop stop-color="#FFD363"/>
<stop offset="1" stop-color="#FF1055"/>
</linearGradient>
</defs>
</svg>
