<svg width="490" height="190" viewBox="0 0 490 190" fill="none" xmlns="http://www.w3.org/2000/svg">
<mask id="mask0" mask-type="alpha" maskUnits="userSpaceOnUse" x="0" y="0" width="490" height="190">
<rect width="490" height="190" fill="#C4C4C4"/>
</mask>
<g mask="url(#mask0)">
<path d="M447.285 97.5899L402.899 97.3937L380.876 58.8561L403.239 20.5148L447.625 20.7111L469.648 59.2486L447.285 97.5899Z" fill="#05356E"/>
<path d="M446.055 10.5497L402.362 10.3566L380.683 -27.5788L402.697 -65.3211L446.389 -65.1279L468.068 -27.1925L446.055 10.5497Z" fill="#004493"/>
<path d="M523.731 53.9052L480.038 53.712L458.359 15.7766L480.373 -21.9656L524.065 -21.7724L545.744 16.163L523.731 53.9052Z" fill="#05356E"/>
<path d="M545.167 103.188L523.444 140.431L480.329 140.241L458.936 102.807L480.659 65.563L523.774 65.7536L545.167 103.188Z" stroke="#004493"/>
<path d="M371.937 54.5899L327.551 54.3937L305.528 15.8561L327.891 -22.4852L372.277 -22.2889L394.3 16.2486L371.937 54.5899Z" fill="#05356E"/>
<path d="M222.578 55.9766L178.192 55.7804L156.169 17.2428L178.532 -21.0985L222.918 -20.9022L244.941 17.6353L222.578 55.9766Z" fill="#05356E"/>
<path d="M297.633 10.9052L253.94 10.712L232.261 -27.2234L254.275 -64.9656L297.968 -64.7724L319.647 -26.837L297.633 10.9052Z" fill="#004493"/>
<path d="M297.633 97.9326L253.94 97.7394L232.261 59.804L254.275 22.0617L297.968 22.2549L319.647 60.1903L297.633 97.9326Z" fill="#05356E"/>
<path d="M469.819 147.574L448.096 184.818L404.981 184.627L383.589 147.193L405.311 109.95L448.427 110.14L469.819 147.574Z" stroke="#004493"/>
<path d="M316.304 147.575L294.581 184.818L251.466 184.627L230.073 147.193L251.796 109.95L294.911 110.14L316.304 147.575Z" stroke="#004493"/>
<path d="M393.975 104.934L372.253 142.177L329.138 141.987L307.745 104.553L329.468 67.3091L372.583 67.4997L393.975 104.934Z" stroke="#004493"/>
<path d="M242.343 103.184L220.62 140.427L177.505 140.237L156.112 102.803L177.835 65.5591L220.95 65.7497L242.343 103.184Z" stroke="#004493"/>
<path d="M166.499 146.543L144.776 183.787L101.661 183.596L80.2685 146.162L101.991 108.918L145.106 109.109L166.499 146.543Z" stroke="#004493"/>
<path d="M91.7293 105.043L70.0066 142.287L26.8915 142.096L5.49898 104.662L27.2217 67.4185L70.3368 67.6091L91.7293 105.043Z" stroke="#004493"/>
<path d="M146.347 98.0587L101.961 97.8625L79.9381 59.3249L102.301 20.9836L146.687 21.1798L168.71 59.7174L146.347 98.0587Z" fill="#05356E"/>
</g>
</svg>
