<svg width="28" height="28" viewBox="0 0 28 28" fill="none" xmlns="http://www.w3.org/2000/svg">
<circle cx="14" cy="14" r="14" fill="white"/>
<path d="M13.944 18.024C11.784 18.024 10.36 16.072 10.36 13.016C10.36 10.024 11.784 8.168 13.944 8.168C16.12 8.168 17.544 10.024 17.544 13.016C17.544 16.072 16.12 18.024 13.944 18.024ZM17.496 21.816C18.168 21.816 18.776 21.704 19.112 21.576L18.856 20.536C18.552 20.616 18.168 20.696 17.64 20.696C16.328 20.696 15.24 20.152 14.712 19.064C17.208 18.68 18.904 16.424 18.904 13.016C18.904 9.288 16.856 7 13.944 7C11.048 7 9 9.288 9 13.016C9 16.472 10.744 18.744 13.288 19.08C13.928 20.664 15.384 21.816 17.496 21.816Z" fill="#002C59"/>
</svg>
