<svg width="121" height="21" viewBox="0 0 121 21" fill="none" xmlns="http://www.w3.org/2000/svg">
<path d="M0 3C0 1.34315 1.34315 0 3 0H118C119.657 0 121 1.34315 121 3V21H0V3Z" fill="#002C59"/>
<path d="M30.877 12.382V14.538H26.147V12.382H30.877ZM25.146 15.88H26.147V15.451H30.877V15.88H31.922V11.458H25.146V15.88ZM25.993 9.30201C27.027 8.51001 27.907 7.60801 28.468 6.79401C29.084 7.64101 30.03 8.53201 31.064 9.30201H25.993ZM27.896 5.79301C27.06 7.16801 25.256 8.81801 23.375 9.77501C23.584 9.98401 23.881 10.347 24.002 10.589C24.607 10.259 25.212 9.88501 25.773 9.46701V10.215H31.251V9.43401C31.834 9.86301 32.45 10.237 33.033 10.545C33.209 10.237 33.451 9.88501 33.704 9.63201C31.977 8.88401 30.118 7.43201 28.941 5.79301H27.896Z" fill="white"/>
<path d="M37.125 7.08001C37.125 7.20101 37.103 7.56401 37.07 8.03701C36.542 8.11401 35.97 8.18001 35.629 8.20201C35.31 8.22401 35.079 8.22401 34.804 8.21301L34.914 9.33501C35.574 9.24701 36.487 9.12601 37.004 9.06001C36.982 9.36801 36.96 9.69801 36.938 10.006C36.344 10.908 35.156 12.492 34.54 13.262L35.222 14.219C35.684 13.581 36.333 12.635 36.85 11.876C36.817 13.097 36.817 13.724 36.806 14.758C36.806 14.934 36.784 15.286 36.773 15.484H37.961C37.939 15.253 37.917 14.934 37.906 14.736C37.84 13.735 37.851 12.954 37.851 11.997C37.851 11.645 37.862 11.26 37.884 10.853C38.852 9.96201 39.952 9.35701 41.173 9.35701C42.482 9.35701 43.153 10.325 43.153 11.183C43.164 12.998 41.624 13.823 39.732 14.109L40.238 15.154C42.79 14.659 44.308 13.427 44.297 11.205C44.297 9.46701 42.944 8.34501 41.349 8.34501C40.326 8.34501 39.138 8.69701 37.961 9.61001C37.972 9.43401 37.994 9.24701 38.005 9.07101C38.181 8.79601 38.39 8.47701 38.522 8.27901L38.148 7.81701H38.137C38.214 7.10201 38.302 6.51901 38.368 6.23301L37.081 6.18901C37.125 6.48601 37.125 6.79401 37.125 7.08001Z" fill="white"/>
<path d="M53.262 6.45301H52.085C52.118 6.65101 52.162 7.10201 52.162 7.35501C52.162 7.80601 52.162 8.31201 52.162 8.78501C51.062 8.88401 49.863 8.99401 48.851 9.09301C48.862 8.56501 48.862 8.10301 48.862 7.79501C48.862 7.39901 48.884 7.09101 48.917 6.79401H47.696C47.751 7.14601 47.773 7.46501 47.773 7.85001C47.773 8.03701 47.773 8.55401 47.773 9.19201C47.311 9.23601 46.948 9.26901 46.706 9.29101C46.244 9.33501 45.793 9.35701 45.463 9.35701L45.584 10.479C45.87 10.435 46.442 10.358 46.783 10.314C47.025 10.281 47.366 10.248 47.773 10.204C47.773 11.26 47.773 12.393 47.784 12.866C47.828 14.681 48.114 15.275 50.787 15.275C51.876 15.275 53.229 15.176 53.966 15.088L53.999 13.911C53.24 14.054 51.865 14.186 50.721 14.186C48.928 14.186 48.884 13.834 48.851 12.701C48.829 12.25 48.84 11.161 48.851 10.083C49.874 9.97301 51.073 9.86301 52.14 9.77501C52.118 10.402 52.085 11.04 52.03 11.37C52.008 11.612 51.898 11.656 51.645 11.656C51.414 11.656 50.952 11.59 50.589 11.513L50.567 12.47C50.897 12.525 51.711 12.635 52.107 12.635C52.635 12.635 52.888 12.492 52.998 11.964C53.097 11.469 53.141 10.534 53.163 9.69801C53.57 9.67601 53.933 9.65401 54.219 9.65401C54.505 9.64301 54.989 9.63201 55.176 9.64301V8.56501C54.89 8.58701 54.516 8.62001 54.23 8.63101C53.922 8.65301 53.559 8.67501 53.185 8.70801C53.196 8.26801 53.196 7.79501 53.207 7.32201C53.207 7.05801 53.229 6.62901 53.262 6.45301Z" fill="white"/>
<path d="M56.87 7.57501L56.991 8.78501C58.212 8.52101 60.775 8.25701 61.886 8.13601C60.995 8.71901 60.016 10.061 60.016 11.711C60.016 14.142 62.271 15.297 64.427 15.396L64.834 14.23C63.008 14.153 61.138 13.482 61.138 11.48C61.138 10.171 62.117 8.60901 63.58 8.16901C64.152 8.01501 65.109 8.00401 65.714 8.00401V6.89301C64.955 6.92601 63.855 6.99201 62.678 7.09101C60.654 7.25601 58.696 7.44301 57.893 7.52001C57.684 7.54201 57.299 7.56401 56.87 7.57501Z" fill="white"/>
<path d="M73.832 8.38901H71.797V9.23601H77.033V8.38901H74.844V7.53101H77.352V6.67301H74.844V5.76001H73.832V6.67301H71.445V7.53101H73.832V8.38901ZM72.27 10.743H76.461V11.92H77.407V9.91801H71.357V11.92H72.27V10.743ZM70.862 6.13401H67.98V6.93701H70.862V6.13401ZM71.203 7.58601H67.441V8.40001H71.203V7.58601ZM70.895 9.08201H67.914V9.87401H70.895V9.08201ZM67.914 11.348H70.895V10.545H67.914V11.348ZM70.059 14.439H68.739V12.855H70.059V14.439ZM70.906 12.03H67.903V15.726H68.739V15.242H70.906V15.11C71.115 15.297 71.368 15.66 71.478 15.891C73.436 15.099 73.777 13.68 73.854 11.37H72.897C72.831 13.328 72.611 14.428 70.906 15.066V12.03ZM75.988 14.857C75.779 14.857 75.757 14.813 75.757 14.527V11.381H74.8V14.538C74.8 15.462 74.987 15.748 75.834 15.748H76.659C77.374 15.748 77.616 15.352 77.682 13.823C77.429 13.757 77.033 13.592 76.846 13.438C76.813 14.67 76.769 14.857 76.56 14.857H75.988Z" fill="white"/>
<path d="M80.41 6.81601L80.454 7.94901C80.729 7.90501 81.081 7.87201 81.312 7.86101C81.807 7.83901 82.984 7.78401 83.424 7.77301C83.127 8.37801 82.753 9.23601 82.39 10.039C80.212 10.116 78.694 11.381 78.694 13.042C78.694 14.054 79.354 14.67 80.234 14.67C80.883 14.67 81.345 14.428 81.763 13.823C82.17 13.196 82.676 11.997 83.083 11.04C84.15 11.15 85.14 11.524 85.998 11.997C85.635 13.108 84.854 14.23 83.149 14.956L84.073 15.715C85.613 14.934 86.46 13.922 86.922 12.569C87.307 12.844 87.659 13.119 87.978 13.394L88.484 12.206C88.143 11.964 87.725 11.689 87.23 11.403C87.34 10.776 87.406 10.072 87.45 9.31301L86.306 9.19201C86.339 9.51101 86.339 9.90701 86.317 10.281C86.306 10.479 86.284 10.688 86.251 10.908C85.437 10.534 84.502 10.226 83.501 10.094C83.941 9.10401 84.392 8.07001 84.689 7.58601C84.777 7.44301 84.887 7.31101 85.019 7.17901L84.326 6.62901C84.161 6.69501 83.919 6.73901 83.688 6.76101C83.204 6.79401 81.873 6.86001 81.279 6.86001C81.048 6.86001 80.696 6.84901 80.41 6.81601ZM79.695 12.888C79.695 12.063 80.52 11.183 81.961 11.029C81.609 11.832 81.246 12.701 80.894 13.174C80.685 13.449 80.509 13.548 80.278 13.548C79.97 13.548 79.695 13.328 79.695 12.888Z" fill="white"/>
<path d="M95.271 12.349L94.248 12.25C94.149 12.701 94.061 13.163 94.061 13.625C94.061 14.714 95.029 15.297 96.822 15.297C97.658 15.297 98.395 15.22 99 15.143L99.033 14.032C98.307 14.164 97.559 14.252 96.833 14.252C95.425 14.252 95.128 13.801 95.128 13.306C95.128 13.031 95.183 12.69 95.271 12.349ZM94.017 6.28801L92.697 6.18901C92.719 6.43101 92.708 6.83801 92.653 7.17901C92.631 7.38801 92.576 7.67401 92.521 8.00401C92.136 8.03701 91.762 8.04801 91.421 8.04801C91.003 8.04801 90.618 8.02601 90.079 7.96001L90.101 9.03801C90.497 9.07101 90.904 9.08201 91.41 9.08201C91.685 9.08201 91.982 9.07101 92.301 9.06001C92.213 9.42301 92.125 9.78601 92.037 10.127C91.619 11.667 90.816 13.933 90.167 15.055L91.366 15.462C91.96 14.219 92.708 11.953 93.104 10.402C93.225 9.94001 93.346 9.43401 93.456 8.96101C94.204 8.87301 94.974 8.75201 95.667 8.58701V7.49801C95.029 7.66301 94.347 7.78401 93.676 7.88301C93.731 7.64101 93.775 7.42101 93.808 7.23401C93.852 7.01401 93.951 6.56301 94.017 6.28801ZM94.886 9.63201V10.655C95.579 10.578 96.25 10.534 96.965 10.534C97.625 10.534 98.274 10.6 98.835 10.677L98.868 9.62101C98.241 9.55501 97.581 9.53301 96.943 9.53301C96.239 9.53301 95.48 9.57701 94.886 9.63201Z" fill="white"/>
<path d="M102.63 7.24501L101.288 7.22301C101.354 7.52001 101.376 7.98201 101.376 8.25701C101.376 8.91701 101.387 10.237 101.497 11.205C101.794 14.098 102.817 15.154 103.928 15.154C104.731 15.154 105.413 14.505 106.106 12.624L105.237 11.601C104.984 12.602 104.5 13.801 103.95 13.801C103.213 13.801 102.762 12.635 102.597 10.908C102.52 10.05 102.509 9.12601 102.52 8.43301C102.52 8.13601 102.575 7.56401 102.63 7.24501ZM108.262 7.52001L107.173 7.88301C108.284 9.20301 108.911 11.645 109.098 13.537L110.231 13.097C110.088 11.315 109.274 8.79601 108.262 7.52001Z" fill="white"/>
<path d="M10 4H17L20 7V16.2222H10V4Z" fill="#DADADA"/>
<path d="M10 4H17V7H20V16.2222H10V4Z" fill="white"/>
<path fill-rule="evenodd" clip-rule="evenodd" d="M17.7782 7.33203H12.2227V6.83203H17.7782V7.33203Z" fill="#002C59"/>
<path fill-rule="evenodd" clip-rule="evenodd" d="M17.7782 11.7766H12.2227V11.2766H17.7782V11.7766Z" fill="#002C59"/>
<path fill-rule="evenodd" clip-rule="evenodd" d="M17.7782 9.55417H12.2227V9.05417H17.7782V9.55417Z" fill="#002C59"/>
<path fill-rule="evenodd" clip-rule="evenodd" d="M17.7782 14H12.2227V13.5H17.7782V14Z" fill="#002C59"/>
</svg>
