<svg width="53" height="21" viewBox="0 0 53 21" fill="none" xmlns="http://www.w3.org/2000/svg">
<path d="M0 3C0 1.34315 1.34315 0 3 0H50C51.6569 0 53 1.34315 53 3V21H0V3Z" fill="#002C59"/>
<path d="M30.0667 6.959L28.7907 6.508C28.7357 6.772 28.6367 7.168 28.5487 7.41C28.2297 8.312 27.8227 9.291 27.1737 10.248C26.2937 9.577 25.0727 8.73 24.1487 8.147L23.4227 9.027C24.5117 9.698 25.6557 10.545 26.4587 11.194C25.3807 12.525 24.0497 13.669 22.1797 14.56L23.1477 15.429C25.0397 14.417 26.3597 13.163 27.3607 11.942C28.2737 12.734 29.0987 13.515 29.8907 14.428L30.7707 13.46C30.0117 12.635 29.0657 11.777 28.0867 10.974C28.7907 9.94 29.3187 8.763 29.6707 7.85C29.7587 7.60799 29.9457 7.179 30.0667 6.959Z" fill="white"/>
<path d="M33.9497 7.069V8.169C34.2577 8.147 34.5877 8.136 34.9727 8.136H36.3257V10.259H34.3347C34.0157 10.259 33.5317 10.237 33.2237 10.204V11.359C33.5427 11.337 34.0377 11.315 34.3347 11.315H36.3257V13.636C36.3257 14.626 36.8317 15.264 38.6467 15.264C39.6917 15.264 40.8247 15.22 41.6277 15.165L41.6937 13.988C40.7807 14.098 39.8457 14.142 38.8337 14.142C37.8767 14.142 37.4917 13.867 37.4917 13.284V11.315H41.0557C41.2977 11.315 41.7377 11.315 42.0237 11.337L42.0127 10.215C41.7487 10.237 41.2647 10.259 41.0337 10.259H37.4917V8.136H40.2307C40.6267 8.136 40.9017 8.158 41.1767 8.169V7.069C40.9237 7.102 40.5937 7.113 40.2307 7.113H34.9727C34.5877 7.113 34.2577 7.091 33.9497 7.069Z" fill="white"/>
<path d="M15.0156 6.24219L18.0032 7.9134L13.8251 15.3822C13.8251 15.3822 12.2433 16.4585 11.4964 16.0407C10.7495 15.6229 10.8376 13.711 10.8376 13.711L15.0156 6.24219Z" fill="white"/>
<path d="M16.2656 4L19.2532 5.67121L18.4175 7.16498L15.43 5.49376L16.2656 4Z" fill="white"/>
</svg>
