<svg width="139" height="65" viewBox="0 0 139 65" fill="none" xmlns="http://www.w3.org/2000/svg">
<path d="M0.613839 39.7816H4.90384L8.71469 18.0584C9.43695 13.9412 9.8102 9.93247 10.2839 5.97786H10.5589L13.5334 14.1038L24.1538 39.7816H28.8838L35.8403 0.127197H31.4953L27.732 21.5796C27.0192 25.6426 26.589 29.9764 26.1702 33.931H25.8952L22.9757 25.8051L12.2453 0.127197H7.57031L0.613839 39.7816Z" fill="white"/>
<path d="M51.3528 40.4859C55.4778 40.4859 58.7404 39.1316 61.6105 37.5064L60.4737 34.5811C58.0171 36.0437 55.4356 36.9647 52.5206 36.9647C46.5806 36.9647 43.3808 32.6308 44.2462 26.1301H64.5412C64.8298 25.4259 65.0558 24.4508 65.2269 23.4757C66.7094 15.0247 63.3412 9.76995 55.9162 9.76995C49.0962 9.76995 41.6254 15.6748 39.9623 25.155C38.2707 34.7978 43.5428 40.4859 51.3528 40.4859ZM44.7614 22.8798C46.4213 16.8666 50.944 13.3453 55.344 13.3453C60.184 13.3453 62.4643 16.6499 61.3714 22.8798H44.7614Z" fill="white"/>
<path d="M74.8879 39.7816H80.1679L87.3639 23.5298C88.7286 20.767 89.8183 18.0042 91.0009 15.0247H91.2759C91.4683 18.0042 91.5526 20.6587 91.8834 23.4757L93.5329 39.7816H98.9779L112.25 10.5284H107.96L100.344 27.9178C99.1995 30.6806 98.1383 33.2809 97.0031 35.9896H96.7831C96.5433 33.2809 96.3395 30.6806 96.1091 27.9178L94.3197 10.5284H89.8097L81.9741 27.9178C80.7195 30.6806 79.6583 33.2809 78.4681 35.9896H78.2481C78.1183 33.2809 78.0245 30.6806 77.8491 27.9178L76.2247 10.5284H71.6597L74.8879 39.7816Z" fill="white"/>
<path d="M121.24 40.4859C128.115 40.4859 132.539 36.5855 133.357 31.9266C134.336 26.3468 129.79 24.6675 125.74 22.9881C122.539 21.7963 119.658 20.6587 120.172 17.7333C120.59 15.3497 122.766 13.2912 126.726 13.2912C129.421 13.2912 131.311 14.4288 133.09 15.8915L135.793 13.0203C133.852 11.2326 130.919 9.76995 127.344 9.76995C120.909 9.76995 116.587 13.3995 115.789 17.95C114.914 22.9339 119.137 24.8841 123.106 26.401C126.252 27.5928 129.58 29.0013 129.029 32.1433C128.554 34.8519 126.138 37.0188 122.013 37.0188C118.273 37.0188 115.89 35.5562 113.666 33.4976L110.888 36.4771C113.294 38.7524 117.005 40.4859 121.24 40.4859Z" fill="white"/>
<rect x="55" y="63" width="29" height="2" fill="white"/>
</svg>
