<svg width="55" height="64" viewBox="0 0 55 64" fill="none" xmlns="http://www.w3.org/2000/svg">
<path fill-rule="evenodd" clip-rule="evenodd" d="M28.3434 1.0332C37.76 1.0332 46.427 9.7313 46.427 19.1167L45.3936 29.9668H11.2933L9.22656 18.4023C9.22656 9.01685 18.9269 1.0332 28.3434 1.0332ZM28.3434 5.68325C35.6674 5.68325 41.2602 11.0461 41.2602 18.4023L40.2269 26.9506H15.0822V18.4023C15.0822 11.0461 21.0194 5.68325 28.3434 5.68325Z" fill="white"/>
<path fill-rule="evenodd" clip-rule="evenodd" d="M47.4624 32.4369C47.4624 33.3556 46.7448 34.1004 45.8597 34.1004H9.79805C8.91288 34.1004 8.19531 33.3556 8.19531 32.4369V20.4073C8.19531 9.1392 16.9831 0 27.8289 0C38.6746 0 47.4624 9.1392 47.4624 20.4073V32.4369ZM9.79805 32.4369V20.4073C9.79805 10.0553 17.8707 1.66343 27.8289 1.66343C37.787 1.66343 45.8597 10.0553 45.8597 20.4073V32.4369H9.79805ZM40.2501 19.6814C40.2501 12.4718 34.6749 6.65373 27.8289 6.65373C20.9828 6.65373 15.4076 12.4718 15.4076 19.6814V27.4466H40.2501V19.6814ZM41.8528 19.6814C41.8528 11.5677 35.5741 4.9903 27.8289 4.9903C20.0836 4.9903 13.8049 11.5677 13.8049 19.6814V29.1101H41.8528V19.6814Z" fill="#002347"/>
<path d="M53.6339 20.5454C53.6339 19.9931 53.1862 19.5454 52.6339 19.5454H2C1.44772 19.5454 1 19.9931 1 20.5454V36.7504C1 51.2502 12.785 63.0001 27.3169 63.0001C41.8489 63.0001 53.6339 51.2502 53.6339 36.7504V20.5454Z" fill="#F8F8F8" stroke="#002347" stroke-width="2" stroke-linejoin="round"/>
<path d="M48.4645 25.833C48.4645 25.2807 48.0168 24.833 47.4645 24.833H7.16406C6.61178 24.833 6.16406 25.2807 6.16406 25.833V37.9513C6.16406 48.9921 15.6956 57.8333 27.3143 57.8333C38.933 57.8333 48.4645 48.9921 48.4645 37.9513V25.833Z" stroke="#002347" stroke-width="2" stroke-linejoin="round"/>
<mask id="path-5-outside-1" maskUnits="userSpaceOnUse" x="21.918" y="30.6045" width="12" height="17" fill="black">
<rect fill="white" x="21.918" y="30.6045" width="12" height="17"/>
<path fill-rule="evenodd" clip-rule="evenodd" d="M28.9434 40.2429C30.5595 39.7641 31.7381 38.2714 31.7381 36.5042C31.7381 34.3504 29.9875 32.6045 27.828 32.6045C25.6686 32.6045 23.918 34.3504 23.918 36.5042C23.918 38.2701 25.0949 39.7619 26.7091 40.2418V44.3C26.7091 44.917 27.2093 45.4172 27.8262 45.4172C28.4432 45.4172 28.9434 44.917 28.9434 44.3V40.2429Z"/>
</mask>
<path fill-rule="evenodd" clip-rule="evenodd" d="M28.9434 40.2429C30.5595 39.7641 31.7381 38.2714 31.7381 36.5042C31.7381 34.3504 29.9875 32.6045 27.828 32.6045C25.6686 32.6045 23.918 34.3504 23.918 36.5042C23.918 38.2701 25.0949 39.7619 26.7091 40.2418V44.3C26.7091 44.917 27.2093 45.4172 27.8262 45.4172C28.4432 45.4172 28.9434 44.917 28.9434 44.3V40.2429Z" fill="#F8F8F8"/>
<path d="M28.9434 40.2429L28.3752 38.3253L26.9434 38.7496V40.2429H28.9434ZM26.7091 40.2418H28.7091V38.75L27.2791 38.3248L26.7091 40.2418ZM29.7381 36.5042C29.7381 37.3585 29.1684 38.0903 28.3752 38.3253L29.5116 42.1605C31.9506 41.4378 33.7381 39.1843 33.7381 36.5042H29.7381ZM27.828 34.6045C28.888 34.6045 29.7381 35.46 29.7381 36.5042H33.7381C33.7381 33.2409 31.0871 30.6045 27.828 30.6045V34.6045ZM25.918 36.5042C25.918 35.46 26.7681 34.6045 27.828 34.6045V30.6045C24.569 30.6045 21.918 33.2409 21.918 36.5042H25.918ZM27.2791 38.3248C26.4869 38.0892 25.918 37.3579 25.918 36.5042H21.918C21.918 39.1823 23.7029 41.4345 26.139 42.1589L27.2791 38.3248ZM28.7091 44.3V40.2418H24.7091V44.3H28.7091ZM27.8262 43.4172C28.3138 43.4172 28.7091 43.8124 28.7091 44.3H24.7091C24.7091 46.0216 26.1047 47.4172 27.8262 47.4172V43.4172ZM26.9434 44.3C26.9434 43.8124 27.3387 43.4172 27.8262 43.4172V47.4172C29.5478 47.4172 30.9434 46.0216 30.9434 44.3H26.9434ZM26.9434 40.2429V44.3H30.9434V40.2429H26.9434Z" fill="#002347" mask="url(#path-5-outside-1)"/>
</svg>
