<svg width="54" height="66" viewBox="0 0 54 66" fill="none" xmlns="http://www.w3.org/2000/svg">
<path d="M7.99881 1C7.76597 1 7.54043 1.08125 7.36108 1.22974L1.36227 6.19642C1.03543 6.46702 0.914955 6.91443 1.06173 7.31257C1.2085 7.7107 1.59055 7.97286 2.01483 7.96657L35.5082 7.4699C35.7055 7.46697 35.8975 7.40574 36.0601 7.29392L42.5588 2.82392C42.9196 2.5757 43.077 2.12154 42.947 1.70328C42.8171 1.28502 42.4301 1 41.9921 1H7.99881Z" fill="#F8F8F8" stroke="#002347" stroke-width="2" stroke-linecap="round" stroke-linejoin="round"/>
<rect x="1" y="5.9668" width="35.9933" height="58.6201" fill="#F8F8F8" stroke="#002347" stroke-width="2" stroke-linecap="round" stroke-linejoin="round"/>
<rect x="5.99609" y="10.9326" width="25.9952" height="31.8001" fill="#F8F8F8" stroke="#002347" stroke-width="2" stroke-linecap="round" stroke-linejoin="round"/>
<path d="M35.3584 6.19642C35.1289 6.38639 34.9961 6.66878 34.9961 6.96668V63.5868C34.9961 63.982 35.2289 64.3402 35.5901 64.5006C35.9513 64.6611 36.3731 64.5938 36.6664 64.3289L42.1653 59.3622C42.3729 59.1747 42.4925 58.9087 42.495 58.6289L42.9949 2.00883C42.9983 1.61981 42.7758 1.2641 42.4245 1.09698C42.0732 0.929849 41.6568 0.98164 41.3572 1.22974L35.3584 6.19642Z" fill="#F8F8F8" stroke="#002347" stroke-width="2" stroke-linecap="round" stroke-linejoin="round"/>
<path d="M21.9984 49.6799C21.9984 51.3159 20.6618 52.6532 18.9992 52.6532C17.3367 52.6532 16 51.3159 16 49.6799C16 48.0439 17.3367 46.7065 18.9992 46.7065C20.6618 46.7065 21.9984 48.0439 21.9984 49.6799Z" stroke="#002347" stroke-width="2"/>
<line x1="12" y1="55.6333" x2="25.9968" y2="55.6333" stroke="#002347" stroke-width="2" stroke-linecap="round"/>
<line x1="14.9961" y1="58.6138" x2="23.9939" y2="58.6138" stroke="#002347" stroke-width="2" stroke-linecap="round"/>
<line x1="6.99609" y1="30.7993" x2="30.9913" y2="30.7993" stroke="#002347" stroke-width="2"/>
<line x1="6.99609" y1="20.8667" x2="30.9913" y2="20.8667" stroke="#002347" stroke-width="2"/>
<path d="M44.9436 35.255C44.9436 43.1883 38.4687 49.6306 30.4679 49.6306C22.467 49.6306 15.9922 43.1883 15.9922 35.255C15.9922 27.3217 22.467 20.8794 30.4679 20.8794C38.4687 20.8794 44.9436 27.3217 44.9436 35.255Z" fill="#F8F8F8" stroke="#002347" stroke-width="2"/>
<line x1="3" y1="-3" x2="17.9406" y2="-3" transform="matrix(0.642634 0.766173 -0.770259 0.637731 36.5391 47.9561)" stroke="#002347" stroke-width="6" stroke-linecap="round"/>
</svg>
