<svg width="65" height="62" viewBox="0 0 65 62" fill="none" xmlns="http://www.w3.org/2000/svg">
<g clip-path="url(#clip0)">
<path d="M49.8437 28.6664V33.4337L45.7681 33.6218C45.768 33.6218 45.7679 33.6218 45.7678 33.6218L45.7669 33.6219L45.813 34.6208M49.8437 28.6664L44.0396 34.8342L44.0403 34.8325L44.9637 35.2165M49.8437 28.6664L45.7682 28.4783L45.7671 28.4782L45.8132 27.4793L49.8437 28.6664ZM45.813 34.6208C45.4377 34.6376 45.1061 34.8703 44.9637 35.2165M45.813 34.6208L49.9212 34.4312L45.813 34.6208ZM44.9637 35.2165L44.0389 34.8358L43.1938 36.8682L43.1933 36.8695C42.9006 37.5763 43.0442 38.3868 43.5599 38.9499L43.559 38.949L44.2976 38.2752L43.5606 38.9507L46.3095 41.9636M44.9637 35.2165L44.1172 37.2522C43.9732 37.5997 44.0438 37.998 44.2978 38.275L47.0685 41.3118M47.0685 41.3118L46.3501 41.962L46.3306 41.9425L46.3299 41.9431M47.0685 41.3118L46.3529 41.9648L47.0685 41.3118ZM46.3299 41.9431L46.3095 41.9636M46.3299 41.9431L46.3494 41.9626L46.327 41.9828M46.3299 41.9431C46.3279 41.9452 46.3249 41.9492 46.3229 41.9541C46.321 41.9585 46.3205 41.9621 46.3204 41.9648C46.3204 41.9674 46.3207 41.9705 46.322 41.9741C46.3236 41.9782 46.3258 41.9814 46.327 41.9828M46.3095 41.9636L46.327 41.9828M46.3095 41.9636L42.9354 45.3361M46.327 41.9828L18.2605 33.6219M46.327 41.9828L46.3298 41.9858L46.3522 41.9653L46.327 41.9828ZM42.9354 45.3361L39.9181 42.586L39.9178 42.5858C39.3536 42.0719 38.5429 41.93 37.8376 42.2223L38.2196 43.1445L37.8374 42.2224L35.8006 43.066L35.8005 43.066C35.0932 43.359 34.6233 44.034 34.5889 44.7953L34.5889 44.7944L35.5878 44.8407M42.9354 45.3361L42.9559 45.3547M42.9354 45.3361L42.9157 45.3558M35.5878 44.8407L34.5889 44.7957L34.3999 48.8682M35.5878 44.8407L35.3974 48.9448M35.5878 44.8407C35.6048 44.465 35.8362 44.1336 36.1832 43.9899L38.2203 43.1461C38.5673 43.0023 38.9666 43.072 39.2445 43.3251L42.2833 46.0947C42.6656 46.4422 43.2553 46.4295 43.622 46.0637L21.7455 46.0947M34.3999 48.8682H29.6276M34.3999 48.8682H34.431C34.4276 48.8682 34.4225 48.869 34.4175 48.8711C34.4155 48.8718 34.4139 48.8727 34.4125 48.8736C34.4106 48.8747 34.4091 48.8759 34.4079 48.877C34.4059 48.879 34.4037 48.8818 34.4018 48.8859C34.3996 48.8906 34.3986 48.8953 34.3985 48.8983M34.3999 48.8682L34.3985 48.8983M29.6276 48.8682L29.4399 44.7957L28.4409 44.8407M29.6276 48.8682L29.629 48.8985M29.6276 48.8682H29.5978C29.6011 48.8682 29.606 48.869 29.6107 48.8709C29.6148 48.8726 29.6176 48.8746 29.6194 48.8764C29.6213 48.8781 29.6235 48.8809 29.6255 48.8851C29.6277 48.8899 29.6288 48.895 29.629 48.8985M28.4409 44.8407L29.4399 44.7947L29.4399 44.7952C29.4054 44.034 28.9357 43.359 28.2283 43.066L28.2282 43.066L26.1915 42.2224L25.8085 43.1461M28.4409 44.8407C28.424 44.465 28.1927 44.1336 27.8456 43.9899L25.8085 43.1461M28.4409 44.8407L28.63 48.9448M25.8085 43.1461L26.1911 42.2223C25.4876 41.9307 24.6746 42.0706 24.1102 42.5865L24.1107 42.586L24.7843 43.3251M25.8085 43.1461C25.4615 43.0023 25.0608 43.072 24.7843 43.3251M24.7843 43.3251L24.1091 42.5875L21.094 45.3354M24.7843 43.3251L21.7455 46.0947M21.094 45.3354L17.7186 41.9643M21.094 45.3354L21.0742 45.3535M21.094 45.3354L21.1148 45.3561L21.1157 45.357C21.1154 45.3567 21.1151 45.3565 21.1147 45.3562C21.1124 45.3541 21.1087 45.3515 21.1041 45.3496C21.0994 45.3476 21.0955 45.347 21.0926 45.347C21.0897 45.3469 21.0864 45.3473 21.0828 45.3487C21.0786 45.3502 21.0754 45.3524 21.0742 45.3535M17.7186 41.9643L20.4681 38.9507L19.731 38.275L20.4697 38.949L20.4691 38.9496C20.9887 38.382 21.1229 37.5704 20.8325 36.8695L20.8325 36.8694L19.9889 34.8336L19.9884 34.8326C19.6965 34.1302 19.0255 33.6566 18.2605 33.6219M17.7186 41.9643L17.699 41.9858M17.7186 41.9643L17.6974 41.9431M18.2605 33.6219L18.2144 34.6208L18.2591 33.6218M18.2605 33.6219L18.2591 33.6218M18.2591 33.6218L14.1836 33.4337V28.6665L18.2593 28.4783C18.2593 28.4783 18.2594 28.4783 18.2594 28.4783L18.2606 28.4782L18.2144 27.4793C18.591 27.4624 18.9212 27.2297 19.065 26.8836L19.9087 24.8478C20.0526 24.5003 19.9849 24.1021 19.7309 23.825L18.2591 33.6218ZM17.699 41.9858L18.2144 34.6208C18.591 34.6376 18.9212 34.8703 19.065 35.2165L19.9087 37.2522C20.0526 37.5997 19.9849 37.998 19.7309 38.275L16.9602 41.3118L17.6749 41.9638L17.6965 41.9422L17.6974 41.9431M17.699 41.9858L17.6989 41.9858L17.6758 41.9647L16.9902 42.6494L17.6749 41.9639L17.699 41.9858ZM17.699 41.9858L17.6759 41.9647L17.6974 41.9431M17.699 41.9858C17.7093 41.9744 17.7094 41.9551 17.6974 41.9431M21.7455 46.0947L21.0935 45.3793L21.0926 45.3783L21.0719 45.3556L21.0742 45.3535M21.7455 46.0947L21.0956 45.3771L21.0948 45.3762L21.0742 45.3535M28.63 48.9448C28.654 49.4608 29.0814 49.8682 29.5978 49.8682H34.431C34.9474 49.8682 35.3734 49.4608 35.3974 48.9448M28.63 48.9448L29.5978 48.9002L29.629 48.8987L29.629 48.8985M28.63 48.9448L29.5978 48.8999L29.629 48.8985M35.3974 48.9448L34.431 48.8998L34.3985 48.8983M35.3974 48.9448L34.431 48.8999L34.3985 48.8984L34.3985 48.8983M42.9559 45.3547L42.9569 45.3556L42.9371 45.3773L43.6209 46.0626L42.9365 45.3779L42.2836 46.0943L42.9356 45.377L42.9151 45.3564L42.9157 45.3558M42.9559 45.3547C42.9539 45.3529 42.9501 45.3504 42.9456 45.3487C42.9416 45.3473 42.9384 45.3469 42.9358 45.347C42.9333 45.347 42.9299 45.3475 42.9259 45.3492C42.9212 45.3512 42.9175 45.3539 42.9157 45.3558M42.9559 45.3547L42.9362 45.3764L42.9157 45.3558M21.0916 16.7643L24.1092 19.5126C24.1095 19.5129 24.1099 19.5132 24.1102 19.5136C24.6738 20.0287 25.4853 20.1706 26.1915 19.8778C26.1916 19.8778 26.1916 19.8778 26.1917 19.8777L28.227 19.034C28.2273 19.0338 28.2277 19.0337 28.228 19.0335C28.9361 18.741 29.4056 18.0656 29.44 17.3049L29.44 17.3054L28.4411 17.2594L29.4401 17.3044L21.0916 16.7643ZM21.0916 16.7643L17.7199 20.1358L20.4682 23.1494C20.4685 23.1498 20.4689 23.1502 20.4692 23.1505L21.0916 16.7643ZM44.0393 27.2645C44.0396 27.2653 44.0399 27.2661 44.0402 27.2668L34.5891 17.3044L35.5881 17.2594L34.5891 17.3058L34.5891 17.3049C34.6235 18.0654 35.0928 18.7411 35.8011 19.0336C35.8015 19.0338 35.8019 19.0339 35.8023 19.0341L37.8361 19.8772C37.8363 19.8773 37.8366 19.8774 37.8368 19.8775C38.5443 20.1717 39.3551 20.027 39.918 19.5143L39.9182 19.5141L42.936 16.7644L46.309 20.1358L43.5608 23.1494C43.5605 23.1497 43.5602 23.15 43.56 23.1503C43.0424 23.7156 42.9043 24.5251 43.1921 25.2272L43.194 25.2318L44.0393 27.2645ZM34.4001 13.2319H34.4312C34.4279 13.2319 34.4229 13.2311 34.4179 13.2291C34.4134 13.2272 34.4103 13.225 34.4082 13.223C34.4061 13.221 34.4038 13.2181 34.4019 13.214C34.3998 13.2093 34.3988 13.2048 34.3987 13.2021L34.4001 13.2319ZM29.6277 13.2319L29.6291 13.2018C29.6289 13.205 29.6279 13.2099 29.6257 13.2147C29.6237 13.219 29.6214 13.2218 29.6194 13.2237C29.6175 13.2255 29.6147 13.2276 29.6106 13.2292C29.6059 13.2312 29.6011 13.2319 29.5979 13.2319H29.6277ZM17.6975 20.1583L17.6975 20.1582C17.6975 20.1582 17.6975 20.1583 17.6975 20.1583ZM35.3976 13.1554L34.4312 13.2003L34.3987 13.2018L34.3987 13.2021L34.4312 13.2005L35.3976 13.1554ZM24.8636 31.0505C24.8636 34.9978 28.0674 38.1966 32.0145 38.1966C35.962 38.1966 39.164 34.9974 39.164 31.0505C39.164 27.1028 35.962 23.9036 32.0145 23.9036C28.0674 23.9036 24.8636 27.1025 24.8636 31.0505Z" fill="white" stroke="#002347" stroke-width="2"/>
</g>
<path d="M56.9648 37.5264L58.4725 43.8908L63.5955 39.602" stroke="#002347" stroke-width="2" stroke-linecap="round" stroke-linejoin="round"/>
<path d="M58.016 44.1814C58.4824 44.409 59.0465 44.2159 59.2598 43.7427C60.8022 40.3221 61.7118 36.6474 61.9417 32.8969C62.1907 28.8336 61.637 24.761 60.3122 20.9117C58.9873 17.0623 56.9172 13.5116 54.2201 10.4623C51.7307 7.64777 48.7521 5.31127 45.4312 3.56448C44.9719 3.32286 44.4085 3.51779 44.1809 3.98426V3.98426C43.9533 4.45072 44.1478 5.01199 44.6067 5.25451C47.7059 6.89248 50.4864 9.0779 52.8122 11.7075C55.3458 14.572 57.2904 17.9074 58.5349 21.5233C59.7795 25.1393 60.2996 28.965 60.0656 32.7819C59.8509 36.286 59.0044 39.7197 57.5698 42.9182C57.3573 43.3918 57.5495 43.9538 58.016 44.1814V44.1814Z" fill="#002347"/>
<path d="M16.0781 52.8286L9.55025 52.4205L12.1641 58.5692" stroke="#002347" stroke-width="2" stroke-linecap="round" stroke-linejoin="round"/>
<path d="M9.71618 52.284C9.36463 52.6356 9.36375 53.2066 9.72535 53.5478C12.4643 56.1321 15.6531 58.1975 19.1367 59.6405C22.8978 61.1984 26.9289 62.0002 30.9999 62.0002C35.0708 62.0002 39.1019 61.1984 42.863 59.6405C46.3467 58.1975 49.5355 56.1321 52.2744 53.5478C52.636 53.2066 52.6351 52.6356 52.2836 52.284V52.284C51.932 51.9325 51.363 51.9336 51.0008 52.2742C48.4295 54.6916 45.4393 56.6247 42.174 57.9772C38.6314 59.4446 34.8344 60.1999 30.9999 60.1999C27.1653 60.1999 23.3684 59.4446 19.8257 57.9772C16.5605 56.6247 13.5703 54.6916 10.999 52.2742C10.6367 51.9336 10.0677 51.9325 9.71618 52.284V52.284Z" fill="#002347"/>
<path d="M16.1797 8.98193L18.0562 2.71629L11.4752 3.86903" stroke="#002347" stroke-width="2" stroke-linecap="round" stroke-linejoin="round"/>
<path d="M17.9078 3.94385C17.6811 3.47539 17.1168 3.2781 16.6555 3.51891C13.3298 5.25477 10.3445 7.58117 7.84648 10.3869C5.13949 13.4275 3.05789 16.9714 1.72052 20.8165C0.383152 24.6615 -0.183787 28.7323 0.0520721 32.7964C0.26972 36.5467 1.16704 40.2236 2.69765 43.6485C2.90999 44.1237 3.4749 44.3191 3.94336 44.0925V44.0925C4.41181 43.8658 4.60632 43.3028 4.39492 42.8273C2.97157 39.6254 2.1368 36.1904 1.9335 32.6872C1.71198 28.8702 2.24445 25.0468 3.50051 21.4356C4.75658 17.8243 6.71163 14.4958 9.25406 11.6401C11.5875 9.01919 14.3737 6.84363 17.4768 5.21616C17.9376 4.97444 18.1345 4.4123 17.9078 3.94385V3.94385Z" fill="#002347"/>
<defs>
<clipPath id="clip0">
<rect x="13.1836" y="12.2319" width="37.661" height="37.6362" fill="white"/>
</clipPath>
</defs>
</svg>
