<svg width="52" height="62" viewBox="0 0 52 62" fill="none" xmlns="http://www.w3.org/2000/svg">
<path d="M26 1.5L2.5 10.5L1 40.5C6.16667 47 18.4 60.2 26 61C33.6 61.8 45.8333 47.6667 51 40.5V10.5L26 1.5Z" fill="white"/>
<circle cx="25.5" cy="30.5" r="12.5" fill="white"/>
<path fill-rule="evenodd" clip-rule="evenodd" d="M25.7449 0.137019C26.1673 -0.0656355 26.6643 -0.0422897 27.0656 0.199066L27.0673 0.200081L27.075 0.204658L27.1078 0.224252C27.1374 0.241873 27.1823 0.268498 27.2417 0.303473C27.3605 0.373428 27.5373 0.476758 27.7661 0.608235C28.2236 0.871241 28.8881 1.24657 29.7106 1.69248C31.3574 2.58523 33.6289 3.75626 36.1343 4.87426C38.6452 5.9947 41.3599 7.04772 43.8985 7.71882C46.4739 8.39967 48.7024 8.64125 50.3181 8.29725C50.4468 8.26985 50.5751 8.26115 50.7003 8.26933C51.4256 8.31388 52 8.91251 52 9.64445H51.9955C52 9.64447 52 9.64445 52 9.64445V40.6444C52 41.0918 51.826 41.5156 51.7048 41.7803C51.5592 42.098 51.3605 42.4511 51.1289 42.8222C50.6635 43.5681 50.0061 44.481 49.2072 45.4899C47.6062 47.5115 45.3781 49.9923 42.8353 52.4048C40.296 54.814 37.4098 57.1867 34.4911 58.9657C31.6021 60.7266 28.5297 62 25.6544 62C22.7891 62 19.7652 60.7779 16.9345 59.0781C14.0783 57.363 11.277 55.0749 8.82266 52.75C6.36508 50.422 4.22221 48.0254 2.68478 46.0663C1.91759 45.0887 1.28647 44.2014 0.839334 43.4728C0.61681 43.1101 0.425614 42.7638 0.285331 42.4504C0.166771 42.1855 0.00308167 41.7724 0.00209088 41.3364C-0.000262042 40.301 -0.000260719 32.3761 0.00032625 24.7138L0.00208716 9.64558C0.00208716 9.64558 0.00208747 9.64423 1.3887 9.64445L0.00208716 9.64558C0.00215567 9.21329 0.206419 8.80473 0.553775 8.54443C0.90113 8.28413 1.3513 8.20092 1.76963 8.31968C2.09871 8.4131 2.71529 8.4434 3.67464 8.31868C4.5999 8.19839 5.7145 7.95249 6.96397 7.60676C9.46078 6.91587 12.3757 5.86041 15.1731 4.74854C17.9643 3.63918 20.6091 2.48554 22.5581 1.6082C23.5319 1.16984 24.3304 0.801169 24.8848 0.542449C25.1619 0.413104 25.3779 0.311283 25.5241 0.242023L25.6901 0.163198L25.7449 0.137019ZM26.2782 2.9363C26.2113 2.96764 26.1398 3.00109 26.0638 3.03655C25.4996 3.29988 24.6895 3.67391 23.7025 4.11819C21.73 5.00613 19.045 6.17749 16.2031 7.30701C13.3675 8.43404 10.3459 9.53135 7.70795 10.2613C6.39001 10.626 5.13763 10.9075 4.03443 11.0509C3.61132 11.106 3.18754 11.1439 2.77508 11.1542L2.77355 24.714C2.77298 32.1585 2.77296 39.8426 2.77511 41.224C2.78405 41.2481 2.79805 41.2833 2.81928 41.3307C2.89353 41.4966 3.0193 41.7322 3.20712 42.0383C3.58068 42.647 4.14375 43.4443 4.87171 44.3719C6.3246 46.2232 8.37594 48.5197 10.7362 50.7556C13.0998 52.9945 15.7401 55.1412 18.3689 56.7198C21.0233 58.3137 23.5279 59.2444 25.6544 59.2444C27.7709 59.2444 30.3142 58.2789 33.041 56.6169C35.7381 54.973 38.4676 52.7387 40.9201 50.4119C43.3692 48.0882 45.5089 45.7038 47.0278 43.7858C47.7888 42.8249 48.3793 41.9995 48.7719 41.3703C48.9693 41.0538 49.1022 40.8101 49.1808 40.6385C49.2026 40.5909 49.2173 40.5552 49.2268 40.5304V11.1962C47.3431 11.2777 45.2514 10.9279 43.1854 10.3817C40.4471 9.65784 37.5819 8.54086 34.9982 7.38797C32.4091 6.23263 30.0713 5.027 28.3824 4.11142C27.5371 3.65315 26.8522 3.2664 26.3773 2.99337C26.3431 2.97375 26.3101 2.95472 26.2782 2.9363Z" fill="#002347"/>
<path fill-rule="evenodd" clip-rule="evenodd" d="M26 42.4545C32.3262 42.4545 37.4545 37.3262 37.4545 31C37.4545 24.6738 32.3262 19.5455 26 19.5455C19.6738 19.5455 14.5455 24.6738 14.5455 31C14.5455 37.3262 19.6738 42.4545 26 42.4545ZM26 45C33.732 45 40 38.732 40 31C40 23.268 33.732 17 26 17C18.268 17 12 23.268 12 31C12 38.732 18.268 45 26 45Z" fill="#002347"/>
<path fill-rule="evenodd" clip-rule="evenodd" d="M41.5932 19.4055C42.1356 19.9463 42.1356 20.823 41.5932 21.3637L26.3154 36.5945C25.773 37.1352 24.8936 37.1352 24.3512 36.5945L17.4068 29.6714C16.8644 29.1307 16.8644 28.254 17.4068 27.7132C17.9492 27.1725 18.8286 27.1725 19.371 27.7132L25.3333 33.6572L39.629 19.4055C40.1714 18.8648 41.0508 18.8648 41.5932 19.4055Z" fill="#002347"/>
</svg>
