<svg width="261" height="53" viewBox="0 0 261 53" fill="none" xmlns="http://www.w3.org/2000/svg">
<rect x="0.980469" width="259.729" height="52.9447" fill="#FF7A00"/>
<path d="M77.328 27.9037L71.008 27.9037V26.0317H76.384V24.2077H71.008V22.1117C72.768 21.9037 74.448 21.6317 75.872 21.2637L74.496 19.6797C71.872 20.3677 67.488 20.7997 63.632 20.9597C63.824 21.3757 64.064 22.1437 64.112 22.6397C65.68 22.5757 67.36 22.4797 69.024 22.3357V24.2077H63.792V26.0317H69.024V27.9037H62.704V29.7597H69.024V32.3357C69.024 32.6557 68.88 32.7677 68.512 32.7837C68.16 32.7837 66.816 32.7837 65.632 32.7357C65.936 33.2477 66.304 34.0797 66.416 34.6237C68.048 34.6397 69.2 34.5917 69.968 34.3037C70.72 33.9997 71.008 33.5037 71.008 32.3677V29.7597L77.328 29.7597V27.9037ZM91.04 25.4237L87.728 25.4237V24.3997L91.04 24.3997V25.4237ZM91.04 27.7437H87.728V26.7197H91.04V27.7437ZM91.04 30.0957H87.728V29.0717H91.04V30.0957ZM86.016 23.0077V31.4877H92.832V23.0077H90.128C90.24 22.6717 90.368 22.3197 90.496 21.9677H93.248V20.3357L85.616 20.3357V21.9677H88.48C88.432 22.3037 88.368 22.6717 88.304 23.0077H86.016ZM79.216 27.2477C79.216 29.6637 79.12 31.7917 78.336 33.5037C78.704 33.7277 79.296 34.2557 79.568 34.6077C80.624 32.6237 80.752 30.0957 80.752 27.2637V20.3197H79.216V27.2477ZM81.456 32.4317H82.768V21.4557H81.456V32.4317ZM85.056 20.2397H83.536V34.0957H85.056V33.7117C85.376 34.0157 85.728 34.4157 85.936 34.6877C87.024 34.2077 88.32 33.3437 89.12 32.5437L87.616 31.5677C87.072 32.1757 86.016 32.9117 85.056 33.3757V20.2397ZM89.76 32.5437C90.608 33.1837 91.728 34.0637 92.24 34.6717L93.728 33.6477C93.136 33.0557 91.968 32.2237 91.152 31.6477L89.76 32.5437ZM101.584 31.1837C101.584 30.5757 102.192 30.1917 103.104 30.1917C103.536 30.1917 103.968 30.2557 104.384 30.3677C104.384 30.4797 104.384 30.5757 104.384 30.6557C104.384 31.5997 104.048 32.1117 103.072 32.1117C102.224 32.1117 101.584 31.8397 101.584 31.1837ZM106.336 20.7357H104.048C104.112 21.0557 104.16 21.5517 104.16 21.7917C104.16 22.1277 104.176 22.7837 104.176 23.5677C103.808 23.5837 103.424 23.5837 103.056 23.5837C102.096 23.5837 101.168 23.5357 100.256 23.4397V25.3437C101.2 25.4077 102.112 25.4397 103.056 25.4397C103.424 25.4397 103.808 25.4397 104.192 25.4237C104.208 26.5597 104.272 27.7277 104.304 28.7197C103.984 28.6717 103.632 28.6557 103.264 28.6557C101.088 28.6557 99.712 29.7757 99.712 31.3917C99.712 33.0717 101.088 33.9997 103.296 33.9997C105.456 33.9997 106.32 32.9117 106.416 31.3757C107.056 31.8077 107.696 32.3677 108.368 32.9917L109.472 31.3117C108.704 30.6077 107.696 29.7917 106.368 29.2477C106.304 28.1597 106.224 26.8797 106.192 25.3277C107.072 25.2637 107.904 25.1677 108.672 25.0557V23.0557C107.904 23.2157 107.072 23.3437 106.192 23.4237C106.208 22.7197 106.224 22.1277 106.24 21.7757C106.256 21.4237 106.288 21.0397 106.336 20.7357ZM98.528 20.9117L96.32 20.7197C96.304 21.2317 96.224 21.8397 96.16 22.2877C95.984 23.5197 95.504 26.5437 95.504 28.9597C95.504 31.1357 95.808 32.9597 96.144 34.0797L97.952 33.9357C97.936 33.7117 97.92 33.4397 97.92 33.2797C97.92 33.1037 97.952 32.7517 98 32.5277C98.192 31.6637 98.704 30.0317 99.152 28.7197L98.176 27.9197C97.936 28.4637 97.664 29.0077 97.456 29.5677C97.408 29.2477 97.392 28.8477 97.392 28.5277C97.392 26.9277 97.92 23.4077 98.16 22.3357C98.208 22.0477 98.4 21.2317 98.528 20.9117ZM113.488 21.6317V23.7437C114.784 23.8557 116.176 23.9197 117.856 23.9197C119.376 23.9197 121.36 23.8237 122.48 23.7277V21.5997C121.248 21.7277 119.424 21.8237 117.84 21.8237C116.16 21.8237 114.672 21.7597 113.488 21.6317ZM114.832 28.4157L112.736 28.2237C112.608 28.8157 112.416 29.5997 112.416 30.5277C112.416 32.7197 114.256 33.9517 117.92 33.9517C120.16 33.9517 122.08 33.7437 123.472 33.4077L123.456 31.1517C122.048 31.5517 120 31.7917 117.84 31.7917C115.536 31.7917 114.56 31.0557 114.56 30.0317C114.56 29.4877 114.672 28.9917 114.832 28.4157ZM133.248 20.5117L130.976 20.4157C131.008 20.9437 130.992 21.3437 130.896 22.0317C130.864 22.2237 130.832 22.4477 130.8 22.6877C129.824 22.6717 128.624 22.5437 127.664 22.3837V24.3677C128.48 24.4477 129.424 24.4957 130.432 24.5117C130.016 26.2717 129.376 28.3997 128.608 29.8877L130.496 30.5597C130.656 30.2877 130.768 30.0797 130.944 29.8557C131.904 28.6397 133.536 27.9837 135.376 27.9837C136.944 27.9837 137.76 28.7837 137.76 29.7437C137.76 32.0957 134.224 32.5277 130.72 31.9517L131.28 34.0157C136.448 34.5757 139.92 33.2797 139.92 29.6797C139.92 27.6317 138.208 26.2557 135.616 26.2557C134.192 26.2557 132.944 26.5437 131.648 27.2637C131.888 26.4797 132.144 25.4557 132.368 24.4797C134.512 24.3677 137.056 24.0637 138.72 23.7917L138.688 21.8877C136.752 22.3037 134.592 22.5437 132.768 22.6397C132.8 22.4637 132.832 22.2877 132.864 22.1437C132.976 21.6157 133.072 21.0717 133.248 20.5117ZM147.344 20.3837L146.832 22.3037C148.08 22.6237 151.648 23.3757 153.264 23.5837L153.744 21.6317C152.352 21.4717 148.864 20.8637 147.344 20.3837ZM147.44 23.5997L145.296 23.2957C145.184 25.2797 144.816 28.4157 144.496 29.9837L146.336 30.4477C146.48 30.1277 146.64 29.8717 146.928 29.5197C147.936 28.3037 149.568 27.6317 151.376 27.6317C152.768 27.6317 153.76 28.3997 153.76 29.4397C153.76 31.4717 151.216 32.6397 146.416 31.9837L147.024 34.0797C153.68 34.6397 155.984 32.3997 155.984 29.4877C155.984 27.5517 154.352 25.8237 151.552 25.8237C149.872 25.8237 148.288 26.2877 146.832 27.3437C146.944 26.4317 147.232 24.4797 147.44 23.5997Z" fill="white"/>
<path d="M183.789 26.9745H214.757L205.267 18.4834" stroke="white"/>
<circle cx="214.755" cy="26.4763" r="9.98904" stroke="white"/>
</svg>
