<svg width="1440" height="1613" viewBox="0 0 1440 1613" fill="none" xmlns="http://www.w3.org/2000/svg">
<g clip-path="url(#clip0)">
<g opacity="0.6">
<g clip-path="url(#clip1)">
<path d="M1457.6 1178.3C1457.6 1178.87 1457.76 1179.43 1458.07 1179.91C1458.37 1180.39 1458.81 1180.78 1459.32 1181.02C1459.84 1181.26 1460.42 1181.35 1460.98 1181.28C1461.55 1181.2 1462.08 1180.97 1462.52 1180.61C1462.96 1180.24 1463.28 1179.76 1463.46 1179.21C1463.63 1178.67 1463.64 1178.09 1463.5 1177.54C1463.35 1176.99 1463.06 1176.49 1462.64 1176.1C1462.22 1175.71 1461.7 1175.45 1461.14 1175.35V1115L1443.07 1104.54C1443.4 1103.89 1443.57 1103.17 1443.58 1102.44C1443.59 1101.32 1443.21 1100.22 1442.5 1099.35C1441.79 1098.48 1440.8 1097.89 1439.69 1097.68C1438.59 1097.47 1437.44 1097.66 1436.46 1098.21C1435.49 1098.77 1434.73 1099.65 1434.34 1100.7C1433.95 1101.75 1433.94 1102.91 1434.32 1103.97C1434.69 1105.03 1435.43 1105.92 1436.4 1106.49C1437.37 1107.05 1438.51 1107.26 1439.62 1107.07C1440.73 1106.88 1441.73 1106.3 1442.46 1105.44L1460.03 1115.64V1175.36C1459.34 1175.49 1458.73 1175.86 1458.29 1176.39C1457.84 1176.93 1457.6 1177.6 1457.6 1178.3Z" fill="white"/>
<path d="M1399.28 1530.54V1448.11L1399.01 1447.95L1322.93 1403.99L1322.65 1404.15L1253.5 1444.08C1253.02 1443.23 1252.32 1442.52 1251.48 1442.03C1250.63 1441.54 1249.67 1441.28 1248.7 1441.28C1247.22 1441.29 1245.81 1441.87 1244.77 1442.92C1243.73 1443.96 1243.15 1445.38 1243.15 1446.85C1243.15 1448.33 1243.74 1449.74 1244.78 1450.79C1245.83 1451.83 1247.24 1452.42 1248.72 1452.42C1250.19 1452.42 1251.61 1451.83 1252.65 1450.79C1253.7 1449.74 1254.29 1448.33 1254.29 1446.85C1254.28 1446.25 1254.17 1445.66 1253.98 1445.09L1287.5 1425.73L1398.15 1489.91V1530.44C1397.25 1530.48 1396.38 1530.73 1395.6 1531.18C1394.83 1531.63 1394.17 1532.25 1393.69 1533.01L1321.77 1491.49L1321.49 1491.65L1264.15 1524.77L1236.43 1508.77C1236.9 1507.95 1237.15 1507.02 1237.16 1506.08C1237.15 1504.68 1236.62 1503.32 1235.66 1502.3C1234.7 1501.27 1233.39 1500.64 1231.99 1500.54V1455.35L1182.99 1427.05C1183.21 1426.43 1183.33 1425.77 1183.34 1425.11C1183.34 1423.54 1182.71 1422.03 1181.6 1420.92C1180.49 1419.8 1178.98 1419.18 1177.41 1419.18C1175.84 1419.18 1174.33 1419.8 1173.21 1420.92C1172.1 1422.03 1171.48 1423.54 1171.48 1425.11C1171.48 1425.89 1171.63 1426.66 1171.93 1427.38C1172.22 1428.1 1172.66 1428.76 1173.21 1429.31C1173.76 1429.86 1174.42 1430.29 1175.14 1430.59C1175.86 1430.89 1176.63 1431.04 1177.41 1431.04C1178.45 1431.04 1179.47 1430.76 1180.37 1430.23C1181.27 1429.7 1182.01 1428.95 1182.53 1428.04L1230.88 1455.97V1500.54C1230.04 1500.64 1229.23 1500.93 1228.52 1501.39C1227.8 1501.85 1227.21 1502.47 1226.77 1503.19L1182.15 1477.45L1181.88 1477.29L1098.39 1525.54C1097.87 1524.63 1097.13 1523.88 1096.23 1523.35C1095.33 1522.83 1094.31 1522.55 1093.27 1522.54C1091.7 1522.54 1090.19 1523.17 1089.08 1524.28C1087.97 1525.39 1087.34 1526.9 1087.34 1528.47C1087.34 1530.04 1087.96 1531.55 1089.07 1532.67C1090.19 1533.78 1091.69 1534.41 1093.27 1534.41C1094.05 1534.41 1094.82 1534.26 1095.54 1533.96C1096.26 1533.66 1096.91 1533.22 1097.46 1532.67C1098.02 1532.12 1098.45 1531.46 1098.75 1530.74C1099.05 1530.02 1099.2 1529.25 1099.2 1528.47C1099.19 1527.81 1099.08 1527.16 1098.85 1526.54L1181.91 1478.54L1226.3 1504.2C1226.07 1504.8 1225.96 1505.43 1225.95 1506.07C1225.95 1507.55 1226.54 1508.98 1227.59 1510.02C1228.64 1511.07 1230.06 1511.66 1231.55 1511.66C1232.36 1511.65 1233.16 1511.47 1233.89 1511.13C1234.62 1510.78 1235.27 1510.28 1235.79 1509.66L1263.03 1525.39L1222.69 1548.68V1601.54C1221.28 1601.63 1219.95 1602.25 1218.98 1603.27C1218.02 1604.3 1217.47 1605.66 1217.47 1607.07C1217.47 1608.55 1218.05 1609.96 1219.1 1611.01C1220.14 1612.05 1221.56 1612.64 1223.04 1612.64C1224.52 1612.64 1225.93 1612.05 1226.98 1611.01C1228.02 1609.96 1228.61 1608.55 1228.61 1607.07C1228.6 1605.73 1228.11 1604.43 1227.23 1603.43C1226.35 1602.42 1225.13 1601.76 1223.8 1601.58V1549.31L1264.03 1526.09L1339.15 1569.69L1328.31 1575.95C1327.81 1575.16 1327.11 1574.51 1326.29 1574.06C1325.47 1573.61 1324.55 1573.37 1323.62 1573.37C1322.14 1573.37 1320.73 1573.96 1319.69 1575C1318.64 1576.04 1318.06 1577.46 1318.06 1578.93C1318.06 1579.66 1318.2 1580.38 1318.48 1581.06C1318.76 1581.74 1319.17 1582.35 1319.68 1582.87C1320.2 1583.39 1320.81 1583.8 1321.49 1584.08C1322.16 1584.36 1322.89 1584.5 1323.62 1584.5C1325.1 1584.5 1326.51 1583.91 1327.56 1582.87C1328.6 1581.82 1329.19 1580.41 1329.19 1578.93C1329.19 1578.25 1329.06 1577.57 1328.81 1576.93L1340.26 1570.32L1372.74 1589.16C1372.51 1589.78 1372.4 1590.42 1372.39 1591.08C1372.39 1592.65 1373.02 1594.16 1374.13 1595.27C1375.24 1596.39 1376.75 1597.01 1378.33 1597.01C1379.9 1597.01 1381.41 1596.38 1382.52 1595.27C1383.63 1594.16 1384.26 1592.65 1384.26 1591.08C1384.26 1589.51 1383.63 1588 1382.52 1586.88C1381.41 1585.77 1379.9 1585.14 1378.33 1585.14C1377.29 1585.15 1376.27 1585.43 1375.37 1585.95C1374.47 1586.48 1373.73 1587.23 1373.22 1588.14L1341.4 1569.69L1393.94 1539.34C1394.45 1540.04 1395.13 1540.61 1395.9 1541.01C1396.68 1541.4 1397.54 1541.61 1398.41 1541.61C1399.89 1541.61 1401.31 1541.02 1402.36 1539.97C1403.41 1538.93 1404.01 1537.5 1404.01 1536.02C1404 1534.69 1403.52 1533.41 1402.65 1532.41C1401.78 1531.41 1400.59 1530.74 1399.28 1530.54ZM1236 1506.07C1235.99 1506.82 1235.8 1507.55 1235.44 1508.2L1231.99 1506.2V1501.65C1233.09 1501.76 1234.1 1502.27 1234.85 1503.09C1235.59 1503.9 1236 1504.97 1236 1506.07ZM1230.88 1501.68V1505.54L1227.76 1503.73C1228.1 1503.18 1228.55 1502.71 1229.09 1502.36C1229.63 1502.01 1230.24 1501.77 1230.88 1501.68ZM1231.55 1510.54C1230.37 1510.54 1229.24 1510.07 1228.4 1509.23C1227.57 1508.4 1227.1 1507.27 1227.1 1506.09C1227.11 1505.66 1227.18 1505.22 1227.31 1504.81L1234.79 1509.12C1234.37 1509.57 1233.87 1509.92 1233.32 1510.17C1232.76 1510.41 1232.16 1510.54 1231.55 1510.54ZM1288.65 1425.07L1322.93 1405.28L1398.15 1448.72V1488.54L1288.65 1425.07ZM1393.96 1536.02C1393.96 1535.53 1394.05 1535.04 1394.22 1534.58L1396.97 1536.18H1397.26L1394.35 1537.86C1394.08 1537.28 1393.95 1536.65 1393.96 1536.02ZM1398.15 1531.54V1535.54L1394.68 1533.54C1395.06 1532.96 1395.57 1532.47 1396.17 1532.12C1396.78 1531.78 1397.45 1531.58 1398.15 1531.54ZM1340.27 1568.98L1265.15 1525.46L1321.79 1492.77L1393.21 1534C1392.95 1534.64 1392.82 1535.31 1392.82 1536C1392.82 1536.82 1393.01 1537.63 1393.36 1538.37L1340.27 1568.98ZM1398.39 1540.42C1397.72 1540.42 1397.05 1540.26 1396.45 1539.96C1395.85 1539.67 1395.32 1539.24 1394.91 1538.71L1399.26 1536.2V1531.6C1400.27 1531.8 1401.18 1532.35 1401.83 1533.15C1402.48 1533.94 1402.84 1534.94 1402.84 1535.97C1402.84 1536.56 1402.73 1537.14 1402.52 1537.68C1402.3 1538.23 1401.97 1538.72 1401.56 1539.14C1401.15 1539.56 1400.66 1539.89 1400.12 1540.12C1399.58 1540.35 1398.99 1540.47 1398.41 1540.47L1398.39 1540.42Z" fill="white"/>
<path d="M1172.15 907.77C1173.1 907.77 1174.02 907.391 1174.69 906.715C1175.37 906.04 1175.75 905.125 1175.75 904.17C1175.74 903.599 1175.6 903.037 1175.34 902.53L1236.75 867.05C1237.62 868.275 1238.92 869.119 1240.4 869.408C1241.87 869.697 1243.4 869.407 1244.66 868.6C1245.93 867.794 1246.84 866.53 1247.2 865.073C1247.56 863.615 1247.35 862.075 1246.6 860.77C1245.86 859.465 1244.64 858.497 1243.2 858.065C1241.77 857.632 1240.22 857.77 1238.88 858.448C1237.54 859.127 1236.51 860.294 1236.01 861.709C1235.51 863.124 1235.57 864.678 1236.18 866.05L1174.65 901.57C1174.23 901.152 1173.71 900.844 1173.15 900.673C1172.58 900.502 1171.98 900.474 1171.4 900.59C1170.82 900.706 1170.28 900.964 1169.82 901.34C1169.36 901.716 1169.01 902.199 1168.78 902.746C1168.55 903.293 1168.47 903.887 1168.52 904.476C1168.58 905.065 1168.79 905.63 1169.12 906.122C1169.44 906.614 1169.89 907.017 1170.41 907.296C1170.93 907.574 1171.52 907.72 1172.11 907.72L1172.15 907.77Z" fill="white"/>
<path d="M1409.47 1048.8L1395.26 1057.01C1394.67 1056.1 1393.8 1055.4 1392.78 1055.03C1391.76 1054.65 1390.64 1054.62 1389.6 1054.94C1388.56 1055.25 1387.65 1055.9 1387.01 1056.78C1386.37 1057.66 1386.04 1058.72 1386.06 1059.81C1386.07 1060.57 1386.25 1061.33 1386.6 1062.01L1341.02 1088.33C1340.37 1087.44 1339.42 1086.82 1338.35 1086.57C1337.28 1086.32 1336.15 1086.46 1335.18 1086.97C1334.2 1087.47 1333.44 1088.31 1333.02 1089.33C1332.61 1090.34 1332.57 1091.48 1332.91 1092.52C1333.26 1093.56 1333.96 1094.45 1334.9 1095.02C1335.85 1095.59 1336.96 1095.81 1338.04 1095.63C1339.13 1095.45 1340.11 1094.89 1340.83 1094.05C1341.54 1093.21 1341.92 1092.15 1341.92 1091.05C1341.92 1090.45 1341.8 1089.85 1341.57 1089.29L1387.15 1062.95C1387.89 1063.91 1388.96 1064.56 1390.15 1064.79C1391.34 1065.02 1392.57 1064.81 1393.62 1064.2C1394.67 1063.59 1395.45 1062.62 1395.84 1061.47C1396.22 1060.32 1396.18 1059.07 1395.71 1057.95L1409.71 1049.88L1484.96 1093.32V1107.66C1484.28 1107.81 1483.65 1108.1 1483.09 1108.52C1482.54 1108.93 1482.07 1109.45 1481.73 1110.05L1432.57 1081.67L1383.83 1109.81C1383.07 1108.72 1381.94 1107.93 1380.65 1107.6C1379.35 1107.27 1377.99 1107.41 1376.79 1108C1375.6 1108.59 1374.65 1109.59 1374.13 1110.82C1373.61 1112.05 1373.55 1113.42 1373.95 1114.69C1374.36 1115.96 1375.21 1117.04 1376.34 1117.74C1377.48 1118.44 1378.83 1118.71 1380.14 1118.49C1381.46 1118.28 1382.66 1117.61 1383.52 1116.59C1384.38 1115.57 1384.84 1114.27 1384.83 1112.94C1384.83 1112.2 1384.68 1111.47 1384.4 1110.79L1432.61 1082.95L1481.33 1111.08C1481.17 1111.55 1481.09 1112.05 1481.08 1112.55C1481.07 1113.69 1481.46 1114.8 1482.17 1115.69C1482.89 1116.58 1483.88 1117.2 1485 1117.45V1180.26L1474.08 1186.56C1473.39 1185.53 1472.34 1184.81 1471.14 1184.53C1469.93 1184.25 1468.67 1184.44 1467.61 1185.07C1466.54 1185.69 1465.75 1186.7 1465.41 1187.88C1465.06 1189.07 1465.18 1190.34 1465.74 1191.44C1466.3 1192.54 1467.26 1193.39 1468.42 1193.8C1469.59 1194.22 1470.86 1194.17 1472 1193.68C1473.13 1193.18 1474.03 1192.27 1474.51 1191.13C1474.99 1190 1475.02 1188.72 1474.59 1187.56L1486.15 1180.9V1117.54C1487.47 1117.54 1488.75 1117.01 1489.68 1116.08C1490.62 1115.14 1491.15 1113.87 1491.15 1112.54C1491.15 1111.21 1490.62 1109.94 1489.68 1109C1488.75 1108.07 1487.47 1107.54 1486.15 1107.54V1092.74L1485.87 1092.58L1409.75 1048.64L1409.47 1048.8Z" fill="white"/>
<path d="M829.999 1255.06C829.993 1256.13 830.296 1257.18 830.872 1258.08C831.448 1258.99 832.271 1259.7 833.245 1260.15C834.218 1260.6 835.299 1260.75 836.359 1260.6C837.419 1260.45 838.413 1260 839.221 1259.29C840.03 1258.59 840.619 1257.67 840.917 1256.64C841.216 1255.61 841.212 1254.52 840.906 1253.5C840.599 1252.47 840.004 1251.55 839.19 1250.86C838.377 1250.16 837.38 1249.71 836.319 1249.57V1197.3L934.319 1140.72L1009.51 1184.13H1009.62H1009.71L940.839 1223.89C940.116 1222.76 939.012 1221.94 937.729 1221.56C936.446 1221.18 935.069 1221.28 933.852 1221.83C932.635 1222.39 931.658 1223.36 931.102 1224.58C930.546 1225.8 930.447 1227.17 930.823 1228.46C931.2 1229.74 932.027 1230.85 933.152 1231.57C934.277 1232.29 935.626 1232.59 936.95 1232.4C938.274 1232.2 939.485 1231.54 940.361 1230.53C941.237 1229.52 941.719 1228.23 941.719 1226.89C941.718 1226.21 941.59 1225.53 941.339 1224.89L1011.82 1184.2V1164.44L1073.75 1128.65L1120.58 1155.81L1063.08 1189V1241.88C1061.66 1242.02 1060.35 1242.7 1059.42 1243.79C1058.49 1244.87 1058.01 1246.27 1058.08 1247.69C1058.15 1249.11 1058.77 1250.46 1059.8 1251.44C1060.84 1252.42 1062.21 1252.97 1063.63 1252.97C1065.06 1252.97 1066.43 1252.42 1067.47 1251.44C1068.5 1250.46 1069.12 1249.11 1069.19 1247.69C1069.26 1246.27 1068.78 1244.87 1067.85 1243.79C1066.92 1242.7 1065.61 1242.02 1064.19 1241.88V1189.61L1121.68 1156.42L1154.15 1175.33C1153.05 1177.42 1152.79 1179.85 1153.44 1182.12C1154.09 1184.38 1155.59 1186.31 1157.63 1187.5C1159.68 1188.68 1162.1 1189.03 1164.39 1188.47C1166.68 1187.91 1168.66 1186.48 1169.93 1184.49L1196.79 1200.04L1168.69 1216.26C1167.92 1215.04 1166.7 1214.16 1165.3 1213.8C1163.9 1213.45 1162.41 1213.65 1161.15 1214.36C1159.89 1215.07 1158.95 1216.24 1158.53 1217.62C1158.1 1219 1158.23 1220.5 1158.87 1221.79C1159.52 1223.09 1160.64 1224.08 1162 1224.57C1163.36 1225.07 1164.86 1225.02 1166.19 1224.43C1167.51 1223.85 1168.56 1222.78 1169.12 1221.45C1169.68 1220.11 1169.7 1218.61 1169.19 1217.26L1239.67 1176.54V1110.31L1287.15 1137.86C1286.75 1138.79 1286.58 1139.8 1286.66 1140.82C1286.73 1141.83 1287.04 1142.8 1287.56 1143.67C1288.08 1144.54 1288.8 1145.27 1289.66 1145.81C1290.52 1146.35 1291.49 1146.67 1292.5 1146.76V1162.24C1291.17 1162.24 1289.9 1162.77 1288.96 1163.7C1288.03 1164.64 1287.5 1165.91 1287.5 1167.24C1287.5 1168.57 1288.03 1169.84 1288.96 1170.78C1289.9 1171.71 1291.17 1172.24 1292.5 1172.24V1205.24L1274.93 1215.38C1274.14 1214.44 1273.02 1213.83 1271.8 1213.69C1270.59 1213.54 1269.36 1213.87 1268.37 1214.6C1267.39 1215.33 1266.72 1216.42 1266.5 1217.62C1266.29 1218.83 1266.54 1220.08 1267.22 1221.1C1267.89 1222.13 1268.93 1222.86 1270.12 1223.14C1271.32 1223.43 1272.58 1223.25 1273.64 1222.63C1274.7 1222.02 1275.49 1221.02 1275.85 1219.85C1276.2 1218.67 1276.09 1217.41 1275.54 1216.31L1293.61 1205.88V1193.03L1336.5 1217.84L1292.07 1243.48C1291.17 1242.31 1290 1241.37 1288.66 1240.75C1287.31 1240.13 1285.84 1239.84 1284.36 1239.92C1282.89 1240 1281.45 1240.43 1280.18 1241.19C1278.91 1241.95 1277.84 1243 1277.07 1244.26L1259.31 1234.01C1259.44 1233.67 1259.51 1233.31 1259.51 1232.94C1259.52 1232.24 1259.28 1231.56 1258.84 1231.01C1258.4 1230.47 1257.78 1230.1 1257.1 1229.96C1256.41 1229.82 1255.7 1229.93 1255.08 1230.26C1254.46 1230.6 1253.98 1231.14 1253.72 1231.79C1253.46 1232.44 1253.44 1233.16 1253.65 1233.82C1253.87 1234.49 1254.31 1235.06 1254.9 1235.44C1255.5 1235.81 1256.2 1235.97 1256.9 1235.87C1257.59 1235.78 1258.23 1235.45 1258.71 1234.94L1276.54 1245.24C1275.94 1246.55 1275.66 1247.98 1275.72 1249.42C1275.78 1250.86 1276.18 1252.27 1276.89 1253.52C1277.6 1254.78 1278.59 1255.85 1279.79 1256.64C1280.99 1257.44 1282.37 1257.94 1283.8 1258.1V1323.13L1223.8 1288.51V1220.68C1225.19 1220.39 1226.41 1219.57 1227.21 1218.4C1228.01 1217.23 1228.34 1215.8 1228.11 1214.4C1227.89 1213 1227.14 1211.74 1226.01 1210.88C1224.88 1210.01 1223.47 1209.62 1222.06 1209.77C1220.65 1209.92 1219.35 1210.61 1218.43 1211.69C1217.52 1212.78 1217.05 1214.17 1217.13 1215.59C1217.21 1217 1217.83 1218.33 1218.87 1219.3C1219.9 1220.27 1221.27 1220.81 1222.69 1220.8V1237.8L1158.56 1274.8V1309.11L1136.92 1296.54V1228.45C1138.34 1228.31 1139.64 1227.63 1140.57 1226.55C1141.5 1225.47 1141.98 1224.07 1141.91 1222.65C1141.84 1221.23 1141.22 1219.89 1140.19 1218.91C1139.16 1217.92 1137.79 1217.38 1136.36 1217.38C1134.94 1217.38 1133.57 1217.92 1132.54 1218.91C1131.51 1219.89 1130.89 1221.23 1130.82 1222.65C1130.75 1224.07 1131.23 1225.47 1132.16 1226.55C1133.08 1227.63 1134.39 1228.31 1135.81 1228.45V1295.91L1093.5 1271.4L1119.5 1256.4C1120.33 1257.58 1121.58 1258.4 1123 1258.68C1124.41 1258.97 1125.88 1258.7 1127.1 1257.93C1128.32 1257.16 1129.2 1255.95 1129.56 1254.55C1129.92 1253.15 1129.72 1251.67 1129.02 1250.41C1128.31 1249.15 1127.15 1248.21 1125.77 1247.79C1124.39 1247.36 1122.9 1247.48 1121.61 1248.12C1120.31 1248.76 1119.32 1249.87 1118.82 1251.23C1118.32 1252.58 1118.37 1254.08 1118.94 1255.4L1065.33 1286.4V1336.22L995.939 1296.15V1228.33C997.339 1228.05 998.578 1227.24 999.398 1226.07C1000.22 1224.9 1000.56 1223.46 1000.35 1222.04C1000.13 1220.63 999.386 1219.35 998.259 1218.47C997.131 1217.6 995.71 1217.19 994.288 1217.33C992.866 1217.47 991.552 1218.15 990.619 1219.23C989.686 1220.31 989.204 1221.71 989.274 1223.14C989.343 1224.57 989.958 1225.91 990.992 1226.9C992.026 1227.89 993.4 1228.44 994.829 1228.44V1296.79L1065.37 1337.54V1356.13L1125.79 1391.01L1158.6 1372.07V1372.16L1158.88 1372.32L1179.47 1384.21C1179.26 1384.62 1179.15 1385.08 1179.15 1385.54C1179.15 1385.81 1179.19 1386.08 1179.28 1386.34L1126.28 1416.91L1056.49 1376.61C1056.82 1375.89 1057 1375.11 1057 1374.32C1057.01 1372.98 1056.54 1371.68 1055.67 1370.65C1054.8 1369.63 1053.6 1368.95 1052.27 1368.73C1050.95 1368.52 1049.59 1368.79 1048.44 1369.49C1047.3 1370.19 1046.44 1371.28 1046.03 1372.56C1045.62 1373.83 1045.68 1375.22 1046.19 1376.45C1046.71 1377.69 1047.66 1378.7 1048.86 1379.31C1050.06 1379.91 1051.43 1380.06 1052.73 1379.74C1054.04 1379.41 1055.18 1378.63 1055.96 1377.54L1126.31 1418.2L1126.59 1418.04L1179.76 1387.34C1180.04 1387.71 1180.41 1388.01 1180.84 1388.21C1181.26 1388.4 1181.73 1388.5 1182.2 1388.48C1182.66 1388.45 1183.12 1388.32 1183.52 1388.08C1183.93 1387.85 1184.27 1387.52 1184.52 1387.12L1242.88 1420.81L1243.15 1420.65L1326.15 1372.73C1326.44 1373.06 1326.8 1373.33 1327.2 1373.51C1327.61 1373.69 1328.05 1373.78 1328.49 1373.77C1328.93 1373.76 1329.37 1373.66 1329.77 1373.47C1330.17 1373.28 1330.52 1373 1330.8 1372.66L1362.8 1391.12C1362.68 1391.44 1362.62 1391.78 1362.62 1392.12C1362.62 1392.81 1362.87 1393.47 1363.31 1393.99C1363.76 1394.51 1364.37 1394.87 1365.04 1394.99C1365.72 1395.11 1366.41 1394.99 1367.01 1394.65C1367.6 1394.31 1368.06 1393.78 1368.31 1393.14C1368.55 1392.5 1368.56 1391.79 1368.34 1391.14C1368.12 1390.49 1367.68 1389.94 1367.09 1389.59C1366.51 1389.23 1365.82 1389.08 1365.14 1389.18C1364.46 1389.28 1363.84 1389.61 1363.38 1390.12L1331.38 1371.65C1331.55 1371.18 1331.6 1370.68 1331.53 1370.19C1331.46 1369.7 1331.28 1369.23 1330.99 1368.82C1330.7 1368.42 1330.32 1368.09 1329.87 1367.87C1329.43 1367.64 1328.94 1367.53 1328.44 1367.54C1328 1367.55 1327.56 1367.66 1327.17 1367.86C1326.77 1368.06 1326.43 1368.34 1326.15 1368.68L1314.79 1362.12C1315.15 1361.38 1315.34 1360.56 1315.35 1359.73C1315.35 1358.35 1314.83 1357.02 1313.91 1356C1312.99 1354.98 1311.72 1354.33 1310.35 1354.19V1317.85L1325.14 1309.32L1358.04 1328.4L1341.29 1338.07C1340.62 1337.41 1339.74 1337.01 1338.8 1336.93C1337.86 1336.85 1336.93 1337.09 1336.15 1337.62C1335.38 1338.15 1334.81 1338.94 1334.54 1339.84C1334.28 1340.74 1334.33 1341.7 1334.7 1342.57C1335.07 1343.44 1335.72 1344.15 1336.55 1344.59C1337.38 1345.02 1338.34 1345.16 1339.26 1344.97C1340.18 1344.79 1341.01 1344.29 1341.6 1343.56C1342.2 1342.83 1342.52 1341.92 1342.52 1340.98C1342.52 1340.27 1342.32 1339.58 1341.96 1338.98L1387.55 1312.6L1405.15 1322.83V1353.6C1403.97 1353.74 1402.9 1354.33 1402.14 1355.23C1401.38 1356.14 1401 1357.3 1401.07 1358.48C1401.14 1359.66 1401.66 1360.77 1402.52 1361.58C1403.38 1362.4 1404.52 1362.85 1405.7 1362.85C1406.89 1362.85 1408.02 1362.4 1408.88 1361.58C1409.75 1360.77 1410.26 1359.66 1410.34 1358.48C1410.41 1357.3 1410.02 1356.14 1409.27 1355.23C1408.51 1354.33 1407.43 1353.74 1406.26 1353.6V1302.4L1427.04 1314.4C1426.35 1315.75 1426.01 1317.26 1426.05 1318.77C1426.09 1320.29 1426.51 1321.78 1427.27 1323.09C1428.03 1324.41 1429.1 1325.51 1430.4 1326.31C1431.69 1327.1 1433.16 1327.56 1434.68 1327.64V1427.03L1444.15 1432.54C1443.51 1433.47 1443.16 1434.56 1443.15 1435.69C1443.15 1437.17 1443.74 1438.6 1444.79 1439.65C1445.83 1440.7 1447.26 1441.29 1448.74 1441.29V1522.54L1524.82 1566.47L1525.1 1566.63L1601.18 1522.7L1601.46 1522.54V1450.86C1602.8 1450.68 1604.03 1450.02 1604.92 1449.01C1605.81 1447.99 1606.3 1446.69 1606.31 1445.34C1606.3 1443.99 1605.81 1442.69 1604.92 1441.67C1604.03 1440.66 1602.8 1440 1601.46 1439.82V1434.37L1527.38 1391.6C1527.52 1391.25 1527.6 1390.87 1527.6 1390.49C1527.61 1389.76 1527.36 1389.04 1526.9 1388.48C1526.44 1387.91 1525.79 1387.52 1525.07 1387.38C1524.35 1387.24 1523.61 1387.35 1522.97 1387.7C1522.32 1388.06 1521.82 1388.62 1521.56 1389.3C1521.29 1389.98 1521.27 1390.74 1521.5 1391.43C1521.73 1392.13 1522.2 1392.72 1522.82 1393.11C1523.44 1393.49 1524.18 1393.65 1524.9 1393.55C1525.63 1393.45 1526.3 1393.09 1526.79 1392.55L1600.46 1435.02V1439.79C1599.04 1439.88 1597.71 1440.5 1596.74 1441.53C1595.77 1442.57 1595.22 1443.93 1595.22 1445.35C1595.23 1446.02 1595.35 1446.68 1595.59 1447.3L1533.82 1482.96L1479.25 1451.46C1479.87 1450.22 1480.19 1448.85 1480.19 1447.46C1480.19 1445.04 1479.22 1442.71 1477.51 1441C1475.8 1439.29 1473.47 1438.32 1471.05 1438.32C1469.55 1438.31 1468.08 1438.68 1466.76 1439.37C1465.44 1440.07 1464.31 1441.08 1463.47 1442.32L1454.22 1436.98C1454.34 1436.54 1454.4 1436.08 1454.41 1435.62C1454.41 1434.13 1453.82 1432.71 1452.77 1431.66C1451.72 1430.61 1450.29 1430.02 1448.81 1430.02C1447.35 1430.02 1445.96 1430.59 1444.92 1431.61L1435.82 1426.36V1327.62C1437.23 1327.53 1438.6 1327.12 1439.82 1326.41C1441.05 1325.7 1442.09 1324.72 1442.87 1323.54L1473.04 1340.92C1472.86 1341.3 1472.77 1341.72 1472.77 1342.14C1472.77 1342.81 1473 1343.47 1473.42 1343.99C1473.84 1344.52 1474.44 1344.88 1475.1 1345.02C1475.76 1345.16 1476.45 1345.06 1477.04 1344.75C1477.64 1344.44 1478.12 1343.94 1478.39 1343.32C1478.65 1342.7 1478.7 1342.01 1478.52 1341.36C1478.34 1340.71 1477.93 1340.14 1477.38 1339.75C1476.83 1339.37 1476.16 1339.18 1475.49 1339.23C1474.82 1339.28 1474.18 1339.56 1473.69 1340.02L1443.41 1322.54C1444.03 1321.3 1444.35 1319.93 1444.36 1318.54C1444.36 1316.58 1443.73 1314.67 1442.56 1313.1C1441.39 1311.53 1439.75 1310.37 1437.88 1309.8C1436 1309.23 1434 1309.27 1432.15 1309.93C1430.31 1310.59 1428.72 1311.82 1427.63 1313.45L1406.29 1301.13V1289.34L1385.9 1277.54C1386.18 1276.98 1386.33 1276.37 1386.33 1275.74C1386.33 1275.19 1386.22 1274.64 1386 1274.13L1408.26 1261.28L1506.26 1317.85V1338.94C1504.94 1339.14 1503.73 1339.8 1502.86 1340.81C1501.99 1341.82 1501.51 1343.11 1501.51 1344.44C1501.51 1345.77 1501.99 1347.06 1502.86 1348.07C1503.73 1349.08 1504.94 1349.74 1506.26 1349.94V1413.94C1504.65 1414.11 1503.17 1414.87 1502.09 1416.08C1501 1417.28 1500.4 1418.83 1500.4 1420.45C1500.4 1422.2 1501.09 1423.87 1502.33 1425.1C1503.56 1426.34 1505.23 1427.03 1506.98 1427.03C1507.84 1427.03 1508.7 1426.86 1509.5 1426.53C1510.3 1426.2 1511.02 1425.72 1511.63 1425.11C1512.25 1424.49 1512.73 1423.77 1513.06 1422.97C1513.39 1422.17 1513.56 1421.31 1513.56 1420.45C1513.56 1418.78 1512.91 1417.17 1511.76 1415.95C1510.61 1414.73 1509.04 1414 1507.37 1413.91V1350.02C1508.77 1349.92 1510.09 1349.29 1511.05 1348.26C1512.01 1347.22 1512.54 1345.87 1512.55 1344.46C1512.55 1343.71 1512.4 1342.96 1512.11 1342.27L1531.5 1331.07V1261.3L1476.83 1229.74C1477.21 1228.95 1477.42 1228.08 1477.42 1227.2C1477.43 1225.77 1476.93 1224.38 1476.01 1223.29C1475.08 1222.2 1473.8 1221.47 1472.39 1221.24C1470.98 1221 1469.53 1221.28 1468.31 1222.03C1467.09 1222.77 1466.17 1223.92 1465.72 1225.28C1465.27 1226.64 1465.32 1228.11 1465.87 1229.43C1466.41 1230.76 1467.41 1231.84 1468.68 1232.5C1469.95 1233.15 1471.42 1233.33 1472.81 1232.99C1474.2 1232.66 1475.43 1231.85 1476.27 1230.69L1530.38 1261.94V1330.43L1511.56 1341.3C1511.08 1340.61 1510.46 1340.04 1509.73 1339.63C1509 1339.21 1508.19 1338.97 1507.36 1338.91V1317.21L1408.54 1260.16L1408.26 1260L1385.42 1273.18C1384.89 1272.5 1384.16 1272 1383.33 1271.76C1382.5 1271.51 1381.62 1271.53 1380.81 1271.81C1379.99 1272.1 1379.29 1272.63 1378.79 1273.33C1378.29 1274.03 1378.02 1274.88 1378.03 1275.74C1378.03 1276.27 1378.13 1276.79 1378.33 1277.28L1325.09 1308.02L1284.91 1284.71V1258.12C1286.35 1258.11 1287.78 1257.75 1289.06 1257.09C1290.34 1256.42 1291.45 1255.46 1292.29 1254.28L1330.54 1276.36L1330.81 1276.52L1406.89 1232.6L1407.17 1232.44V1232.23C1409.5 1232.1 1411.68 1231.08 1413.28 1229.38C1414.88 1227.69 1415.78 1225.45 1415.78 1223.11C1415.78 1220.78 1414.88 1218.54 1413.28 1216.85C1411.68 1215.15 1409.5 1214.13 1407.17 1214V1149.45C1407.89 1149.21 1408.55 1148.82 1409.1 1148.28C1409.65 1147.75 1410.07 1147.11 1410.33 1146.39C1410.58 1145.67 1410.67 1144.9 1410.59 1144.15C1410.51 1143.39 1410.25 1142.66 1409.84 1142.02C1409.43 1141.37 1408.88 1140.83 1408.23 1140.43C1407.58 1140.03 1406.85 1139.79 1406.09 1139.72C1405.33 1139.65 1404.57 1139.75 1403.86 1140.02C1403.14 1140.29 1402.5 1140.71 1401.98 1141.27L1334.68 1102.41C1334.87 1101.97 1334.97 1101.49 1334.97 1101.01C1334.97 1100.3 1334.76 1099.6 1334.36 1099C1333.97 1098.41 1333.4 1097.94 1332.74 1097.67C1332.08 1097.39 1331.36 1097.32 1330.66 1097.46C1329.96 1097.6 1329.31 1097.94 1328.81 1098.45C1328.3 1098.95 1327.96 1099.6 1327.82 1100.3C1327.68 1101 1327.75 1101.73 1328.03 1102.39C1328.3 1103.05 1328.76 1103.61 1329.36 1104.01C1329.95 1104.4 1330.65 1104.61 1331.37 1104.61C1331.88 1104.61 1332.39 1104.5 1332.86 1104.28C1333.33 1104.06 1333.75 1103.74 1334.08 1103.35L1401.32 1142.17C1400.87 1142.93 1400.63 1143.8 1400.63 1144.68C1400.62 1145.56 1400.85 1146.43 1401.29 1147.2C1401.73 1147.97 1402.36 1148.6 1403.13 1149.04C1403.9 1149.48 1404.77 1149.71 1405.65 1149.71C1405.79 1149.71 1405.92 1149.71 1406.06 1149.71V1214C1404.74 1214.08 1403.46 1214.45 1402.3 1215.08C1401.14 1215.71 1400.13 1216.58 1399.34 1217.63L1368.65 1199.9V1183.97L1368.75 1183.78L1298.82 1143.27C1299.28 1142.38 1299.52 1141.39 1299.53 1140.38C1299.53 1139 1299.08 1137.65 1298.25 1136.54C1297.43 1135.44 1296.27 1134.62 1294.94 1134.23C1293.62 1133.83 1292.2 1133.87 1290.9 1134.34C1289.6 1134.82 1288.49 1135.7 1287.73 1136.85L1239.67 1109.01V1088.39L1239.39 1088.23L1163.31 1044.3L1163.03 1044.46L1124.28 1066.84C1123.49 1065.75 1122.46 1064.86 1121.27 1064.24C1120.07 1063.62 1118.75 1063.29 1117.41 1063.28V975.93L1138.1 963.98C1138.51 964.562 1139.04 965.049 1139.65 965.409C1140.27 965.77 1140.95 965.995 1141.66 966.07V1003.62L1141.93 1003.77L1240.76 1060.83L1241.03 1060.67L1255.81 1052.14C1256.25 1052.81 1256.84 1053.36 1257.54 1053.75C1258.23 1054.14 1259.01 1054.36 1259.81 1054.38C1260.61 1054.41 1261.4 1054.25 1262.12 1053.91C1262.85 1053.56 1263.47 1053.05 1263.96 1052.42L1286.48 1065.42C1285.91 1066.73 1285.87 1068.21 1286.36 1069.56C1286.86 1070.9 1287.85 1072 1289.13 1072.63C1290.41 1073.27 1291.89 1073.39 1293.25 1072.96C1294.62 1072.54 1295.77 1071.61 1296.47 1070.36C1297.17 1069.11 1297.36 1067.64 1297.01 1066.26C1296.66 1064.87 1295.78 1063.67 1294.57 1062.91C1293.36 1062.15 1291.91 1061.88 1290.51 1062.16C1289.1 1062.44 1287.86 1063.25 1287.04 1064.42L1264.54 1051.42C1264.87 1050.74 1265.03 1050 1265.02 1049.25C1265.01 1048.49 1264.82 1047.76 1264.47 1047.09L1339.85 1003.62V981.35C1341.17 981.35 1342.45 980.823 1343.38 979.885C1344.32 978.948 1344.85 977.676 1344.85 976.35C1344.85 975.024 1344.32 973.752 1343.38 972.814C1342.45 971.877 1341.17 971.35 1339.85 971.35V906.86C1341.56 906.718 1343.15 905.92 1344.28 904.634C1345.42 903.348 1346.01 901.672 1345.94 899.957C1345.87 898.243 1345.14 896.622 1343.9 895.434C1342.66 894.246 1341.01 893.583 1339.3 893.583C1337.58 893.583 1335.93 894.246 1334.69 895.434C1333.46 896.622 1332.73 898.243 1332.65 899.957C1332.58 901.672 1333.18 903.348 1334.31 904.634C1335.45 905.92 1337.04 906.718 1338.75 906.86V971.41C1337.55 971.572 1336.45 972.163 1335.65 973.074C1334.86 973.986 1334.42 975.155 1334.42 976.365C1334.42 977.575 1334.86 978.744 1335.65 979.655C1336.45 980.566 1337.55 981.158 1338.75 981.32V1002.97L1263.87 1046.2C1263.38 1045.59 1262.76 1045.11 1262.05 1044.79C1261.35 1044.46 1260.57 1044.31 1259.8 1044.34C1259.02 1044.36 1258.26 1044.57 1257.58 1044.94C1256.9 1045.32 1256.31 1045.84 1255.87 1046.48L1233.96 1033.83V1014.92L1240.79 1018.86L1260.79 1007.33C1262.03 1009.05 1263.86 1010.24 1265.93 1010.68C1268 1011.13 1270.16 1010.79 1272 1009.73C1273.83 1008.67 1275.2 1006.97 1275.86 1004.95C1276.51 1002.94 1276.39 1000.75 1275.52 998.82L1306.61 980.87C1307.07 981.368 1307.69 981.689 1308.37 981.778C1309.04 981.867 1309.72 981.718 1310.3 981.357C1310.88 980.996 1311.31 980.445 1311.52 979.8C1311.73 979.155 1311.72 978.455 1311.47 977.822C1311.22 977.189 1310.76 976.662 1310.17 976.331C1309.57 976.001 1308.88 975.888 1308.22 976.012C1307.55 976.136 1306.94 976.49 1306.51 977.011C1306.07 977.533 1305.83 978.19 1305.83 978.87C1305.84 979.212 1305.91 979.55 1306.03 979.87L1275.03 997.78C1274.06 996.166 1272.59 994.917 1270.84 994.227C1269.09 993.536 1267.16 993.442 1265.35 993.959C1263.54 994.476 1261.95 995.576 1260.83 997.088C1259.71 998.599 1259.12 1000.44 1259.15 1002.32C1259.16 1003.74 1259.53 1005.13 1260.21 1006.38L1240.81 1017.58L1233.98 1013.58V965.34L1263.98 948.01C1264.67 949.098 1265.76 949.877 1267.01 950.184C1268.26 950.491 1269.58 950.302 1270.7 949.656C1271.82 949.011 1272.64 947.959 1273 946.721C1273.36 945.482 1273.23 944.153 1272.63 943.01L1293.27 931.1L1327.05 950.6V949.32L1293.27 929.81L1272.04 942.07C1271.64 941.55 1271.13 941.114 1270.56 940.788C1269.99 940.462 1269.36 940.252 1268.71 940.17V887.35L1330.71 851.55L1405.83 895.12L1368.18 916.86V918.14L1444.18 874.26V786.08L1443.9 785.92L1367.82 742L1367.55 742.16L1297.81 782.42C1297.35 781.743 1296.73 781.19 1296.01 780.808C1295.28 780.426 1294.48 780.228 1293.66 780.23L1288.66 785.23C1288.66 786.556 1289.19 787.828 1290.12 788.765C1291.06 789.703 1292.33 790.23 1293.66 790.23C1294.98 790.23 1296.26 789.703 1297.19 788.765C1298.13 787.828 1298.66 786.556 1298.66 785.23C1298.66 784.596 1298.54 783.968 1298.3 783.38L1367.8 743.25L1443.15 786.73V873.54L1371.33 832.08C1371.66 831.318 1371.8 830.484 1371.73 829.656C1371.66 828.827 1371.38 828.029 1370.92 827.334C1370.47 826.639 1369.84 826.069 1369.11 825.675C1368.38 825.282 1367.56 825.077 1366.73 825.08L1361.73 830.08C1361.73 830.77 1361.88 831.451 1362.17 832.08L1330.84 850.17L1293.14 828.31L1292.57 829.31L1329.7 850.84L1267.7 886.64V940.16C1266.46 940.277 1265.3 940.855 1264.46 941.781C1263.62 942.706 1263.16 943.911 1263.17 945.16C1263.17 945.811 1263.3 946.455 1263.54 947.06L1232.94 964.73V1012.99L1175.36 979.75C1175.66 978.782 1175.58 977.737 1175.14 976.825C1174.7 975.913 1173.93 975.202 1172.98 974.836C1172.04 974.469 1170.99 974.475 1170.05 974.851C1169.11 975.227 1168.35 975.947 1167.92 976.863C1167.49 977.78 1167.42 978.826 1167.73 979.79C1168.04 980.755 1168.71 981.565 1169.59 982.058C1170.47 982.552 1171.51 982.691 1172.5 982.448C1173.48 982.205 1174.34 981.598 1174.89 980.75L1232.94 1014.27V1034.47L1255.42 1047.47C1255.17 1048.08 1255.04 1048.73 1255.04 1049.39C1255.04 1050 1255.16 1050.6 1255.38 1051.16L1240.76 1059.54L1142.76 1002.96V966.06C1143.99 965.926 1145.13 965.341 1145.95 964.417C1146.77 963.494 1147.23 962.297 1147.22 961.06C1147.21 960.33 1147.05 959.61 1146.74 958.95L1195.83 930.62C1196.29 931.12 1196.91 931.445 1197.58 931.537C1198.26 931.629 1198.94 931.484 1199.52 931.125C1200.1 930.767 1200.53 930.218 1200.75 929.573C1200.96 928.929 1200.95 928.229 1200.7 927.595C1200.46 926.96 1200 926.431 1199.41 926.098C1198.82 925.765 1198.13 925.649 1197.46 925.771C1196.79 925.892 1196.18 926.243 1195.74 926.763C1195.31 927.284 1195.06 927.94 1195.06 928.62C1195.07 928.961 1195.13 929.299 1195.25 929.62L1146.15 958.05C1145.68 957.429 1145.08 956.925 1144.38 956.578C1143.69 956.231 1142.92 956.05 1142.15 956.05C1140.82 956.05 1139.55 956.577 1138.61 957.514C1137.68 958.452 1137.15 959.724 1137.15 961.05C1137.15 961.706 1137.28 962.356 1137.54 962.96L1116.27 975.24V1063.38C1114.93 1063.53 1113.65 1064 1112.54 1064.75C1111.42 1065.49 1110.49 1066.49 1109.83 1067.66C1109.17 1068.83 1108.8 1070.14 1108.74 1071.48C1108.69 1072.82 1108.95 1074.16 1109.51 1075.38L1091.18 1085.96C1090.71 1085.46 1090.08 1085.15 1089.41 1085.06C1088.73 1084.98 1088.05 1085.14 1087.47 1085.5C1086.9 1085.87 1086.47 1086.43 1086.26 1087.08C1086.05 1087.73 1086.07 1088.43 1086.33 1089.06C1086.58 1089.69 1087.05 1090.22 1087.65 1090.54C1088.25 1090.87 1088.94 1090.98 1089.61 1090.85C1090.28 1090.72 1090.88 1090.36 1091.31 1089.83C1091.75 1089.3 1091.98 1088.64 1091.98 1087.96C1091.98 1087.59 1091.91 1087.23 1091.77 1086.89L1110.04 1076.34C1110.75 1077.52 1111.75 1078.51 1112.93 1079.22C1114.12 1079.93 1115.46 1080.34 1116.84 1080.42C1118.21 1080.5 1119.59 1080.23 1120.85 1079.66C1122.1 1079.08 1123.2 1078.21 1124.04 1077.11L1157.54 1096.45C1157.47 1096.82 1157.43 1097.19 1157.43 1097.57C1157.42 1098.64 1157.73 1099.69 1158.31 1100.6C1158.89 1101.5 1159.72 1102.21 1160.7 1102.65C1161.68 1103.09 1162.76 1103.24 1163.82 1103.07C1164.88 1102.91 1165.87 1102.44 1166.67 1101.72L1200.53 1121.27L1200.81 1121.11L1229.59 1104.54L1238.59 1109.73V1175.9L1162.15 1131.8L1161.87 1131.96L1121.69 1155.16L1074.15 1127.54L1073.91 1127.96L1073.58 1127.38L1011.79 1163.09V1095.99L1011.51 1095.83L935.429 1051.91L935.149 1052.07L867.269 1091.26C866.398 1089.99 865.101 1089.08 863.614 1088.68C862.127 1088.29 860.548 1088.44 859.163 1089.11C857.779 1089.79 856.681 1090.93 856.069 1092.34C855.457 1093.75 855.372 1095.34 855.828 1096.81C856.284 1098.28 857.252 1099.53 858.555 1100.35C859.859 1101.17 861.412 1101.49 862.933 1101.26C864.454 1101.03 865.842 1100.26 866.845 1099.09C867.847 1097.93 868.399 1096.44 868.399 1094.9C868.396 1093.98 868.191 1093.07 867.799 1092.23L935.429 1053.23L1010.68 1096.67V1135.61L934.299 1092.13L933.729 1093.13L1010.68 1136.93V1183.4L934.299 1139.11L934.019 1139.6L835.189 1196.65V1249.54C833.784 1249.63 832.466 1250.25 831.502 1251.27C830.539 1252.3 830.001 1253.65 829.999 1255.06ZM1448.81 1440.06C1447.63 1440.06 1446.5 1439.59 1445.66 1438.75C1444.83 1437.92 1444.36 1436.79 1444.36 1435.61C1444.36 1434.69 1444.65 1433.79 1445.19 1433.04L1448.85 1435.16V1440.06H1448.81ZM1452.81 1437.46C1452.54 1438.05 1452.14 1438.58 1451.64 1439C1451.14 1439.42 1450.55 1439.72 1449.92 1439.89V1435.8L1452.81 1437.46ZM1600.46 1449.76C1599.78 1449.71 1599.12 1449.51 1598.53 1449.16C1597.94 1448.81 1597.44 1448.33 1597.07 1447.76L1600.46 1445.76V1449.76ZM1605.27 1445.35C1605.27 1446.4 1604.9 1447.41 1604.22 1448.22C1603.54 1449.02 1602.6 1449.55 1601.57 1449.73V1440.97C1602.6 1441.15 1603.54 1441.68 1604.22 1442.48C1604.9 1443.29 1605.27 1444.3 1605.27 1445.35ZM1596.37 1445.35C1596.37 1444.23 1596.79 1443.16 1597.55 1442.34C1598.31 1441.52 1599.35 1441.02 1600.46 1440.93V1444.49L1596.6 1446.71C1596.45 1446.27 1596.37 1445.81 1596.37 1445.35ZM1471.05 1439.45C1473.17 1439.45 1475.21 1440.29 1476.71 1441.79C1478.21 1443.29 1479.05 1445.33 1479.05 1447.45C1479.04 1448.64 1478.76 1449.81 1478.24 1450.88L1464.46 1442.88C1465.2 1441.82 1466.18 1440.95 1467.33 1440.35C1468.48 1439.76 1469.75 1439.45 1471.05 1439.45ZM1463.92 1443.9L1470.15 1447.47V1455.35C1468.21 1455.12 1466.42 1454.19 1465.12 1452.74C1463.82 1451.28 1463.1 1449.4 1463.09 1447.45C1463.08 1446.22 1463.37 1445 1463.92 1443.9ZM1471.22 1448.11L1477.71 1451.86C1476.99 1452.93 1476.03 1453.82 1474.9 1454.44C1473.77 1455.06 1472.51 1455.4 1471.22 1455.43V1448.11ZM1462.91 1443.31C1462.25 1444.59 1461.91 1446.01 1461.91 1447.45C1461.91 1449.72 1462.76 1451.9 1464.28 1453.58C1465.8 1455.26 1467.89 1456.31 1470.15 1456.54V1508.54L1524.92 1540.16L1571.95 1512.99C1572.52 1513.93 1573.32 1514.7 1574.28 1515.24C1575.23 1515.77 1576.31 1516.06 1577.41 1516.06C1579.11 1516.06 1580.75 1515.38 1581.96 1514.18C1583.16 1512.97 1583.84 1511.34 1583.84 1509.63C1583.84 1508.78 1583.67 1507.95 1583.35 1507.17C1583.03 1506.38 1582.56 1505.67 1581.96 1505.08C1581.36 1504.48 1580.65 1504 1579.87 1503.68C1579.09 1503.36 1578.25 1503.19 1577.41 1503.19C1575.7 1503.19 1574.06 1503.87 1572.85 1505.08C1571.65 1506.28 1570.97 1507.92 1570.97 1509.63C1570.97 1510.44 1571.13 1511.25 1571.44 1512L1524.88 1538.88L1471.22 1507.88V1456.54C1472.71 1456.51 1474.17 1456.12 1475.48 1455.4C1476.78 1454.67 1477.89 1453.64 1478.7 1452.39L1533.54 1484.09L1533.82 1484.25L1596.08 1448.3C1596.55 1449.05 1597.19 1449.68 1597.95 1450.13C1598.72 1450.59 1599.57 1450.85 1600.46 1450.91V1521.91L1525.21 1565.36L1449.96 1521.91V1441.12C1450.79 1440.95 1451.57 1440.59 1452.24 1440.07C1452.91 1439.55 1453.45 1438.88 1453.83 1438.12L1462.91 1443.31ZM1448.81 1431.2C1449.99 1431.2 1451.12 1431.67 1451.96 1432.5C1452.79 1433.34 1453.26 1434.47 1453.26 1435.65C1453.26 1435.91 1453.23 1436.17 1453.19 1436.42L1445.97 1432.25C1446.76 1431.58 1447.77 1431.2 1448.81 1431.2ZM1427.22 1318.54C1427.23 1317.31 1427.52 1316.09 1428.09 1315L1434.71 1318.82V1326.45C1432.69 1326.32 1430.8 1325.43 1429.41 1323.97C1428.02 1322.5 1427.24 1320.56 1427.22 1318.54ZM1435.82 1326.47V1319.47L1441.88 1322.97C1441.2 1323.97 1440.3 1324.8 1439.25 1325.4C1438.2 1326 1437.03 1326.36 1435.82 1326.44V1326.47ZM1435.22 1310.54C1437.34 1310.54 1439.38 1311.38 1440.88 1312.88C1442.38 1314.38 1443.22 1316.42 1443.22 1318.54C1443.21 1319.73 1442.93 1320.91 1442.41 1321.98L1428.63 1313.98C1429.37 1312.92 1430.35 1312.05 1431.5 1311.45C1432.65 1310.85 1433.92 1310.54 1435.22 1310.54ZM1502.5 1344.46C1502.5 1343.4 1502.88 1342.38 1503.57 1341.58C1504.26 1340.78 1505.21 1340.25 1506.25 1340.08V1348.84C1505.2 1348.68 1504.25 1348.14 1503.57 1347.34C1502.88 1346.54 1502.5 1345.52 1502.5 1344.46ZM1511.4 1344.46C1511.4 1345.56 1510.99 1346.62 1510.25 1347.43C1509.51 1348.25 1508.49 1348.76 1507.4 1348.87V1345L1511.13 1342.85C1511.32 1343.37 1511.41 1343.91 1511.4 1344.46ZM1510.56 1341.87L1507.36 1343.72V1340.05C1507.99 1340.11 1508.6 1340.3 1509.15 1340.62C1509.71 1340.93 1510.18 1341.36 1510.56 1341.87ZM1284.85 1240.98C1286.05 1240.98 1287.23 1241.25 1288.3 1241.77C1289.38 1242.29 1290.33 1243.05 1291.08 1243.98L1284.08 1248.03L1283.91 1248.12L1278.07 1244.75C1278.79 1243.6 1279.78 1242.65 1280.97 1241.99C1282.16 1241.33 1283.49 1240.98 1284.85 1240.98ZM1291.85 1252.75L1285.01 1248.75L1291.71 1244.89C1292.42 1246.06 1292.81 1247.4 1292.84 1248.78C1292.86 1250.15 1292.52 1251.5 1291.85 1252.7V1252.75ZM1276.85 1248.98C1276.85 1247.87 1277.08 1246.77 1277.53 1245.76L1283.79 1249.38V1256.87C1281.88 1256.61 1280.12 1255.67 1278.85 1254.22C1277.57 1252.77 1276.87 1250.91 1276.86 1248.98H1276.85ZM1222.72 1283.3L1184.55 1261.15L1222.72 1239.15V1283.3ZM1134.87 1296.69L1113.5 1309.03C1113.03 1308.28 1112.4 1307.65 1111.64 1307.2C1110.88 1306.75 1110.03 1306.48 1109.15 1306.42C1108.27 1306.37 1107.39 1306.52 1106.58 1306.87C1105.77 1307.22 1105.06 1307.76 1104.5 1308.44L1067.02 1286.7L1092.38 1272.06L1134.87 1296.69ZM1113.21 1311.99C1113.21 1313.17 1112.74 1314.3 1111.91 1315.14C1111.07 1315.97 1109.94 1316.44 1108.76 1316.44C1108.14 1316.44 1107.52 1316.31 1106.95 1316.05C1106.39 1315.79 1105.88 1315.42 1105.47 1314.95L1112.98 1310.62C1113.13 1311.06 1113.21 1311.52 1113.22 1311.99H1113.21ZM1103.84 1309.39C1103.4 1310.19 1103.16 1311.08 1103.16 1311.99C1103.16 1312.91 1103.4 1313.8 1103.84 1314.6L1066.46 1336.18V1287.72L1103.84 1309.39ZM1104.31 1311.99C1104.32 1311.29 1104.49 1310.61 1104.82 1309.99L1108.34 1311.99L1104.83 1313.99C1104.5 1313.37 1104.33 1312.69 1104.32 1311.99H1104.31ZM1109.49 1311.35L1105.49 1309.02C1105.94 1308.51 1106.51 1308.12 1107.14 1307.87C1107.77 1307.62 1108.45 1307.52 1109.13 1307.57C1109.81 1307.63 1110.47 1307.84 1111.05 1308.19C1111.63 1308.54 1112.12 1309.03 1112.49 1309.6L1109.49 1311.35ZM1125.79 1389.73L1066.48 1355.49V1337.49L1104.48 1315.54C1105.32 1316.56 1106.49 1317.26 1107.79 1317.49C1109.09 1317.73 1110.43 1317.5 1111.58 1316.84C1112.72 1316.17 1113.59 1315.13 1114.04 1313.88C1114.48 1312.64 1114.47 1311.28 1114 1310.04L1136 1297.34L1158.6 1310.44V1370.79L1125.79 1389.73ZM1182.06 1382.62C1181.36 1382.62 1180.69 1382.87 1180.17 1383.33L1159.71 1371.54V1275.54L1183.41 1261.86L1222.73 1284.67V1289.2L1246.67 1303.02V1361.64L1194.67 1391.64L1184.97 1386.04C1185 1385.87 1185.02 1385.69 1185.02 1385.51C1185.01 1384.73 1184.69 1383.99 1184.14 1383.45C1183.58 1382.91 1182.83 1382.61 1182.06 1382.62ZM1325.55 1369.64C1325.43 1369.96 1325.36 1370.3 1325.36 1370.64C1325.36 1371.01 1325.42 1371.38 1325.56 1371.73L1242.88 1419.54L1195.75 1392.32L1247.75 1362.32V1303.65L1283.75 1324.45V1345.54L1304.57 1357.54C1304.02 1358.8 1303.95 1360.21 1304.38 1361.51C1304.81 1362.82 1305.7 1363.91 1306.89 1364.6C1308.08 1365.29 1309.48 1365.51 1310.82 1365.23C1312.16 1364.96 1313.35 1364.19 1314.17 1363.09L1325.55 1369.64ZM1309.15 1358.89L1306.15 1357.13C1306.51 1356.64 1306.96 1356.22 1307.49 1355.91C1308.01 1355.6 1308.59 1355.41 1309.2 1355.33L1309.15 1358.89ZM1313.15 1362.49C1312.74 1363.01 1312.21 1363.44 1311.61 1363.73C1311.01 1364.03 1310.36 1364.18 1309.69 1364.18C1308.96 1364.18 1308.25 1364.01 1307.6 1363.67C1306.96 1363.33 1306.41 1362.84 1306.01 1362.24C1305.6 1361.64 1305.34 1360.95 1305.27 1360.23C1305.19 1359.5 1305.29 1358.77 1305.56 1358.1L1313.15 1362.49ZM1314.15 1359.73C1314.15 1360.36 1314.01 1360.98 1313.75 1361.55L1310.26 1359.55V1355.35C1311.33 1355.48 1312.31 1356 1313.03 1356.81C1313.74 1357.61 1314.14 1358.65 1314.15 1359.73ZM1388.69 1311.94L1405.15 1302.42V1321.54L1388.69 1311.94ZM1382.15 1279.89C1382.74 1279.89 1383.32 1279.76 1383.85 1279.51C1384.39 1279.27 1384.86 1278.91 1385.25 1278.47L1405.15 1289.96V1301.14L1387.55 1311.3L1354.65 1292.22L1378.86 1278.22C1379.24 1278.74 1379.73 1279.16 1380.31 1279.45C1380.88 1279.74 1381.51 1279.89 1382.15 1279.89ZM1353.5 1292.89L1386.41 1311.97L1359.1 1327.74L1326.15 1308.66L1353.5 1292.89ZM1323.92 1308.68L1309.41 1317.06L1309.13 1317.22V1354.22C1308.34 1354.3 1307.57 1354.55 1306.89 1354.95C1306.2 1355.35 1305.61 1355.89 1305.15 1356.54L1284.95 1344.88V1286.04L1323.92 1308.68ZM1284.92 1256.98V1249.98L1291.29 1253.65C1290.56 1254.66 1289.6 1255.49 1288.49 1256.07C1287.38 1256.64 1286.16 1256.95 1284.91 1256.97L1284.92 1256.98ZM1292.92 1253.35C1293.68 1251.97 1294.06 1250.41 1294.03 1248.83C1294.01 1247.25 1293.57 1245.71 1292.77 1244.35L1337.68 1218.42L1383.42 1244.88L1330.85 1275.23L1292.92 1253.35ZM1406.06 1231.06C1404.05 1230.92 1402.16 1230.02 1400.79 1228.55C1399.41 1227.07 1398.64 1225.14 1398.63 1223.12C1398.63 1221.71 1399.01 1220.33 1399.74 1219.12L1406.06 1222.77V1231.06ZM1414.63 1223.12C1414.62 1225.14 1413.84 1227.08 1412.46 1228.56C1411.08 1230.03 1409.19 1230.92 1407.17 1231.06V1215.17C1409.19 1215.31 1411.08 1216.2 1412.46 1217.68C1413.85 1219.15 1414.62 1221.1 1414.63 1223.12ZM1406.06 1215.18V1221.54L1400.36 1218.24C1401.04 1217.36 1401.9 1216.63 1402.88 1216.1C1403.86 1215.57 1404.95 1215.26 1406.06 1215.18ZM1397.49 1223.12C1397.51 1225.32 1398.32 1227.45 1399.78 1229.1C1401.23 1230.75 1403.24 1231.82 1405.42 1232.12L1384.52 1244.18L1338.78 1217.72L1368.08 1200.81L1398.72 1218.54C1397.91 1219.93 1397.49 1221.51 1397.49 1223.12ZM1367.49 1184.38V1199.91L1337.66 1217.13L1293.66 1191.66V1172.17C1294.85 1172 1295.94 1171.41 1296.73 1170.5C1297.52 1169.59 1297.95 1168.42 1297.95 1167.22C1297.95 1166.02 1297.52 1164.85 1296.73 1163.94C1295.94 1163.03 1294.85 1162.44 1293.66 1162.27V1146.76C1294.55 1146.69 1295.42 1146.42 1296.21 1145.99C1297 1145.56 1297.69 1144.97 1298.23 1144.25L1367.49 1184.38ZM1362.67 833.12C1363.13 833.741 1363.74 834.245 1364.43 834.592C1365.13 834.939 1365.89 835.12 1366.67 835.12C1367.45 835.113 1368.22 834.923 1368.91 834.565C1369.61 834.207 1370.21 833.692 1370.67 833.06L1441.86 874.16H1442.15L1406.95 894.48L1331.83 850.92L1362.67 833.12ZM1200.57 1119.97L1167.48 1100.87C1168.2 1099.92 1168.6 1098.75 1168.6 1097.55C1168.6 1096.27 1168.16 1095.03 1167.35 1094.03C1166.54 1093.04 1165.42 1092.35 1164.16 1092.1C1162.91 1091.84 1161.6 1092.02 1160.47 1092.61C1159.33 1093.21 1158.43 1094.17 1157.93 1095.35L1124.71 1076.17C1125.48 1074.91 1125.89 1073.47 1125.92 1072C1125.94 1070.53 1125.57 1069.07 1124.85 1067.79L1163.31 1045.54L1238.56 1088.98V1097.98L1200.57 1119.97ZM1162.28 1187.54C1160.16 1187.54 1158.12 1186.7 1156.62 1185.2C1155.12 1183.7 1154.28 1181.66 1154.28 1179.54C1154.29 1178.26 1154.6 1177.01 1155.21 1175.88L1168.98 1183.88C1168.26 1185 1167.26 1185.92 1166.09 1186.56C1164.92 1187.2 1163.61 1187.54 1162.28 1187.54ZM1169.53 1182.87L1163.11 1179.14L1169.15 1175.65C1169.79 1176.74 1170.16 1177.97 1170.22 1179.24C1170.28 1180.5 1170.02 1181.77 1169.48 1182.91L1169.53 1182.87ZM1161.97 1178.48L1155.8 1174.9C1156.52 1173.89 1157.46 1173.05 1158.56 1172.47C1159.66 1171.89 1160.88 1171.58 1162.12 1171.55C1163.37 1171.53 1164.6 1171.8 1165.72 1172.34C1166.84 1172.88 1167.81 1173.67 1168.57 1174.66L1161.97 1178.48ZM1237.36 1176.41H1237.64L1197.93 1199.34L1170.54 1183.45C1171.17 1182.12 1171.47 1180.66 1171.41 1179.2C1171.36 1177.73 1170.95 1176.3 1170.22 1175.02L1202.44 1156.32V1156.27L1237.39 1176.45L1237.36 1176.41ZM1162.15 1133.08L1201.31 1155.69L1169.56 1174.1C1168.7 1172.94 1167.57 1172.01 1166.27 1171.37C1164.98 1170.73 1163.55 1170.41 1162.1 1170.44C1160.66 1170.46 1159.24 1170.83 1157.97 1171.52C1156.69 1172.2 1155.6 1173.17 1154.78 1174.36L1122.78 1155.8L1162.15 1133.08Z" fill="url(#paint0_linear)" fill-opacity="0.2"/>
<path d="M1288.83 903.18L1293.83 908.18C1294.82 908.18 1295.78 907.887 1296.61 907.337C1297.43 906.788 1298.07 906.007 1298.45 905.093C1298.83 904.18 1298.92 903.174 1298.73 902.204C1298.54 901.235 1298.06 900.344 1297.36 899.644C1296.66 898.945 1295.77 898.469 1294.8 898.276C1293.83 898.083 1292.83 898.182 1291.91 898.56C1291 898.939 1290.22 899.58 1289.67 900.402C1289.12 901.224 1288.83 902.191 1288.83 903.18Z" fill="white"/>
</g>
</g>
<g opacity="0.6" clip-path="url(#clip2)">
<path d="M-24.5278 -61.8702V20.5598L-24.2578 20.7198L51.8222 64.6798L52.1022 64.5198L121.252 24.5898C121.734 25.4386 122.432 26.1447 123.275 26.6365C124.118 27.1283 125.076 27.3882 126.052 27.3898C127.526 27.3845 128.938 26.7953 129.978 25.7513C131.018 24.7073 131.602 23.2936 131.602 21.8198C131.6 20.3434 131.012 18.9281 129.968 17.8841C128.924 16.8401 127.509 16.2524 126.032 16.2498C124.556 16.2524 123.141 16.8401 122.096 17.8841C121.052 18.9281 120.465 20.3434 120.462 21.8198C120.472 22.4191 120.577 23.013 120.772 23.5798L87.2522 42.9398L-23.3978 -21.2402V-61.7702C-22.5025 -61.8082 -21.6296 -62.0617 -20.8531 -62.5091C-20.0767 -62.9565 -19.4197 -63.5847 -18.9378 -64.3402L52.9822 -22.8202L53.2622 -22.9802L110.602 -56.1002L138.322 -40.1002C137.851 -39.2816 137.599 -38.3549 137.592 -37.4102C137.598 -36.0056 138.134 -34.655 139.093 -33.6281C140.051 -32.6011 141.361 -31.9734 142.762 -31.8702V13.3198L191.762 41.6198C191.539 42.2427 191.421 42.8982 191.412 43.5598C191.412 45.1325 192.037 46.6408 193.149 47.7529C194.261 48.865 195.769 49.4898 197.342 49.4898C198.915 49.4898 200.423 48.865 201.535 47.7529C202.647 46.6408 203.272 45.1325 203.272 43.5598C203.273 42.7807 203.121 42.009 202.823 41.2889C202.526 40.5689 202.089 39.9146 201.538 39.3637C200.987 38.8128 200.333 38.3761 199.613 38.0785C198.893 37.781 198.121 37.6285 197.342 37.6298C196.3 37.634 195.278 37.9137 194.378 38.4406C193.479 38.9675 192.735 39.7227 192.222 40.6298L143.872 12.6998V-31.8702C144.714 -31.9709 145.521 -32.2618 146.233 -32.721C146.945 -33.1801 147.543 -33.7954 147.982 -34.5202L192.602 -8.78021L192.872 -8.62021L276.362 -56.8702C276.876 -55.9638 277.62 -55.2091 278.519 -54.6824C279.418 -54.1556 280.44 -53.8755 281.482 -53.8702C283.054 -53.8729 284.561 -54.4985 285.672 -55.61C286.784 -56.7215 287.41 -58.2283 287.412 -59.8002C287.412 -61.3739 286.788 -62.8832 285.676 -63.9969C284.564 -65.1106 283.056 -65.7376 281.482 -65.7402C280.703 -65.7402 279.931 -65.5865 279.211 -65.2879C278.49 -64.9892 277.836 -64.5515 277.285 -63.9998C276.735 -63.4481 276.298 -62.7932 276.001 -62.0726C275.703 -61.352 275.551 -60.5798 275.552 -59.8002C275.555 -59.1414 275.674 -58.4882 275.902 -57.8702L192.842 -9.87021L148.452 -35.5302C148.676 -36.1287 148.794 -36.7614 148.802 -37.4002C148.8 -38.8837 148.208 -40.3055 147.158 -41.3535C146.109 -42.4016 144.686 -42.9902 143.202 -42.9902C142.393 -42.9844 141.594 -42.8024 140.862 -42.4571C140.13 -42.1117 139.482 -41.6112 138.962 -40.9902L111.722 -56.7202L152.062 -80.0102V-132.87C153.472 -132.957 154.796 -133.576 155.765 -134.603C156.735 -135.63 157.277 -136.988 157.282 -138.4C157.282 -139.877 156.695 -141.294 155.651 -142.339C154.606 -143.383 153.189 -143.97 151.712 -143.97C150.235 -143.97 148.818 -143.383 147.774 -142.339C146.729 -141.294 146.142 -139.877 146.142 -138.4C146.147 -137.059 146.636 -135.764 147.52 -134.755C148.404 -133.746 149.623 -133.091 150.952 -132.91V-80.6402L110.722 -57.4202L35.6022 -101.02L46.4422 -107.28C46.943 -106.49 47.6356 -105.839 48.4556 -105.387C49.2756 -104.936 50.1963 -104.7 51.1322 -104.7C52.6068 -104.7 54.021 -105.286 55.0637 -106.329C56.1064 -107.371 56.6922 -108.786 56.6922 -110.26C56.6935 -110.991 56.5506 -111.715 56.2718 -112.391C55.993 -113.067 55.5837 -113.681 55.0672 -114.198C54.5508 -114.716 53.9374 -115.126 53.2622 -115.406C52.587 -115.686 51.8632 -115.83 51.1322 -115.83C49.6549 -115.83 48.2382 -115.243 47.1936 -114.199C46.149 -113.154 45.5622 -111.737 45.5622 -110.26C45.5633 -109.576 45.6922 -108.897 45.9422 -108.26L34.4922 -101.65L2.01218 -120.49C2.23664 -121.106 2.355 -121.755 2.36218 -122.41C2.35953 -123.984 1.73255 -125.492 0.618866 -126.604C-0.494814 -127.716 -2.00417 -128.34 -3.57782 -128.34C-5.14974 -128.338 -6.65652 -127.712 -7.76804 -126.6C-8.87955 -125.489 -9.50517 -123.982 -9.50781 -122.41C-9.50781 -120.837 -8.88338 -119.327 -7.77158 -118.214C-6.65977 -117.1 -5.15147 -116.473 -3.57782 -116.47C-2.53737 -116.476 -1.51695 -116.757 -0.61969 -117.284C0.277575 -117.81 1.01987 -118.565 1.53217 -119.47L33.3522 -101.02L-19.1878 -70.6702C-19.7031 -71.3722 -20.3761 -71.9433 -21.1525 -72.3376C-21.9289 -72.7319 -22.787 -72.9383 -23.6578 -72.9402C-25.1413 -72.9402 -26.5642 -72.3516 -27.6141 -71.3035C-28.664 -70.2555 -29.2552 -68.8337 -29.2578 -67.3502C-29.2475 -66.0242 -28.7661 -64.745 -27.8997 -63.7412C-27.0332 -62.7373 -25.8381 -62.0742 -24.5278 -61.8702ZM138.752 -37.4002C138.756 -38.1461 138.949 -38.8788 139.312 -39.5302L142.762 -37.5302V-32.9802C141.664 -33.0871 140.645 -33.5989 139.904 -34.416C139.163 -35.2331 138.752 -36.2969 138.752 -37.4002ZM143.872 -33.0102V-36.8702L146.992 -35.0602C146.653 -34.512 146.198 -34.0446 145.659 -33.6905C145.12 -33.3364 144.51 -33.1043 143.872 -33.0102ZM143.202 -41.8702C144.382 -41.8676 145.512 -41.3979 146.346 -40.5639C147.18 -39.73 147.65 -38.5996 147.652 -37.4202C147.645 -36.9856 147.574 -36.5544 147.442 -36.1402L139.962 -40.4502C140.376 -40.8968 140.877 -41.2533 141.434 -41.4977C141.992 -41.742 142.594 -41.8688 143.202 -41.8702ZM86.1022 43.5998L51.8222 63.3898L-23.3978 19.9498V-19.8702L86.1022 43.5998ZM-19.2078 -67.3502C-19.212 -66.8589 -19.2999 -66.3719 -19.4678 -65.9102L-22.2178 -67.5102H-22.5078L-19.5978 -69.1902C-19.3349 -68.6128 -19.2018 -67.9847 -19.2078 -67.3502ZM-23.3978 -62.8702V-66.8702L-19.9278 -64.8702C-20.3079 -64.2872 -20.8203 -63.8022 -21.4233 -63.4546C-22.0263 -63.1071 -22.7028 -62.9068 -23.3978 -62.8702ZM34.4822 -100.31L109.602 -56.7902L52.9622 -24.1002L-18.4578 -65.3302C-18.2025 -65.9662 -18.0702 -66.6449 -18.0678 -67.3302C-18.0712 -68.1503 -18.2555 -68.9596 -18.6078 -69.7002L34.4822 -100.31ZM-23.6378 -71.7502C-22.9663 -71.7462 -22.3045 -71.5903 -21.7018 -71.2942C-21.0991 -70.998 -20.5713 -70.5693 -20.1578 -70.0402L-24.5078 -67.5302V-62.9302C-25.5173 -63.1334 -26.4254 -63.6796 -27.0779 -64.4761C-27.7305 -65.2727 -28.0873 -66.2705 -28.0878 -67.3002C-28.0944 -67.8871 -27.9849 -68.4695 -27.7654 -69.0139C-27.546 -69.5583 -27.2211 -70.0538 -26.8093 -70.4721C-26.3975 -70.8904 -25.9071 -71.2231 -25.3662 -71.451C-24.8254 -71.6789 -24.2448 -71.7976 -23.6578 -71.8002L-23.6378 -71.7502Z" fill="white"/>
<path d="M202.602 560.9C201.647 560.9 200.731 561.279 200.056 561.954C199.381 562.629 199.002 563.545 199.002 564.5C199.008 565.071 199.148 565.633 199.412 566.14L138.002 601.62C137.133 600.395 135.827 599.55 134.353 599.262C132.88 598.973 131.352 599.262 130.085 600.069C128.819 600.876 127.911 602.139 127.55 603.597C127.189 605.054 127.403 606.595 128.147 607.9C128.89 609.204 130.107 610.173 131.545 610.605C132.983 611.037 134.532 610.9 135.872 610.222C137.212 609.543 138.239 608.375 138.742 606.96C139.244 605.545 139.183 603.991 138.572 602.62L200.102 567.1C200.521 567.518 201.037 567.825 201.603 567.996C202.17 568.167 202.77 568.196 203.35 568.08C203.93 567.963 204.473 567.706 204.93 567.33C205.387 566.954 205.744 566.471 205.97 565.924C206.196 565.377 206.284 564.783 206.225 564.194C206.167 563.605 205.964 563.04 205.635 562.548C205.306 562.056 204.86 561.653 204.338 561.374C203.816 561.095 203.233 560.95 202.642 560.95L202.602 560.9Z" fill="white"/>
<path d="M-34.7184 419.87L-20.5084 411.66C-19.9189 412.573 -19.0479 413.269 -18.0272 413.643C-17.0065 414.017 -15.8917 414.048 -14.8518 413.731C-13.8119 413.415 -12.9035 412.768 -12.2641 411.889C-11.6247 411.01 -11.2893 409.947 -11.3084 408.86C-11.3178 408.095 -11.5025 407.342 -11.8484 406.66L33.7316 380.34C34.3837 381.225 35.3302 381.849 36.4009 382.099C37.4717 382.349 38.5966 382.209 39.5734 381.704C40.5501 381.199 41.3148 380.362 41.7298 379.344C42.1448 378.326 42.1831 377.193 41.8376 376.149C41.4922 375.105 40.7858 374.218 39.8453 373.649C38.9048 373.079 37.792 372.863 36.7068 373.04C35.6215 373.218 34.6351 373.776 33.9248 374.616C33.2145 375.455 32.8269 376.52 32.8316 377.62C32.8336 378.224 32.9525 378.821 33.1815 379.38L-12.3984 405.72C-13.1421 404.762 -14.2083 404.108 -15.3986 403.878C-16.5889 403.648 -17.8222 403.858 -18.869 404.47C-19.9157 405.081 -20.7047 406.052 -21.0891 407.202C-21.4735 408.351 -21.427 409.602 -20.9584 410.72L-34.9584 418.79L-110.208 375.35V361.01C-109.534 360.856 -108.899 360.565 -108.343 360.154C-107.787 359.742 -107.322 359.22 -106.978 358.62L-57.8185 387L-9.07843 358.86C-8.3161 359.954 -7.18668 360.738 -5.89536 361.07C-4.60403 361.402 -3.2365 361.259 -2.04117 360.669C-0.84584 360.078 0.0979614 359.078 0.618774 357.851C1.13959 356.623 1.20286 355.25 0.797089 353.98C0.391319 352.71 -0.456566 351.628 -1.59253 350.929C-2.72849 350.231 -4.07716 349.964 -5.39352 350.176C-6.70989 350.388 -7.90663 351.065 -8.7663 352.084C-9.62596 353.103 -10.0915 354.397 -10.0784 355.73C-10.0769 356.468 -9.93079 357.198 -9.64844 357.88L-57.8584 385.72L-106.578 357.59C-106.419 357.116 -106.335 356.62 -106.328 356.12C-106.324 354.978 -106.711 353.87 -107.424 352.978C-108.137 352.087 -109.134 351.466 -110.248 351.22V288.41L-99.3284 282.11C-98.6435 283.137 -97.5917 283.864 -96.3883 284.142C-95.1849 284.419 -93.9209 284.226 -92.8552 283.602C-91.7895 282.978 -91.0027 281.97 -90.6558 280.785C-90.3089 279.6 -90.4281 278.327 -90.9892 277.227C-91.5503 276.127 -92.5107 275.283 -93.6739 274.867C-94.837 274.452 -96.1148 274.497 -97.2457 274.994C-98.3766 275.49 -99.275 276.4 -99.757 277.537C-100.239 278.674 -100.268 279.952 -99.8384 281.11L-111.398 287.77V351.13C-112.725 351.13 -113.996 351.657 -114.934 352.594C-115.872 353.532 -116.398 354.804 -116.398 356.13C-116.398 357.456 -115.872 358.728 -114.934 359.665C-113.996 360.603 -112.725 361.13 -111.398 361.13V375.93L-111.118 376.09L-34.9984 420.03L-34.7184 419.87Z" fill="white"/>
<path d="M544.751 213.61C544.757 212.539 544.454 211.489 543.878 210.586C543.302 209.683 542.479 208.965 541.505 208.519C540.532 208.072 539.451 207.915 538.391 208.067C537.331 208.219 536.337 208.673 535.529 209.376C534.72 210.078 534.131 210.998 533.833 212.027C533.534 213.055 533.538 214.148 533.844 215.174C534.151 216.2 534.746 217.116 535.56 217.812C536.373 218.509 537.37 218.956 538.431 219.1V271.37L440.431 327.95L365.241 284.54H365.131H365.041L433.911 244.78C434.634 245.906 435.738 246.734 437.021 247.112C438.304 247.489 439.681 247.392 440.898 246.837C442.115 246.282 443.092 245.306 443.648 244.09C444.204 242.873 444.303 241.497 443.927 240.213C443.55 238.929 442.723 237.824 441.598 237.101C440.473 236.378 439.124 236.084 437.8 236.275C436.476 236.465 435.265 237.126 434.389 238.138C433.513 239.149 433.031 240.442 433.031 241.78C433.032 242.464 433.16 243.143 433.411 243.78L362.931 284.47V304.23L301.001 340.02L254.171 312.86L311.671 279.67V226.79C313.091 226.647 314.401 225.965 315.331 224.883C316.262 223.802 316.741 222.404 316.669 220.98C316.598 219.555 315.982 218.212 314.948 217.229C313.915 216.246 312.543 215.698 311.116 215.698C309.69 215.698 308.318 216.246 307.284 217.229C306.251 218.212 305.635 219.555 305.563 220.98C305.492 222.404 305.971 223.802 306.901 224.883C307.832 225.965 309.142 226.647 310.561 226.79V279.06L253.071 312.25L220.601 293.34C221.705 291.254 221.958 288.823 221.308 286.555C220.658 284.287 219.156 282.358 217.115 281.174C215.074 279.989 212.655 279.641 210.363 280.201C208.071 280.761 206.085 282.187 204.821 284.18L177.961 268.63L206.061 252.41C206.834 253.634 208.047 254.514 209.451 254.868C210.854 255.223 212.34 255.024 213.601 254.313C214.861 253.602 215.801 252.434 216.224 251.05C216.648 249.666 216.523 248.172 215.876 246.878C215.228 245.583 214.108 244.587 212.747 244.095C211.386 243.604 209.887 243.654 208.562 244.236C207.237 244.819 206.187 245.888 205.628 247.223C205.07 248.559 205.046 250.057 205.561 251.41L135.081 292.13V358.36L87.6014 330.81C87.9965 329.877 88.1653 328.865 88.0943 327.855C88.0232 326.845 87.7142 325.865 87.1925 324.998C86.6708 324.13 85.9511 323.398 85.0924 322.861C84.2337 322.324 83.2602 321.998 82.2514 321.91V306.43C83.5775 306.43 84.8493 305.903 85.787 304.965C86.7246 304.028 87.2514 302.756 87.2514 301.43C87.2514 300.104 86.7246 298.832 85.787 297.894C84.8493 296.957 83.5775 296.43 82.2514 296.43V263.43L99.8214 253.29C100.609 254.231 101.726 254.836 102.945 254.981C104.164 255.125 105.392 254.798 106.378 254.067C107.364 253.335 108.032 252.255 108.247 251.046C108.462 249.838 108.207 248.593 107.533 247.566C106.86 246.54 105.82 245.81 104.626 245.525C103.432 245.241 102.174 245.424 101.111 246.036C100.047 246.649 99.2578 247.645 98.9048 248.821C98.5517 249.996 98.6613 251.262 99.2114 252.36L81.1414 262.79V275.64L38.2514 250.83L82.6814 225.19C83.5805 226.364 84.7519 227.301 86.0944 227.921C87.4369 228.541 88.91 228.825 90.3867 228.748C91.8634 228.671 93.2992 228.236 94.5701 227.48C95.841 226.724 96.9088 225.671 97.6814 224.41L115.441 234.66C115.31 235.001 115.242 235.364 115.241 235.73C115.232 236.43 115.468 237.112 115.909 237.657C116.35 238.201 116.967 238.575 117.654 238.712C118.341 238.849 119.055 238.741 119.671 238.407C120.287 238.073 120.766 237.534 121.027 236.884C121.287 236.233 121.311 235.512 121.095 234.846C120.88 234.179 120.437 233.609 119.845 233.234C119.253 232.86 118.549 232.704 117.854 232.795C117.159 232.885 116.518 233.216 116.041 233.73L98.2114 223.43C98.8115 222.12 99.0927 220.686 99.032 219.247C98.9712 217.807 98.5703 216.403 97.8619 215.148C97.1536 213.893 96.1581 212.824 94.9568 212.028C93.7556 211.233 92.383 210.733 90.9514 210.57V145.54L150.951 180.16V247.99C149.564 248.284 148.342 249.1 147.539 250.269C146.736 251.438 146.413 252.871 146.637 254.271C146.86 255.672 147.613 256.933 148.74 257.794C149.867 258.655 151.282 259.05 152.692 258.898C154.102 258.745 155.4 258.057 156.317 256.975C157.234 255.893 157.7 254.5 157.619 253.084C157.538 251.668 156.916 250.337 155.882 249.367C154.847 248.396 153.48 247.861 152.061 247.87V230.87L216.191 193.87V159.56L237.831 172.13V240.22C236.415 240.362 235.107 241.044 234.178 242.123C233.25 243.203 232.772 244.598 232.843 246.02C232.915 247.442 233.53 248.782 234.561 249.763C235.593 250.745 236.963 251.292 238.386 251.292C239.81 251.292 241.18 250.745 242.211 249.763C243.243 248.782 243.858 247.442 243.929 246.02C244.001 244.598 243.523 243.203 242.594 242.123C241.666 241.044 240.358 240.362 238.941 240.22V172.76L281.251 197.27L255.251 212.27C254.422 211.089 253.17 210.271 251.755 209.987C250.339 209.702 248.869 209.972 247.647 210.741C246.425 211.509 245.545 212.718 245.189 214.117C244.833 215.515 245.027 216.998 245.733 218.257C246.438 219.517 247.6 220.457 248.979 220.884C250.358 221.311 251.848 221.193 253.142 220.552C254.435 219.912 255.434 218.799 255.931 217.444C256.428 216.089 256.385 214.594 255.811 213.27L309.421 182.27V132.45L378.811 172.52V240.34C377.411 240.622 376.172 241.432 375.352 242.603C374.532 243.773 374.193 245.213 374.405 246.626C374.617 248.039 375.364 249.317 376.491 250.195C377.619 251.073 379.04 251.484 380.462 251.343C381.884 251.202 383.198 250.52 384.131 249.438C385.064 248.356 385.546 246.956 385.476 245.529C385.407 244.102 384.792 242.756 383.758 241.77C382.724 240.783 381.35 240.232 379.921 240.23V171.88L309.381 131.13V112.54L248.961 77.6598L216.151 96.5998V96.5098L215.871 96.3498L195.281 84.4598C195.494 84.0489 195.604 83.5925 195.601 83.1298C195.6 82.858 195.556 82.5881 195.471 82.3298L248.471 51.7598L318.261 92.0598C317.928 92.7773 317.754 93.5586 317.751 94.3498C317.743 95.6919 318.214 96.993 319.081 98.0175C319.948 99.042 321.154 99.7224 322.479 99.9356C323.804 100.149 325.161 99.8807 326.306 99.1798C327.451 98.4789 328.307 97.3915 328.719 96.1143C329.132 94.837 329.074 93.4544 328.555 92.2163C328.037 90.9783 327.092 89.9667 325.893 89.3644C324.693 88.7622 323.318 88.6092 322.016 88.933C320.713 89.2567 319.569 90.036 318.791 91.1298L248.441 50.4698L248.161 50.6298L194.991 81.3298C194.707 80.9578 194.337 80.6602 193.912 80.4625C193.488 80.2648 193.022 80.1728 192.554 80.1945C192.086 80.2161 191.63 80.3506 191.226 80.5867C190.822 80.8227 190.48 81.1532 190.231 81.5498L131.871 47.8598L131.601 48.0198L48.6014 95.9398C48.31 95.6068 47.9497 95.3412 47.5454 95.1615C47.1412 94.9817 46.7026 94.892 46.2602 94.8987C45.8178 94.9053 45.3821 95.0081 44.9835 95.2C44.5848 95.3919 44.2326 95.6682 43.9514 96.0098L11.9514 77.5498C12.0667 77.2288 12.1276 76.8908 12.1314 76.5498C12.1251 75.8645 11.8795 75.203 11.4372 74.6795C10.9949 74.1561 10.3836 73.8036 9.70901 73.6829C9.03441 73.5623 8.33888 73.6811 7.74258 74.0189C7.14629 74.3566 6.68671 74.8921 6.44327 75.5327C6.19983 76.1733 6.18785 76.8788 6.40936 77.5274C6.63087 78.1759 7.07199 78.7266 7.65646 79.0845C8.24094 79.4423 8.93204 79.5847 9.61035 79.4871C10.2887 79.3894 10.9116 79.0579 11.3714 78.5498L43.3714 97.0198C43.2029 97.4874 43.1506 97.989 43.2188 98.4813C43.2869 98.9736 43.4736 99.4421 43.7628 99.8463C44.052 100.251 44.435 100.579 44.8789 100.802C45.3229 101.026 45.8144 101.138 46.3114 101.13C46.7525 101.115 47.1852 101.005 47.5804 100.809C47.9755 100.612 48.3237 100.333 48.6014 99.9898L59.9614 106.55C59.5967 107.294 59.4053 108.111 59.4014 108.94C59.4038 110.318 59.9159 111.646 60.839 112.669C61.7621 113.691 63.0311 114.337 64.4014 114.48V150.82L49.6114 159.35L16.7114 140.27L33.4614 130.6C34.1344 131.255 35.0135 131.658 35.9496 131.739C36.8856 131.82 37.8209 131.575 38.5968 131.045C39.3727 130.515 39.9413 129.733 40.2063 128.832C40.4712 127.931 40.416 126.965 40.0503 126.1C39.6845 125.234 39.0305 124.522 38.1994 124.084C37.3682 123.646 36.4111 123.509 35.4904 123.696C34.5697 123.883 33.7421 124.383 33.1481 125.111C32.554 125.839 32.2302 126.75 32.2314 127.69C32.2344 128.395 32.4279 129.086 32.7914 129.69L-12.7986 156.07L-30.3986 145.84V115.07C-29.2246 114.928 -28.1489 114.344 -27.3912 113.436C-26.6336 112.528 -26.2511 111.365 -26.3219 110.185C-26.3928 109.005 -26.9116 107.896 -27.7724 107.085C-28.6333 106.275 -29.7711 105.823 -30.9536 105.823C-32.1361 105.823 -33.2739 106.275 -34.1348 107.085C-34.9956 107.896 -35.5144 109.005 -35.5853 110.185C-35.6561 111.365 -35.2736 112.528 -34.516 113.436C-33.7583 114.344 -32.6826 114.928 -31.5086 115.07V166.27L-52.2886 154.27C-51.6005 152.916 -51.2612 151.413 -51.3015 149.895C-51.3417 148.377 -51.7602 146.894 -52.519 145.578C-53.2779 144.263 -54.353 143.159 -55.6469 142.364C-56.9408 141.57 -58.4125 141.111 -59.9286 141.03V41.6398L-69.3986 36.1298C-68.7554 35.2046 -68.4068 34.1066 -68.3986 32.9798C-68.3986 31.4963 -68.9872 30.0734 -70.0352 29.0235C-71.0833 27.9736 -72.5051 27.3824 -73.9886 27.3798V-53.8702L-150.069 -97.8002L-150.349 -97.9602L-226.429 -54.0302L-226.709 -53.8702V17.8098C-228.048 17.9886 -229.276 18.6462 -230.168 19.6609C-231.06 20.6757 -231.554 21.979 -231.559 23.3298C-231.554 24.6806 -231.06 25.9839 -230.168 26.9986C-229.276 28.0134 -228.048 28.671 -226.709 28.8498V34.2998L-152.629 77.0698C-152.773 77.422 -152.848 77.799 -152.849 78.1798C-152.858 78.9123 -152.611 79.625 -152.149 80.1937C-151.687 80.7625 -151.041 81.1513 -150.322 81.2925C-149.603 81.4337 -148.858 81.3183 -148.215 80.9663C-147.573 80.6144 -147.074 80.0483 -146.806 79.3665C-146.538 78.6848 -146.517 77.9306 -146.748 77.2354C-146.979 76.5401 -147.446 75.9478 -148.069 75.5615C-148.691 75.1753 -149.429 75.0197 -150.155 75.1217C-150.88 75.2237 -151.547 75.5769 -152.039 76.1198L-225.709 33.6498V28.8798C-224.293 28.791 -222.964 28.1671 -221.99 27.1347C-221.017 26.1022 -220.473 24.7385 -220.469 23.3198C-220.478 22.6532 -220.603 21.9933 -220.839 21.3698L-159.069 -14.2902L-104.499 17.2098C-105.116 18.4528 -105.438 19.8218 -105.439 21.2098C-105.436 23.6331 -104.472 25.9563 -102.759 27.6698C-101.045 29.3833 -98.7218 30.3472 -96.2986 30.3498C-94.8041 30.3552 -93.3312 29.9932 -92.0094 29.2957C-90.6877 28.5982 -89.5576 27.5866 -88.7186 26.3498L-79.4686 31.6898C-79.5884 32.1334 -79.6522 32.5903 -79.6586 33.0498C-79.6586 34.535 -79.0686 35.9594 -78.0184 37.0096C-76.9682 38.0598 -75.5438 38.6498 -74.0586 38.6498C-72.6041 38.648 -71.2079 38.0774 -70.1686 37.0598L-61.0686 42.3098V141.05C-62.4795 141.137 -63.8509 141.551 -65.0744 142.259C-66.2979 142.967 -67.3401 143.95 -68.1186 145.13L-98.2886 127.75C-98.114 127.367 -98.022 126.951 -98.0186 126.53C-98.0159 125.855 -98.246 125.2 -98.6703 124.676C-99.0945 124.151 -99.6868 123.789 -100.347 123.65C-101.007 123.512 -101.695 123.605 -102.295 123.915C-102.894 124.225 -103.368 124.733 -103.636 125.352C-103.905 125.97 -103.952 126.663 -103.769 127.312C-103.586 127.962 -103.184 128.528 -102.632 128.916C-102.08 129.304 -101.411 129.489 -100.738 129.44C-100.065 129.392 -99.4295 129.113 -98.9386 128.65L-68.6586 146.13C-69.2796 147.372 -69.6048 148.741 -69.6086 150.13C-69.6081 152.089 -68.9781 153.996 -67.8115 155.57C-66.6448 157.144 -65.0033 158.301 -63.129 158.872C-61.2546 159.442 -59.2466 159.395 -57.4011 158.737C-55.5555 158.08 -53.9701 156.847 -52.8786 155.22L-31.5386 167.54V179.33L-11.1486 191.13C-11.4307 191.688 -11.5779 192.304 -11.5786 192.93C-11.5784 193.483 -11.4661 194.031 -11.2486 194.54L-33.5086 207.39L-131.509 150.82V129.73C-130.19 129.534 -128.985 128.872 -128.114 127.862C-127.242 126.852 -126.763 125.563 -126.763 124.23C-126.763 122.896 -127.242 121.607 -128.114 120.598C-128.985 119.588 -130.19 118.925 -131.509 118.73V54.7298C-129.902 54.5552 -128.417 53.7947 -127.335 52.5938C-126.254 51.3928 -125.654 49.8356 -125.649 48.2198C-125.649 46.4747 -126.342 44.801 -127.576 43.567C-128.81 42.333 -130.483 41.6398 -132.229 41.6398C-133.093 41.6385 -133.949 41.8078 -134.748 42.138C-135.547 42.4682 -136.273 42.9528 -136.884 43.5641C-137.496 44.1754 -137.98 44.9013 -138.31 45.7002C-138.641 46.4991 -138.81 47.3553 -138.809 48.2198C-138.806 49.8939 -138.164 51.5038 -137.013 52.7196C-135.862 53.9355 -134.29 54.6654 -132.619 54.7598V118.65C-134.024 118.753 -135.338 119.383 -136.299 120.414C-137.259 121.445 -137.795 122.801 -137.799 124.21C-137.799 124.962 -137.649 125.706 -137.359 126.4L-156.749 137.6V207.37L-102.079 238.93C-102.464 239.721 -102.666 240.59 -102.669 241.47C-102.679 242.9 -102.178 244.287 -101.256 245.38C-100.334 246.473 -99.0519 247.201 -97.6407 247.433C-96.2294 247.665 -94.7818 247.385 -93.5588 246.643C-92.3358 245.902 -91.4177 244.748 -90.9702 243.39C-90.5226 242.032 -90.5749 240.558 -91.1176 239.235C-91.6604 237.912 -92.658 236.826 -93.9305 236.174C-95.203 235.521 -96.6668 235.344 -98.0581 235.675C-99.4493 236.007 -100.677 236.824 -101.519 237.98L-155.629 206.73V138.24L-136.809 127.37C-136.332 128.057 -135.707 128.628 -134.98 129.042C-134.253 129.456 -133.443 129.701 -132.609 129.76V151.46L-33.7886 208.51L-33.5086 208.67L-10.6686 195.49C-10.1389 196.171 -9.40932 196.669 -8.58215 196.914C-7.75499 197.159 -6.87184 197.139 -6.05664 196.857C-5.24144 196.574 -4.53514 196.044 -4.0369 195.339C-3.53865 194.635 -3.27348 193.793 -3.27859 192.93C-3.2805 192.402 -3.38228 191.88 -3.57858 191.39L49.6614 160.65L89.8414 183.96V210.55C88.3955 210.562 86.9731 210.916 85.6903 211.584C84.4076 212.251 83.3011 213.213 82.4614 214.39L44.2114 192.31L43.9414 192.15L-32.1386 236.07L-32.4186 236.23V236.44C-34.7456 236.573 -36.9335 237.592 -38.5337 239.287C-40.134 240.981 -41.0255 243.224 -41.0255 245.555C-41.0255 247.886 -40.134 250.128 -38.5337 251.823C-36.9335 253.518 -34.7456 254.536 -32.4186 254.67V319.22C-33.1434 319.456 -33.8046 319.854 -34.3518 320.385C-34.8989 320.916 -35.3175 321.564 -35.5755 322.282C-35.8336 322.999 -35.9242 323.766 -35.8405 324.523C-35.7568 325.281 -35.501 326.009 -35.0926 326.653C-34.6843 327.296 -34.1342 327.838 -33.4844 328.237C-32.8346 328.635 -32.1023 328.88 -31.3435 328.952C-30.5847 329.024 -29.8194 328.921 -29.1062 328.652C-28.3931 328.384 -27.7508 327.955 -27.2286 327.4L40.0714 366.26C39.8778 366.701 39.779 367.178 39.7814 367.66C39.7794 368.375 39.9897 369.074 40.3857 369.669C40.7816 370.264 41.3453 370.729 42.0053 371.003C42.6653 371.278 43.392 371.35 44.0932 371.211C44.7944 371.072 45.4386 370.728 45.9441 370.222C46.4495 369.717 46.7935 369.073 46.9325 368.372C47.0715 367.67 46.9992 366.944 46.7247 366.284C46.4502 365.624 45.986 365.06 45.3908 364.664C44.7956 364.268 44.0963 364.058 43.3814 364.06C42.8653 364.06 42.3554 364.173 41.8874 364.391C41.4193 364.608 41.0044 364.925 40.6714 365.32L-26.5686 326.5C-26.1197 325.739 -25.8806 324.872 -25.8754 323.989C-25.8703 323.105 -26.0994 322.236 -26.5395 321.47C-26.9795 320.704 -27.6147 320.068 -28.3804 319.627C-29.1461 319.186 -30.015 318.956 -30.8986 318.96C-31.0386 318.96 -31.1686 318.96 -31.3086 318.96V254.67C-29.9928 254.586 -28.7108 254.218 -27.5508 253.591C-26.3907 252.965 -25.3802 252.094 -24.5886 251.04L6.10141 268.77V284.7L6.0014 284.89L75.9314 325.4C75.4695 326.293 75.2262 327.284 75.2214 328.29C75.2228 329.672 75.6699 331.018 76.4962 332.126C77.3224 333.235 78.484 334.047 79.8086 334.443C81.1331 334.84 82.5501 334.798 83.8494 334.326C85.1486 333.853 86.261 332.974 87.0214 331.82L135.081 359.66V380.28L135.361 380.44L211.441 424.37L211.721 424.21L250.471 401.83C251.258 402.919 252.29 403.809 253.483 404.427C254.676 405.045 255.998 405.375 257.341 405.39V492.74L236.651 504.69C236.241 504.108 235.711 503.621 235.097 503.26C234.483 502.9 233.799 502.675 233.091 502.6V465.05L232.821 464.9L133.991 407.84L133.721 408L118.941 416.53C118.502 415.863 117.909 415.312 117.213 414.921C116.516 414.53 115.737 414.312 114.939 414.285C114.141 414.258 113.348 414.422 112.626 414.763C111.905 415.105 111.276 415.615 110.791 416.25L88.2714 403.25C88.8384 401.937 88.8795 400.456 88.3863 399.114C87.8931 397.771 86.9032 396.669 85.621 396.035C84.3389 395.402 82.8623 395.285 81.4962 395.708C80.1301 396.132 78.9788 397.064 78.28 398.311C77.5812 399.559 77.3882 401.028 77.7409 402.414C78.0936 403.8 78.9651 404.998 80.1754 405.76C81.3857 406.522 82.8425 406.79 84.2448 406.509C85.6472 406.228 86.8881 405.419 87.7114 404.25L110.211 417.25C109.884 417.927 109.719 418.671 109.732 419.423C109.744 420.175 109.932 420.914 110.281 421.58L34.9014 465.05V487.32C33.5753 487.32 32.3036 487.847 31.3659 488.784C30.4282 489.722 29.9014 490.994 29.9014 492.32C29.9014 493.646 30.4282 494.918 31.3659 495.855C32.3036 496.793 33.5753 497.32 34.9014 497.32V561.81C33.1913 561.952 31.6022 562.749 30.4664 564.036C29.3306 565.322 28.7361 566.998 28.8071 568.712C28.8781 570.427 29.6092 572.048 30.8475 573.236C32.0858 574.424 33.7354 575.087 35.4514 575.087C37.1674 575.087 38.817 574.424 40.0553 573.236C41.2936 572.048 42.0247 570.427 42.0957 568.712C42.1667 566.998 41.5722 565.322 40.4364 564.036C39.3007 562.749 37.7115 561.952 36.0014 561.81V497.26C37.2007 497.098 38.3004 496.506 39.0968 495.595C39.8932 494.684 40.3321 493.515 40.3321 492.305C40.3321 491.095 39.8932 489.926 39.0968 489.014C38.3004 488.103 37.2007 487.512 36.0014 487.35V465.7L110.881 422.47C111.369 423.075 111.99 423.558 112.696 423.882C113.403 424.205 114.175 424.359 114.951 424.332C115.728 424.305 116.487 424.097 117.17 423.725C117.852 423.353 118.438 422.828 118.881 422.19L140.791 434.84V453.75L133.961 449.81L113.961 461.34C112.721 459.624 110.889 458.428 108.819 457.986C106.748 457.543 104.587 457.884 102.754 458.943C100.92 460.003 99.5453 461.704 98.8947 463.719C98.244 465.734 98.364 467.918 99.2314 469.85L68.1414 487.8C67.679 487.302 67.0573 486.981 66.3835 486.892C65.7097 486.803 65.026 486.952 64.4502 487.313C63.8744 487.674 63.4426 488.224 63.2292 488.87C63.0157 489.515 63.0341 490.214 63.281 490.847C63.528 491.481 63.988 492.008 64.582 492.338C65.1759 492.669 65.8665 492.781 66.5347 492.657C67.2029 492.533 67.8069 492.18 68.2426 491.658C68.6782 491.137 68.9183 490.479 68.9214 489.8C68.9123 489.458 68.8447 489.119 68.7214 488.8L99.7214 470.89C100.69 472.503 102.163 473.752 103.914 474.443C105.664 475.134 107.594 475.228 109.403 474.711C111.212 474.194 112.8 473.094 113.921 471.582C115.042 470.07 115.632 468.231 115.601 466.35C115.588 464.93 115.224 463.535 114.541 462.29L133.941 451.09L140.771 455.09V503.33L110.771 520.66C110.08 519.571 108.994 518.793 107.741 518.486C106.489 518.179 105.166 518.368 104.05 519.013C102.933 519.659 102.109 520.711 101.75 521.949C101.391 523.188 101.524 524.517 102.121 525.66L81.4814 537.57L47.7014 518.07V519.35L81.4814 538.86L102.711 526.6C103.114 527.12 103.616 527.556 104.187 527.882C104.759 528.208 105.389 528.418 106.041 528.5V581.32L44.0414 617.12L-31.0786 573.55L6.57141 551.81V550.53L-69.4286 594.41V682.59L-69.1486 682.75L6.9314 726.67L7.20142 726.51L76.9414 686.25C77.4012 686.926 78.02 687.48 78.7436 687.862C79.4671 688.244 80.2733 688.442 81.0914 688.44L86.0914 683.44C86.0914 682.114 85.5646 680.842 84.627 679.904C83.6893 678.967 82.4175 678.44 81.0914 678.44C79.7653 678.44 78.4936 678.967 77.5559 679.904C76.6182 680.842 76.0914 682.114 76.0914 683.44C76.0911 684.074 76.2133 684.702 76.4514 685.29L6.95142 725.42L-68.3986 681.94V595.13L3.42142 636.59C3.08873 637.352 2.95145 638.185 3.022 639.014C3.09256 639.843 3.3687 640.641 3.82544 641.336C4.28218 642.031 4.90512 642.601 5.63779 642.995C6.37045 643.388 7.18973 643.593 8.02142 643.59L13.0214 638.59C13.0161 637.9 12.8662 637.218 12.5814 636.59L43.9114 618.5L81.6114 640.36L82.1814 639.36L45.0514 617.83L107.051 582.03V528.51C108.294 528.392 109.449 527.814 110.287 526.889C111.125 525.964 111.587 524.758 111.581 523.51C111.579 522.859 111.453 522.214 111.211 521.61L141.811 503.94V455.68L199.391 488.92C199.091 489.887 199.169 490.932 199.61 491.845C200.051 492.757 200.821 493.468 201.765 493.834C202.709 494.201 203.758 494.195 204.698 493.819C205.638 493.442 206.401 492.723 206.832 491.806C207.263 490.89 207.33 489.844 207.019 488.879C206.709 487.915 206.044 487.105 205.16 486.611C204.275 486.118 203.236 485.979 202.253 486.222C201.269 486.464 200.415 487.071 199.861 487.92L141.811 454.4V434.2L119.331 421.2C119.581 420.59 119.71 419.938 119.711 419.28C119.708 418.674 119.593 418.074 119.371 417.51L133.991 409.13L231.991 465.71V502.61C230.761 502.743 229.624 503.329 228.8 504.252C227.976 505.176 227.524 506.372 227.531 507.61C227.535 508.34 227.699 509.06 228.011 509.72L178.921 538.05C178.461 537.549 177.841 537.225 177.168 537.133C176.494 537.04 175.81 537.186 175.232 537.545C174.654 537.903 174.22 538.452 174.003 539.096C173.787 539.741 173.802 540.44 174.046 541.075C174.291 541.709 174.749 542.239 175.341 542.572C175.934 542.904 176.624 543.02 177.293 542.899C177.962 542.777 178.568 542.426 179.005 541.906C179.443 541.386 179.686 540.73 179.691 540.05C179.684 539.708 179.62 539.37 179.501 539.05L228.601 510.62C229.067 511.241 229.671 511.745 230.365 512.092C231.06 512.439 231.825 512.62 232.601 512.62C233.927 512.62 235.199 512.093 236.137 511.155C237.075 510.218 237.601 508.946 237.601 507.62C237.601 506.963 237.469 506.314 237.211 505.71L258.481 493.43V405.29C259.816 405.136 261.095 404.668 262.214 403.924C263.333 403.181 264.261 402.183 264.92 401.013C265.579 399.842 265.952 398.532 266.008 397.19C266.064 395.848 265.801 394.511 265.241 393.29L283.571 382.71C284.04 383.206 284.666 383.522 285.343 383.606C286.02 383.689 286.705 383.534 287.279 383.167C287.854 382.799 288.282 382.243 288.491 381.594C288.7 380.945 288.675 380.243 288.422 379.61C288.169 378.976 287.702 378.451 287.104 378.125C286.505 377.799 285.811 377.691 285.141 377.822C284.472 377.952 283.869 378.312 283.436 378.839C283.004 379.366 282.769 380.028 282.771 380.71C282.773 381.076 282.845 381.44 282.981 381.78L264.711 392.33C263.996 391.148 263.003 390.159 261.819 389.447C260.634 388.736 259.294 388.325 257.915 388.249C256.535 388.173 255.158 388.435 253.903 389.012C252.648 389.589 251.552 390.464 250.711 391.56L217.211 372.22C217.284 371.851 217.32 371.476 217.321 371.1C217.327 370.027 217.02 368.976 216.44 368.075C215.859 367.173 215.03 366.459 214.051 366.019C213.073 365.58 211.988 365.434 210.928 365.599C209.869 365.764 208.88 366.233 208.081 366.95L174.221 347.4L173.941 347.56L145.161 364.13L136.161 358.94V292.77L212.601 336.87L212.881 336.71L253.061 313.51L300.601 341.13L300.841 340.71L301.171 341.29L362.961 305.58V372.68L363.241 372.84L439.321 416.76L439.601 416.6L507.481 377.41C508.352 378.678 509.649 379.591 511.136 379.985C512.623 380.379 514.202 380.226 515.587 379.555C516.971 378.884 518.069 377.739 518.681 376.327C519.293 374.916 519.378 373.332 518.922 371.863C518.466 370.393 517.498 369.137 516.195 368.32C514.891 367.503 513.338 367.181 511.817 367.412C510.296 367.643 508.908 368.411 507.905 369.577C506.903 370.744 506.351 372.231 506.351 373.77C506.354 374.693 506.559 375.604 506.951 376.44L439.321 415.44L364.071 372V333.06L440.451 376.54L441.021 375.54L364.071 331.74V285.27L440.451 329.56L440.731 329.07L539.561 272.02V219.13C540.966 219.041 542.284 218.421 543.248 217.396C544.211 216.371 544.749 215.017 544.751 213.61ZM-74.0586 28.6098C-72.8792 28.6124 -71.7489 29.0821 -70.9149 29.9161C-70.0809 30.75 -69.6112 31.8804 -69.6086 33.0598C-69.609 33.9823 -69.8994 34.8813 -70.4386 35.6298L-74.0986 33.5098V28.6098H-74.0586ZM-78.0586 31.2098C-77.7857 30.6169 -77.385 30.0916 -76.8854 29.6715C-76.3858 29.2514 -75.7996 28.9469 -75.1686 28.7798V32.8698L-78.0586 31.2098ZM-225.709 18.9098C-225.027 18.9586 -224.367 19.1646 -223.779 19.5116C-223.191 19.8586 -222.691 20.3372 -222.319 20.9098L-225.709 22.9098V18.9098ZM-230.519 23.3198C-230.517 22.2707 -230.145 21.2559 -229.468 20.4545C-228.791 19.6531 -227.853 19.1166 -226.819 18.9398V27.6998C-227.853 27.523 -228.791 26.9865 -229.468 26.1851C-230.145 25.3837 -230.517 24.3689 -230.519 23.3198ZM-221.619 23.3198C-221.62 24.4357 -222.042 25.5101 -222.8 26.3291C-223.558 27.1482 -224.596 27.6518 -225.709 27.7398V24.1798L-221.849 21.9598C-221.7 22.398 -221.623 22.8571 -221.619 23.3198ZM-96.2986 29.2198C-98.4203 29.2198 -100.455 28.3769 -101.955 26.8766C-103.456 25.3764 -104.299 23.3415 -104.299 21.2198C-104.29 20.0301 -104.013 18.8577 -103.489 17.7898L-89.7086 25.7898C-90.4478 26.8518 -91.4335 27.7187 -92.5813 28.3161C-93.7291 28.9136 -95.0046 29.2236 -96.2986 29.2198ZM-89.1686 24.7698L-95.3986 21.1998V13.3198C-93.4608 13.549 -91.6736 14.4786 -90.3734 15.9336C-89.0731 17.3885 -88.3495 19.2685 -88.3386 21.2198C-88.3332 22.4518 -88.6175 23.6679 -89.1686 24.7698ZM-96.4686 20.5598L-102.959 16.8098C-102.245 15.7357 -101.282 14.85 -100.152 14.2284C-99.0216 13.6068 -97.758 13.2676 -96.4686 13.2398V20.5598ZM-88.1586 25.3598C-87.4988 24.0797 -87.1559 22.6599 -87.1586 21.2198C-87.1622 18.9531 -88.007 16.7685 -89.5294 15.0891C-91.0517 13.4098 -93.1432 12.3552 -95.3986 12.1298V-39.8702L-150.169 -71.4902L-197.199 -44.3202C-197.77 -45.2563 -198.572 -46.0301 -199.528 -46.5676C-200.484 -47.1051 -201.562 -47.3883 -202.659 -47.3902C-204.364 -47.3902 -205.999 -46.7128 -207.205 -45.5069C-208.411 -44.301 -209.089 -42.6655 -209.089 -40.9602C-209.09 -40.115 -208.925 -39.2778 -208.602 -38.4965C-208.279 -37.7152 -207.806 -37.0052 -207.209 -36.407C-206.612 -35.8089 -205.902 -35.3344 -205.122 -35.0106C-204.341 -34.6869 -203.504 -34.5202 -202.659 -34.5202C-200.951 -34.5202 -199.313 -35.1987 -198.105 -36.4064C-196.897 -37.6142 -196.219 -39.2522 -196.219 -40.9602C-196.225 -41.7727 -196.384 -42.5768 -196.689 -43.3302L-150.129 -70.2102L-96.4686 -39.2102V12.1298C-97.9597 12.1572 -99.4213 12.5499 -100.725 13.2734C-102.029 13.9969 -103.136 15.0292 -103.949 16.2798L-158.789 -15.4202L-159.069 -15.5802L-221.329 20.3698C-221.799 19.6186 -222.442 18.9902 -223.204 18.5363C-223.965 18.0825 -224.824 17.8164 -225.709 17.7598V-53.2402L-150.459 -96.6902L-75.2086 -53.2402V27.5498C-76.0396 27.722 -76.8202 28.0818 -77.4909 28.6017C-78.1617 29.1217 -78.7047 29.788 -79.0786 30.5498L-88.1586 25.3598ZM-74.0586 37.4698C-75.2388 37.4698 -76.3707 37.0009 -77.2052 36.1664C-78.0397 35.3319 -78.5086 34.2 -78.5086 33.0198C-78.5056 32.7617 -78.4822 32.5042 -78.4386 32.2498L-71.2186 36.4198C-72.0121 37.0932 -73.0178 37.4651 -74.0586 37.4698ZM-52.4686 150.13C-52.4757 151.362 -52.7738 152.575 -53.3386 153.67L-59.9586 149.85V142.22C-57.9419 142.349 -56.0487 143.236 -54.6593 144.703C-53.2699 146.17 -52.4872 148.109 -52.4686 150.13ZM-61.0686 142.2V149.2L-67.1286 145.7C-66.4465 144.701 -65.5468 143.87 -64.4972 143.269C-63.4476 142.668 -62.2753 142.312 -61.0686 142.23V142.2ZM-60.4686 158.13C-62.5903 158.13 -64.6252 157.287 -66.1255 155.787C-67.6257 154.286 -68.4686 152.252 -68.4686 150.13C-68.4611 148.937 -68.1842 147.761 -67.6586 146.69L-53.8786 154.69C-54.6167 155.754 -55.6019 156.623 -56.7498 157.222C-57.8976 157.821 -59.1738 158.133 -60.4686 158.13ZM-127.749 124.21C-127.752 125.266 -128.131 126.287 -128.818 127.089C-129.505 127.892 -130.455 128.424 -131.499 128.59V119.83C-130.455 119.994 -129.503 120.525 -128.816 121.328C-128.128 122.131 -127.75 123.153 -127.749 124.21ZM-136.649 124.21C-136.647 123.11 -136.236 122.05 -135.497 121.235C-134.758 120.42 -133.743 119.909 -132.649 119.8V123.67L-136.379 125.82C-136.566 125.304 -136.657 124.758 -136.649 124.21ZM-135.809 126.8L-132.609 124.95V128.62C-133.24 128.56 -133.853 128.367 -134.404 128.054C-134.956 127.74 -135.435 127.313 -135.809 126.8ZM89.9014 227.69C88.7047 227.688 87.5238 227.417 86.4456 226.898C85.3673 226.378 84.4193 225.624 83.6714 224.69L90.6714 220.64L90.8414 220.55L96.6814 223.92C95.9638 225.072 94.965 226.022 93.779 226.682C92.5929 227.341 91.2585 227.688 89.9014 227.69ZM82.9014 215.92L89.7414 219.92L83.0414 223.78C82.3267 222.608 81.9369 221.266 81.9123 219.894C81.8877 218.521 82.2291 217.167 82.9014 215.97V215.92ZM97.9014 219.69C97.9003 220.799 97.6688 221.895 97.2214 222.91L90.9614 219.29V211.8C92.8739 212.058 94.6287 212.999 95.9022 214.449C97.1757 215.899 97.8822 217.76 97.8914 219.69H97.9014ZM152.031 185.37L190.201 207.52L152.031 229.52V185.37ZM239.881 171.98L261.251 159.64C261.717 160.388 262.355 161.015 263.111 161.468C263.867 161.921 264.72 162.187 265.6 162.245C266.48 162.302 267.36 162.15 268.169 161.799C268.978 161.449 269.692 160.911 270.251 160.23L307.731 181.97L282.371 196.61L239.881 171.98ZM261.541 156.68C261.541 155.5 262.01 154.368 262.845 153.533C263.679 152.699 264.811 152.23 265.991 152.23C266.614 152.231 267.229 152.364 267.797 152.621C268.364 152.878 268.87 153.252 269.281 153.72L261.771 158.05C261.62 157.609 261.539 157.146 261.531 156.68H261.541ZM270.911 159.28C271.354 158.483 271.587 157.586 271.587 156.675C271.587 155.763 271.354 154.867 270.911 154.07L308.291 132.49V180.95L270.911 159.28ZM270.441 156.68C270.43 157.377 270.255 158.062 269.931 158.68L266.411 156.68L269.921 154.68C270.248 155.296 270.423 155.982 270.431 156.68H270.441ZM265.261 157.32L269.261 159.65C268.807 160.156 268.241 160.549 267.609 160.8C266.977 161.051 266.295 161.153 265.618 161.097C264.94 161.04 264.284 160.828 263.702 160.477C263.12 160.125 262.627 159.644 262.261 159.07L265.261 157.32ZM248.961 78.9398L308.271 113.18V131.18L270.271 153.13C269.435 152.107 268.261 151.415 266.961 151.177C265.661 150.94 264.318 151.172 263.174 151.834C262.029 152.495 261.157 153.541 260.714 154.786C260.27 156.031 260.283 157.394 260.751 158.63L238.751 171.33L216.151 158.23V97.8798L248.961 78.9398ZM192.691 86.0498C193.386 86.048 194.057 85.796 194.581 85.3398L215.041 97.1298V193.13L191.341 206.81L152.021 184V179.47L128.081 165.65V107.03L180.081 77.0298L189.781 82.6298C189.749 82.8047 189.733 82.982 189.731 83.1598C189.742 83.9352 190.059 84.6747 190.614 85.2164C191.169 85.7581 191.916 86.0578 192.691 86.0498ZM49.2014 99.0298C49.3213 98.7097 49.3855 98.3715 49.3914 98.0298C49.393 97.6572 49.3252 97.2876 49.1914 96.9398L131.871 49.1298L179.001 76.3498L127.001 106.35V165.02L91.0014 144.22V123.13L70.1814 111.13C70.7294 109.873 70.7956 108.459 70.3673 107.156C69.939 105.854 69.0462 104.755 67.8593 104.069C66.6725 103.382 65.2745 103.157 63.9321 103.436C62.5898 103.715 61.397 104.478 60.5814 105.58L49.2014 99.0298ZM65.6014 109.78L68.6014 111.54C68.2433 112.033 67.7878 112.447 67.2632 112.756C66.7386 113.066 66.1559 113.264 65.5514 113.34L65.6014 109.78ZM61.6014 106.18C62.0128 105.655 62.5379 105.23 63.1372 104.937C63.7365 104.644 64.3944 104.492 65.0614 104.49C65.7874 104.487 66.503 104.662 67.1452 105.001C67.7875 105.339 68.3368 105.83 68.7447 106.431C69.1526 107.031 69.4067 107.723 69.4846 108.444C69.5625 109.166 69.4618 109.896 69.1914 110.57L61.6014 106.18ZM60.6014 108.94C60.6045 108.312 60.7408 107.691 61.0014 107.12L64.4914 109.12V113.32C63.4218 113.186 62.4373 112.668 61.7216 111.862C61.0058 111.056 60.6077 110.018 60.6014 108.94ZM-13.9386 156.73L-30.3986 166.25V147.13L-13.9386 156.73ZM-7.39859 188.78C-7.98662 188.782 -8.56735 188.91 -9.10196 189.155C-9.63657 189.4 -10.1127 189.756 -10.4986 190.2L-30.3986 178.71V167.53L-12.7986 157.37L20.1014 176.45L-4.10858 190.45C-4.48834 189.934 -4.98376 189.514 -5.55511 189.224C-6.12646 188.934 -6.75784 188.782 -7.39859 188.78ZM21.2514 175.78L-11.6586 156.7L15.6514 140.93L48.6014 160.01L21.2514 175.78ZM50.8314 159.99L65.3414 151.61L65.6214 151.45V114.45C66.4117 114.369 67.1756 114.12 67.862 113.72C68.5484 113.32 69.1414 112.778 69.6014 112.13L89.8014 123.79V182.63L50.8314 159.99ZM89.8314 211.69V218.69L83.4614 215.02C84.1919 214.007 85.1494 213.179 86.2573 212.602C87.3652 212.026 88.5926 211.717 89.8414 211.7L89.8314 211.69ZM81.8314 215.32C81.0749 216.704 80.6909 218.262 80.7172 219.84C80.7435 221.417 81.1791 222.961 81.9814 224.32L37.0714 250.25L-8.66858 223.79L43.9014 193.44L81.8314 215.32ZM-31.3086 237.61C-29.2975 237.753 -27.4148 238.651 -26.0371 240.123C-24.6595 241.596 -23.8886 243.534 -23.8786 245.55C-23.8805 246.959 -24.2641 248.341 -24.9886 249.55L-31.3086 245.9V237.61ZM-39.8786 245.55C-39.8681 243.529 -39.0929 241.587 -37.709 240.114C-36.3251 238.641 -34.435 237.746 -32.4186 237.61V253.5C-34.4368 253.363 -36.3283 252.467 -37.7124 250.992C-39.0966 249.517 -39.8706 247.573 -39.8786 245.55ZM-31.3086 253.49V247.13L-25.6086 250.43C-26.2898 251.312 -27.1497 252.041 -28.1319 252.568C-29.1141 253.096 -30.1966 253.41 -31.3086 253.49ZM-22.7386 245.55C-22.7571 243.347 -23.569 241.224 -25.0255 239.571C-26.482 237.918 -28.4854 236.846 -30.6686 236.55L-9.76859 224.49L35.9714 250.95L6.67142 267.86L-23.9686 250.13C-23.1601 248.739 -22.7356 247.158 -22.7386 245.55ZM7.26141 284.29V268.76L37.0914 251.54L81.0914 277.01V296.5C79.8996 296.67 78.809 297.264 78.0201 298.173C77.2311 299.082 76.7968 300.246 76.7968 301.45C76.7968 302.654 77.2311 303.817 78.0201 304.726C78.809 305.636 79.8996 306.23 81.0914 306.4V321.91C80.1962 321.984 79.3266 322.246 78.5392 322.678C77.7519 323.111 77.0644 323.704 76.5214 324.42L7.26141 284.29ZM12.0814 635.55C11.6157 634.929 11.0117 634.425 10.3175 634.078C9.6232 633.73 8.85765 633.55 8.08142 633.55C7.30009 633.557 6.53127 633.747 5.83661 634.104C5.14195 634.462 4.54083 634.978 4.08142 635.61L-67.1086 594.51H-67.3986L-32.1986 574.19L42.9214 617.75L12.0814 635.55ZM174.181 348.7L207.271 367.8C206.545 368.754 206.152 369.921 206.151 371.12C206.149 372.401 206.59 373.644 207.398 374.637C208.207 375.631 209.334 376.315 210.589 376.574C211.843 376.833 213.149 376.65 214.285 376.057C215.42 375.464 216.316 374.497 216.821 373.32L250.041 392.5C249.275 393.758 248.857 395.198 248.833 396.671C248.808 398.144 249.177 399.597 249.901 400.88L211.441 423.13L136.191 379.69V370.69L174.181 348.7ZM212.471 281.13C214.593 281.13 216.628 281.973 218.128 283.473C219.629 284.973 220.471 287.008 220.471 289.13C220.465 290.407 220.145 291.664 219.541 292.79L205.771 284.79C206.495 283.67 207.487 282.748 208.657 282.109C209.827 281.47 211.138 281.133 212.471 281.13ZM205.221 285.8L211.641 289.53L205.601 293.02C204.955 291.929 204.588 290.697 204.53 289.431C204.472 288.165 204.727 286.904 205.271 285.76L205.221 285.8ZM212.781 290.19L218.951 293.77C218.233 294.784 217.287 295.616 216.188 296.198C215.09 296.779 213.87 297.095 212.627 297.118C211.384 297.141 210.153 296.872 209.034 296.332C207.914 295.792 206.937 294.997 206.181 294.01L212.781 290.19ZM137.391 292.26H137.111L176.821 269.33L204.211 285.22C203.582 286.547 203.282 288.006 203.338 289.474C203.394 290.942 203.803 292.374 204.531 293.65L172.311 312.35V312.4L137.361 292.22L137.391 292.26ZM212.601 335.59L173.441 312.98L205.191 294.57C206.055 295.728 207.181 296.664 208.478 297.301C209.774 297.937 211.204 298.256 212.648 298.231C214.092 298.205 215.51 297.836 216.783 297.155C218.057 296.473 219.15 295.498 219.971 294.31L251.971 312.87L212.601 335.59Z" fill="url(#paint1_linear)" fill-opacity="0.2"/>
<path d="M85.9219 565.49L80.9219 560.49C79.933 560.49 78.9663 560.783 78.144 561.332C77.3218 561.882 76.6809 562.663 76.3025 563.576C75.924 564.49 75.825 565.495 76.018 566.465C76.2109 567.435 76.6871 568.326 77.3863 569.025C78.0856 569.725 78.9765 570.201 79.9464 570.394C80.9163 570.587 81.9217 570.488 82.8353 570.109C83.7489 569.731 84.5298 569.09 85.0792 568.268C85.6286 567.445 85.9219 566.479 85.9219 565.49Z" fill="white"/>
</g>
</g>
<defs>
<linearGradient id="paint0_linear" x1="1606.42" y1="1154.32" x2="829.999" y2="1154.32" gradientUnits="userSpaceOnUse">
<stop stop-color="#F3F3F3"/>
<stop offset="0.12" stop-color="#E6E6E6"/>
<stop offset="0.35" stop-color="#BABABA"/>
<stop offset="0.68" stop-color="#787878"/>
<stop offset="1" stop-color="#5C5C5C"/>
</linearGradient>
<linearGradient id="paint1_linear" x1="-231.669" y1="314.35" x2="544.751" y2="314.35" gradientUnits="userSpaceOnUse">
<stop stop-color="#F3F3F3"/>
<stop offset="0.12" stop-color="#E6E6E6"/>
<stop offset="0.35" stop-color="#BABABA"/>
<stop offset="0.68" stop-color="#787878"/>
<stop offset="1" stop-color="#5C5C5C"/>
</linearGradient>
<clipPath id="clip0">
<rect width="1441" height="1613" fill="white"/>
</clipPath>
<clipPath id="clip1">
<rect width="825.75" height="870.67" fill="white" transform="translate(1655.75 1612.67) rotate(-180)"/>
</clipPath>
<clipPath id="clip2">
<rect width="825.75" height="870.67" fill="white" transform="translate(-281 -144)"/>
</clipPath>
</defs>
</svg>
